<svg xmlns="http://www.w3.org/2000/svg" width="201.225" height="62.225" viewBox="0 0 201.225 62.225">
  <g id="Group_1195" data-name="Group 1195" transform="translate(4842.165 -1672.533)">
    <g id="Angular_full_color_logo" transform="translate(-4842.165 1672.533)">
      <path id="Path_3072" data-name="Path 3072" d="M61.736,30h0L31.9,40.329l4.551,38.3,25.285,13.6h0l25.285-13.6,4.551-38.3Z" transform="translate(-31.9 -30)" fill="#dd0031"/>
      <path id="Path_3073" data-name="Path 3073" d="M125,30V68.393h0V92.225h0l25.285-13.6,4.551-38.3Z" transform="translate(-95.164 -30)" fill="#c3002f"/>
      <path id="Path_3074" data-name="Path 3074" d="M85.451,52.1,66.8,92.7h6.954l3.75-9.085H93.335l3.75,9.085h6.954L85.451,52.1ZM90.9,78.017H80l5.448-12.725Z" transform="translate(-55.616 -45.224)" fill="#fff"/>
    </g>
    <g id="Group_1192" data-name="Group 1192" transform="translate(-4776.912 1690.852)">
      <path id="Path_2987" data-name="Path 2987" d="M-85.211-7.561v-24.42h3.457l12.5,18.86v-18.86h3.021v24.42h-3.44l-12.519-18.86v18.86Zm44.4-.66A29.632,29.632,0,0,1-48.686-6.95q-5.924,0-9.087-3.317t-3.163-9.5q0-6.072,3.205-9.446t9-3.374a30.231,30.231,0,0,1,7.887,1.106v3.2A27.207,27.207,0,0,0-48.72-30a7.659,7.659,0,0,0-6.251,2.69q-2.224,2.69-2.224,7.574,0,4.835,2.383,7.516a8.47,8.47,0,0,0,6.679,2.681,13.383,13.383,0,0,0,3.809-.611V-18.1h3.507Zm6.318-23.76h3.524V-16.57q0,3.68,1.384,5.354a5.4,5.4,0,0,0,4.405,1.675q2.954,0,4.187-1.576t1.233-5.338V-31.981h3.088V-16.5q0,5-2.089,7.277T-25.419-6.95q-4.649,0-6.864-2.36T-34.5-16.6Zm24.358,24.42v-24.42h3.524v21.83H4.562v2.591ZM21.116-16.9,16.887-27.427,12.642-16.9Zm3.726,9.339-2.7-6.765H11.618L8.883-7.561H5.61l9.851-24.42h3.491l9.7,24.42Zm7.744,0v-24.42H40.1a8.485,8.485,0,0,1,5.479,1.551,5.471,5.471,0,0,1,1.9,4.5q0,4.884-5.018,6.93l8.29,11.435h-4.33L39.366-17.89H36.077V-7.561Zm3.491-12.92h1.141q6.646,0,6.646-5.132,0-3.779-5.572-3.779H36.077Z" transform="translate(85.211 32.592)"/>
    </g>
  </g>
</svg>
