<svg xmlns="http://www.w3.org/2000/svg" width="162.861" height="90.395" viewBox="0 0 162.861 90.395">
  <g id="Asterisk_logo" transform="translate(-25 -24.999)">
    <path id="path2325" d="M149.5,288.824a10.266,10.266,0,0,1-4.361-2.392,9.34,9.34,0,0,1-1.575-2.025,8.357,8.357,0,0,1-.693-2.374l-.158-1.338h5.367l.678,1.424a3.573,3.573,0,0,0,1.889,2.034,5.958,5.958,0,0,0,2.933.611c2.485,0,4.011-.455,4.842-1.443a1.82,1.82,0,0,0,.552-1.755,3.454,3.454,0,0,0-.5-1.348,5.17,5.17,0,0,0-1.477-.926,38.32,38.32,0,0,0-4.666-1.3,44.41,44.41,0,0,1-4.574-1.234,7.012,7.012,0,0,1-3.71-3.1,5.418,5.418,0,0,1-.715-3.12,6.043,6.043,0,0,1,.518-2.813A7.487,7.487,0,0,1,145.142,266a10.117,10.117,0,0,1,1.953-1.309,16.915,16.915,0,0,1,6.311-1.362,18.916,18.916,0,0,1,2.965.269,14.407,14.407,0,0,1,2.819.915,9.745,9.745,0,0,1,2.3,1.558,8.8,8.8,0,0,1,2.195,4.241l0,.611h-5.563l-.543-1.017a3.862,3.862,0,0,0-1.628-1.557,5.869,5.869,0,0,0-2.849-.518,9.042,9.042,0,0,0-2.781.458A2.877,2.877,0,0,0,149,269.4a2.4,2.4,0,0,0-.136,1.353,2.779,2.779,0,0,0,.99,1.264,15.621,15.621,0,0,0,3.731,1.267c5.009,1.176,7.3,1.947,8.526,2.875a7.24,7.24,0,0,1,1.78,2.089,7.591,7.591,0,0,1-.136,6.265,7.291,7.291,0,0,1-1.891,2.332,13.857,13.857,0,0,1-2.714,1.477c-1.3.509-2.184.628-5.1.687A28.13,28.13,0,0,1,149.5,288.824Z" transform="translate(-85.773 -173.658)" fill="#8a8a8e"/>
    <path id="path2323" d="M284.155,263.5a11.787,11.787,0,0,0-4.868,1.026,14.7,14.7,0,0,0-3.2,2.213,11.942,11.942,0,0,0-2.307,3.061,19.036,19.036,0,0,0-1.238,3.689,13.809,13.809,0,0,0-.271,4.13,21.354,21.354,0,0,0,.7,3.808,13.864,13.864,0,0,0,1.56,3.2,13.435,13.435,0,0,0,2.374,2.5,12.208,12.208,0,0,0,2.985,1.56,12.367,12.367,0,0,0,4.757.475l3.121-.068,1.823-.89a13.664,13.664,0,0,0,3.027-2.112c1.239-1.239,2.6-3.711,2.6-4.715v-.56l-2.51.008-2.51.008-.814,1.4a4.755,4.755,0,0,1-1.891,1.95,8.988,8.988,0,0,1-5.436.432,6.8,6.8,0,0,1-1.942-1.153,7.66,7.66,0,0,1-1.484-1.891,8.541,8.541,0,0,1-.7-2.4l-.161-1.34h17.986v-1.84a16.329,16.329,0,0,0-.407-3.4,17.773,17.773,0,0,0-1.111-2.943,14.012,14.012,0,0,0-1.9-2.671,12.606,12.606,0,0,0-2.765-2.1,14.377,14.377,0,0,0-3.18-1.162A11.2,11.2,0,0,0,284.155,263.5Zm.017,4.376a4.3,4.3,0,0,1,1.179.161,8.142,8.142,0,0,1,2.027.916,7.052,7.052,0,0,1,1.662,1.832,7.793,7.793,0,0,1,.924,2.366l.178,1.153H277.863v-.763a6.731,6.731,0,0,1,.712-2.2,6.588,6.588,0,0,1,1.789-2.2,7.986,7.986,0,0,1,2.468-1.094A6.222,6.222,0,0,1,284.172,267.876Z" transform="translate(-180.137 -173.78)" fill="#8a8a8e"/>
    <path id="path2319" d="M460.022,288.66a13.32,13.32,0,0,1-2.624-1.211,7.9,7.9,0,0,1-2.814-3.441,11.57,11.57,0,0,1-.575-2.088l-.19-1.153h5.686l.169.9a3.812,3.812,0,0,0,1.048,1.727,5.969,5.969,0,0,0,1.8,1.136,12.212,12.212,0,0,0,5.286.013,4.547,4.547,0,0,0,1.7-.936,2.167,2.167,0,0,0,.644-1.691,2.091,2.091,0,0,0-.746-1.759,5.463,5.463,0,0,0-1.491-.993c-.41-.155-2.425-.664-4.478-1.131a35.508,35.508,0,0,1-5.15-1.516,8.4,8.4,0,0,1-2.363-1.771,6.772,6.772,0,0,1-1.4-5.2A7.469,7.469,0,0,1,455.579,267a5.931,5.931,0,0,1,2.63-2.186,12.016,12.016,0,0,1,4.159-1.208,14.887,14.887,0,0,1,8.2,1.051,8.865,8.865,0,0,1,2.31,1.647,9.342,9.342,0,0,1,2.007,3.806l.19.882h-5.954l-.16-.636a3.684,3.684,0,0,0-.866-1.342A4.5,4.5,0,0,0,465.876,268a6.709,6.709,0,0,0-3.014-.013,5.328,5.328,0,0,0-2.126.89,1.96,1.96,0,0,0-.016,2.855,6.88,6.88,0,0,0,1.207.863,38.456,38.456,0,0,0,4.342,1.142,38.553,38.553,0,0,1,5.305,1.527,9.088,9.088,0,0,1,2.629,1.852,6.578,6.578,0,0,1,1.387,2.338,8.512,8.512,0,0,1,.176,2.568,8.424,8.424,0,0,1-.7,2.477,9.111,9.111,0,0,1-1.779,2.165,11.53,11.53,0,0,1-2.793,1.7c-1.3.52-2.187.641-5.232.72S461.339,289.093,460.022,288.66Z" transform="translate(-312.453 -173.73)" fill="#8a8a8e"/>
    <path id="path2317" d="M228.04,271.035a8.119,8.119,0,0,1-1.858-.719,4.641,4.641,0,0,1-1.4-1.559l-.585-1.085-.085-8.48-.085-8.48H220v-4.07h4.07v-7.327h5.412l.076,3.6.076,3.6,2.374.078,2.374.078v4.049h-4.93l.09,7.455.091,7.455.619.618c.518.517.906.617,2.374.613l1.756-.005v4.143l-1.259.173A15.951,15.951,0,0,1,228.04,271.035Z" transform="translate(-142.081 -156.158)" fill="#8a8a8e"/>
    <path id="path2315" d="M43.851,231.653c-.442.007-1.24.033-2.705.034l-3.189.008-5.936,15.468c-3.265,8.507-6.181,16.113-6.479,16.9L25,265.5l3.172-.076,3.18-.076L32.9,261l1.543-4.342,6.648-.068,6.648-.076,1.128,3.2c.622,1.756,1.335,3.769,1.586,4.478l.458,1.289h3.222c3.466-.023,3.4.255,3.1-.475s-12.435-32.4-12.7-32.937C44.333,231.691,44.589,231.641,43.851,231.653Zm-2.731,6.224a14.685,14.685,0,0,1,.967,2.425c.484,1.385,1.6,4.564,2.468,7.064l1.586,4.545H36.16l.772-2.239C38.586,244.86,41.037,237.961,41.121,237.877Z" transform="translate(0 -150.574)" fill="#8a8a8e"/>
    <path id="path2311" d="M368,276.453V264.242h5.156v4.132l.882-1.32a9.536,9.536,0,0,1,2.2-2.2,10.1,10.1,0,0,1,2.389-1.168,8.73,8.73,0,0,1,2.349-.207l1.275.082.077,2.632.078,2.632-1.86-.034a5.963,5.963,0,0,0-3.138.584,6.455,6.455,0,0,0-1.969,1.525,11.962,11.962,0,0,0-1.262,2.347c-.514,1.3-.582,2.13-.688,8.428l-.117,6.988H368Z" transform="translate(-249.919 -173.759)" fill="#8a8a8e"/>
    <path id="path2309" d="M426,278.526V266.315h5.7v24.423H426Z" transform="translate(-292.179 -175.831)" fill="#8a8a8e"/>
    <path id="path2307" d="M541.05,248.707l.07-16.892h5.427l.071,9.472.071,9.472,4.634-4.791,4.634-4.791,3.436.014,3.436.014-4.594,4.456-4.594,4.456,5.069,7.605c2.788,4.183,5.069,7.667,5.069,7.742s.677.136-3.326.136h-3.326L553.6,260c-1.939-3.081-3.613-5.737-3.719-5.9-.122-.189-.751.249-1.7,1.182l-1.5,1.483V265.6h-5.7Z" transform="translate(-375.961 -150.693)" fill="#8a8a8e"/>
    <path id="path2303" d="M153.82,25a32.442,32.442,0,0,0-10.965,1.577c-1.179.385-3.064,1.125-4.189,1.645a42.579,42.579,0,0,0-4.639,2.671,58.223,58.223,0,0,0-4.825,3.672,50.171,50.171,0,0,0-4.164,4.164,51.535,51.535,0,0,0-3.324,4.325,11.232,11.232,0,0,1-1.484,1.993c-.225-.225,1.862-4.249,3.316-6.394l1.56-2.307-1.679,1.628a45.828,45.828,0,0,0-3.655,4.249,48.019,48.019,0,0,0-3.222,4.885,38.776,38.776,0,0,0-2.129,4.842l-.89,2.578v9.226l.738,2.171a25.721,25.721,0,0,0,1.755,3.926,25.675,25.675,0,0,0,2.9,3.731,26.031,26.031,0,0,0,3.663,3.18,24.383,24.383,0,0,0,9.659,3.791,41.183,41.183,0,0,0,5.529.407,48.931,48.931,0,0,0,6.207-.4,56.558,56.558,0,0,0,6.029-1.34,57.318,57.318,0,0,0,5.979-2.145l2.807-1.23,1.781.534c2.025.613,11.244,2.7,11.372,2.578.046-.045-1-2.262-2.332-4.927L167.2,69.181l2.145-2.578c1.184-1.418,2.835-3.606,3.663-4.859a50.092,50.092,0,0,0,2.807-5.02,36.435,36.435,0,0,0,1.866-4.774,35.069,35.069,0,0,0,.84-4.427,19.356,19.356,0,0,0-.017-4.749,24.945,24.945,0,0,0-.933-4.206,29.734,29.734,0,0,0-1.823-3.935,20.922,20.922,0,0,0-6.911-7.039,14.211,14.211,0,0,0-1.849-.882c-.1,0,.426.492,1.187,1.094a19.216,19.216,0,0,1,4.342,5.232l.611,1.136-.611-.814c-.334-.448-1.531-1.743-2.663-2.875a14.556,14.556,0,0,0-4.367-3.2,21.513,21.513,0,0,0-5.02-1.7A30.264,30.264,0,0,0,153.82,25Zm-.136,3a20.467,20.467,0,0,1,5.911.577A27.755,27.755,0,0,1,163.53,30a13.7,13.7,0,0,1,3.884,2.926A14.3,14.3,0,0,1,170.6,37.3a22.031,22.031,0,0,1,1.535,4.206,23.728,23.728,0,0,1,.4,3.977,26.992,26.992,0,0,1-2.849,11.491,38.549,38.549,0,0,1-2.078,3.663,35.218,35.218,0,0,1-3.273,3.96,23.584,23.584,0,0,0-2.1,2.366c0,.088.977,1.651,2.171,3.477a38.473,38.473,0,0,1,2.171,3.545c0,.123-.063.22-.144.22s-1.9-.672-4.028-1.493a29.713,29.713,0,0,0-4.571-1.493,7.5,7.5,0,0,0-2.145.644,51.54,51.54,0,0,1-10.244,3.027,35.661,35.661,0,0,1-4.783.365A24.875,24.875,0,0,1,129.4,72.657a14.282,14.282,0,0,1-4.91-3.579,14.82,14.82,0,0,1-3.324-4.376,23.819,23.819,0,0,1-1.4-3.655,20.767,20.767,0,0,1,.127-8.718,30.844,30.844,0,0,1,1.908-4.918,37.164,37.164,0,0,1,2.977-4.91,44.92,44.92,0,0,1,4.054-4.461,37.663,37.663,0,0,1,8.845-6.25,41.554,41.554,0,0,1,9.447-3.214A28.472,28.472,0,0,1,153.685,28Z" transform="translate(-64.507 0)" fill="#f68f24"/>
    <path id="path2299" d="M186.434,88.256l.111-5.165-4.4,2.739c-2.422,1.506-4.44,2.7-4.483,2.655-.227-.239-3.66-6.079-3.66-6.226a47.341,47.341,0,0,1,4.476-2.714c2.462-1.4,4.476-2.6,4.476-2.677s-2.014-1.279-4.476-2.677A47.34,47.34,0,0,1,174,71.477c0-.145,3.432-5.985,3.658-6.223.042-.044,1.882,1.1,4.089,2.536s4.19,2.685,4.408,2.768c.34.131.38-.575.284-5.046l-.112-5.2h7.564l-.193,5.3-.193,5.3,1.848-1.189,4.155-2.672c1.269-.816,2.451-1.57,2.628-1.675.21-.125.984.914,2.229,2.99,1.049,1.749,1.881,3.2,1.849,3.225s-1.829,1.051-3.993,2.282-4.225,2.419-4.579,2.642l-.644.405,4.307,2.435c2.369,1.339,4.457,2.52,4.64,2.625.234.134-.232,1.132-1.576,3.373-1.615,2.693-1.981,3.144-2.378,2.932-.258-.138-2.113-1.274-4.123-2.524s-3.815-2.372-4.013-2.492c-.3-.18-.324.7-.164,4.965l.195,5.184h-7.562Z" transform="translate(-108.565 -25.732)" fill="#f68f24"/>
    <path id="path2279" d="M137.267,100.45a.136.136,0,1,0-.136.136A.136.136,0,0,0,137.267,100.45Z" transform="translate(-81.604 -54.878)" fill="#f68f24"/>
    <path id="flowRoot2289" d="M436.234,348.337h2.14v.688h-.718v2.1h-.7v-2.1h-.718Zm2.453,0h.926l.357,1.694.356-1.694h.923v2.784h-.575V349l-.446,2.123h-.521L439.263,349v2.123h-.577Z" transform="translate(-254.458 -261.165)"/>
    <path id="path2329" d="M112.768,138.363a17.155,17.155,0,0,1-1.31-6.682c0-2.424.422-3.413,1.545-6.667Z" transform="translate(-62.997 -72.875)" fill="#f68f24" fill-rule="evenodd"/>
    <path id="path2339" d="M112.348,144.484a16.537,16.537,0,0,1-.164-5.636c.031-.17.095-.463.142-.652l.085-.343.006,1.733c0,.953,0,2.511,0,3.463l-.006,1.73Z" transform="translate(-63.402 -82.23)" fill="#f68f24" fill-rule="evenodd"/>
  </g>
</svg>
