<svg xmlns="http://www.w3.org/2000/svg" width="135.191" height="80.844" viewBox="0 0 135.191 80.844">
  <g id="Amazon_Web_Services_Logo" transform="translate(-1.668 -1.1)">
    <path id="Path_3043" data-name="Path 3043" d="M46.608,30.461a13.6,13.6,0,0,0,.495,4A24.067,24.067,0,0,0,48.542,37.7a1.956,1.956,0,0,1,.315,1.034A1.78,1.78,0,0,1,48,40.083l-2.833,1.888a2.156,2.156,0,0,1-1.169.4,2.069,2.069,0,0,1-1.349-.629,13.91,13.91,0,0,1-1.619-2.113c-.45-.764-.9-1.619-1.394-2.653a16.61,16.61,0,0,1-13.219,6.2c-3.777,0-6.789-1.079-8.993-3.237A11.551,11.551,0,0,1,14.1,31.315a11.575,11.575,0,0,1,4.092-9.262c2.743-2.338,6.385-3.507,11.016-3.507a35.6,35.6,0,0,1,4.766.36c1.664.225,3.372.585,5.171.989V16.612c0-3.417-.719-5.8-2.113-7.194C35.592,8.024,33.164,7.35,29.7,7.35a20.458,20.458,0,0,0-4.856.585A35.827,35.827,0,0,0,19.99,9.463a12.9,12.9,0,0,1-1.574.585,2.758,2.758,0,0,1-.719.135c-.629,0-.944-.45-.944-1.394v-2.2a2.845,2.845,0,0,1,.315-1.574,3.367,3.367,0,0,1,1.259-.944,25.886,25.886,0,0,1,5.665-2.023,27.26,27.26,0,0,1,7.014-.854c5.351,0,9.262,1.214,11.78,3.642,2.473,2.428,3.732,6.115,3.732,11.061V30.461ZM28.353,37.3a14.572,14.572,0,0,0,4.631-.809,10.019,10.019,0,0,0,4.271-2.878,7.137,7.137,0,0,0,1.529-2.878,16.142,16.142,0,0,0,.45-3.912V24.93a37.55,37.55,0,0,0-4.137-.764,33.88,33.88,0,0,0-4.227-.27c-3.013,0-5.216.585-6.7,1.8a6.267,6.267,0,0,0-2.2,5.171,6.276,6.276,0,0,0,1.664,4.766A6.235,6.235,0,0,0,28.353,37.3Zm36.105,4.856a2.51,2.51,0,0,1-1.709-.45,3.665,3.665,0,0,1-.944-1.754L51.239,5.192a7.876,7.876,0,0,1-.4-1.8.986.986,0,0,1,1.079-1.124H56.32a2.492,2.492,0,0,1,1.754.45,3.679,3.679,0,0,1,.9,1.754l7.554,29.766L73.541,4.472A3.154,3.154,0,0,1,74.4,2.719a3.093,3.093,0,0,1,1.8-.45h3.6a2.706,2.706,0,0,1,1.8.45,3.03,3.03,0,0,1,.854,1.754l7.1,30.125L97.327,4.472a3.856,3.856,0,0,1,.9-1.754,2.934,2.934,0,0,1,1.754-.45h4.182a1,1,0,0,1,1.124,1.124,4.485,4.485,0,0,1-.09.719,6.4,6.4,0,0,1-.315,1.124L94.044,39.993a3.448,3.448,0,0,1-.944,1.754,2.877,2.877,0,0,1-1.709.45H87.525a2.706,2.706,0,0,1-1.8-.45,3.188,3.188,0,0,1-.854-1.8l-6.969-29L70.978,39.9a3.509,3.509,0,0,1-.854,1.8,2.787,2.787,0,0,1-1.8.45Zm57.778,1.214a29.754,29.754,0,0,1-6.924-.809,20.455,20.455,0,0,1-5.171-1.8,3.24,3.24,0,0,1-1.394-1.259,3.174,3.174,0,0,1-.27-1.259V35.946c0-.944.36-1.394,1.034-1.394a2.546,2.546,0,0,1,.809.135c.27.09.674.27,1.124.45a24.457,24.457,0,0,0,4.946,1.574,27,27,0,0,0,5.351.54,12.132,12.132,0,0,0,6.565-1.484,4.842,4.842,0,0,0,2.338-4.271,4.379,4.379,0,0,0-1.214-3.147,11.281,11.281,0,0,0-4.541-2.338l-6.52-2.023c-3.282-1.034-5.71-2.563-7.194-4.586a10.713,10.713,0,0,1-2.248-6.52,10.007,10.007,0,0,1,1.214-4.991A11.561,11.561,0,0,1,113.378,4.2a14.271,14.271,0,0,1,4.676-2.338A19.6,19.6,0,0,1,123.72,1.1a22.572,22.572,0,0,1,3.013.18c1.034.135,1.978.315,2.923.495.9.225,1.754.45,2.563.719a9.814,9.814,0,0,1,1.888.809,3.888,3.888,0,0,1,1.349,1.124,2.423,2.423,0,0,1,.4,1.484V8.024c0,.944-.36,1.439-1.034,1.439a4.677,4.677,0,0,1-1.709-.54,20.57,20.57,0,0,0-8.633-1.754,11.605,11.605,0,0,0-5.98,1.259,4.342,4.342,0,0,0-2.113,4,4.246,4.246,0,0,0,1.349,3.192,13.431,13.431,0,0,0,4.946,2.473l6.385,2.023c3.237,1.034,5.575,2.473,6.969,4.316a10.174,10.174,0,0,1,2.068,6.295,11.559,11.559,0,0,1-1.169,5.216,12.093,12.093,0,0,1-3.282,3.957,14.494,14.494,0,0,1-4.991,2.518A21.381,21.381,0,0,1,122.236,43.365Z" transform="translate(-6.842)" fill="#252f3e"/>
    <g id="Group_1174" data-name="Group 1174" transform="translate(1.668 51.5)">
      <path id="Path_3044" data-name="Path 3044" d="M123.892,130.185c-14.793,10.926-36.285,16.726-54.765,16.726a99.076,99.076,0,0,1-66.86-25.494c-1.394-1.259-.135-2.968,1.529-1.978A134.838,134.838,0,0,0,70.7,137.2a133.512,133.512,0,0,0,51.033-10.431C124.207,125.643,126.32,128.386,123.892,130.185Z" transform="translate(-1.668 -116.467)" fill="#f90" fill-rule="evenodd"/>
      <path id="Path_3045" data-name="Path 3045" d="M264.517,119.9c-1.888-2.428-12.5-1.169-17.311-.585-1.439.18-1.664-1.079-.36-2.023,8.453-5.935,22.347-4.227,23.965-2.248,1.619,2.023-.45,15.917-8.363,22.571-1.214,1.034-2.383.495-1.843-.854C262.4,132.305,266.406,122.278,264.517,119.9Z" transform="translate(-136.133 -113.192)" fill="#f90" fill-rule="evenodd"/>
    </g>
  </g>
</svg>
