<svg id="bootstrap-logo-vector" xmlns="http://www.w3.org/2000/svg" width="225.607" height="55.484" viewBox="0 0 225.607 55.484">
  <path id="Path_3038" data-name="Path 3038" d="M29.77,246.838a9.761,9.761,0,0,0-3.233.977,9.05,9.05,0,0,0-4.022,4.022,8.415,8.415,0,0,0-.865,2.406c-.15.639-.15,1.616-.15,20.3s0,19.66.15,20.3a8.414,8.414,0,0,0,.865,2.406,9.05,9.05,0,0,0,4.022,4.022,8.415,8.415,0,0,0,2.406.865c.639.15,1.616.15,20.3.15s19.66,0,20.3-.15a8.415,8.415,0,0,0,2.406-.865,9.05,9.05,0,0,0,4.022-4.022,8.414,8.414,0,0,0,.865-2.406c.15-.639.15-1.616.15-20.3s0-19.66-.15-20.3a8.415,8.415,0,0,0-.865-2.406,9.519,9.519,0,0,0-6.315-4.887c-.564-.15-1.579-.15-20.111-.15C38.792,246.8,29.92,246.838,29.77,246.838Zm25,12.179c3.759.714,5.977,2.406,6.8,5.225a9.788,9.788,0,0,1,.075,4.774,8.278,8.278,0,0,1-.977,2.105,8.119,8.119,0,0,1-2.857,2.368,2.274,2.274,0,0,0-.489.3c0,.038.188.113.413.15a5.31,5.31,0,0,1,1.015.338c2.932,1.165,4.624,3.985,4.624,7.857a8.189,8.189,0,0,1-2.03,5.676c-1.5,1.616-3.571,2.594-6.616,3.158-.677.113-1.654.15-9.435.15l-8.721.038V258.791l8.8.038c7.556.075,8.834.075,9.4.188ZM42.25,267.926V272.4l5.188-.038c4.549-.038,5.225-.038,5.6-.15a4.378,4.378,0,0,0,2.744-2.143,4.473,4.473,0,0,0,.451-2.255c0-1.992-.6-3.158-1.917-3.8-1.128-.526-1.128-.526-6.842-.564l-5.225-.038v4.511Zm0,13.608v5.075l5.639-.038c5.526-.038,5.676-.038,6.278-.188a4.38,4.38,0,0,0,2.143-1.24,4.512,4.512,0,0,0,1.316-3.646,4.485,4.485,0,0,0-3.571-4.812c-.639-.15-.827-.188-6.24-.188l-5.563-.038Z" transform="translate(-21.5 -246.8)" fill="#563d7c"/>
  <path id="Shape" d="M218.8,278.975a1.1,1.1,0,0,1,.338-.075c4.21,0,8.383,0,12.593.075a6.78,6.78,0,0,1,3.909,1.391c2.669,1.955,2.932,7.481-.752,9.473-.188.113-.376.188-.639.338a15.831,15.831,0,0,1,1.955.94c2.218,1.5,3.12,4.849,2.105,7.781-.865,2.556-2.932,3.646-5.3,4.21a13.156,13.156,0,0,1-2.406.3c-3.909.038-7.857,0-11.8,0Q218.8,291.23,218.8,278.975Zm4.173,20.863c2.932,0,5.751.075,8.571-.038,1.767-.075,3.045-1.992,2.97-3.872-.113-1.88-1.24-3.458-2.97-3.534-2.819-.15-5.6-.113-8.42-.113-.038,0-.075.075-.15.113Zm.038-10.751c2.594,0,5.112.113,7.631-.038,1.842-.113,2.895-1.579,2.819-3.646a2.852,2.852,0,0,0-3.007-2.97c-2.368-.075-4.736-.038-7.142-.038a.885.885,0,0,0-.3.075v6.616Zm129.914-3.346h3.5v1.917c.376-.3.865-.639,1.316-1.015,2.669-2.331,9.022-2.068,11.2,2.669a11.523,11.523,0,0,1-.752,11.916,6.293,6.293,0,0,1-6.015,2.707,6.671,6.671,0,0,1-5.488-2.819v8.909h-3.759Zm3.534,8.947a20.87,20.87,0,0,0,.489,2.669,4.719,4.719,0,0,0,3.909,3.5c2.293.15,3.947-.714,4.774-2.782a8.209,8.209,0,0,0-.526-7.744,4.452,4.452,0,0,0-7.706.376,8.524,8.524,0,0,0-.94,3.985Zm-6.015,6.2c0,.714.038,1.466,0,2.218,0,.188-.226.489-.376.489a19.064,19.064,0,0,1-3.27.15c-.94-.113-1.466-.94-1.767-1.88a9.432,9.432,0,0,1-7.593,1.917,5.025,5.025,0,0,1-4.361-4.361c-.226-2.932.865-4.849,3.458-5.563,1.8-.489,3.722-.677,5.564-1.015.451-.075.9-.15,1.353-.263a1.737,1.737,0,0,0,1.5-1.692,2.017,2.017,0,0,0-1.24-2.18,5.814,5.814,0,0,0-4.812.113c-.714.338-1.128,1.015-1.5,2.218h-3.684a5.175,5.175,0,0,1,1.428-3.646,6.7,6.7,0,0,1,4.586-2.03,12.413,12.413,0,0,1,5.375.414,4.738,4.738,0,0,1,3.5,4.962v8.12c-.038,1.88-.038,1.88,1.842,2.03Zm-5.714-6.09c-1.165.188-2.218.376-3.27.6a24.5,24.5,0,0,0-3.27.827,2.267,2.267,0,0,0-1.353,2.406,2.043,2.043,0,0,0,1.579,1.88,5.582,5.582,0,0,0,4.4-.226,2.957,2.957,0,0,0,1.88-2.481,26.877,26.877,0,0,0,.038-3.007Zm-94.767-9.586c5.789-.075,9.172,4.248,8.8,10.112a9.391,9.391,0,0,1-1.992,5.563,7.794,7.794,0,0,1-5.451,2.895,9.486,9.486,0,0,1-5.3-.714,8.026,8.026,0,0,1-4.586-5.939,11.6,11.6,0,0,1,.075-5.563C242.557,287.546,245.64,285.253,249.963,285.215Zm-5.037,9.4c.15.865.226,1.729.451,2.594a4.713,4.713,0,0,0,4.135,3.646,4.58,4.58,0,0,0,4.849-3.082,8.151,8.151,0,0,0-.075-6.5,4.563,4.563,0,0,0-7.518-1.616C245.377,290.929,245.038,292.7,244.926,294.613Zm25.073-9.4c5.225,0,8.759,3.571,8.834,8.909a10.5,10.5,0,0,1-1.616,6.278,8.064,8.064,0,0,1-7.593,3.5,9.611,9.611,0,0,1-3.383-.752,7.58,7.58,0,0,1-4.624-5.563,12.114,12.114,0,0,1,.226-6.842C262.932,287.283,266.052,285.215,270,285.215Zm5,8.909a14.733,14.733,0,0,0-.413-2.255,4.738,4.738,0,0,0-4.436-3.609,4.589,4.589,0,0,0-4.549,3.2,8.138,8.138,0,0,0,.526,7.217,4.514,4.514,0,0,0,6.8,1.128c1.616-1.353,1.992-3.233,2.068-5.676Zm32.215-3.458h-3.5a.542.542,0,0,1-.413-.263c-.639-1.842-2.18-2.068-3.759-2.068a5.067,5.067,0,0,0-1.955.414,1.5,1.5,0,0,0-.226,2.782,13.709,13.709,0,0,0,2.782,1.053c1.353.376,2.744.639,4.1,1.015,3.421,1.053,4.774,4.549,2.857,7.443a6.059,6.059,0,0,1-3.872,2.519,11.724,11.724,0,0,1-6.917-.226,5.691,5.691,0,0,1-3.909-5.413h3.722a4.711,4.711,0,0,0,6.842,2.481,1.81,1.81,0,0,0,1.128-1.579,1.736,1.736,0,0,0-1.015-1.842c-1.316-.489-2.669-.827-4.022-1.24a30.753,30.753,0,0,1-3.308-1.015,4.324,4.324,0,0,1-2.97-4.473A4.4,4.4,0,0,1,295.824,286a10.919,10.919,0,0,1,8.082-.038,5.437,5.437,0,0,1,3.346,4.06C307.252,290.177,307.214,290.365,307.214,290.666Zm-20.186-5h3.458v2.857H287.1a6.968,6.968,0,0,0-.038.827v8.684c0,.376.038.789.075,1.165a1.285,1.285,0,0,0,1.24,1.278c.677.038,1.391,0,2.143,0v2.857a9.935,9.935,0,0,1-4.7.038c-1.8-.414-2.519-1.692-2.556-4.06-.038-3.27,0-6.5,0-9.774v-.94h-2.857V285.7h2.819v-5.3H287.1C287.028,282.133,287.028,283.862,287.028,285.666Zm32.178,17.818c-1.466,0-2.895.038-4.285,0a2.879,2.879,0,0,1-2.707-2.331,12.7,12.7,0,0,1-.263-2.368c-.038-3.045,0-6.127,0-9.172v-.977h-2.857v-2.857h2.819v-5.338h3.872V285.7h3.421V288.6h-3.27a5.142,5.142,0,0,0-.075.6v9.36c0,1.654.451,2.03,2.03,2.03h1.353l-.038,2.895Zm6.428-17.743v3.007c1.466-2.556,3.534-3.909,6.578-3.458v3.721a5.139,5.139,0,0,0-4.06.639,5.725,5.725,0,0,0-2.218,4.812c-.075,2.932,0,5.9,0,8.909h-3.8V285.7C323.265,285.742,324.393,285.742,325.634,285.742Z" transform="translate(-144.633 -263.116)" fill="#563d7c"/>
</svg>
