<svg id="Group_1171" data-name="Group 1171" xmlns="http://www.w3.org/2000/svg" width="98.987" height="138.793" viewBox="0 0 98.987 138.793">
  <g id="_000000ff" data-name="#000000ff" transform="translate(19.803 0)">
    <path id="Path_2988" data-name="Path 2988" d="M68.37.86C74.453.784,80.535.836,86.618.833c.014,1.9.043,3.806-.026,5.709-4.214-.029-8.426,0-12.637.026-.029,2.763-.084,5.526-.058,8.29,4.229.026,8.461.067,12.689.049.049,1.564.032,3.134-.014,4.7-6.065-.041-12.13-.023-18.2-.017C68.39,13.346,68.4,7.1,68.37.86Z" transform="translate(-68.37 -0.819)"/>
    <path id="Path_2989" data-name="Path 2989" d="M138.787.839C144.945.828,151.1.79,157.264.86c-.023,1.8-.006,3.595-.006,5.393q-6.721-.022-13.445.058.009,1.06,0,2.12c4.475.072,8.947.081,13.419.107.017,3.687.009,7.372.032,11.056q-9.241-.017-18.482.023c-.032-1.489-.035-2.975.009-4.463,4.269.012,8.542.017,12.811-.017.026-.959.038-1.92.035-2.879-4.29,0-8.582.014-12.872-.014C138.764,8.443,138.764,4.64,138.787.839Z" transform="translate(-118.37 -0.819)"/>
    <path id="Path_2990" data-name="Path 2990" d="M209.588,1H228.03c.026,1.807.052,3.615-.006,5.419-4.5,0-9,.023-13.5.032.012.739.029,1.477.067,2.216,4.475-.02,8.95.035,13.422.081.041,3.67.069,7.34.017,11.009q-9.241-.026-18.482.012c-.038-1.483-.049-2.972.014-4.455q6.391.048,12.788-.014c.012-.962.032-1.923.023-2.882-4.278.041-8.559.017-12.84,0C209.53,8.615,209.559,4.806,209.588,1Z" transform="translate(-168.632 -0.947)"/>
  </g>
  <g id="_0170baff" data-name="#0170baff" transform="translate(0 26.54)">
    <path id="Path_2991" data-name="Path 2991" d="M0,92.452q49.495,0,98.987,0c-1.816,20.521-3.6,41.043-5.495,61.559q-1.686,19.668-3.5,39.328c-7.041,1.865-14.013,3.991-21.052,5.865-6.465,1.9-12.982,3.615-19.45,5.5h-.191c-6.155-1.831-12.371-3.441-18.526-5.272-7.264-1.958-14.465-4.142-21.732-6.091-.947-9.822-1.8-19.65-2.644-29.477C4.8,145.7,3.073,127.557,1.544,109.4,1.014,103.93.634,98.447,0,92.993v-.542m49.648,8.1c-.07,3.942.052,7.887-.07,11.826-11.319-.041-22.642-.009-33.961,0,.194,3.826.707,7.626,1.234,11.421,10.532.391,21.078-.014,31.609.3-9.214,4.133-18.54,8.026-27.794,12.072a12.486,12.486,0,0,0-2.352,1.135c.078,4.2.756,8.382,1.054,12.576,5.613-.02,11.224-.11,16.837-.119,4.5-.023,9,.067,13.5-.032-.214,6.911.067,13.831-.145,20.742-3.027-.449-6.016-1.124-9.031-1.66-2.378-.518-4.814-.788-7.157-1.469-.333-3.316-.565-6.644-.86-9.964a7.5,7.5,0,0,0-2.1-.2c-3.4.02-6.8-.012-10.207.041A189.7,189.7,0,0,0,22.088,176.3c3.354.875,6.714,1.732,10.062,2.644,5.13,1.4,10.323,2.558,15.461,3.931a6.492,6.492,0,0,0,1.862.3c.342,4.2.078,8.42.142,12.629a25.757,25.757,0,0,0,3.493-.837c9.726-2.642,19.441-5.332,29.162-8,.484-3.823.71-7.673,1.092-11.5q1.516-17.474,3.091-34.946c1.243-13.324,2.317-26.662,3.568-39.986C76.562,100.542,63.105,100.5,49.648,100.547Z" transform="translate(0 -92.448)" fill="#1070ba"/>
  </g>
  <g id="_29a9dfff" data-name="#29a9dfff" transform="translate(49.475 34.618)">
    <path id="Path_2992" data-name="Path 2992" d="M170.984,120.357c13.457-.043,26.914-.006,40.374-.017-1.251,13.324-2.326,26.662-3.568,39.986q-1.59,17.47-3.091,34.946c-.382,3.832-.608,7.681-1.092,11.5-9.721,2.668-19.435,5.358-29.162,8a25.758,25.758,0,0,1-3.493.837c-.064-4.209.2-8.432-.142-12.629l.35-.07c9.046-2.271,18.031-4.77,27.056-7.122,1.141-12.8,2.407-25.6,3.209-38.427-7.676.041-15.354.017-23.03.049-1.118.006-2.236,0-3.348-.081,4.13-2.126,8.475-3.812,12.715-5.709,4.07-1.845,8.188-3.574,12.272-5.385a11.369,11.369,0,0,0,2.32-1.2,19.117,19.117,0,0,0,.365-3.067c.235-3.244.652-6.471.808-9.718-10.87-.087-21.741-.012-32.614-.07C171.036,128.244,170.914,124.3,170.984,120.357Z" transform="translate(-170.81 -120.336)" fill="#29a9df"/>
    <path id="Path_2993" data-name="Path 2993" d="M171.245,290.146c5.248-.09,10.5.052,15.751.017-.293,5.367-.739,10.726-1.017,16.093-3.218,1.051-6.485,1.941-9.729,2.914a37.812,37.812,0,0,0-5.15,1.718C171.311,303.976,171.03,297.057,171.245,290.146Z" transform="translate(-171.016 -240.939)" fill="#29a9df"/>
  </g>
  <g id="_cfcfcfff" data-name="#cfcfcfff" transform="translate(15.618 46.446)">
    <path id="Path_2994" data-name="Path 2994" d="M53.92,161.194c11.319-.012,22.642-.043,33.961,0,.148,12.455-.038,24.91.125,37.359-4.5.1-9,.009-13.5.032-5.613.009-11.224.1-16.837.119-.3-4.194-.976-8.374-1.054-12.576a12.488,12.488,0,0,1,2.352-1.135c9.254-4.046,18.581-7.939,27.794-12.072-10.532-.316-21.078.09-31.609-.3C54.627,168.82,54.114,165.02,53.92,161.194Z" transform="translate(-53.92 -161.171)" fill="#cfcfcf"/>
    <path id="Path_2995" data-name="Path 2995" d="M69.76,315.981c3.4-.052,6.807-.02,10.207-.041a7.5,7.5,0,0,1,2.1.2c.3,3.319.527,6.647.86,9.964,2.343.681,4.779.95,7.157,1.469,3.015.536,6,1.211,9.031,1.66.29,4.206-.217,8.44.266,12.632l-.35.07a6.492,6.492,0,0,1-1.862-.3c-5.138-1.373-10.332-2.534-15.461-3.93-3.348-.912-6.708-1.77-10.062-2.644A189.7,189.7,0,0,1,69.76,315.981Z" transform="translate(-65.172 -271.112)" fill="#cfcfcf"/>
  </g>
  <g id="_ffffffff" data-name="#ffffffff" transform="translate(49.559 46.466)">
    <path id="Path_2996" data-name="Path 2996" d="M171.12,161.24c10.873.058,21.744-.017,32.614.07-.156,3.247-.573,6.474-.808,9.718a19.117,19.117,0,0,1-.365,3.067,11.371,11.371,0,0,1-2.32,1.2c-4.084,1.81-8.2,3.539-12.272,5.385-4.24,1.9-8.585,3.583-12.715,5.709,1.112.081,2.23.087,3.348.081,7.676-.032,15.354-.009,23.03-.049-.8,12.828-2.068,25.625-3.209,38.427-9.025,2.352-18.01,4.852-27.056,7.122-.484-4.191.023-8.426-.266-12.632a37.816,37.816,0,0,1,5.15-1.718c3.244-.973,6.511-1.862,9.729-2.914.278-5.367.724-10.726,1.017-16.093-5.251.035-10.5-.107-15.751-.017C171.083,186.15,171.268,173.695,171.12,161.24Z" transform="translate(-171.1 -161.24)" fill="#fff"/>
  </g>
</svg>
