<svg id="docker-1" xmlns="http://www.w3.org/2000/svg" width="223.981" height="51.605" viewBox="0 0 223.981 51.605">
  <path id="SVGID_1_" d="M15.345,43.181a3.887,3.887,0,0,1-3.9-3.713,3.768,3.768,0,0,1,3.9-3.713,3.768,3.768,0,0,1,3.9,3.713,3.887,3.887,0,0,1-3.9,3.713ZM63.237,22.947a11.057,11.057,0,0,0-4.641-7.24l-.928-.743-.743.928c-1.485,1.671-2.042,4.641-1.856,6.868A9.989,9.989,0,0,0,56.74,27.4c-.743.371-1.671.743-2.413,1.114a15.635,15.635,0,0,1-5.012.743H1.237l-.186,1.114A20.884,20.884,0,0,0,2.722,40.953l.743,1.3v.186C7.92,49.864,15.9,53.2,24.626,53.2c16.707,0,30.443-7.24,36.94-22.832,4.269.186,8.539-.928,10.581-5.012l.557-.928-.928-.557A11.329,11.329,0,0,0,63.237,22.947Zm-23.946-2.97h-7.24v7.24h7.24Zm0-9.1h-7.24v7.24h7.24Zm0-9.281h-7.24V8.84h7.24V1.6ZM48.2,19.977h-7.24v7.24H48.2Zm-26.916,0h-7.24v7.24h7.24v-7.24Zm9.1,0h-7.24v7.24h7.24Zm-18.006,0H5.135v7.24h7.24v-7.24Zm18.006-9.1h-7.24v7.24h7.24Zm-9.1,0h-7.24v7.24h7.24v-7.24Z" transform="translate(-0.94 -1.6)" fill="#1791e2"/>
  <path id="docker_2_" d="M149.938,33.674c3.156-2.784,6.311-5.383,9.467-8.168,1.114-.928,2.228-1.856,3.341-2.97a9.222,9.222,0,0,0-3.527-2.413,8.378,8.378,0,0,0-7.24.743,7.9,7.9,0,0,0-4.084,7.8,6.693,6.693,0,0,0,1.114,3.713,4.285,4.285,0,0,1,.928,1.3m3.713,2.6a9.144,9.144,0,0,0,5.012.186c.743-.371,2.97-1.3,3.713-1.114h.371a1.673,1.673,0,0,1,1.114,1.114,1.9,1.9,0,0,1-.743,2.784l-.371.186c-4.084,2.413-8.353,2.042-12.437-.186a12.8,12.8,0,0,1-4.455-4.455l-.186-.371c-2.6-4.455-2.228-9.281.743-13.551a11.859,11.859,0,0,1,3.9-3.527l.557-.371a12.29,12.29,0,0,1,11.88-.186,12.1,12.1,0,0,1,5.012,4.641l.186.371c.928,1.485-.186,2.784-1.485,3.713l-3.9,3.341C159.22,31.446,156.435,33.859,153.651,36.273Zm30.258-20.419h.371a2.145,2.145,0,0,1,2.228,2.228c0,1.856-1.671,2.228-3.156,2.228a7.567,7.567,0,0,0-5.012,2.413,8.125,8.125,0,0,0-2.413,5.94v10.4a2.1,2.1,0,0,1-2.042,2.228h-.371a2,2,0,0,1-2.042-2.228V28.1a12.007,12.007,0,0,1,5.383-10.024,13.12,13.12,0,0,1,7.054-2.228Zm-53.09,7.24,5.012-5.012c.557-.371,2.228-2.413,2.97-2.413h.743a1.831,1.831,0,0,1,1.671,1.856V17.9c0,.743-.928,1.485-1.3,2.042-.928,1.114-2.042,2.042-2.97,3.156l-5.2,5.2,6.683,6.683,1.856,1.856.743.743c.186.371.371.557.371.928v.557a1.974,1.974,0,0,1-1.856,1.671h-.371c-.743,0-1.485-.743-2.042-1.3-.928-.928-2.042-1.856-2.97-2.97L130.818,33.3v5.2a2.1,2.1,0,0,1-2.042,2.228h-.371a2,2,0,0,1-2.042-2.228V9.913a1.948,1.948,0,0,1,2.042-2.042h.371a1.948,1.948,0,0,1,2.042,2.042Zm-13.737-2.784a5.9,5.9,0,0,0-2.6-.371c-3.527-.186-6.126,1.856-7.611,5.012a7.533,7.533,0,0,0-.743,3.527,8.041,8.041,0,0,0,5.2,7.8,9.99,9.99,0,0,0,4.084.743,12.321,12.321,0,0,0,3.713-1.114h.928a1.831,1.831,0,0,1,1.671,1.856v.371c0,2.6-4.826,3.156-6.5,3.341-6.311.371-11.138-3.156-12.994-9.1a9.2,9.2,0,0,1-.371-3.156V28.29a11.556,11.556,0,0,1,6.311-10.581,11.684,11.684,0,0,1,6.126-1.671h.928a10.929,10.929,0,0,1,6.311,1.856l.186.186.186.186a2.639,2.639,0,0,1,.371,1.114v.371c0,1.114-.743,1.671-1.856,1.856h-.186a20.509,20.509,0,0,1-3.156-1.3ZM78.1,28.29a8.429,8.429,0,0,0,4.269,7.24,8.623,8.623,0,0,0,4.269,1.114,8.429,8.429,0,0,0,7.24-4.269A8.623,8.623,0,0,0,94.992,28.1a8.414,8.414,0,0,0-3.9-7.054,7.788,7.788,0,0,0-4.455-1.3,8.07,8.07,0,0,0-7.611,5.012A5.338,5.338,0,0,0,78.1,28.29Zm7.8-12.623h.557A12.189,12.189,0,0,1,97.591,22.35a11.34,11.34,0,0,1,1.485,5.569v.928a11.556,11.556,0,0,1-6.311,10.581A11.684,11.684,0,0,1,86.638,41.1H85.71a11.556,11.556,0,0,1-10.581-6.311,11.684,11.684,0,0,1-1.671-6.126v-.928A11.556,11.556,0,0,1,79.77,17.153,14.18,14.18,0,0,1,85.9,15.668ZM49.884,28.29a7.953,7.953,0,0,0,4.641,7.425,8.629,8.629,0,0,0,3.9.928,8.141,8.141,0,0,0,7.425-4.269A8.623,8.623,0,0,0,66.962,28.1a7.927,7.927,0,0,0-3.713-6.868,8.717,8.717,0,0,0-4.826-1.485,8.07,8.07,0,0,0-7.611,5.012,9.078,9.078,0,0,0-.928,3.527Zm17.078-9.467v-9.1A2.1,2.1,0,0,1,69,7.5h.371a2,2,0,0,1,2.042,2.228v19.12a11.556,11.556,0,0,1-6.311,10.581A11.684,11.684,0,0,1,58.98,41.1h-.928a11.556,11.556,0,0,1-10.581-6.311A11.684,11.684,0,0,1,45.8,28.662v-.928a11.556,11.556,0,0,1,6.311-10.581,11.684,11.684,0,0,1,6.126-1.671h.928a12.812,12.812,0,0,1,7.8,3.341Z" transform="translate(37.473 3.452)" fill="#1791e2"/>
</svg>
