<svg id="Group_1169" data-name="Group 1169" xmlns="http://www.w3.org/2000/svg" width="200.525" height="54.346" viewBox="0 0 200.525 54.346">
  <path id="Path_3011" data-name="Path 3011" d="M86.329,18.4h5.435V37.808H86.329V35.285a6.606,6.606,0,0,1-6.017,3.106c-6.017,0-9.9-4.658-9.9-10.287,0-5.823,3.882-10.287,9.511-10.287a6.718,6.718,0,0,1,6.211,3.106V18.4ZM76.237,28.1a5.2,5.2,0,0,0,5.435,5.435A5.307,5.307,0,0,0,87.106,28.1a5.2,5.2,0,0,0-5.435-5.435A5.307,5.307,0,0,0,76.237,28.1Zm26.2-5.046V37.808H97V23.057H94.87V18.4H97V11.8h5.435v6.6h3.688v4.658Zm16.5,0a4.885,4.885,0,0,0-3.105-1.359c-1.359,0-2.135.582-2.135,1.553,0,.582.194,1.165,1.747,1.747l1.359.388c1.553.582,3.882,1.165,4.852,2.717a5.552,5.552,0,0,1,.97,3.3,6.226,6.226,0,0,1-2.135,4.852,8.591,8.591,0,0,1-5.823,2.135,9.909,9.909,0,0,1-7.57-3.3l2.911-3.3c1.165,1.165,2.717,2.329,4.27,2.329S117,33.344,117,31.985a2.079,2.079,0,0,0-1.747-1.941l-1.165-.388a12.314,12.314,0,0,1-4.076-2.329,4.97,4.97,0,0,1-1.553-3.688,6.391,6.391,0,0,1,1.941-4.464,8.292,8.292,0,0,1,5.046-1.359,9.777,9.777,0,0,1,6.211,2.135l-2.717,3.106Zm11.84-2.135a7.366,7.366,0,0,1,6.211-3.106c5.629,0,9.511,4.464,9.511,10.287s-3.882,10.287-9.7,10.287a7.452,7.452,0,0,1-6.211-3.106v2.523h-5.241V5.2h5.435V20.922Zm-.582,7.181a5.2,5.2,0,0,0,5.435,5.435,5.307,5.307,0,0,0,5.435-5.435,5.435,5.435,0,0,0-10.869,0ZM155.427,34.9,146.11,18.4h6.405l6.017,11.063L163.967,18.4h6.211l-15.528,29.7H148.44ZM69.055,21.7H55.468v5.435H62.65c-1.165,3.688-3.882,6.211-8.928,6.211-5.629,0-9.7-4.658-9.7-10.287S47.9,12.576,53.528,12.576a10.489,10.489,0,0,1,8.152,4.076l4.464-2.911A15.366,15.366,0,0,0,53.528,7.335,15.615,15.615,0,0,0,38,23.057a15.529,15.529,0,1,0,31.055,0A3.171,3.171,0,0,0,69.055,21.7Z" transform="translate(30.347 4.893)"/>
  <path id="Path_3013" data-name="Path 3013" d="M27.173,0A27.173,27.173,0,1,0,54.346,27.173,27.253,27.253,0,0,0,27.173,0ZM12.034,42.313A21.069,21.069,0,0,1,5.823,27.561L26.979,48.524A22.032,22.032,0,0,1,12.034,42.313Zm19.8,5.629L6.405,22.515a21.337,21.337,0,0,1,38.042-7.958L41.536,17.08A17.919,17.919,0,0,0,27.173,9.7a17.653,17.653,0,0,0-16.5,11.646L33,43.671A17.6,17.6,0,0,0,44.253,31.055H34.937V27.173H48.524A21.411,21.411,0,0,1,31.831,47.941Z" transform="translate(0 0)" fill="#5c2e8b"/>
</svg>
