<svg xmlns="http://www.w3.org/2000/svg" width="125.997" height="52.626" viewBox="0 0 125.997 52.626">
  <g id="Git-logo" transform="translate(0 0.001)">
    <path id="Path_3034" data-name="Path 3034" d="M148.71,33.01c-2.763,0-4.82,1.357-4.82,4.621,0,2.46,1.356,4.167,4.671,4.167,2.81,0,4.718-1.656,4.718-4.269,0-2.961-1.708-4.52-4.57-4.52Zm-5.525,23.051a4.451,4.451,0,0,0-1.305,2.661c0,2.007,2.559,2.611,6.075,2.611,2.913,0,6.88-.2,6.88-2.912,0-1.609-1.909-1.709-4.32-1.86l-7.33-.5Zm14.863-22.9a7.965,7.965,0,0,1,1.858,5.072c0,5.574-4.369,8.837-10.694,8.837a15.976,15.976,0,0,1-3.968-.451l-1.658,2.661,4.92.3c8.688.554,13.808.805,13.808,7.481,0,5.776-5.07,9.038-13.808,9.038-9.088,0-12.553-2.31-12.553-6.277,0-2.261,1-3.463,2.762-5.123a3.346,3.346,0,0,1-2.209-3.312,4.5,4.5,0,0,1,1.457-3.064c.9-.953,1.907-1.909,3.113-3.013a8.019,8.019,0,0,1-4.319-7.532c0-5.774,3.817-9.739,11.5-9.739a17.224,17.224,0,0,1,4.621.5h9.792v4.267l-4.62.352" transform="translate(-73.2 -15.099)" fill="#413004"/>
    <path id="Path_3035" data-name="Path 3035" d="M205.422,8.938c-2.863,0-4.519-1.659-4.519-4.522S202.559,0,205.422,0c2.913,0,4.57,1.558,4.57,4.417S208.335,8.938,205.422,8.938Zm-6.479,30.176V35.15l2.562-.35c.7-.1.8-.251.8-1.006V19.03c0-.551-.15-.9-.654-1.054l-2.711-.955.552-4.066h10.4V33.793c0,.8.048.9.8,1.006l2.561.35v3.965H198.943" transform="translate(-107.115 0)" fill="#413004"/>
    <path id="Path_3036" data-name="Path 3036" d="M249.246,42.744a20.088,20.088,0,0,1-8.187,2.007c-5.975,0-8.234-2.408-8.234-8.085V23.512c0-.3,0-.5-.4-.5h-3.514V18.541c4.42-.5,6.176-2.713,6.729-8.187h4.771v7.133c0,.35,0,.5.4.5h7.08v5.021h-7.482v12c0,2.963.7,4.117,3.414,4.117a11.95,11.95,0,0,0,4.068-.8l1.357,4.42" transform="translate(-123.249 -5.575)" fill="#413004"/>
    <path id="Path_3037" data-name="Path 3037" d="M51.6,24.04,28.634,1.081a3.386,3.386,0,0,0-4.788,0L19.078,5.849,25.126,11.9a4.022,4.022,0,0,1,5.093,5.127l5.829,5.829a4.024,4.024,0,1,1-2.414,2.272L28.2,19.689v14.3a4.022,4.022,0,1,1-3.313-.117V19.439a3.976,3.976,0,0,1-1.32-.879,4.028,4.028,0,0,1-.868-4.405L16.735,8.191.992,23.934a3.387,3.387,0,0,0,0,4.79l22.96,22.958a3.387,3.387,0,0,0,4.789,0l22.854-22.85a3.389,3.389,0,0,0,0-4.791" transform="translate(0 -0.049)" fill="#f05133"/>
  </g>
</svg>
