<svg id="Group_1170" data-name="Group 1170" xmlns="http://www.w3.org/2000/svg" width="136.013" height="48.937" viewBox="0 0 136.013 48.937">
  <g id="Group_1146" data-name="Group 1146" transform="translate(10 12.433)">
    <g id="Group_1145" data-name="Group 1145">
      <g id="Group_1144" data-name="Group 1144">
        <path id="Path_3006" data-name="Path 3006" d="M40.065,99.85c-.265,0-.331-.132-.2-.331l1.391-1.788a.949.949,0,0,1,.728-.331H65.627c.265,0,.331.2.2.4L64.7,99.519a1.009,1.009,0,0,1-.662.4Z" transform="translate(-39.8 -97.4)" fill="#1bacd7"/>
      </g>
    </g>
  </g>
  <g id="Group_1149" data-name="Group 1149" transform="translate(0 18.29)">
    <g id="Group_1148" data-name="Group 1148">
      <g id="Group_1147" data-name="Group 1147">
        <path id="Path_3007" data-name="Path 3007" d="M24.965,109.05c-.265,0-.331-.132-.2-.331l1.391-1.788a.949.949,0,0,1,.728-.331h30.2a.3.3,0,0,1,.331.4l-.53,1.589a.579.579,0,0,1-.6.4Z" transform="translate(-24.7 -106.6)" fill="#1bacd7"/>
      </g>
    </g>
  </g>
  <g id="Group_1152" data-name="Group 1152" transform="translate(16.026 24.144)">
    <g id="Group_1151" data-name="Group 1151">
      <g id="Group_1150" data-name="Group 1150">
        <path id="Path_3008" data-name="Path 3008" d="M49.165,118.25c-.265,0-.331-.2-.2-.4l.927-1.656a.878.878,0,0,1,.662-.4H63.8c.265,0,.4.2.4.464l-.132,1.589a.5.5,0,0,1-.464.464Z" transform="translate(-48.9 -115.8)" fill="#1bacd7"/>
      </g>
    </g>
  </g>
  <g id="Group_1156" data-name="Group 1156" transform="translate(36.101 0)">
    <g id="CXHf1q_5_">
      <g id="Group_1155" data-name="Group 1155">
        <path id="Union_4" data-name="Union 4" d="M1120.406-4299.228a19.968,19.968,0,0,1-6.625-9.936,26.709,26.709,0,0,1-2.779,4.316,27.8,27.8,0,0,1-18.873,10.841,24.153,24.153,0,0,1-17.815-4.209,19.883,19.883,0,0,1-8.409-14.157c-.861-6.951,1.258-13.2,5.629-18.684a29.559,29.559,0,0,1,18.542-11.032c6.225-1.085,12.185-.383,17.549,3.124a20.18,20.18,0,0,1,7.682,8.992c.4.574.132.893-.663,1.084-4.171,1.02-7.02,1.785-11.126,2.806-.993.255-1.059.319-1.919-.638a8.823,8.823,0,0,0-3.113-2.423c-4.172-1.977-8.212-1.4-11.987.956a13.446,13.446,0,0,0-6.755,12.116,10.124,10.124,0,0,0,8.94,10.012,12.464,12.464,0,0,0,11.258-4.208c.6-.7,1.126-1.467,1.788-2.36h-12.781c-1.391,0-1.721-.828-1.258-1.913.861-1.977,2.45-5.292,3.377-6.951a1.79,1.79,0,0,1,1.656-1.02h21.317a26.775,26.775,0,0,1,4.577-8.271c4.834-6.119,10.661-9.306,18.542-10.645,6.755-1.147,13.111-.51,18.873,3.25,5.232,3.442,8.477,8.1,9.338,14.216,1.125,8.605-1.457,15.617-7.616,21.609a30.72,30.72,0,0,1-15.893,8.16c-1.789.318-3.576.383-5.3.573A25.434,25.434,0,0,1,1120.406-4299.228Zm18.212-30.725c-6.16,1.338-10.133,5.1-11.59,11.091a10.392,10.392,0,0,0,6.093,12.047,12.56,12.56,0,0,0,10.794-.381c5.232-2.614,8.079-6.694,8.41-12.175a17.828,17.828,0,0,0-.2-2.1,10.718,10.718,0,0,0-10.788-8.782A12.5,12.5,0,0,0,1138.617-4329.953Z" transform="translate(-1065.716 4342.556)" fill="#1bacd7"/>
      </g>
    </g>
  </g>
</svg>
