<svg id="Group_1131" data-name="Group 1131" xmlns="http://www.w3.org/2000/svg" width="98.022" height="138.333" viewBox="0 0 98.022 138.333">
  <path id="Path_2997" data-name="Path 2997" d="M108.4,0h6.214V6.16h5.728V0h6.214V18.643h-6.214V12.428h-5.674v6.214H108.4M134.77,6.214h-5.485V0H146.5V6.214h-5.512V18.643H134.77M149.224,0h6.511l4,6.565,4-6.565h6.511V18.643H164.03V9.4l-4.35,6.7-4.35-6.7v9.24h-6.106M173.325,0h6.214V12.482h8.808v6.16H173.325" transform="translate(-99.268)"/>
  <path id="Path_2998" data-name="Path 2998" d="M83.516,200.675,74.6,100.6h98.022l-8.916,100.021L123.53,211.753" transform="translate(-74.6 -73.42)" fill="#e44d26"/>
  <path id="Path_2999" data-name="Path 2999" d="M256,225.428V131h40.068l-7.646,85.377" transform="translate(-206.989 -95.606)" fill="#f16529"/>
  <path id="Path_3000" data-name="Path 3000" d="M142,176.3h30.8v12.266H155.455l1.135,12.563H172.8v12.239H145.35m.54,6.16h12.32l.865,9.808,13.725,3.674v12.807l-25.181-7.025" transform="translate(-123.79 -128.667)" fill="#ebebeb"/>
  <path id="Path_3001" data-name="Path 3001" d="M286.547,176.3H255.8v12.266h29.612M284.3,201.13H255.8V213.4h15.13L269.5,229.337l-13.7,3.674v12.753l25.127-6.971" transform="translate(-206.843 -128.667)" fill="#fff"/>
</svg>
