<svg id="Group_1172" data-name="Group 1172" xmlns="http://www.w3.org/2000/svg" width="98.562" height="138.793" viewBox="0 0 98.562 138.793">
  <path id="path118" d="M1.334,109.332l.016,1.24c.009.682,1.985,23.269,4.392,50.192l4.377,48.952,19.67,5.507c10.819,3.029,19.894,5.523,20.167,5.542s9.468-2.449,20.433-5.486c17.581-4.868,19.954-5.6,20.08-6.2.175-.84,8.785-97.961,8.776-99l-.006-.744H1.334Z" transform="translate(-1.003 -82.21)" fill="#fff"/>
  <path id="path88" d="M28.941,215.555,9.1,210.007l-.259-1.468C8.606,207.235,0,111.115,0,109.845c0-.46,5.025-.512,49.283-.512,46.717,0,49.282.03,49.279.579-.016,2.37-8.923,99.762-9.142,99.956-.277.245-38.688,10.946-39.971,11.136-.364.054-9.592-2.4-20.507-5.449Zm32.855-19.6c6.67-1.84,12.224-3.44,12.342-3.556s.9-8.025,1.735-17.575,1.605-18,1.708-18.77l.188-1.406H48.952v12.238H64.51l-.155.744c-.085.409-.416,3.927-.735,7.816-.338,4.122-.739,7.231-.961,7.453a56.763,56.763,0,0,1-7.044,2.157l-6.663,1.776v6.234c0,4.255.114,6.234.358,6.234C49.507,199.3,55.126,197.794,61.8,195.954Zm15.782-49c-.219-1.621-2.166-23.359-2.166-24.178,0-.5-1.145-.546-13.065-.546H49.283v12.8l5.871.226c3.229.124,6.627.314,7.552.421l1.681.195.408,5.005c.224,2.753.492,5.563.594,6.245l.186,1.24H77.768Z" transform="translate(0 -82.211)" fill="#eaebec"/>
  <path id="path80" d="M29.788,215.225l-19.67-5.507L5.741,160.766c-2.407-26.924-4.384-49.51-4.392-50.192l-.016-1.24h97.9l.006.744c.009,1.039-8.6,98.161-8.776,99-.126.6-2.5,1.336-20.08,6.2-10.965,3.036-20.16,5.5-20.433,5.486s-9.348-2.513-20.167-5.542Zm33.026-19.037c6.8-1.89,12.46-3.593,12.578-3.784s.93-8.5,1.805-18.473,1.662-18.387,1.75-18.7c.15-.547-1.007-.579-20.965-.579H36.857l.9-9.509c.495-5.23.911-9.523.926-9.539s3.115-.115,6.89-.22c6.19-.171,18.953.323,19.38.75.16.16,1.209,10.456,1.209,11.862,0,.693.094.7,6.409.7H78.98l-.151-1.406c-.083-.773-.626-6.764-1.206-13.313l-1.055-11.907-24.717-.085c-19.664-.067-24.718,0-24.72.331,0,.229-.146,1.681-.32,3.227-.423,3.742-3.646,39.895-3.646,40.893v.782H65.227l-.187,1.24c-.1.682-.43,4.143-.727,7.69a61.642,61.642,0,0,1-.751,6.653c-.308.3-12.681,3.6-13.453,3.594-.358,0-3.554-.8-7.1-1.772l-6.45-1.766-.237-2.776c-.13-1.527-.328-3.706-.44-4.843l-.2-2.067H23.163l.014,1.24c.026,2.32,1.53,17.944,1.748,18.162.253.253,24.289,7.009,25.029,7.036.273.01,6.06-1.529,12.859-3.419Z" transform="translate(-1.003 -82.211)" fill="#f0be2b"/>
  <path id="path78" d="M29.788,215.225l-19.67-5.507L5.741,160.766c-2.407-26.924-4.384-49.51-4.392-50.192l-.016-1.24h97.9l.006.744c.009,1.039-8.6,98.161-8.776,99-.126.6-2.5,1.336-20.08,6.2-10.965,3.036-20.16,5.5-20.433,5.486s-9.348-2.513-20.167-5.542Zm36.683-7.368c8.653-2.388,15.895-4.509,16.094-4.713.309-.319,7.782-82.223,7.752-84.963l-.01-.91H50.285V121.9H38.709c-9.039,0-11.577.091-11.579.413,0,.227-.146,1.679-.32,3.225-.423,3.742-3.646,39.895-3.646,40.893v.782H50.285v9.592c0,7.456-.092,9.591-.413,9.586-.227,0-3.316-.8-6.863-1.772l-6.45-1.766-.237-2.776c-.13-1.527-.328-3.706-.44-4.843l-.2-2.067H23.163l.014,1.24c.04,3.548,1.574,18.029,1.934,18.252.219.135,5.972,1.788,12.786,3.674l12.388,3.428v6.218a43.122,43.122,0,0,0,.226,6.218c.125,0,7.306-1.953,15.959-4.341ZM37.722,145.227c.476-5.181.929-9.479,1.009-9.551s2.711-.2,5.85-.288l5.706-.158v19.417H36.857Z" transform="translate(-1.003 -82.211)" fill="#e4a126"/>
  <path id="path76" d="M126.667,15.38V12.238h8.93V0h6.284V18.522H126.667Zm18.192.662V13.561h4.134a23.174,23.174,0,0,0,4.134-.187c0-.1-1.86-2.2-4.134-4.668l-4.134-4.481V0h17.2V4.941l-4.037.093-4.037.093,4.2,4.526,4.2,4.526v4.344h-17.53Z" transform="translate(-95.245)" fill="#0e0e0f"/>
</svg>
