<svg xmlns="http://www.w3.org/2000/svg" width="176.22" height="91.006" viewBox="0 0 176.22 91.006">
  <g id="MySQL-Logo.wine" transform="translate(0 0)">
    <path id="Path_3046" data-name="Path 3046" d="M0,150.232H5.806V127.307l8.987,19.985c1.061,2.419,2.512,3.275,5.359,3.275s4.243-.856,5.3-3.275l8.987-19.985v22.925h5.806V127.345c0-2.233-.893-3.312-2.735-3.87-4.41-1.377-7.369-.186-8.709,2.791l-8.82,19.724-8.541-19.724c-1.284-2.977-4.3-4.168-8.708-2.791C.893,124.032,0,125.112,0,127.344Zm45.076-18.66h5.8V144.2c-.054.686.22,2.3,3.4,2.346,1.623.026,12.523,0,12.624,0V131.511h5.817c.027,0-.006,20.508-.005,20.6.032,5.058-6.276,6.156-9.183,6.241H45.2v-3.906c.033,0,18.318,0,18.364,0,3.736-.395,3.3-2.252,3.295-2.877v-1.523H54.521c-5.741-.053-9.4-2.559-9.442-5.441,0-.267.124-12.9,0-13.029Z" transform="translate(0 -67.342)" fill="#00618a"/>
    <path id="Path_3047" data-name="Path 3047" d="M170.757,150.878h16.691a12.875,12.875,0,0,0,5.359-1.117c2.512-1.153,3.74-2.716,3.74-4.764v-4.242c0-1.675-1.4-3.238-4.131-4.28a14.27,14.27,0,0,0-4.968-.856h-7.034c-2.344,0-3.46-.707-3.739-2.27a1.656,1.656,0,0,1-.056-.521v-2.642a1.542,1.542,0,0,1,.056-.484c.279-1.191.893-1.526,2.958-1.712.167,0,.391-.038.558-.038h16.579v-3.87h-16.3a15.663,15.663,0,0,0-4.689.483c-3.461,1.08-4.968,2.792-4.968,5.769v3.387c0,2.605,2.959,4.838,7.927,5.359.559.037,1.117.074,1.674.074h6.029a3.084,3.084,0,0,1,.614.038c1.842.149,2.623.484,3.182,1.154a1.384,1.384,0,0,1,.446,1.042v3.386a1.938,1.938,0,0,1-.837,1.377,4.118,4.118,0,0,1-2.457.819c-.223,0-.391.037-.614.037H170.757v3.87Zm62.007-6.736c0,3.982,2.958,6.215,8.932,6.662.558.037,1.117.074,1.674.074H258.5v-3.87h-15.24c-3.405,0-4.689-.856-4.689-2.9V124.082h-5.806Zm-32.512.2v-13.8c0-3.505,2.462-5.632,7.328-6.3a11.135,11.135,0,0,1,1.566-.112h11.02a11.934,11.934,0,0,1,1.623.112c4.867.671,7.328,2.8,7.328,6.3v13.8c0,2.844-1.045,4.366-3.454,5.358l5.719,5.162h-6.741l-4.627-4.176-4.658.3h-6.209a12.868,12.868,0,0,1-3.412-.485c-3.692-1.007-5.482-2.946-5.482-6.154Zm6.266-.335a2.549,2.549,0,0,0,.112.6c.335,1.6,1.846,2.5,4.139,2.5h5.274l-4.845-4.374h6.74l4.226,3.815a2.75,2.75,0,0,0,1.47-1.865,1.913,1.913,0,0,0,.056-.559V130.882a1.8,1.8,0,0,0-.056-.523c-.336-1.492-1.846-2.349-4.084-2.349H210.77c-2.573,0-4.251,1.119-4.251,2.872v13.127Z" transform="translate(-93.561 -67.987)" fill="#e48e00"/>
    <path id="Path_3048" data-name="Path 3048" d="M303.12,49.674a20.424,20.424,0,0,0-8.625,1.218c-.662.279-1.718.287-1.826,1.117.364.382.42.951.71,1.42a11.194,11.194,0,0,0,2.334,2.74c.916.692,1.86,1.431,2.842,2.03,1.746,1.065,3.7,1.673,5.378,2.74.991.629,1.976,1.421,2.943,2.131.478.351.8.9,1.42,1.117v-.1c-.326-.415-.41-.987-.71-1.421l-1.319-1.319A21.646,21.646,0,0,0,301.6,56.88c-1.388-1-4.495-2.342-5.074-3.957l-.1-.1a22.371,22.371,0,0,0,3.045-.71c1.526-.41,2.889-.3,4.465-.711l2.131-.609v-.406c-.8-.817-1.364-1.9-2.233-2.638a65.057,65.057,0,0,0-7.306-5.48c-1.416-.894-3.167-1.475-4.668-2.233-.5-.255-1.392-.387-1.726-.812a21.511,21.511,0,0,1-1.826-3.45c-1.273-2.453-2.524-5.132-3.653-7.712a41.594,41.594,0,0,0-2.232-5.074c-4.608-7.575-9.567-12.147-17.25-16.642a20.669,20.669,0,0,0-5.683-1.826l-3.349-.2a17.833,17.833,0,0,1-2.03-1.522c-2.545-1.608-9.073-5.105-10.958-.507-1.19,2.9,1.779,5.735,2.841,7.205a21.758,21.758,0,0,1,2.232,3.349c.35.763.411,1.527.711,2.334a53.6,53.6,0,0,0,2.334,5.987,21.172,21.172,0,0,0,1.624,2.74c.374.51,1.014.735,1.116,1.523-.627.877-.662,2.238-1.014,3.349-1.586,5-.988,11.216,1.319,14.917.708,1.136,2.375,3.573,4.668,2.638,2.005-.817,1.557-3.348,2.131-5.581.13-.506.05-.879.3-1.218v.1l1.826,3.653a24.864,24.864,0,0,0,5.784,5.987c1.054.8,1.884,2.173,3.247,2.638v-.1h-.1c-.264-.411-.677-.582-1.014-.913a23.256,23.256,0,0,1-2.334-2.638,61.732,61.732,0,0,1-4.972-8.118c-.711-1.365-1.329-2.873-1.929-4.262-.231-.536-.228-1.346-.71-1.624a20.288,20.288,0,0,0-2.131,3.045c-.812,1.922-.917,4.266-1.217,6.7-.178.064-.1.02-.2.1-1.413-.341-1.91-1.8-2.435-3.044a19.182,19.182,0,0,1-.407-11.872c.3-.94,1.67-3.9,1.117-4.769-.264-.867-1.136-1.368-1.623-2.03a15.977,15.977,0,0,1-1.624-2.842c-1.087-2.461-1.595-5.224-2.74-7.712a22.519,22.519,0,0,0-2.232-3.45,20.118,20.118,0,0,1-2.435-3.451c-.232-.5-.547-1.309-.2-1.826a.806.806,0,0,1,.609-.609c.589-.453,2.228.151,2.841.406a24.747,24.747,0,0,1,4.364,2.232c.662.439,1.331,1.288,2.131,1.523h.913c1.429.328,3.029.1,4.363.507a26.372,26.372,0,0,1,6.392,3.044,39.574,39.574,0,0,1,13.9,15.221c.526,1.009.754,1.973,1.217,3.044.935,2.16,2.113,4.382,3.044,6.495A30.343,30.343,0,0,0,288,40.948c.69.922,3.355,1.416,4.566,1.928a26.877,26.877,0,0,1,3.045,1.217c1.536.927,3.024,2.03,4.465,3.045.72.507,2.934,1.62,3.044,2.537Z" transform="translate(-133.075 0)" fill="#00618a"/>
    <path id="Path_3049" data-name="Path 3049" d="M273.593,24.357a7.279,7.279,0,0,0-1.827.2v.1h.1a13.872,13.872,0,0,0,1.42,1.826l1.015,2.131.1-.1a2.478,2.478,0,0,0,.913-2.232c-.252-.265-.289-.6-.507-.914C274.52,24.951,273.959,24.712,273.593,24.357Z" transform="translate(-148.906 -13.345)" fill="#00618a" fill-rule="evenodd"/>
    <path id="Path_3050" data-name="Path 3050" d="M370.87,169.364a4.279,4.279,0,1,0,4.279-4.278,4.221,4.221,0,0,0-4.279,4.278Zm7.6,0a3.321,3.321,0,1,1-3.32-3.389A3.31,3.31,0,0,1,378.469,169.364Zm-2.167,2.441h.958l-1.4-2.144c.753-.08,1.323-.445,1.323-1.335,0-.993-.627-1.4-1.836-1.4h-1.906v4.882h.821v-2.11h.764l1.278,2.111Zm-2.042-2.795v-1.4h.947c.491,0,1.084.091,1.084.662,0,.684-.536.741-1.153.741Z" transform="translate(-203.208 -90.454)" fill="#e48e00" fill-rule="evenodd"/>
  </g>
</svg>
