<svg xmlns="http://www.w3.org/2000/svg" xmlns:xlink="http://www.w3.org/1999/xlink" width="224.015" height="59.372" viewBox="0 0 224.015 59.372">
  <defs>
    <radialGradient id="radial-gradient" cx="0.5" cy="0" r="1.001" gradientTransform="translate(0.5 -0.5) rotate(90) scale(0.999 1.152)" gradientUnits="objectBoundingBox">
      <stop offset="0" stop-color="#20c6b7"/>
      <stop offset="1" stop-color="#4d9abf"/>
    </radialGradient>
  </defs>
  <g id="Netlify_logo" transform="translate(-0.129 -0.829)">
    <path id="Path_3055" data-name="Path 3055" d="M55.49,17.387l.188,3.359a10.416,10.416,0,0,1,8.443-3.9q9.057,0,9.218,10.4V46.453h-6.51V27.623a6,6,0,0,0-1.192-4.1,5.01,5.01,0,0,0-3.9-1.329,6.27,6.27,0,0,0-5.868,3.573V46.453H49.356V17.387h6.137Zm37.253,29.6a13.454,13.454,0,0,1-10.035-3.907q-3.846-3.908-3.846-10.41v-.805a17.471,17.471,0,0,1,1.675-7.777,12.777,12.777,0,0,1,4.7-5.333,12.424,12.424,0,0,1,6.754-1.906q5.921,0,9.151,3.787t3.23,10.718v2.633H85.426a8.746,8.746,0,0,0,2.4,5.694,7.2,7.2,0,0,0,5.293,2.1,8.808,8.808,0,0,0,7.289-3.626l3.51,3.359a11.742,11.742,0,0,1-4.649,4.042,14.529,14.529,0,0,1-6.525,1.436Zm-.776-24.9a5.476,5.476,0,0,0-4.328,1.88,9.749,9.749,0,0,0-2.1,5.238H97.943v-.484A7.953,7.953,0,0,0,96.2,23.769a5.439,5.439,0,0,0-4.234-1.678Zm25.619-11.767v7.065h5.119v4.835h-5.119V38.448a3.585,3.585,0,0,0,.657,2.4,3.042,3.042,0,0,0,2.346.738,10.009,10.009,0,0,0,2.277-.269v5.051a15.965,15.965,0,0,1-4.288.617q-7.5,0-7.5-8.3V22.223H106.3V17.387h4.771V10.323h6.511ZM134.6,46.454h-6.513V5.194H134.6Zm14.016,0h-6.513V17.389h6.513ZM141.706,9.84a3.47,3.47,0,0,1,.951-2.5,3.6,3.6,0,0,1,2.72-.993,3.643,3.643,0,0,1,2.735.993,3.449,3.449,0,0,1,.963,2.5,3.367,3.367,0,0,1-.963,2.457,3.667,3.667,0,0,1-2.735.981,3.619,3.619,0,0,1-2.72-.981,3.386,3.386,0,0,1-.951-2.457ZM158,46.454V22.223h-4.422V17.387H158V14.728q0-4.837,2.679-7.468t7.5-2.631a15.017,15.017,0,0,1,3.646.483l-.16,5.1A12.8,12.8,0,0,0,169.176,10q-4.665,0-4.664,4.808v2.578h5.9v4.835h-5.9v24.23H158Zm27.308-9.348,5.9-19.718h6.941L186.623,50.86q-2.654,7.333-9.005,7.334a11.636,11.636,0,0,1-3.136-.484V52.659l1.233.081a6.324,6.324,0,0,0,3.712-.9,5.968,5.968,0,0,0,1.97-3.021l.937-2.5L172.15,17.389h7.022Z" transform="translate(25.999 2.007)" fill="#0e1e25" fill-rule="evenodd"/>
    <path id="Path_3056" data-name="Path 3056" d="M43.249,21.163l-.021-.009a.091.091,0,0,1-.035-.02.168.168,0,0,1-.043-.142l1.181-7.222,5.54,5.541L44.11,21.762a.127.127,0,0,1-.05.009h-.023a.159.159,0,0,1-.031-.026A2.622,2.622,0,0,0,43.249,21.163Zm8.035-.44,5.923,5.923c1.23,1.232,1.846,1.846,2.071,2.558a2.881,2.881,0,0,1,.083.319L45.205,23.528l-.023-.009c-.057-.023-.122-.049-.122-.107s.067-.086.124-.108L45.2,23.3Zm7.835,10.7a11.15,11.15,0,0,1-1.91,2.181l-6.678,6.676-8.637-1.8-.046-.009c-.076-.012-.157-.026-.157-.095a2.607,2.607,0,0,0-1-1.823.15.15,0,0,1-.015-.141.049.049,0,0,1,0-.021L42.3,26.421l.006-.034c.009-.076.023-.165.092-.165a2.644,2.644,0,0,0,1.773-1.016c.014-.015.023-.032.041-.041a.2.2,0,0,1,.157.021l14.747,6.238ZM49,41.817,38.014,52.8l1.88-11.553,0-.015a.207.207,0,0,1,.009-.044c.015-.037.055-.052.093-.067l.018-.008a2.827,2.827,0,0,0,1.062-.79.234.234,0,0,1,.138-.092.138.138,0,0,1,.044,0l7.732,1.589ZM35.689,55.122,34.452,56.36,20.767,36.583l-.015-.021a.134.134,0,0,1-.04-.092.1.1,0,0,1,.034-.064l.015-.02c.041-.061.076-.122.115-.188l.031-.053,0,0a.218.218,0,0,1,.078-.092.185.185,0,0,1,.112,0l15.161,3.127a.251.251,0,0,1,.116.05.112.112,0,0,1,.029.066,2.685,2.685,0,0,0,1.571,1.8c.043.021.024.069,0,.119a.364.364,0,0,0-.023.069C37.768,42.434,36.13,52.425,35.689,55.122ZM33.1,57.707a5.747,5.747,0,0,1-2.058,1.574,3.056,3.056,0,0,1-1.843,0c-.712-.226-1.328-.84-2.558-2.072L12.9,43.466l3.59-5.567a.229.229,0,0,1,.061-.072.158.158,0,0,1,.139,0,3.719,3.719,0,0,0,2.5-.127c.041-.015.083-.026.115,0a.291.291,0,0,1,.043.049L33.1,57.708ZM11.577,42.141,8.424,38.988l6.226-2.656a.128.128,0,0,1,.05-.011c.052,0,.083.052.11.1q.094.144.2.281l.02.024c.018.026.006.052-.012.076l-3.438,5.338ZM7.029,37.593,3.041,33.6c-.678-.678-1.171-1.171-1.513-1.594l12.127,2.515.046.008c.075.012.157.026.157.1s-.09.112-.167.141l-.035.015ZM.831,29.96A3.056,3.056,0,0,1,.969,29.2c.226-.712.84-1.326,2.072-2.558l5.1-5.1q3.525,5.116,7.069,10.219c.041.055.087.116.04.162a4.242,4.242,0,0,0-.6.807.245.245,0,0,1-.076.095.084.084,0,0,1-.064,0h0L.831,29.958Zm8.68-9.785,6.86-6.863c.646.283,3,1.274,5.093,2.161,1.589.672,3.038,1.284,3.493,1.482a.169.169,0,0,1,.107.083.156.156,0,0,1,0,.092,3.061,3.061,0,0,0,.8,2.793c.046.046,0,.112-.04.168l-.021.032L18.834,30.917a.211.211,0,0,1-.066.076.177.177,0,0,1-.131,0,3.475,3.475,0,0,0-.83-.113,4.571,4.571,0,0,0-.8.1h0a.1.1,0,0,1-.083-.008.321.321,0,0,1-.069-.078L9.509,20.175Zm8.249-8.249,8.885-8.885C27.875,1.812,28.49,1.2,29.2.971a3.056,3.056,0,0,1,1.843,0c.712.225,1.328.84,2.558,2.071l1.925,1.925L29.21,14.753a.237.237,0,0,1-.063.073.16.16,0,0,1-.138,0,3.2,3.2,0,0,0-2.934.565c-.041.043-.1.018-.154,0-.825-.359-7.243-3.072-8.162-3.461ZM36.871,6.309l5.834,5.834L41.3,20.851v.023a.206.206,0,0,1-.012.058c-.015.031-.046.037-.076.046a2.8,2.8,0,0,0-.837.417.235.235,0,0,0-.031.026.1.1,0,0,1-.061.038.174.174,0,0,1-.066-.011l-8.891-3.778-.017-.008c-.057-.023-.124-.05-.124-.108a3.359,3.359,0,0,0-.474-1.4c-.043-.07-.09-.144-.053-.215ZM30.862,19.46,39.2,22.99c.046.021.1.041.116.089a.162.162,0,0,1,0,.087,2.071,2.071,0,0,0-.046.4V23.8c0,.058-.06.083-.115.105l-.017.006c-1.32.564-18.536,7.905-18.562,7.905a.1.1,0,0,1-.079-.026c-.046-.046,0-.11.041-.168l.021-.031,6.849-10.605.012-.018c.04-.064.086-.136.159-.136l.069.011a3.194,3.194,0,0,0,.432.041,3.094,3.094,0,0,0,2.583-1.371.245.245,0,0,1,.052-.061.154.154,0,0,1,.15.006ZM21.317,33.5l18.766-8a.083.083,0,0,1,.053.026,2.54,2.54,0,0,0,.274.235l.041.026c.038.021.076.046.079.086a.155.155,0,0,1,0,.038L38.92,35.779l-.006.04c-.011.076-.021.164-.093.164a2.642,2.642,0,0,0-2.1,1.294l-.008.012a.213.213,0,0,1-.076.087.171.171,0,0,1-.107,0L21.566,34.291c-.015,0-.232-.793-.249-.795Z" transform="translate(-0.702 0)" fill="url(#radial-gradient)"/>
  </g>
</svg>
