<svg xmlns="http://www.w3.org/2000/svg" xmlns:xlink="http://www.w3.org/1999/xlink" width="112.717" height="69.034" viewBox="0 0 112.717 69.034">
  <defs>
    <clipPath id="clip-path">
      <path id="Path_3062" data-name="Path 3062" d="M205.738,226.1,195,232.294a1.3,1.3,0,0,0-.649,1.123v12.4A1.3,1.3,0,0,0,195,246.94l10.736,6.2a1.3,1.3,0,0,0,1.3,0l10.734-6.2a1.3,1.3,0,0,0,.647-1.123v-12.4a1.3,1.3,0,0,0-.65-1.123l-10.732-6.2a1.3,1.3,0,0,0-1.3,0" transform="translate(-194.354 -225.925)"/>
    </clipPath>
    <linearGradient id="linear-gradient" x1="-0.847" y1="-1.034" x2="-0.838" y2="-1.034" gradientUnits="objectBoundingBox">
      <stop offset="0.3" stop-color="#3e863d"/>
      <stop offset="0.5" stop-color="#55934f"/>
      <stop offset="0.8" stop-color="#5aad45"/>
    </linearGradient>
    <clipPath id="clip-path-2">
      <path id="Path_3064" data-name="Path 3064" d="M195.4,246.712a1.3,1.3,0,0,0,.382.335l9.209,5.319,1.534.882a1.3,1.3,0,0,0,.748.169,1.327,1.327,0,0,0,.255-.047l11.322-20.731a1.284,1.284,0,0,0-.3-.24l-7.029-4.059L207.8,226.2a1.355,1.355,0,0,0-.336-.135Zm0,0" transform="translate(-195.398 -226.069)"/>
    </clipPath>
    <linearGradient id="linear-gradient-2" x1="-0.742" y1="-0.932" x2="-0.737" y2="-0.932" gradientUnits="objectBoundingBox">
      <stop offset="0.57" stop-color="#3e863d"/>
      <stop offset="0.72" stop-color="#619857"/>
      <stop offset="1" stop-color="#76ac64"/>
    </linearGradient>
    <clipPath id="clip-path-3">
      <path id="Path_3066" data-name="Path 3066" d="M208.244,225.939a1.31,1.31,0,0,0-.519.166l-10.7,6.178,11.543,21.024a1.288,1.288,0,0,0,.461-.159l10.735-6.2a1.3,1.3,0,0,0,.627-.886l-11.767-20.1a1.349,1.349,0,0,0-.262-.026c-.036,0-.071,0-.107.005" transform="translate(-197.021 -225.934)"/>
    </clipPath>
    <linearGradient id="linear-gradient-3" x1="-2.148" y1="-2.103" x2="-2.138" y2="-2.103" gradientUnits="objectBoundingBox">
      <stop offset="0.16" stop-color="#6bbf47"/>
      <stop offset="0.38" stop-color="#79b461"/>
      <stop offset="0.47" stop-color="#75ac64"/>
      <stop offset="0.7" stop-color="#659e5a"/>
      <stop offset="0.9" stop-color="#3e863d"/>
    </linearGradient>
  </defs>
  <g id="Node.js_logo" transform="translate(0 0)">
    <path id="Path_3057" data-name="Path 3057" d="M182.6,189.686a2.143,2.143,0,0,1-1.068-.285l-3.4-2.012c-.508-.284-.26-.384-.093-.442a6.861,6.861,0,0,0,1.536-.7.258.258,0,0,1,.253.018l2.611,1.549a.344.344,0,0,0,.315,0l10.179-5.876a.321.321,0,0,0,.155-.275V169.916a.327.327,0,0,0-.157-.28l-10.175-5.871a.313.313,0,0,0-.313,0l-10.173,5.871a.324.324,0,0,0-.161.278v11.746a.314.314,0,0,0,.158.273l2.788,1.61c1.514.757,2.438-.135,2.438-1.032V170.917a.29.29,0,0,1,.3-.293h1.289a.291.291,0,0,1,.293.293v11.6c0,2.018-1.1,3.177-3.014,3.177a4.363,4.363,0,0,1-2.347-.637l-2.67-1.539a2.152,2.152,0,0,1-1.068-1.858V169.913a2.139,2.139,0,0,1,1.068-1.855l10.19-5.878a2.232,2.232,0,0,1,2.14,0l10.177,5.881a2.147,2.147,0,0,1,1.068,1.855v11.746a2.154,2.154,0,0,1-1.068,1.855L183.67,189.4a2.139,2.139,0,0,1-1.073.285" transform="translate(-126.887 -120.652)" fill="#689f63"/>
    <path id="Path_3058" data-name="Path 3058" d="M215.23,197.431c-4.454,0-5.388-2.045-5.388-3.759a.293.293,0,0,1,.295-.293h1.315a.294.294,0,0,1,.29.249c.2,1.34.79,2.015,3.483,2.015,2.145,0,3.058-.485,3.058-1.622,0-.655-.26-1.142-3.593-1.468-2.788-.275-4.51-.889-4.51-3.119,0-2.054,1.733-3.277,4.635-3.277,3.259,0,4.874,1.131,5.078,3.562a.3.3,0,0,1-.079.227.3.3,0,0,1-.217.094h-1.322a.292.292,0,0,1-.285-.229c-.318-1.409-1.088-1.86-3.18-1.86-2.342,0-2.614.815-2.614,1.427,0,.741.321.958,3.481,1.376,3.129.415,4.614,1,4.614,3.2,0,2.217-1.85,3.488-5.076,3.488m12.4-12.457h.341a.3.3,0,0,0,.334-.311c0-.3-.206-.3-.321-.3h-.352Zm-.415-.963h.757c.26,0,.77,0,.77.581a.506.506,0,0,1-.415.54c.3.02.324.219.364.5a2.147,2.147,0,0,0,.115.581h-.466c-.013-.1-.084-.663-.084-.693-.031-.125-.074-.186-.229-.186h-.385v.882H227.2Zm-.91,1.1a1.645,1.645,0,1,0,1.638-1.641,1.647,1.647,0,0,0-1.638,1.641m3.608.008a1.962,1.962,0,1,1-1.962-1.962,1.968,1.968,0,0,1,1.962,1.962" transform="translate(-156.374 -136.491)" fill="#689f63"/>
    <path id="Path_3059" data-name="Path 3059" d="M24.19,23.073a1.3,1.3,0,0,0-.652-1.133L12.746,15.73a1.26,1.26,0,0,0-.593-.171h-.112a1.282,1.282,0,0,0-.6.171L.653,21.94A1.313,1.313,0,0,0,0,23.074L.024,39.8a.642.642,0,0,0,.324.563.617.617,0,0,0,.647,0L7.41,36.688a1.316,1.316,0,0,0,.652-1.131V27.743a1.3,1.3,0,0,1,.651-1.129l2.731-1.573a1.3,1.3,0,0,1,.652-.175,1.273,1.273,0,0,1,.648.175l2.73,1.573a1.3,1.3,0,0,1,.652,1.129v7.813a1.32,1.32,0,0,0,.654,1.131l6.412,3.672a.637.637,0,0,0,.652,0,.654.654,0,0,0,.323-.563Zm50.927,8.708a.324.324,0,0,1-.163.282L71.247,34.2a.327.327,0,0,1-.325,0l-3.707-2.137a.323.323,0,0,1-.163-.282V27.5a.328.328,0,0,1,.161-.283l3.7-2.14a.329.329,0,0,1,.329,0l3.707,2.14a.325.325,0,0,1,.163.283Zm1-31.7a.652.652,0,0,0-.97.57V17.215a.456.456,0,0,1-.684.395l-2.7-1.557a1.3,1.3,0,0,0-1.3,0l-10.8,6.231a1.3,1.3,0,0,0-.652,1.126V35.875A1.3,1.3,0,0,0,59.663,37l10.8,6.235a1.309,1.309,0,0,0,1.3,0L82.559,37a1.307,1.307,0,0,0,.652-1.129V4.807a1.307,1.307,0,0,0-.67-1.139Zm35.951,27.306a1.3,1.3,0,0,0,.648-1.127V23.241a1.3,1.3,0,0,0-.649-1.128l-10.727-6.227a1.3,1.3,0,0,0-1.307,0L89.24,22.116a1.3,1.3,0,0,0-.652,1.129V35.7a1.308,1.308,0,0,0,.657,1.134L99.97,42.951a1.3,1.3,0,0,0,1.279.008l6.487-3.605a.651.651,0,0,0,.005-1.134l-10.86-6.232a.647.647,0,0,1-.329-.563V27.515a.647.647,0,0,1,.326-.565L100.258,25a.644.644,0,0,1,.65,0l3.381,1.949a.65.65,0,0,1,.326.563v3.073a.65.65,0,0,0,.978.563Zm0,0" transform="translate(0)" fill="#333" fill-rule="evenodd"/>
    <path id="Path_3060" data-name="Path 3060" d="M388.111,105.1a.247.247,0,0,1,.25,0l2.072,1.2a.25.25,0,0,1,.125.217v2.393a.25.25,0,0,1-.125.217l-2.072,1.2a.247.247,0,0,1-.25,0l-2.07-1.2a.249.249,0,0,1-.127-.217v-2.393a.247.247,0,0,1,.125-.217Zm0,0" transform="translate(-287.581 -78.296)" fill="#689f63" fill-rule="evenodd"/>
    <g id="Group_1175" data-name="Group 1175" transform="translate(29.569 15.775)" clip-path="url(#clip-path)">
      <path id="Path_3061" data-name="Path 3061" d="M197.537,203.43,167.288,188.6l-15.51,31.64,30.248,14.828Zm0,0" transform="translate(-162.627 -198.113)" fill="url(#linear-gradient)"/>
    </g>
    <g id="Group_1176" data-name="Group 1176" transform="translate(29.835 15.811)" clip-path="url(#clip-path-2)">
      <path id="Path_3063" data-name="Path 3063" d="M144.07,202.97l21.359,28.908,28.247-20.87L172.316,182.1Zm0,0" transform="translate(-157.149 -193.304)" fill="url(#linear-gradient-2)"/>
    </g>
    <g id="Group_1177" data-name="Group 1177" transform="translate(30.249 15.777)" clip-path="url(#clip-path-3)">
      <path id="Path_3065" data-name="Path 3065" d="M197.02,225.934v27.374h23.361V225.934Zm0,0" transform="translate(-197.02 -225.934)" fill="url(#linear-gradient-3)"/>
    </g>
  </g>
</svg>
