<svg id="Group_1167" data-name="Group 1167" xmlns="http://www.w3.org/2000/svg" width="173.272" height="58.81" viewBox="0 0 173.272 58.81">
  <g id="iconfinder_react_7423887" transform="translate(0 0)">
    <ellipse id="Ellipse_6" data-name="Ellipse 6" cx="6.017" cy="6.017" rx="6.017" ry="6.017" transform="translate(26.914 23.356)" fill="#4cc8ed"/>
    <path id="Path_2985" data-name="Path 2985" d="M46.031,53.6c4.723,4.593,9.381,7.311,13.134,7.311a6.5,6.5,0,0,0,3.364-.841c3.364-1.941,4.593-6.793,3.429-13.716-.194-1.229-.453-2.458-.776-3.752,1.294-.388,2.458-.776,3.623-1.165,6.534-2.523,10.157-6.017,10.157-9.834,0-3.882-3.623-7.375-10.157-9.834A29.679,29.679,0,0,0,65.181,20.6c.323-1.294.582-2.523.776-3.752,1.1-7.052-.129-11.969-3.494-13.91A6.5,6.5,0,0,0,59.1,2.1c-3.688,0-8.411,2.717-13.133,7.311C41.308,4.817,36.65,2.1,32.9,2.1a6.5,6.5,0,0,0-3.364.841C26.169,4.882,24.94,9.734,26.1,16.657c.194,1.229.453,2.458.776,3.752-1.294.388-2.458.776-3.623,1.165C16.723,24.1,13.1,27.591,13.1,31.408c0,3.882,3.623,7.375,10.157,9.834a29.679,29.679,0,0,0,3.623,1.165c-.323,1.294-.582,2.523-.776,3.752C25,53.081,26.234,58,29.533,59.874a6.5,6.5,0,0,0,3.364.841c3.752.129,8.411-2.588,13.133-7.117Zm-3.623-8.734c1.165.065,2.394.065,3.623.065s2.458,0,3.623-.065c-1.165,1.553-2.394,2.976-3.623,4.335C44.8,47.841,43.572,46.417,42.408,44.865ZM34.385,38.2c.647,1.1,1.229,2.135,1.941,3.17-2.006-.259-3.882-.582-5.693-.97.582-1.747,1.229-3.558,2.006-5.37.518,1.035,1.1,2.135,1.747,3.17ZM30.633,22.609c1.812-.388,3.688-.712,5.693-.97-.647,1.035-1.294,2.07-1.941,3.17s-1.229,2.135-1.747,3.235A43.25,43.25,0,0,1,30.633,22.609Zm3.558,8.863c.841-1.747,1.747-3.494,2.782-5.24.97-1.682,2.07-3.364,3.17-5.046,1.941-.129,3.882-.194,5.887-.194,2.07,0,4.011.065,5.887.194,1.165,1.682,2.2,3.364,3.17,5.046,1.035,1.747,1.941,3.494,2.782,5.24-.841,1.747-1.747,3.494-2.782,5.24-.97,1.682-2.07,3.364-3.17,5.046-1.941.129-3.882.194-5.887.194-2.07,0-4.011-.065-5.887-.194-1.165-1.682-2.2-3.364-3.17-5.046-1.035-1.747-1.941-3.494-2.782-5.24Zm25.3-3.494-1.747-3.235c-.647-1.1-1.229-2.135-1.941-3.17,2.006.259,3.882.582,5.693.97-.582,1.812-1.229,3.623-2.006,5.435Zm0,6.987c.776,1.812,1.423,3.623,2.006,5.37-1.812.388-3.688.712-5.693.97.647-1.035,1.294-2.07,1.941-3.17.582-.97,1.165-2.07,1.747-3.17Zm1.488,22.45a3.511,3.511,0,0,1-1.876.453c-3.17,0-7.117-2.588-11-6.47a67.737,67.737,0,0,0,5.5-6.793,59.253,59.253,0,0,0,8.669-1.359,33.444,33.444,0,0,1,.712,3.494C63.887,52.24,63.176,56.187,60.976,57.416Zm3.364-34.1c7.246,2.07,11.581,5.24,11.581,8.152,0,2.523-2.976,5.046-8.217,7.052-1.035.388-2.2.776-3.364,1.1a68,68,0,0,0-3.17-8.152,58.6,58.6,0,0,0,3.17-8.152ZM59.164,5.076a3.665,3.665,0,0,1,1.876.453c2.135,1.229,2.911,5.111,2.006,10.675-.194,1.1-.453,2.264-.712,3.494a83.962,83.962,0,0,0-8.669-1.359,59.775,59.775,0,0,0-5.5-6.793C52.048,7.729,55.994,5.076,59.164,5.076Zm-9.51,13c-1.165-.065-2.394-.065-3.623-.065s-2.458,0-3.623.065c1.165-1.553,2.394-2.976,3.623-4.335,1.229,1.359,2.458,2.847,3.623,4.335ZM31.086,5.529a3.51,3.51,0,0,1,1.876-.453c3.17,0,7.117,2.588,11,6.47a67.737,67.737,0,0,0-5.5,6.793A59.252,59.252,0,0,0,29.792,19.7,33.443,33.443,0,0,1,29.08,16.2C28.174,10.7,28.886,6.823,31.086,5.529Zm-3.364,34.1c-7.246-2.07-11.581-5.24-11.581-8.152,0-2.523,2.976-5.046,8.217-7.052,1.035-.388,2.2-.776,3.364-1.1a68,68,0,0,0,3.17,8.152A61.906,61.906,0,0,0,27.722,39.624Zm1.359,7.117c.194-1.1.453-2.264.712-3.494a83.96,83.96,0,0,0,8.669,1.359,59.775,59.775,0,0,0,5.5,6.793c-3.882,3.817-7.828,6.47-11,6.47a3.665,3.665,0,0,1-1.876-.453C28.886,56.187,28.174,52.24,29.08,46.741Z" transform="translate(-13.1 -2.1)" fill="#4cc8ed"/>
  </g>
  <path id="Path_2986" data-name="Path 2986" d="M41.513,382.069a8.08,8.08,0,0,0,1.09-8.621,6.979,6.979,0,0,0-6.738-4.459c-3.666-.1-7.432,0-11.1,0h-.694v25.665h2.973v-9.711H31.7a1.5,1.5,0,0,1,1.387.694l5.946,9.216c.1.2.4.5.595.5H43.5c-2.378-3.667-4.657-7.135-7.036-10.7A7.194,7.194,0,0,0,41.513,382.069Zm-14.468-.2v-9.81h1.09c2.279,0,4.657-.1,6.937.1a4.677,4.677,0,0,1,4.558,4.856,4.929,4.929,0,0,1-4.856,4.856C32.4,381.97,30.018,381.871,27.045,381.871Zm38.35,1.288c-1.586-6.937-7.928-8.72-12.783-6.54-3.766,1.685-5.45,4.955-5.549,9.018a9.608,9.608,0,0,0,3.171,7.928c2.676,2.378,5.946,2.676,9.315,2.081a9.088,9.088,0,0,0,4.856-2.676c-.5-.694-.991-1.387-1.486-1.982-2.775,2.378-5.847,3.171-9.216,1.585-2.18-1.09-3.27-3.766-3.468-5.747h15.36v-1.288a6.112,6.112,0,0,0-.2-2.378Zm-14.963,1.586c-.3-2.973,2.676-6.144,5.946-6.144,3.766-.1,6.144,2.18,6.243,6.144Zm30.422-8.621a17.66,17.66,0,0,0-4.558-.3,9.424,9.424,0,0,0-6.144,3.072c.5.694.892,1.387,1.486,2.18a2.627,2.627,0,0,1,.595-.5A7.183,7.183,0,0,1,77.98,378.5c1.784.1,3.468.694,3.964,2.477a21,21,0,0,1,.4,4.36.582.582,0,0,1-.5-.2,8.559,8.559,0,0,0-7.928-1.685,5.9,5.9,0,0,0-4.558,5.45,6.05,6.05,0,0,0,3.865,6.441,8.958,8.958,0,0,0,5.351.3c1.387-.3,1.982-1.09,3.964-2.18v1.288h2.775c0-3.964.1-8.819,0-13.378,0-2.874-1.685-4.657-4.459-5.252Zm1.387,12.486a2.694,2.694,0,0,0,0,.892c0,2.081-.5,2.775-2.477,3.567a6.572,6.572,0,0,1-4.36.2A3.9,3.9,0,0,1,72.53,389.6a3.838,3.838,0,0,1,2.676-3.865,6.457,6.457,0,0,1,6.243,1.09A1.661,1.661,0,0,1,82.241,388.609ZM97.7,378.8a5.881,5.881,0,0,1,6.738,1.883l.3.2c.694-.595,1.288-1.189,2.081-1.883a4.133,4.133,0,0,1-.595-.793c-2.874-3.072-8.522-3.468-11.99-.991-4.856,3.567-4.757,10.5-2.378,14.171a9.077,9.077,0,0,0,9.414,4.162,8.356,8.356,0,0,0,5.648-3.27c-.694-.595-1.387-1.189-2.081-1.883a1.739,1.739,0,0,0-.4.5,6.071,6.071,0,0,1-9.513-.5,7.834,7.834,0,0,1-1.288-6.243A5.808,5.808,0,0,1,97.7,378.8Zm20.612,13.477a1.226,1.226,0,0,0-.3.2,2.509,2.509,0,0,1-2.477.4c-.892-.4-.991-1.189-1.09-1.982v-11.3c0-.2,0,.2.1-.793h3.766v-2.973h-3.964v-4.955h-2.973v5.351H108.8c-.2,0-.5.2-.5.4a15.838,15.838,0,0,0,0,2.18h3.171v12.684c0,1.585.4,2.973,1.784,3.766a5.741,5.741,0,0,0,5.648-.4c.2-.1.3-.5.3-.595C118.906,393.663,118.609,392.969,118.311,392.276Z" transform="translate(54.069 -353.024)" fill="#4cc8ed"/>
</svg>
