<svg xmlns="http://www.w3.org/2000/svg" width="164.272" height="123.194" viewBox="0 0 164.272 123.194">
  <path id="Sass_Logo_Color" d="M141.425,70.793a34.011,34.011,0,0,0-14.882,3.451c-1.53-3.031-3.06-5.731-3.331-7.711a20.708,20.708,0,0,1-.3-6.481c.36-2.76,1.98-6.691,1.95-6.991s-.36-1.71-3.661-1.74-6.151.63-6.481,1.5a36.2,36.2,0,0,0-1.38,4.891c-.57,3-6.6,13.712-10.052,19.323a20.843,20.843,0,0,1-2.28-5.641,20.708,20.708,0,0,1-.3-6.481c.36-2.76,1.98-6.691,1.95-6.991s-.36-1.71-3.661-1.74-6.151.63-6.481,1.5-.69,2.91-1.38,4.891-8.7,19.863-10.8,24.484c-1.08,2.37-2.01,4.261-2.67,5.551h0a1.368,1.368,0,0,1-.12.24c-.57,1.11-.9,1.71-.9,1.71v.03c-.45.81-.93,1.56-1.17,1.56-.18,0-.51-2.16.06-5.1,1.2-6.211,4.051-15.873,4.021-16.2,0-.18.54-1.86-1.86-2.73a2.979,2.979,0,0,0-3.391.57c-.21,0-.36.51-.36.51s2.61-10.862-4.981-10.862c-4.741,0-11.282,5.191-14.522,9.872-2.04,1.11-6.391,3.481-11.042,6.031-1.77.99-3.6,1.98-5.311,2.91-.12-.12-.24-.27-.36-.39C28.546,70.943,11.564,64.012,12.284,50.84c.27-4.8,1.92-17.4,32.615-32.705,25.264-12.452,45.367-9,48.848-1.35C98.728,27.706,82.975,47.989,56.871,50.93c-9.962,1.11-15.182-2.73-16.5-4.171-1.38-1.5-1.59-1.59-2.1-1.29-.84.45-.3,1.8,0,2.58.78,2.04,3.991,5.641,9.422,7.411,4.8,1.56,16.473,2.43,30.605-3.03,15.813-6.121,28.175-23.134,24.544-37.386C99.208.582,75.2-4.189,52.49,3.882c-13.5,4.8-28.145,12.362-38.676,22.2C1.3,37.788-.678,47.959.132,52.22,3.042,67.343,23.9,77.184,32.237,84.475c-.42.24-.81.45-1.14.63-4.171,2.07-20.073,10.382-24.034,19.173-4.5,9.962.72,17.1,4.171,18.063,10.712,2.97,21.724-2.37,27.635-11.192s5.191-20.283,2.46-25.534a.628.628,0,0,0-.12-.18c1.08-.63,2.19-1.29,3.271-1.92,2.13-1.26,4.231-2.43,6.031-3.391a39.546,39.546,0,0,0-2.13,10.922c-.45,5.641,1.86,12.962,4.891,15.843a5.4,5.4,0,0,0,3.961,1.29c3.541,0,5.131-2.94,6.9-6.421,2.16-4.261,4.111-9.212,4.111-9.212s-2.43,13.382,4.171,13.382c2.4,0,4.831-3.121,5.911-4.711v.03s.06-.09.18-.3c.24-.39.39-.63.39-.63v-.06c.96-1.68,3.121-5.491,6.331-11.822,4.141-8.161,8.131-18.363,8.131-18.363a52.147,52.147,0,0,0,1.59,6.631,62.441,62.441,0,0,0,3.421,7.681c-.96,1.35-1.56,2.1-1.56,2.1l.03.03c-.78,1.02-1.62,2.13-2.55,3.211-3.271,3.9-7.171,8.371-7.711,9.662-.63,1.53-.48,2.64.72,3.541.87.66,2.43.75,4.021.66a18.463,18.463,0,0,0,6.031-1.38,20.241,20.241,0,0,0,5.191-2.73,11.616,11.616,0,0,0,4.981-10.232,20.658,20.658,0,0,0-1.89-7.231c.3-.42.57-.84.87-1.26a137.45,137.45,0,0,0,9-15.543,52.147,52.147,0,0,0,1.59,6.631,44.416,44.416,0,0,0,2.91,6.6c-4.771,3.871-7.711,8.371-8.761,11.312-1.89,5.461-.42,7.921,2.37,8.491a8.363,8.363,0,0,0,4.381-.9,19.954,19.954,0,0,0,5.551-2.85c3.211-2.37,6.3-5.671,6.121-10.142a19.172,19.172,0,0,0-1.38-6,31.424,31.424,0,0,1,15.933-1.83c14.282,1.68,17.1,10.592,16.563,14.342a9.492,9.492,0,0,1-4.531,6.421c-.99.63-1.32.84-1.23,1.29.12.66.6.63,1.44.51,1.17-.21,7.5-3.03,7.771-9.932C164.679,80.335,156.277,70.7,141.425,70.793ZM31.247,107.939C26.506,113.1,19.9,115.05,17.054,113.4c-3.061-1.77-1.86-9.392,3.961-14.852a75.589,75.589,0,0,1,11.132-8.311c.69-.42,1.71-1.02,2.94-1.77.21-.12.33-.18.33-.18h0l.72-.45A20.494,20.494,0,0,1,31.247,107.939ZM65.752,84.475c-1.65,4.021-5.1,14.312-7.2,13.742-1.8-.48-2.91-8.281-.36-15.993A36.332,36.332,0,0,1,63.8,71.933c2.58-2.88,5.431-3.841,6.121-2.67C70.793,70.793,66.773,81.955,65.752,84.475ZM94.227,98.1c-.69.36-1.35.6-1.65.42-.21-.12.3-.6.3-.6s3.571-3.841,4.981-5.581c.81-1.02,1.77-2.22,2.79-3.571v.39C100.648,93.747,96.207,96.837,94.227,98.1Zm21.964-5.011c-.51-.36-.42-1.56,1.29-5.311a19.992,19.992,0,0,1,4.891-6.3,8.494,8.494,0,0,1,.48,2.76C122.822,90.026,118.681,92.187,116.191,93.087Z" transform="translate(0.026 0.026)" fill="#cd6799"/>
</svg>
