<svg xmlns="http://www.w3.org/2000/svg" width="201.522" height="60.639" viewBox="0 0 201.522 60.639">
  <path id="Twilio-logo-red" d="M29.107,22.841a6.266,6.266,0,1,1-6.266-6.266,6.3,6.3,0,0,1,6.266,6.266Zm-6.266,8.692A6.266,6.266,0,1,0,29.107,37.8,6.3,6.3,0,0,0,22.841,31.532Zm37.8-1.213A30.319,30.319,0,1,1,30.319,0,30.279,30.279,0,0,1,60.639,30.319Zm-8.085,0A22.234,22.234,0,1,0,30.319,52.553,22.17,22.17,0,0,0,52.553,30.319ZM37.8,31.532A6.266,6.266,0,1,0,44.064,37.8,6.3,6.3,0,0,0,37.8,31.532Zm0-14.958a6.266,6.266,0,1,0,6.266,6.266A6.3,6.3,0,0,0,37.8,16.575Zm104.3-4.649c.2,0,.4.2.606.4V18.8a.645.645,0,0,1-.606.606H131.384a.645.645,0,0,1-.606-.606V12.532a.645.645,0,0,1,.606-.606H142.1Zm-.2,9.1H121.277a.645.645,0,0,0-.606.606l-2.628,10.106-.2.606-3.234-10.713a.911.911,0,0,0-.606-.606h-8.085a.645.645,0,0,0-.606.606l-3.032,10.106-.2.606-.2-.606-1.213-5.053-1.213-5.053a.911.911,0,0,0-.606-.606H82.671V12.33a.6.6,0,0,0-.809-.4L71.756,15.16a.536.536,0,0,0-.606.606v5.457H68.522a.645.645,0,0,0-.606.606v7.681a.645.645,0,0,0,.606.606h2.628v9.5c0,6.67,3.638,9.7,10.309,9.7A15.5,15.5,0,0,0,88.735,47.7V39.617c0-.4-.4-.606-.606-.4a7.935,7.935,0,0,1-2.83.606c-1.819,0-2.83-.809-2.83-2.83V30.117H88.33a.645.645,0,0,0,.606-.606V23.043l7.681,25.468a.911.911,0,0,0,.606.606h8.489a.645.645,0,0,0,.606-.606l3.638-11.319,1.819,5.862,1.617,5.457a.911.911,0,0,0,.606.606h8.489a.645.645,0,0,0,.606-.606l7.681-25.468V48.511a.645.645,0,0,0,.606.606h10.309a.645.645,0,0,0,.606-.606V21.628c0-.2-.2-.606-.4-.606Zm13.543-9.1H145.128a.645.645,0,0,0-.606.606V48.309a.645.645,0,0,0,.606.606h10.309a.645.645,0,0,0,.606-.606V12.33c0-.2-.2-.4-.606-.4Zm13.745,0H158.469a.645.645,0,0,0-.606.606V18.8a.645.645,0,0,0,.606.606h10.713a.645.645,0,0,0,.606-.606V12.33c0-.2-.2-.4-.606-.4Zm-.2,9.1H158.671a.645.645,0,0,0-.606.606V48.107a.645.645,0,0,0,.606.606H168.98a.645.645,0,0,0,.606-.606V21.628a.645.645,0,0,0-.606-.606Zm32.543,13.745c0,7.681-6.468,14.351-15.564,14.351-8.894,0-15.362-6.67-15.362-14.351s6.468-14.351,15.564-14.351C195.054,20.415,201.522,27.085,201.522,34.766Zm-10.915.2c0-2.83-2.021-5.053-4.447-4.851a4.584,4.584,0,0,0-4.447,4.851,4.716,4.716,0,0,0,4.447,4.851A4.584,4.584,0,0,0,190.607,34.968Z" fill="#f22f46"/>
</svg>
