<svg xmlns="http://www.w3.org/2000/svg" width="212.212" height="89.544" viewBox="0 0 212.212 89.544">
  <path id="Path_3076" data-name="Path 3076" d="M51.233,0H38.675V-5.824h-.182a15.082,15.082,0,0,1-2.139,2.412,16.18,16.18,0,0,1-3.094,2.23A18.939,18.939,0,0,1,29.347.455a15.378,15.378,0,0,1-4.414.637A22.8,22.8,0,0,1,16.016-.591,19.886,19.886,0,0,1,9.146-5.324a21.1,21.1,0,0,1-4.414-7.234,26.327,26.327,0,0,1-1.547-9.191A27.871,27.871,0,0,1,4.6-30.621a24.417,24.417,0,0,1,4-7.508,19.56,19.56,0,0,1,6.325-5.232,17.947,17.947,0,0,1,8.463-1.957A23.454,23.454,0,0,1,31.35-44a12.742,12.742,0,0,1,6.052,4.5h.182V-68.8h13.65ZM38.675-22.113a11.443,11.443,0,0,0-2.867-8.1q-2.866-3.094-8.053-3.094T19.7-30.212a11.443,11.443,0,0,0-2.866,8.1,11.443,11.443,0,0,0,2.866,8.1q2.866,3.094,8.054,3.094t8.053-3.094A11.443,11.443,0,0,0,38.675-22.113ZM66.7-44.226h13.65v7.1h.182a16.777,16.777,0,0,1,5.187-6.143,13.112,13.112,0,0,1,7.553-2.048q1.183,0,2.366.091a11.716,11.716,0,0,1,2.184.364V-32.4a20.617,20.617,0,0,0-2.867-.682A18.561,18.561,0,0,0,92-33.306a14.5,14.5,0,0,0-6.188,1.092,8.216,8.216,0,0,0-3.5,3.049,11.586,11.586,0,0,0-1.592,4.686,45.634,45.634,0,0,0-.364,6.006V0H66.7Zm41.769,0h13.65V0h-13.65ZM107.38-58.149a7.627,7.627,0,0,1,2.32-5.6,7.627,7.627,0,0,1,5.6-2.32,7.627,7.627,0,0,1,5.6,2.32,7.627,7.627,0,0,1,2.321,5.6,7.627,7.627,0,0,1-2.321,5.6,7.627,7.627,0,0,1-5.6,2.32,7.627,7.627,0,0,1-5.6-2.32A7.627,7.627,0,0,1,107.38-58.149Zm30.394,13.923h12.558V-38.4h.182a15.083,15.083,0,0,1,2.138-2.411,16.18,16.18,0,0,1,3.094-2.229,19.251,19.251,0,0,1,3.867-1.638,15.236,15.236,0,0,1,4.459-.637,22.8,22.8,0,0,1,8.918,1.684,19.886,19.886,0,0,1,6.871,4.732,21.1,21.1,0,0,1,4.413,7.235,26.327,26.327,0,0,1,1.547,9.191,27.871,27.871,0,0,1-1.411,8.872,24.417,24.417,0,0,1-4,7.507,19.56,19.56,0,0,1-6.324,5.233,17.948,17.948,0,0,1-8.463,1.956,23.454,23.454,0,0,1-7.962-1.319,12.742,12.742,0,0,1-6.051-4.5h-.182v25.48h-13.65Zm12.558,22.113a11.443,11.443,0,0,0,2.867,8.1q2.866,3.094,8.053,3.094t8.054-3.094a11.443,11.443,0,0,0,2.866-8.1,11.443,11.443,0,0,0-2.866-8.1q-2.867-3.094-8.054-3.094T153.2-30.212A11.443,11.443,0,0,0,150.332-22.113ZM198.653-7.826a8.519,8.519,0,0,1,.637-3.276,8.128,8.128,0,0,1,1.775-2.684,8.128,8.128,0,0,1,2.684-1.775,8.519,8.519,0,0,1,3.276-.637,8.519,8.519,0,0,1,3.276.637,8.128,8.128,0,0,1,2.684,1.775A8.128,8.128,0,0,1,214.76-11.1a8.519,8.519,0,0,1,.637,3.276,8.519,8.519,0,0,1-.637,3.276,8.128,8.128,0,0,1-1.775,2.685A8.128,8.128,0,0,1,210.3-.091a8.519,8.519,0,0,1-3.276.637,8.519,8.519,0,0,1-3.276-.637,8.128,8.128,0,0,1-2.684-1.775A8.128,8.128,0,0,1,199.29-4.55,8.519,8.519,0,0,1,198.653-7.826Z" transform="translate(-3.185 68.796)" fill="#fff"/>
</svg>
