<svg id="golang-logo" xmlns="http://www.w3.org/2000/svg" width="98.537" height="35.454" viewBox="0 0 98.537 35.454">
  <g id="Group_1146" data-name="Group 1146" transform="translate(7.244 9.007)">
    <g id="Group_1145" data-name="Group 1145">
      <g id="Group_1144" data-name="Group 1144">
        <path id="Path_3006" data-name="Path 3006" d="M39.992,99.175c-.192,0-.24-.1-.144-.24l1.007-1.3a.687.687,0,0,1,.528-.24H58.511c.192,0,.24.144.144.288l-.816,1.247a.731.731,0,0,1-.48.288Z" transform="translate(-39.8 -97.4)" fill="#1bacd7"/>
      </g>
    </g>
  </g>
  <g id="Group_1149" data-name="Group 1149" transform="translate(0 13.25)">
    <g id="Group_1148" data-name="Group 1148">
      <g id="Group_1147" data-name="Group 1147">
        <path id="Path_3007" data-name="Path 3007" d="M24.892,108.375c-.192,0-.24-.1-.144-.24l1.008-1.3a.687.687,0,0,1,.528-.24H48.16a.22.22,0,0,1,.24.288l-.384,1.151a.42.42,0,0,1-.432.288Z" transform="translate(-24.7 -106.6)" fill="#1bacd7"/>
      </g>
    </g>
  </g>
  <g id="Group_1152" data-name="Group 1152" transform="translate(11.61 17.492)">
    <g id="Group_1151" data-name="Group 1151">
      <g id="Group_1150" data-name="Group 1150">
        <path id="Path_3008" data-name="Path 3008" d="M49.092,117.575c-.192,0-.24-.144-.144-.288l.672-1.2a.636.636,0,0,1,.48-.288h9.6c.192,0,.288.144.288.336l-.1,1.151a.36.36,0,0,1-.336.336Z" transform="translate(-48.9 -115.8)" fill="#1bacd7"/>
      </g>
    </g>
  </g>
  <g id="Group_1156" data-name="Group 1156" transform="translate(26.154 0)">
    <g id="CXHf1q_5_" transform="translate(0)">
      <g id="Group_1155" data-name="Group 1155">
        <path id="Union_4" data-name="Union 4" d="M39.621,31.39a14.467,14.467,0,0,1-4.8-7.2,19.336,19.336,0,0,1-2.013,3.127,20.136,20.136,0,0,1-13.673,7.854,17.5,17.5,0,0,1-12.906-3.05A14.4,14.4,0,0,1,.137,21.867,17.662,17.662,0,0,1,4.215,8.332,21.415,21.415,0,0,1,17.648.34,17.061,17.061,0,0,1,30.361,2.6a14.622,14.622,0,0,1,5.566,6.514c.287.416.1.647-.48.786-3.022.739-5.085,1.293-8.06,2.033-.719.185-.768.231-1.391-.462a6.391,6.391,0,0,0-2.255-1.756,8.611,8.611,0,0,0-8.684.693,9.741,9.741,0,0,0-4.894,8.778,7.334,7.334,0,0,0,6.477,7.253A9.03,9.03,0,0,0,24.8,23.392c.431-.508.816-1.062,1.3-1.709h-9.26c-1.008,0-1.247-.6-.911-1.386.624-1.432,1.775-3.834,2.446-5.036a1.3,1.3,0,0,1,1.2-.739H35.01A19.4,19.4,0,0,1,38.326,8.53,20.262,20.262,0,0,1,51.759.818c4.894-.831,9.5-.369,13.673,2.355a14.332,14.332,0,0,1,6.765,10.3A17.434,17.434,0,0,1,66.68,29.127a22.254,22.254,0,0,1-11.514,5.911c-1.3.231-2.591.277-3.839.416A18.428,18.428,0,0,1,39.621,31.39ZM52.815,9.131a10.3,10.3,0,0,0-8.4,8.035,7.528,7.528,0,0,0,4.414,8.728,9.1,9.1,0,0,0,7.82-.276c3.79-1.894,5.853-4.85,6.093-8.821a12.936,12.936,0,0,0-.144-1.524,7.765,7.765,0,0,0-7.816-6.362A9.054,9.054,0,0,0,52.815,9.131Z" fill="#1bacd7"/>
      </g>
    </g>
  </g>
</svg>
