<svg xmlns="http://www.w3.org/2000/svg" width="503" height="503" viewBox="0 0 503 503">
  <g id="Group_1200" data-name="Group 1200" transform="translate(3530 -131)">
    <circle id="Ellipse_7" data-name="Ellipse 7" cx="251.5" cy="251.5" r="251.5" transform="translate(-3530 131)" fill="#fff"/>
    <g id="IMG_9427" transform="translate(-3525.813 -75.943)">
      <path id="Path_2914" data-name="Path 2914" d="M336,650.338a2.47,2.47,0,0,1-1.436-1.473,1.918,1.918,0,0,0-1.543-1.263c-1.543,0-4.308-1.736-4.308-2.683s-1.489-1.526-3.989-1.526a16.068,16.068,0,0,1-4.362-1.052,7.217,7.217,0,0,0-2.819-.737c0,.21-.319.053-.745-.263-.745-.631-3.776-1.631-9.893-3.262a23.243,23.243,0,0,1-4.574-1.578,4.028,4.028,0,0,0-1.6-.631,14.736,14.736,0,0,1-1.808-.526,12.751,12.751,0,0,0-2.394-.526,37.033,37.033,0,0,1-4.521-1.315c-1.6-.579-4.787-1.578-7.074-2.263-3.4-.947-4.362-1.052-5.319-.526-1.011.526-1.862.421-5.159-.684-6.117-2-8.085-2.894-8.351-4.051-.16-.526-.479-1-.691-1a37.607,37.607,0,0,1-5.106-4.472c-2.606-2.473-5.106-4.473-5.638-4.473a1.66,1.66,0,0,1-1.223-.526,6.5,6.5,0,0,0-2.021-1.316,20.667,20.667,0,0,1-2.553-1.368c-.8-.631-3.4.263-8.457,2.841-1.649.894-3.936.368-5.691-1.315-1.17-1.1-1.33-1.1-1.808-.316-.585,1.052-2.819.789-4.734-.579-1.649-1.157-4.528-3.044-6.389-3.044a3.353,3.353,0,0,1-1.968-.579c-.745-.737-5.565-2.733-10.246-2.575-2.34.052-3.4-.158-3.936-.737a2.087,2.087,0,0,0-1.383-.842c-1.17,0-4.521-4.367-5.532-7.208-1.7-4.788-1.808-6.682-.532-10.47.691-2.157-2.626-2.634-2.892-3a7.955,7.955,0,0,1-.851-2.683c-.425-2.052-3.776-6.314-4.628-5.788-.585.316-2.5-1.789-3.776-4.209a19.188,19.188,0,0,0-3.4-4.157c-2.872-2.578-6.01-8.734-6.915-13.522-.266-1.421-1.862-7-2.872-10a48.213,48.213,0,0,1-1.542-6.577c-.266-2-.638-4.262-.8-5s-.479-2.157-.638-3.157-.638-3-1.011-4.472c-.372-1.421-1.117-4.472-1.649-6.735l-.9-4.157-3.51-1.631c-1.915-.842-4.255-1.947-5.159-2.368-1.223-.579-2.447-.684-4.787-.421a92.491,92.491,0,0,1-9.521.316c-3.511-.105-7.978-.158-10-.211-1.968,0-3.564-.211-3.564-.421,0-.263-.957-.421-2.074-.421a51.782,51.782,0,0,1-6.01-.526c-2.128-.263-5.213-.631-6.808-.737-3.511-.316-4.308-.474-5.159-1a38.925,38.925,0,0,0-5.319-1.421c-10.638-2.315-12.446-2.894-19.734-6.419-6.968-3.367-7.979-4-12.021-8.05-2.447-2.42-4.947-4.525-5.532-4.683a2.325,2.325,0,0,1-1.33-1.052,77.1,77.1,0,0,0-4.521-6.419c-2.606-3.578-4.521-6.787-5.053-8.576a9.949,9.949,0,0,0-1.7-3.42c-1.064-.789-7.181-12.786-7.181-14.1a51.841,51.841,0,0,0-.745-5.314c-.745-3.946-1.808-12.786-2.234-17.995-.319-3.894.9-17.363,1.915-21.415a34.52,34.52,0,0,0,1.064-6.945c0-2.42.426-3.683,2.287-7.261a103.357,103.357,0,0,1,7.074-12c1.808-2.736,3.723-5.84,4.255-6.84,1.277-2.262,2.074-3.525,7.074-10.944,2.234-3.315,4.2-6.261,4.415-6.577a61.352,61.352,0,0,1,9.042-12.628c2.181-2.21,4.308-4.051,4.787-4.051a4.5,4.5,0,0,0,2.128-1.21c2.819-2.631,6.064-5,7.234-5.367a10.2,10.2,0,0,0,2.925-1.789,49.123,49.123,0,0,1,8.351-5.314,35.24,35.24,0,0,0,3.723-2.1c4.1-2.631,9.947-5.262,11.808-5.262a22.323,22.323,0,0,0,4.149-.579c1.33-.316,3.723-.789,5.319-1.052,6.383-.947,6.383-1,7.447-3.315.532-1.158,1.436-3.473,2.021-5.051,4.468-12,9.947-24.624,11.808-27.36a45.222,45.222,0,0,0,2.394-3.946,40.352,40.352,0,0,1,7.234-9.155c1.33-1.315,3.67-3.841,5.106-5.577a19.01,19.01,0,0,1,4.521-4c3.351-1.631,7.447-3.1,7.925-2.789a6.783,6.783,0,0,0,2.447-.263,85.546,85.546,0,0,1,12.925-1.894,59.89,59.89,0,0,0,11.223-1.736,65.942,65.942,0,0,1,7.393-1.368,101.588,101.588,0,0,0,10.585-2.1c4.362-1.158,7.925-1.789,6.117-1.052-.319.158-.479.789-.372,1.421.213,1.158-.053,1.315-4.2,2.157a26.8,26.8,0,0,0-5.106,1.473c-.372.316-.8.474-.957.316a8.612,8.612,0,0,0-3.3.421c-4.149.894-10.372,2.368-11.01,2.526-.266.105-1.489.316-2.659.526a86.612,86.612,0,0,0-10.106,2.841,15.723,15.723,0,0,1-5.744,1.684c-1.383,0-4.574,1.263-5.159,2.1-.16.158-2.181,1.789-4.521,3.525-2.34,1.789-6.436,5.209-9.042,7.682-2.66,2.42-5.053,4.315-5.372,4.209-.8-.263-1.543.737-2.34,3.21a26.338,26.338,0,0,1-2.181,4.472,11.731,11.731,0,0,0-1.543,2.894,22.549,22.549,0,0,1-2.925,5.893,9.622,9.622,0,0,0-1.277,2.894A36.984,36.984,0,0,1,151,304.292c-2.925,5.525-4.574,11.312-3.511,12.312a5.947,5.947,0,0,0,2.606-.053c2.074-.316,2.447-.579,3.457-2.526,1.968-3.841,6.117-13.206,6.383-14.417a4.946,4.946,0,0,1,1.277-2.052,3.1,3.1,0,0,0,1.011-1.368,16.718,16.718,0,0,1,3.138-3.473,22.7,22.7,0,0,0,3.351-3.736c.16-.474.479-.631.957-.316.585.368.585.526-.053,1-1.011.789-3.351,5.577-3.4,6.893a8.606,8.606,0,0,1-1.383,3.157c-1.223,1.842-4.734,8.892-4.734,9.471,0,.158-.638,1.578-1.383,3.21a10.92,10.92,0,0,0-1.117,3.157,8.962,8.962,0,0,0,2.819.368c2.234.053,2.606-.053,2.872-1.052.213-1,2.925-4.472,5.479-7.1.532-.526.8-1.21.638-1.421-.106-.263.053-.579.479-.737s1.649-1.894,2.766-3.894a56.4,56.4,0,0,1,3.138-5.156c1.277-1.684,4.947-8.682,7.5-14.311a11.486,11.486,0,0,1,1.915-3.315c.213,0,.426-.368.426-.789a1.268,1.268,0,0,1,.8-1.1,2.214,2.214,0,0,0,1.064-1.368c.266-.737.745-.947,1.7-.842,1.117.105,1.6-.21,2.394-1.789,1.117-2.157,2.021-2.473,3.085-1.21.9,1.052.053,3-2.5,5.788a60.32,60.32,0,0,0-5.266,8.945c-1.862,3.788-3.989,7.892-4.681,9.155-.745,1.263-1.7,3.157-2.181,4.209a41.235,41.235,0,0,1-2.34,4.525c-5.053,8.892-5.9,10.418-5.9,10.786s1.862.579,11.436,1.315c15.106,1.21,29.946,3.368,33.988,5a73.242,73.242,0,0,0,7.234,1.578c7.659,1.368,10.638,2.1,11.968,2.946,2.181,1.368,16.968,5.472,19.627,5.472a35.283,35.283,0,0,1,7.766,3.21,48.654,48.654,0,0,0,7.978,3.894,40.44,40.44,0,0,1,4.521,1.894,113.39,113.39,0,0,0,16.755,5.788,28.389,28.389,0,0,1,5.053,1.736,62.8,62.8,0,0,0,7.766,2.946c3.617,1.21,6.862,2.368,7.127,2.578a27.749,27.749,0,0,0,4.255,1.368,28.788,28.788,0,0,1,5.585,1.947,8.6,8.6,0,0,0,2.659.947,9.2,9.2,0,0,1,2.925,1.21c2.074,1.158,3.3,1.578,12.766,4.315,2.66.737,6.223,1.841,7.979,2.473a147.755,147.755,0,0,0,18.776,4.893c2.021.316,2.234.263,2.234-.789a8.172,8.172,0,0,0-.8-2.683,15.8,15.8,0,0,1-1.33-3.788c-.692-3.1-2.819-10.05-3.245-10.365a5.038,5.038,0,0,1-.745-1.526,32.961,32.961,0,0,0-1.223-3.157,13.429,13.429,0,0,1-.851-2.21c-.053-.158-.479-1.1-.957-2.1-1.436-2.841-4.628-10.365-6.383-14.943a43.311,43.311,0,0,0-2.234-5.262,16.534,16.534,0,0,1-1.33-3.42,60.373,60.373,0,0,0-2.819-6.84c-1.17-2.473-2.766-5.893-3.617-7.629-2.713-5.735-5.372-11.049-6.33-12.628-.532-.842-2.287-3.683-3.883-6.314a63.008,63.008,0,0,1-3.83-7.1,65.465,65.465,0,0,0-5.213-9.208c-1.543-2.157-5.159-5.893-5.425-5.63-.213.158-1.011-.158-1.808-.737-1.436-1.052-2.553-1.421-8.883-3a179.033,179.033,0,0,1-18.936-5.682,65.553,65.553,0,0,0-8.51-2.578,43.423,43.423,0,0,1-8.4-2.052,11.912,11.912,0,0,0-3.883-.789c-.213.158-.266-.053-.106-.474a.815.815,0,0,0-.479-1.052c-.532-.21-.9.105-1.064.789-.16.579-.479.947-.745.789a8.691,8.691,0,0,0-3.085.21c-8.191,1.368-8.457,1.421-20.744.737-4.308-.21-7.074-.579-7.287-.947-.266-.421-.426-.316-.426.263,0,.631-.426.842-1.436.789-1.915-.158-3.3-1.315-2.287-1.947a.675.675,0,0,0,.319-.947c-.266-.421,1.968-1.21,4.2-1.421.319-.053,1.383-.21,2.394-.421,1.011-.158,3.67-.474,5.851-.684a28.676,28.676,0,0,0,4.308-.526c.213-.105,4.149-.21,8.776-.263,4.681,0,10.585-.263,13.138-.526,7.234-.842,14.1.526,16.968,3.367.851.842,3.4,1.947,7.393,3.157,6.862,2.157,14.468,4.1,16.436,4.262a9.589,9.589,0,0,1,3.723,1.842,45.175,45.175,0,0,0,4.255,2.683,18.558,18.558,0,0,1,3.936,3.21,116.186,116.186,0,0,1,9.681,12.628,39.954,39.954,0,0,0,2.606,4.1c2.128,3,6.968,12.522,9.521,18.784a52.711,52.711,0,0,0,3.245,6.63,12.551,12.551,0,0,1,1.33,2.263c0,.158,1.17,2.736,2.553,5.682,5.053,10.471,8.4,17.837,10,21.941a19.537,19.537,0,0,0,2.181,4.051,6.9,6.9,0,0,1,1.223,2.315,20.255,20.255,0,0,0,1.862,3.946,16.142,16.142,0,0,1,1.862,4.262c0,1.421,1.064,2.315,2.128,1.736a26.274,26.274,0,0,1,4.042-1.21c1.7-.421,4.574-1.315,6.33-1.947,3.351-1.263,11.329-2.631,16.223-2.894,1.6-.053,5.691-.368,9.042-.684,3.351-.368,9.84-.526,14.361-.474,7.872.158,8.4.211,11.7,1.736,1.915.895,4.84,2.052,6.6,2.631a17.373,17.373,0,0,1,5.106,2.736c4.628,3.894,6.33,11.628,4.255,19.047-.585,2.157-1.436,5.262-1.862,6.893a44.035,44.035,0,0,1-3.457,7.84c-1.436,2.683-2.553,5-2.394,5.156.319.368-1.223,3.157-2.021,3.631a19.812,19.812,0,0,0-2.925,3.315c-2.979,3.946-7.447,8.629-9.734,10.155a46.467,46.467,0,0,0-6.01,4.841,50.385,50.385,0,0,1-4.574,3.367c-1.915,1.263-5,3.578-6.915,5.156-1.862,1.526-3.723,2.789-4.149,2.789a44.037,44.037,0,0,0-6.117,2.578,58.385,58.385,0,0,1-7.021,2.946,40.428,40.428,0,0,0-5.957,2.42,31.256,31.256,0,0,1-5.159,2.052c-1.33,0-1.436.789-.532,4.735.691,2.841,1.17,3.894,1.862,4.051.585.158,1.064.421,1.064.631.053.158.16,1,.266,1.789.16,1.736,1.117,3,2.128,3a4.155,4.155,0,0,1,1.809.631c.8.526,1.277.474,2.394-.105,1.011-.526,1.489-.579,1.968-.105s.372.894-.479,1.789a7.546,7.546,0,0,0-1.489,2.578c-.266,1.1-.106,1.421.745,1.684.638.158,1.117.631,1.117,1.052,0,1.052-2.5,3-3.776,3-.691,0-1.011.368-1.011,1.1,0,1,.213,1.052,1.915.789,3.085-.579,4.734,1.578,2.074,2.736-1.117.526-1.277.842-1.011,2.052a8.057,8.057,0,0,0,1.6,2.841c1.277,1.315,1.649,2.578.9,2.578-.266,0-.851.631-1.383,1.315-.957,1.315-.957,1.368.745,4.788,1.064,2.1,1.968,3.315,2.394,3.157a.765.765,0,0,1,.957.526c.479,1.21.425,1.368-.585,1.052-.851-.263-.957.105-1.064,2.841-.106,2.473.053,3.157.638,3.157.957,0,1.011,1.21.266,2.683a1.275,1.275,0,0,0,.266,1.842c1.17,1.158,1.011,2.473-.532,3.788-1.33,1.158-1.33,2.736,0,2.736,1.011,0,1.223,1,.851,3.946-.319,2.473-.426,2.631-2.074,2.894-2.181.316-2.287,1.158-.16,1.736.9.211,1.7.684,1.7,1.052.053.368.106,1,.16,1.421a6.144,6.144,0,0,1-.319,2c-.213.631-.213,1.158.053,1.158.213,0,.691.579,1.011,1.263a2.636,2.636,0,0,0,1.808,1.473c.9.105,1.223.526,1.223,1.473,0,1.1-.319,1.368-1.808,1.578-1.862.263-2.979,1.578-1.383,1.578.745,0,.851.316.638,1.578-.372,1.842,1.383,5.262,2.713,5.262a11.8,11.8,0,0,1,2.872.895c2.447,1.052,2.5,2.42.16,2.683-2.234.263-2.447.631-1.808,2.894.479,1.789.691,1.947,2.34,1.947,1.277,0,1.862.263,1.862.789,0,.737-.266.895-2.128,1-1.011.053-1.383,3-.585,4.472.372.684.426,1.158.053,1.368-1.277.789-.479,2.21,1.6,2.841,1.808.526,2.128.842,2.128,2.1,0,1.526-1.383,3.209-2.659,3.209a4.187,4.187,0,0,1-1.968-1.158c-.691-.631-1.33-1.052-1.436-.894a10.828,10.828,0,0,0,.213,2.841,7.254,7.254,0,0,1,0,3.157c-.9,1.21-1.064,4.157-.266,5.314.8,1.263.585,5.735-.319,6.314a2.019,2.019,0,0,0-.479,1.473c0,1.684-1.277,2.631-3.032,2.21-3.085-.736-3.032-.789-2.872,2.21.106,2.21-.053,2.736-.745,2.736-1.489,0-1.808,2.1-.638,4.735a20.1,20.1,0,0,1,1.436,4.63c.319,2-2.972,2.2-4.142,3.1a4.841,4.841,0,0,1-2.287,1.052c-1.277,0-1.277.211.319,3.42.957,1.947,1.117,2.683.638,3-.372.263,0,.421.957.473,2.979.105,3.723.263,4.947,1.263,1.277,1.1,1.489,3,.585,5.367-.319.789-.532,4.262-.532,7.629.053,3.631-.16,6.261-.479,6.472-.851.526-.638,1.947.745,5.314a14.838,14.838,0,0,1,1.17,7.05,31.05,31.05,0,0,1-.745,5.788,50.238,50.238,0,0,0-1.17,4.946c-.532,2.683-.957,3.367-3.511,5.788-1.915,1.789-3.351,2.683-4.362,2.736-.8.053-2.606.211-4.042.368a7.22,7.22,0,0,1-3.723-.263c-.585-.368-3.032-.684-5.372-.737s-5.957-.158-8.032-.211a14.561,14.561,0,0,0-4.362.211,10.419,10.419,0,0,1-3.351.053c-1.649-.158-3.032-.053-3.457.316-.532.421-1.383.421-3.191,0-2.553-.632-3.245-.421-4.84,1.473a3.627,3.627,0,0,1-1.862.894,3.67,3.67,0,0,0-1.223.21,20.472,20.472,0,0,1-5.213.105Zm47.233-4.367c0-.421-.426-.684-1.064-.579-1.33.263-1.543.421-1.117,1.052C381.533,647.234,383.235,646.813,383.235,645.971Zm.532-4.209c.266-.263,1.383-1.158,2.394-2.052a7.947,7.947,0,0,1,2.394-1.578c1.117-.053,2.606-2.894,2.713-5.262.106-3.21-.319-6.366-.851-6.051-.426.263-1.011-1.052-1.33-2.841a13.43,13.43,0,0,1,.585-3.262,8.851,8.851,0,0,0,.425-3.683,9.1,9.1,0,0,1-.266-2.315c.106-2.736,0-3.683-.479-3.841-.319-.105-.532-1.1-.532-2.21,0-2.315-1.436-4.262-2.181-3.052-.479.684-.479.474-.691-3.736a3.656,3.656,0,0,0-.479-1.947c-.8-.789-2.234.684-2.394,2.473-.213,2.841-.532,3.315-1.436,2.578-1.117-.895-1.011-2.789.266-4.367a4.682,4.682,0,0,0,1.064-2.052c0-.421-.16-.473-.426-.158a2.559,2.559,0,0,1-1.7.631c-3.83.263-4.628.368-5.479.842a1.164,1.164,0,0,0-.745,1.421c.16.684-.106,1.052-.9,1.263-1.808.474-2.394.368-3.457-.684s-1.064-1.052-3.83.474c-1.542.789-3.085,1.368-3.511,1.21-.372-.158-.691.105-.691.579s.426.842,1.064.842c.8,0,1.064.368,1.064,1.526a2.951,2.951,0,0,1-.745,2.1c-1.064.895-3.4-1.157-3.83-3.42l-.372-1.894-3.511.368c-1.915.211-3.564.579-3.67.842s-.638.474-1.223.474c-.957,0-.9.158.319,2.947,1.542,3.473,1.6,3.683.532,4.1-1.33.474-2.872-2.578-2.713-5.262s-.851-3.893-2.872-3.578c-3.723.579-7.234,1.368-7.659,1.789-.638.631-3.67,0-4.2-.895-.851-1.368-1.17-.631-1.17,2.473,0,1.736-.213,3.157-.532,3.157a1.893,1.893,0,0,1-1.755-1.842c-.319-2.526-.691-3.315-1.542-3.63a1.231,1.231,0,0,0-1.489,1.684c.479,1.263-1.33.631-2.234-.789-1.277-2.052-1.649-2.21-3.564-1.684a22.738,22.738,0,0,1-4.893.474c-2.819,0-3.457-.21-4.787-1.421-1.543-1.473-1.755-1.578-3.67-1.684-1.808-.105-6.33-4.841-8.617-9-2.394-4.315-3.623-10.1-4.634-10.253a8.007,8.007,0,0,1-2.659-1.789c-2.34-2.262-3.989-2.947-6.489-2.789-2.66.105-4.362-.842-3.191-1.789.851-.737,5.532-.368,6.383.474.691.684,1.915.684,1.915.053a7.5,7.5,0,0,0-2.234-2.1c-1.277-.894-2.872-2.052-3.511-2.526a6.627,6.627,0,0,0-2.074-1,3.108,3.108,0,0,1-1.383-.684,6.23,6.23,0,0,0-3.085-.579,13.8,13.8,0,0,1-4.521-.842c-2.287-.947-6.383-1.526-10.9-1.526-3.617,0-7.127,1.737-10.744,5.314-2.659,2.631-3.883,2.789-3.723.474a3.589,3.589,0,0,0-.532-2.262c-.479-.579-.319-.947.691-1.736,1.649-1.158,4.042-3.1,5.213-4.157.745-.737.745-.789-.372-.947a2.658,2.658,0,0,0-1.862.368c-.372.316-2.925.579-5.691.631-5.159.105-7.234-.105-8.351-.789a5.364,5.364,0,0,0-2.872.789,14.408,14.408,0,0,1-4.84,1.315,15.2,15.2,0,0,0-4.042.684,14.889,14.889,0,0,1-4.574.737c-2.66.105-3.191-.052-3.351-.789s.213-.947,1.6-.947a28.529,28.529,0,0,0,5.479-1.1c2.074-.579,4.681-1.263,5.851-1.579a19.255,19.255,0,0,0,2.925-.842,11.568,11.568,0,0,1,1.223-.421,5.6,5.6,0,0,1,.638-.263,8.006,8.006,0,0,1,2.128-.473c.479,0,1.064-.631,1.33-1.315a3.5,3.5,0,0,1,2.34-1.894c1.064-.316,1.915-.789,1.915-1.052,0-.21.479-.526,1.064-.684,1.808-.474,1.17-1.421-.9-1.421-2.234,0-3.085.421-3.085,1.526,0,1.473-1.277,1.157-2.128-.474-.479-.947-.8-1.789-.638-1.894a8.962,8.962,0,0,1,2.34-.421c2.34-.158,3.351-.631,3.351-1.421,0-.316-.745-.368-1.862-.158-1.277.21-1.862.158-1.862-.316s-.585-.526-1.862-.316a82.276,82.276,0,0,0-11.01,3.473,41.974,41.974,0,0,1-7.819,2.1c-.319,0-.585-.473-.585-1.052,0-.737.585-1.157,2.287-1.578,5.106-1.315,15.053-4.42,15.638-4.841a10.657,10.657,0,0,1,3.723-.737c4.574-.421,4.521-.368,3.511-2.946-1.489-4-.745-6.419,1.649-5.209a2.2,2.2,0,0,0,2.394.105,1.979,1.979,0,0,1,2.074-.105c.638.368,1.17.263,1.862-.368.8-.684,1.223-.737,2.553-.263a4.16,4.16,0,0,0,2.34.369c.745-.316,1.436.526,3.989,4.578a6.113,6.113,0,0,0,4.1,3.315,15.89,15.89,0,0,1,4.681,2.683c2.34,2.157,5.479,3.367,8.032,3.052a20.143,20.143,0,0,1,5.319.631c4.415,1,9.574,1.21,10.425.368.638-.631.532-.684-1.7-.947a21.626,21.626,0,0,1-5.266-1c-.106-.158-.532,0-.9.316-.691.579-3.4-.526-4.84-1.894a5.2,5.2,0,0,0-1.33-.947c-.8-.263-.372-.895.745-1.1.372-.105,1.064-.316,1.489-.474a23.393,23.393,0,0,1,8.83-.368c1.7.368,2.925,1.21,4.787,3.157,2.553,2.683,4.255,3.262,5.638,1.947.9-.894,1.436-.842,4.042.421,2.394,1.158,3.085,2.1,2.234,3.157-.426.474-.319.895.266,1.473.957,1,4.362,8.208,5.372,11.418a11.784,11.784,0,0,0,2.394,4.1c1.755,1.736,7.606,5,8.138,4.473a7.81,7.81,0,0,1,2.553-.526c2.766-.316,3.085-.579,3.4-2.841a5.524,5.524,0,0,1,.745-2.262c.532-.526,1.755.105,1.33.737-.16.211.106.684.532,1.052a2.321,2.321,0,0,1,.8,1.368c0,.526.691.737,2.394.737,2.287,0,2.34-.053,2.713-1.947.851-4.63,2.713-5.367,3.351-1.421.319,2.052.585,2.157,3.776,1.841.745-.052.638-2-.213-3.63a39.238,39.238,0,0,1-2.287-7.682c-.213-.895-.053-1.631.372-1.894,1.17-.737,2.128.053,2.128,1.684a4.353,4.353,0,0,0,1.383,2.894c2.021,2,2.5,3.631,1.489,5.156-1.383,2.1-.691,2.947,2.287,2.578a9.273,9.273,0,0,0,3.032-.789c.319-.263-.16-1.947-1.17-4.157-2.234-5.051-1.436-6.945,1.649-3.736.957,1.052,1.223,1.631.8,1.789-1.17.421,1.7,5.314,3.245,5.525,1.968.316,3.883-.947,3.564-2.262a3.041,3.041,0,0,1,.8-2.368c1.011-1.263,1.064-1.315,1.808-.316,1.011,1.315,1.011,2.631.053,3.473a1.251,1.251,0,0,0-.479,1.315c.213.631.479.631,1.755,0a9.94,9.94,0,0,1,3.723-.789h2.181l-.16-1.894c-.213-2.578.8-2.841,1.915-.474.479,1,1.223,1.842,1.649,1.842a1.015,1.015,0,0,1,.9.579c.266.842,9.734.947,10.585.105.8-.789-.532-4.051-2.553-6.366-1.915-2.21-1.543-3.683.479-1.841,1.383,1.21,1.223.105-.532-3.42-2.234-4.472-3.085-7.366-2.394-8.418.745-1.21,2.287-1.473,2.287-.421s3.032,8.629,4.1,10.26l.851,1.263.745-1.421a3.136,3.136,0,0,0,.532-1.736,4.67,4.67,0,0,1,.479-2.368c.532-1.473.585-2.368.213-2.789a4.675,4.675,0,0,1-.532-2.42c0-1-.053-2.368-.053-3.1a23.375,23.375,0,0,1,.213-3.578,9.472,9.472,0,0,0-.106-3.367c-.372-.947-.479-1-1.223-.263-1.223,1.263-2.128.316-.957-1.052.479-.631,1.064-1,1.277-.842.8.789.957-2,.372-6.893-.745-5.84-1.489-8.734-2.234-8.734-.266,0-.479-.316-.479-.737a10.71,10.71,0,0,0-1.862-3.1c-2.128-2.789-2.394-4.788-.851-7.682A41.624,41.624,0,0,0,387,505.179a68.438,68.438,0,0,0,1.436-17.1c-.266-5.84-.425-6.419-2.34-10.207-1.117-2.21-3.4-6.314-5.106-9.155a29.173,29.173,0,0,0-7.447-8.681c-2.394-1.947-4.947-3.946-5.638-4.42-.745-.526-1.277-1.368-1.17-1.842.213-1.421,3.67-.947,7.34,1.052,2.713,1.473,3.191,1.578,3.723.895a10.514,10.514,0,0,1,2.234-1.684c1.7-.947,2.34-2,1.223-2a25.9,25.9,0,0,1-4.415-1.842,33.775,33.775,0,0,0-4.149-1.842,55.521,55.521,0,0,1-5.744-2.473c-3.776-1.789-5.266-2.736-5.266-3.42,0-.579.532-1.052,1.489-1.21.8-.211,2.021-.421,2.713-.579,1.17-.263,1.17-.316-.745-1.684-4.734-3.367-6.6-6.209-5.053-7.629.372-.368.532-.368.372-.053-.372.631,2.5,3.1,7.34,6.366,1.755,1.21,4.574,3.21,6.276,4.525,4.149,3.1,4.84,3,3.245-.368a14.355,14.355,0,0,1-1.277-3.525,22.445,22.445,0,0,0-1.011-3.788,29.029,29.029,0,0,1-1.277-4.472,69.5,69.5,0,0,0-4.255-10.576,2.822,2.822,0,0,0-1.543-1.421c-1.17-.158-3.883-1.842-6.01-3.683-4.894-4.209-8.032-5.525-13.617-5.419-1.862,0-4.84-.105-6.6-.316-3.776-.421-50.584-.526-52.126-.105a35.23,35.23,0,0,1-5.425.316c-4.1.053-4.362.105-4.521,1.263-.16,1.1-.319,1.158-4.894,1-4.734-.158-13.085.789-20.265,2.315-2.021.421-19.065.071-19.65.177-1.649.21-5.957,2.578-5.159,2.789a1.051,1.051,0,0,1,.638.789c0,.316-.319.421-.745.263a1.889,1.889,0,0,0-1.7.737,3.216,3.216,0,0,1-1.436,1c-1.649,0-24.369.3-32.507,9.033-1.064,1.158-3.191,3.315-4.681,4.735a21.64,21.64,0,0,0-3.511,4.1c-.426.789-1.064,1.421-1.436,1.421-.8,0-5.479,9.05-6.489,12.575a26.753,26.753,0,0,0-.851,6.051,37.317,37.317,0,0,1-1.383,7.892c-.745,2.368-1.649,5.472-2.021,6.893-4.149,15.048-3.152,12.585-1.967,24.2s5.8,14.433,6.709,22.272c1.011,8.735,1.277,18.732.532,19.837-1.223,1.684.479,10.523,2.287,12,1.011.842,5.257,2.851,4.247,4.324a1.7,1.7,0,0,0-.213,2.263,9.388,9.388,0,0,1,.745,2.262c.106.579.532,2.315.957,3.736.479,1.473,5.47,5.113,6,7.849,1.117,6.209,1.643,5.479,5.845,7.584,1.649.894,3.517,5.853,4.581,6.8,1.808,1.578,1.968,1.631,2.606.789.479-.684,1.064-.842,2.128-.579,1.915.474,2.287,1.736.851,2.894-.638.526-1.064,1.21-.851,1.526.585.895,2.872.579,3.457-.474.745-1.421,2.34-1.052,2.553.631.213,1.578-.9,2.052-4.893,2.21-1.489.053-2.713.316-2.766.579-.106.263,1.223,1.578,2.872,2.946,2.181,1.842,11.156,2.257,12.326,2.257.957,0,.7.677,3.3,1.677a36.1,36.1,0,0,0,6.436,1.947c.9.053,1.649.316,1.649.526s.479.421,1.064.421,1.064.21,1.064.421c0,.895,2.606,1.684,3.936,1.158a20.65,20.65,0,0,1,3.776-.737,6.36,6.36,0,0,0,4.149-1.894,9.6,9.6,0,0,1,2.553-1.842c.851-.263,1.17-1.052,1.968-5,.426-2.1,2.394-3.42,3.776-2.526.638.368,1.436,0,3.4-1.842,2.021-1.789,2.872-2.262,3.936-2.052,1.117.211,1.277.474,1.064,1.631a32.229,32.229,0,0,1-2.553,5.261l-2.287,3.894,1.542,1.21a26.966,26.966,0,0,0,2.872,1.894c2.234,1.157,4.734,3.946,5.106,5.788.319,1.473,2.925,4.63,3.776,4.63a9.47,9.47,0,0,1,1.968,1.263c.957.684,3.883,2.368,6.489,3.736,2.66,1.368,5.851,3.262,7.181,4.157a39.578,39.578,0,0,0,5.585,3.157,21.827,21.827,0,0,1,3.457,1.894,4.3,4.3,0,0,0,2.181.737c2.553.368,3.723.842,3.4,1.368-.16.263.426.947,1.33,1.578,1.543,1.052,2.128,1.263,5.585,1.842a44.679,44.679,0,0,1,4.787,1.315,36.126,36.126,0,0,0,4.521,1.21,14.073,14.073,0,0,1,3.191,1.052c1.809.789,1.862.789,2.979-.579l1.117-1.368,2.34,1.1a12.784,12.784,0,0,1,5.159,4.209c1.064,1.263,9.255,3.262,10.957,2.631.851-.316.851-.473-.213-1.947-.638-.842-1.489-1.578-1.915-1.578s-.745-.526-.745-1.316c0-.737-.213-1.315-.532-1.315-.266,0-.745-.421-1.011-1-.479-.894-.372-.947,1.968-.737,3.032.21,3.989,1,2.553,2-1.011.789-.745,1.842.532,1.842a.768.768,0,0,1,.745.789c0,1.052.532,1,2.128-.263a4.942,4.942,0,0,1,2.021-1.052,6.9,6.9,0,0,0,2.287-.842,12.356,12.356,0,0,1,3.989-.895c2.074-.052,2.606.158,4.628,2.157,1.277,1.263,2.766,2.21,3.457,2.21,1.436,0,1.543-1.052.106-1.421a1.445,1.445,0,0,1-.106-2.736c.638-.368,1.7-.158,3.723.789,2.713,1.21,3.3,1.947,2.234,2.578-1.277.789-.426,1.736,1.862,2.1a17.646,17.646,0,0,1,4.149,1.052c1.755.736,6.436.526,7.553-.316Zm-31.435-.316a.863.863,0,0,1,1.117-.473c.957.368,1.064-.263.16-1.158-.479-.474-.319-.631.745-.631a2.537,2.537,0,0,1,1.755.526c.585.947,1.223.579,1.489-.895a2.033,2.033,0,0,0-.319-1.841c-1.968-1.21-9.947,2.789-9.947,4.946a7.094,7.094,0,0,0,2.34.21C351.321,642.182,352.172,641.972,352.331,641.446Zm7.074-2.473c-1.17-1.21-1.436-1.052-.745.421.372.789.851,1.1,1.117.842s.106-.789-.372-1.263Zm32.605-14.732a1.32,1.32,0,0,0-.532-1.1c-.266-.158-.532.158-.532.737,0,.631.266,1.1.532,1.1C391.8,624.977,392.011,624.661,392.011,624.24Zm-105.848-1c0-.421-.9-1.158-1.968-1.736a10.538,10.538,0,0,1-2.287-1.315c-.585-.631-4.787-2.526-4.787-2.157,0,.21-.213.105-.425-.211a13.007,13.007,0,0,0-2.766-2.052c-2.287-1.421-2.34-1.473-1.436-.21a18.968,18.968,0,0,1,1.7,2.894c.745,1.631,1.7,2.315,3.245,2.315a.768.768,0,0,0,.745-.789c0-1.21.957-.947,1.17.316.106.842,1.011,1.421,3.351,2.315,1.755.684,3.245,1.263,3.351,1.263C286.11,623.925,286.163,623.609,286.163,623.241Zm-16.808-7.472a1.422,1.422,0,0,0-1.117-.789c-.691,0-.691.158-.16.789a2.192,2.192,0,0,0,1.117.789C269.461,616.558,269.514,616.19,269.355,615.769Zm-1.862-5.419a8.264,8.264,0,0,1-1.011-2.578c0-1.052-2.181-3.1-4.947-4.63a10.9,10.9,0,0,0-2.766-1.21,7.077,7.077,0,0,0,.266,2.42c.372,2.263,1.755,4.315,2.872,4.315.319,0,1.064.737,1.649,1.631,1.17,1.736,2.606,2.578,4.042,2.21C268.4,612.3,268.344,612.086,267.493,610.35Zm122.39-11.1a2.1,2.1,0,0,0-1.011-1.473c-.851-.526-1.064-.474-1.33.158-.426,1.158.585,2.841,1.543,2.526A1.5,1.5,0,0,0,389.883,599.248Zm-53.19-.789c0-3.841-.479-4.841-2.713-5.419-2.766-.737-3.883.368-3.51,3.578.266,2.368,1.011,3.1,2.659,2.789a3.367,3.367,0,0,1,1.915.316C336.427,600.511,336.693,600.353,336.693,598.459Zm27.552,1.052c.957-.316,1.011-.684.8-3.894a32.1,32.1,0,0,0-.426-4.157c-.319-1-5.106-.842-6.542.158-1.543,1.052-1.6,3.893-.053,5.261a5.663,5.663,0,0,1,1.543,2.1C359.991,600.09,361.746,600.3,364.246,599.511ZM347.7,599.2c.426,0,.638-.842.532-2.473-.106-2.21-.266-2.578-1.649-3.052-1.277-.421-1.649-.316-2.5.737-1.223,1.473-1.277,2.578-.16,4.209.638.842,1.223,1.1,2.021.894A8.943,8.943,0,0,1,347.7,599.2Zm26.063-1.473c.851-.526.8-9.05-.053-9.05a2.035,2.035,0,0,0-1.223.579c-.691.684-1.755.21-1.755-.895,0-1.052-.745-.947-1.862.316a5.066,5.066,0,0,0-1.011,3.578c0,3.157.9,4.841,2.606,4.841a2.263,2.263,0,0,1,1.6.526c.372.631.851.631,1.7.105ZM386.16,596.3c0-.421-.213-.789-.532-.789-.266,0-.532.368-.532.789s.266.789.532.789C385.947,597.091,386.16,596.723,386.16,596.3Zm-3.617-1.1a2.225,2.225,0,0,0,1.755-1.631c.372-1.526.106-2-.851-1.42a6.69,6.69,0,0,1-2.5.421c-2.021.053-3.138,1.21-2.553,2.683.213.631.691.789,1.543.579.638-.211,1.808-.474,2.606-.631Zm-2.394-4.42c1.436,0,1.6-.789.266-1.526a1.858,1.858,0,0,0-2.766,1.631c0,.894.16,1,.638.526A2.925,2.925,0,0,1,380.15,590.777Zm-39.2-3.157c0-.263-.479-.526-1.117-.526-.585,0-.9.263-.745.526a1.344,1.344,0,0,0,1.117.526C340.629,588.146,340.949,587.936,340.949,587.62Zm-11.968-1.947c.8-.737,4.089-2.676,3.5-5.675-.106-.368-4.628.105-5.213.579-.532.368-.479.842.053,2.21.426.947-2.6,1.729-2.759,1.939-.479.474,1.489,1.842,2.606,1.842A2.821,2.821,0,0,0,328.981,585.673Zm11.057-1.624c-.213-1.473-.16-1.578.851-1,.638.316,1.117.789,1.117,1.1s.957.474,2.287.368c1.489-.105,2.181-.368,2.074-.842a32.43,32.43,0,0,1-.16-3.315c-.106-2.894-.638-3.157-3.936-1.842-.957.421-1.915.631-2.021.474-.532-.526-1.277,1.736-1.383,4.209-.053,1.842-3.079,2.308-2.494,2.308C336.906,585.515,340.251,585.26,340.038,584.049Zm49.094.947c.372-1-.745-5.577-1.543-6.366a1.465,1.465,0,0,0-1.277-.474c-.319.105-1.011-.368-1.543-1.1-1.011-1.631-2.766-1.789-4.468-.421-1.011.789-1.17,1.315-.851,2.841.372,2.1.851,2.578,3.511,3.578a16.406,16.406,0,0,1,3.191,1.631c1.6,1.158,2.606,1.263,2.979.316Zm-27.021-.473a1.834,1.834,0,0,0-1.277-.895c-.851-.158-.9-.053-.266.684C361.42,585.312,362.378,585.417,362.112,584.523Zm-11.6-1.315c0-1.052-.9-2.631-1.277-2.263a3.8,3.8,0,0,0,.053,1.736c.319,1.578,1.223,1.947,1.223.526Zm24.361-1.368c.266-2.262-.532-3.1-3.3-3.315-2.447-.158-2.447-.158-2.447,1.578,0,1.947.9,3.315,2.394,3.578C373.335,584.049,374.718,583.313,374.877,581.839Zm-38.19.737a1.651,1.651,0,0,0-.532-1.368c-.319-.211-.532.263-.532,1s.266,1.368.532,1.368C336.474,583.576,336.687,583.1,336.687,582.576Zm20.265-3.21a13.816,13.816,0,0,0-.266-3.1,3.933,3.933,0,0,0-2.287-.105c-2.34.368-2.713,1.21-1.755,4.578.479,1.631.957,2.315,1.809,2.473,1.808.263,2.606-.842,2.5-3.841Zm-66.541-28.886c0-.526-1.808-1.1-3.564-1.1-1.33,0-1.649.789-.532,1.21C287.433,551.059,290.412,550.954,290.412,550.481Zm-32.978-4c0-.895-1.915-3.946-2.5-3.946-.532,0-.426.526.372,2.1.585,1.157,1.33,2.1,1.6,2.1C257.221,546.745,257.434,546.64,257.434,546.482Zm-95.582-44.618-.745-2.315-2.394.368a6.357,6.357,0,0,1-2.606.105c-.8-.789,0-1.631,2.074-2.262,1.33-.368,2.234-.895,2.074-1.158a4.881,4.881,0,0,1-.266-2c0-.842-.266-1.526-.585-1.526-1.649-.053-5.691-5.262-5.691-7.314a7.792,7.792,0,0,0-.638-2,5.487,5.487,0,0,1-.479-1.894c.213-1.1-.957.316-1.543,1.841-1.383,3.525-5.479,11.47-6.223,12.1-.9.737-2.447,0-2.713-1.263-.16-.842,6.276-14.785,7.447-16.206a22.311,22.311,0,0,0,1.968-3.525c1.011-2.21,1.17-3.1.8-4.42a3.467,3.467,0,0,0-1.011-1.842c-.319-.053-2.394,1.947-4.681,4.42-5.8,6.419-6.117,6.84-6.542,8.682-.426,1.894-1.489,3.683-1.968,3.21-.16-.158-.8.684-1.436,1.894-.691,1.315-1.383,2.1-1.808,1.947a1.374,1.374,0,0,0-1.33.316c-1.064,1.052-.638-1.315.957-5.156,1.862-4.42,6.861-14.417,7.766-15.522a37.629,37.629,0,0,0,2.66-4.42c1.117-2,2.287-4.157,2.606-4.735.532-.947,1.7-2.789,4.947-7.945.372-.579,1.436-2.42,2.287-4.1,1.383-2.631,10.585-15.1,12.606-17.1a2.4,2.4,0,0,0,.691-1.1,10.178,10.178,0,0,1,1.862-2.315c2.021-2.1,2.394-3.21.957-2.789-.532.105-2.021.421-3.351.579a11.351,11.351,0,0,0-3.564,1.1,4.871,4.871,0,0,1-2.234.737,1.872,1.872,0,0,0-1.383.526,1.688,1.688,0,0,1-1.383.526,5.385,5.385,0,0,0-1.968.474,40.006,40.006,0,0,1-5.691,2.21c-2.606.737-14.308,6.472-16.063,7.787a8.432,8.432,0,0,1-3.351,1.368,4.66,4.66,0,0,0-2.5,1c-.585.842-3.883,3.1-3.883,2.631,0-.263-.266-.158-.585.158a1.974,1.974,0,0,1-1.6.316c-1.011-.263-1.011-.316-.106-1.315,1.277-1.421,6.968-5.682,7.553-5.682a2.138,2.138,0,0,0,1.17-.842,12.617,12.617,0,0,1,3.511-2.157,9.272,9.272,0,0,0,2.819-1.684c0-.211.426-.368.957-.421a29.169,29.169,0,0,0,4.84-2.21,28.841,28.841,0,0,1,4.415-2.157,10.678,10.678,0,0,0,2.447-1.263c1.915-1.158,3.032-1.631,9.947-4,1.489-.526,4.468-1.631,6.649-2.526a109.162,109.162,0,0,1,17.021-5.367c1.915-.316,4.521-.947,5.851-1.315a32.41,32.41,0,0,1,5.851-1.052,22.884,22.884,0,0,0,4.521-.842,65.809,65.809,0,0,1,6.489-1.736,56.819,56.819,0,0,0,6.01-1.631,1.785,1.785,0,0,1,1.489.21,4.987,4.987,0,0,0,3.085,0c3.883-.895,9.521-2.157,11.117-2.42a54.663,54.663,0,0,0,5.479-1.473c3.564-1.1,3.883-1.157,4.362-.316.585,1.158,1.7,1,19.255-2.052a88.653,88.653,0,0,1,9.042-.842c5.957-.21,34.68-.526,39.254-.421,1.33.053,5.638.105,9.627.053,3.989,0,9.361.263,11.968.579,2.606.368,9.734.895,15.851,1.158,6.17.316,11.276.684,11.436.894.16.263,1.755.421,3.511.474a125.841,125.841,0,0,1,16.063,2.1c.638.211,1.223.526,1.223.737s.851.579,1.915.789c1.383.21,2.181.105,2.872-.526a2.371,2.371,0,0,1,2.394-.474,3.852,3.852,0,0,0,2.553-.263C388.547,403.894,396.047,401,396.9,401c1.436,0,1.649-1,.319-1.263-.691-.158-2.394-.526-3.883-.789-1.436-.316-4.947-.947-7.713-1.368-7.234-1.158-10.638-1.947-10.638-2.42,0-.789,1.862-1.473,2.713-.947a6.175,6.175,0,0,0,2.606.474c4.894,0,21.6,3.894,23.3,5.419,2.394,2.157,1.223,3.262-6.117,5.682-2.713.894-4.947,1.789-4.947,2.052s-1.064.842-2.394,1.368c-2.021.737-2.34,1.052-2.074,1.947.319,1,.16,1-5.425.631a46.779,46.779,0,0,1-6.33-.684c-.8-.526-4.521-.579-4.521-.053a18.307,18.307,0,0,0,1.543,3.052,8.608,8.608,0,0,1,1.33,2.841c-.16.105,0,.789.266,1.473s1.011,2.631,1.649,4.315c.851,2.1,1.383,2.894,1.808,2.526a22.954,22.954,0,0,1,3.511-1.631c1.6-.631,3.67-1.473,4.521-1.842.9-.421,3.883-1.578,6.649-2.631,7.819-2.894,19.521-9.26,23.138-12.523a17.408,17.408,0,0,1,3.191-2.315,6.865,6.865,0,0,0,1.968-1.421,1.258,1.258,0,0,1,.851-.579c.691,0,3.4-2.841,4.628-4.736,1.064-1.736,1.33-2.1,4.468-5.525a16.731,16.731,0,0,0,2.234-2.631c0-.158.106-.842.16-1.526a4.574,4.574,0,0,1,1.543-2.42c1.808-1.578,2.5-3.052,5.159-11.049a57.725,57.725,0,0,1,2.713-7.314,3.27,3.27,0,0,0,.479-1.789,5.491,5.491,0,0,1,.585-2.262c1.17-2.21-5.106-11.523-7.819-11.523a13.526,13.526,0,0,1-3.617-1.315,20.006,20.006,0,0,0-5.9-1.631c-3.67-.368-21.116,1.1-22.606,1.894a9.519,9.519,0,0,1-3.564.526,53.431,53.431,0,0,0-8.936,1.631c-8.3,2.052-9.042,2.262-12.446,3.578a10.773,10.773,0,0,1-4.255.789c-1.436-.316-1.489-.263-1.383,2,.16,4.367,1.862,9.208,4.042,11.523l2.021,2.157,8.936-.158c4.893-.053,11.01-.053,13.563,0a35.207,35.207,0,0,0,9.1-1c5.479-1.263,7.234-1.315,7.659-.21.372.947-1.862,3-2.659,2.473-.372-.21-4.734.421-13.617,1.947-2.074.368-3.085.368-3.617-.105-.585-.473-1.755-.421-4.947.053a31.057,31.057,0,0,1-9.947.053c-13.138-1.421-25.106-3.683-32.074-6.051-5.9-2-14.255-4.472-17.18-5.051a28.082,28.082,0,0,1-5.585-2.052,96.538,96.538,0,0,0-13.776-5.209c-.957-.263-3.936-1.315-6.649-2.315-2.713-1.052-5.957-2.157-7.181-2.473a38.715,38.715,0,0,1-5.585-2.1,41.282,41.282,0,0,0-7.34-2.42,23.131,23.131,0,0,1-4.255-1.21,11.374,11.374,0,0,0-3.191-1.052c-3.085-.789-8.351-3-8.829-3.788a1.683,1.683,0,0,0-1.277-.474c-1.17,0-9.893-3.946-10.372-4.735-.372-.579-11.17-4-14.84-4.683a10.078,10.078,0,0,0-3.351-.21,1.938,1.938,0,0,1-1.649-.474,12.48,12.48,0,0,0-6.542-2.263,30.108,30.108,0,0,1-5.532-1.263,68.766,68.766,0,0,0-12.074-2.526c-1.117-.158-2.021-.421-2.021-.631a7.457,7.457,0,0,0-3.032-.368c-1.7-.053-6.33-.368-10.266-.737-10.212-1-22.925-.842-28.51.316a5.833,5.833,0,0,1-3.564-.579,4.666,4.666,0,0,0-2.34-.631c-.479.316-14.574,1.1-16.648.947a15.342,15.342,0,0,0-3.457.421c-1.17.263-3.776.895-5.851,1.421a30.646,30.646,0,0,1-6.489.789c-10.957-.368-28.935,7-38.4,15.732A16.441,16.441,0,0,1,92.97,344.7c-.319,0-1.808,1.368-3.3,3.052-1.489,1.631-5,5.262-7.766,8-5,4.893-7.447,7.629-7.447,8.208a18.272,18.272,0,0,1-2.128,2.789,12.9,12.9,0,0,0-2.128,3c0,.631-7.766,15.732-9.042,17.574a100.852,100.852,0,0,0-6.542,13.943c-.479,1.473-1.489,6.419-2.287,11.049-.745,4.63-1.649,9.471-2.021,10.786-.691,2.42-.8,14.522-.106,17.626.16.895.479,2.42.638,3.42.585,3.683,1.915,7.366,2.606,7.366.479,0,.691.684.638,2.262-.053,1.736.426,3.315,2.234,6.84a32.014,32.014,0,0,0,3.032,5.156,1.883,1.883,0,0,1,.745,1.263c0,1.736,12.234,16.521,16.914,20.415,2.713,2.262,9.574,6.156,10.8,6.156a21.474,21.474,0,0,1,3.351,1.315,17.784,17.784,0,0,0,3.511,1.315,5.639,5.639,0,0,1,2.021.737,40.677,40.677,0,0,0,7.553,2.947,7.829,7.829,0,0,1,2.287.737c3.67,1.578,10.638,2.368,21.116,2.473,14.627.053,20.212.053,22.34-.053,2.234-.053,9.2.526,9.521.842a4.4,4.4,0,0,0,1.649.211H162.6l-.745-2.263Zm232.015-8.787a.513.513,0,0,0-.9-.105.961.961,0,0,0-.16,1.158.513.513,0,0,0,.9.105A.961.961,0,0,0,393.866,493.077ZM174.989,473.82c0-.737-.213-1.21-.532-1a1.831,1.831,0,0,0-.532,1.368c0,.526.266,1,.532,1C174.776,475.188,174.989,474.556,174.989,473.82Zm203.718-25.676c0-.631-8.032-5-9.681-5.314-3.457-.631-2.234.526,3.191,3.052C376.952,448.091,378.707,448.669,378.707,448.143Zm-187.229-26.2c0-.684-1.223-.263-1.489.526-.106.368.106.526.638.316.479-.158.851-.579.851-.842Zm-12.5-4.63c.16-.263-.16-.526-.745-.526-.638,0-1.117.263-1.117.526,0,.316.319.526.745.526A1.344,1.344,0,0,0,178.978,417.311Zm86.7-13.733c.585-.842-.053-1.158-1.6-.789-.745.21-1.223.579-1.064.842A1.927,1.927,0,0,0,265.678,403.578Zm4.2.105c.16-.263.851-.368,1.542-.21,1.064.263,1.117.21.319-.579-.638-.737-1.117-.789-2.287-.316-.8.263-1.277.737-1.117,1.052A.866.866,0,0,0,269.88,403.683ZM283.5,403c1.277-.053,1.277-.053-.266-.684a2.881,2.881,0,0,0-2.5-.21,2.879,2.879,0,0,1-1.33.421c-1.117-.21-1.808.105-1.436.631.213.368,1.064.421,2.287.263A30.747,30.747,0,0,1,283.5,403Zm8.723.316c1.489-.211,2.447-.631,2.447-1.052,0-1-1.117-1.473-1.649-.684-.266.421-1.17.631-2.553.526-2.287-.158-3.457.263-2.979,1.052C287.859,403.736,288.869,403.736,292.22,403.315Zm21.755-.947c.319-.737-2.074-1.736-2.713-1.1-.16.158,0,.263.319.263a.721.721,0,0,1,.638.789C312.22,403.315,313.6,403.367,313.975,402.368Zm-256.8-13.575c.691-1.473.745-1.578.053-.684-.479.579-1.064,1.368-1.383,1.736-.372.421-.372.631-.053.631S56.748,389.687,57.173,388.793Zm326.959-40.3c-1.011-.316-2.34.316-1.968.947.213.368.745.316,1.489-.105C384.4,348.963,384.558,348.647,384.132,348.489Zm8.67-1.158c.213-.316-.266-.526-1.064-.526s-1.277.21-1.064.526a1.339,1.339,0,0,0,2.128,0ZM278.71,249.73c0-.474-.319-.631-.8-.474-.426.21-.638.526-.479.789C277.859,250.782,278.71,250.572,278.71,249.73Z" transform="translate(0 0)" fill="#373734"/>
      <path id="Path_2915" data-name="Path 2915" d="M655.672,970.685c-.321-.855,1.871-2.994,3.154-2.994.962,0,4.33-2.085,4.651-2.833a4.941,4.941,0,0,0-.695-2.673c-.535-1.069-.855-1.978-.641-1.978.16,0,.053-.267-.321-.642-.909-.909-.8-2.566.16-2.566.909,0,2.619,2.566,3.528,5.346a9,9,0,0,0,1.39,2.619c.855.855.428,4.865-.588,5.56a10.249,10.249,0,0,1-3.528.321,26.144,26.144,0,0,0-4.865.321C656.421,971.487,655.94,971.38,655.672,970.685Z" transform="translate(-292.728 -338.143)" fill="#373734"/>
      <path id="Path_2916" data-name="Path 2916" d="M675.827,942.336a20.959,20.959,0,0,1-.962-6.2A4.373,4.373,0,0,0,673.528,934a6.2,6.2,0,0,1-1.6-2.887c-.214-1.016-.749-1.764-1.176-1.764a.777.777,0,0,1-.748-.8c0-1.336,1.5-4.544,2.138-4.544,1.016,0,3.1,2.673,3.528,4.437a24.633,24.633,0,0,0,2.192,5.078c1.55,2.887,1.764,3.635,1.283,4.6a7.917,7.917,0,0,0-.481,3.261c.16,1.871,0,2.138-1.016,2.3C676.736,943.833,676.255,943.458,675.827,942.336Z" transform="translate(-293.257 -322.784)" fill="#373734"/>
      <path id="Path_2917" data-name="Path 2917" d="M694.154,938.809c.053-.535.428-.909.695-.909.8.053.641,1.283-.16,1.55C694.208,939.611,693.994,939.343,694.154,938.809Z" transform="translate(-304.475 -329.254)" fill="#373734"/>
      <path id="Path_2918" data-name="Path 2918" d="M629.26,933.445c-.214-.481-.214-1.069,0-1.23.16-.214.641-.053.962.267.481.481.481.8,0,1.283S629.528,934.14,629.26,933.445Z" transform="translate(-273.749 -326.563)" fill="#373734"/>
      <path id="Path_2919" data-name="Path 2919" d="M434.717,889.432c-1.176-.428-.748-1.5.855-2.459,1.924-1.123,2.192-1.123,2.192.053C437.711,888.1,435.626,889.753,434.717,889.432Z" transform="translate(-182.449 -305.162)" fill="#373734"/>
      <path id="Path_2920" data-name="Path 2920" d="M474.608,878.551a3.657,3.657,0,0,0-3.261-1.337c-2.192,0-3.582-1.069-3.047-2.406.321-.962,2.833-1.069,4.972-.214a9.584,9.584,0,0,0,2.94.588c2.031-.053,3.849,2.245,2.94,3.689S476,880.155,474.608,878.551Z" transform="translate(-198.451 -304.789)" fill="#373734"/>
      <path id="Path_2921" data-name="Path 2921" d="M339.623,800.485a10.067,10.067,0,0,1,.641-3.849c.909-2.513.909-2.833.053-7.431a51.543,51.543,0,0,1-.962-6.2,8.642,8.642,0,0,0-1.657-3.582c-2.085-2.94-2.031-3.742.428-4.7a6.412,6.412,0,0,0,2.94-2.459c.535-.909,1.069-1.5,1.283-1.337.16.214.642-.053,1.016-.588.642-.8.8-.8,1.23-.107.481.641.695.588,1.818-.428a4.627,4.627,0,0,1,2.619-1.176c1.069,0,1.55-.374,1.924-1.55a2.528,2.528,0,0,1,2.192-1.818,3.039,3.039,0,0,0,2.352-1.871A23.633,23.633,0,0,1,358.547,759c3.368-4.009,5.934-7.163,7.324-8.927,4.17-5.292,7.163-14.968,7.27-23.521l.053-5.453,2.192.16a18.488,18.488,0,0,1,2.245.267,4.457,4.457,0,0,1-.428,1.5,41.783,41.783,0,0,0-.962,7.377c-.321,4.33-.748,6.575-1.6,8.5a26.167,26.167,0,0,0-1.711,5.88,29.321,29.321,0,0,1-1.55,5.773,14.25,14.25,0,0,0-1.069,4.544,8.87,8.87,0,0,1-.855,3.635c-.481.909-1.23,2.245-1.657,3.047a4.487,4.487,0,0,1-3.207,2.352,25.068,25.068,0,0,0-4.277,2.726,37.787,37.787,0,0,1-4.651,2.994c-.588.214-.855.695-.641,1.176.374.962-.909,1.55-4.6,2.085-2.62.374-2.994.748-1.978,1.764.374.374.214,1.069-.481,2.352a5.762,5.762,0,0,0-.8,3.689c.107,1.016.267,2.619.374,3.528a7.205,7.205,0,0,0,.535,2.245,2.048,2.048,0,0,1-.214,1.711,4.453,4.453,0,0,0,.374,4.33c.855,1.016.748,1.55-.428,3.475-.535.909-.855,1.818-.642,2.031.642.588-2.138,3.047-3.207,2.78a6.131,6.131,0,0,0-2.513.214c-1.283.374-1.55.267-1.818-.748Zm22.666-41.056c0-.321-.374-.267-.8.107a2.293,2.293,0,0,0-.8,1.176c0,.321.374.267.8-.107A2.294,2.294,0,0,0,362.289,759.429Z" transform="translate(-136.727 -226.837)" fill="#373734"/>
      <path id="Path_2922" data-name="Path 2922" d="M561.429,844.559a1.929,1.929,0,0,1,.748-2.94,15.634,15.634,0,0,1,4.918-.641c2.138,0,3.956-.267,4.17-.588s1.6-.588,3.047-.588a8.017,8.017,0,0,0,3.047-.374,1.509,1.509,0,0,1,2.513.695c.214.749-.107,1.5-1.016,2.352-1.069,1.016-2.138,1.283-5.72,1.55-2.406.16-5.934.428-7.858.641a10.539,10.539,0,0,1-3.849-.107Z" transform="translate(-241.934 -281.802)" fill="#373734"/>
      <path id="Path_2923" data-name="Path 2923" d="M359.6,832.39c-.321-.8.053-1.39.8-1.39.214,0,.428.481.428,1.069C360.829,833.3,360.027,833.513,359.6,832.39Z" transform="translate(-147.539 -277.967)" fill="#373734"/>
      <path id="Path_2924" data-name="Path 2924" d="M663.676,826.988c-1.069-1.069-.695-1.6.962-1.39.909.16,1.764.053,1.924-.214.588-.962,1.818-.374,1.818.909,0,1.176-.214,1.336-2.031,1.336A4.642,4.642,0,0,1,663.676,826.988Z" transform="translate(-296.292 -275.086)" fill="#373734"/>
      <path id="Path_2925" data-name="Path 2925" d="M656.055,809.8c-.641-1.871-1.443-4.33-1.764-5.506a19.8,19.8,0,0,0-1.283-3.689c-.962-1.871-.321-2.833,1.336-1.978a4.9,4.9,0,0,1,1.6,2.62c.267,1.069.909,3.742,1.443,5.88.535,2.085,1.123,3.849,1.39,3.849.8,0,.428,1.5-.428,1.818-.481.16-.909.321-.962.321A19.579,19.579,0,0,1,656.055,809.8Z" transform="translate(-284.751 -262.625)" fill="#373734"/>
      <path id="Path_2926" data-name="Path 2926" d="M685.066,819.871c.321-1.016.855-1.871,1.283-1.871.909,0,.855.214-.107,2.138C685.12,822.33,684.371,822.17,685.066,819.871Z" transform="translate(-300.145 -271.825)" fill="#373734"/>
      <path id="Path_2927" data-name="Path 2927" d="M475.806,804.953c-1.336-.428-4.544-1.443-7.217-2.352a75.767,75.767,0,0,0-7.431-2.031c-2.887-.481-3.368-.962-2.245-2.459.588-.748.962-.855,1.764-.428,1.39.8,8.126,2.673,12.83,3.582a25.184,25.184,0,0,1,4.33,1.016,1.742,1.742,0,0,0,1.283-.321c.855-.428,1.283-.374,1.871.214.748.748.695.962-.535,2.192C478.853,805.968,479.014,805.915,475.806,804.953Z" transform="translate(-193.884 -262.13)" fill="#373734"/>
      <path id="Path_2928" data-name="Path 2928" d="M537.176,786.059c-.641-.321-1.176-.855-1.176-1.229,0-.641,2.833-3.1,3.635-3.207,2.192-.16,3.956-1.069,4.6-2.245a44.871,44.871,0,0,0,1.657-7.056c.535-3.1,1.016-5.987,1.069-6.415s.428-2.566.8-4.7c.481-2.994.8-3.8,1.283-3.314.855.855.588,8.446-.428,13.364a38,38,0,0,0-.855,6.415,18.457,18.457,0,0,1-.321,3.528c-.321,1.176-3.261,2.887-5.025,2.887-.588,0-1.069.16-1.069.428,0,.214-.695.748-1.5,1.23A2.753,2.753,0,0,1,537.176,786.059Z" transform="translate(-230.209 -243.557)" fill="#373734"/>
      <path id="Path_2929" data-name="Path 2929" d="M576.459,760.243c-.748-.107-2.62-.588-4.116-1.016-2.459-.695-2.94-1.016-3.689-2.78a11.066,11.066,0,0,1-.695-3.849,5.8,5.8,0,0,0-.7-3.207c-.8-1.23-.8-1.924-.107-8.019a95.161,95.161,0,0,1,1.6-9.462,43.757,43.757,0,0,0,1.069-6.682c.481-6.682,2.245-16.251,3.421-18.6a6.559,6.559,0,0,1,2.566-2.78,11.933,11.933,0,0,0,2.245-1.283c1.818-1.39,3.314-1.283,5.4.374,2.031,1.6,6.361,8.607,6.361,10.317a4.991,4.991,0,0,0,.535,1.818c.321.481,1.764,4.651,3.261,9.195a129.671,129.671,0,0,0,5.078,13.044,39.978,39.978,0,0,1,2.673,6.682,36.244,36.244,0,0,0,1.871,5.773c1.711,4.17,1.871,5.506.962,7.27-1.23,2.3-2.032,2.406-4.063.7-1.818-1.5-7.858-2.566-10.531-1.871-7.484,1.978-9.355,2.673-9.676,3.689-.321,1.069-.8,1.123-3.475.695Z" transform="translate(-244.654 -217.267)" fill="#373734"/>
      <path id="Path_2930" data-name="Path 2930" d="M454.841,774.157a31.478,31.478,0,0,0-4.277-1.924A25.839,25.839,0,0,1,444.2,768.7a15.1,15.1,0,0,0-2.94-2.138,4.439,4.439,0,0,1-1.39-.855c-.855-.642-.909-.909-.374-1.23,1.176-.7,4.49.588,6.468,2.513,2.94,2.78,3.742,2.245,1.123-.8a6.648,6.648,0,0,1-1.6-2.566c0-1.39.909-1.336,2.245.16,1.55,1.657,3.528,3.314,3.956,3.314.695,0,6.148,6.041,5.934,6.575-.267.8-2.085,1.123-2.78.481Z" transform="translate(-184.879 -245.67)" fill="#373734"/>
      <path id="Path_2931" data-name="Path 2931" d="M467.54,716.739c-1.6-.374-3.208-.748-3.582-.8a2.281,2.281,0,0,1-1.016-.535,1.883,1.883,0,0,0-1.123-.374c-.909,0-5.239-2.085-8.981-4.277-1.443-.909-2.994-1.764-3.368-1.924-.855-.428-7.377-6.9-9.355-9.248-1.6-1.924-2.619-1.978-1.283,0,1.016,1.39.214,3.689-1.23,3.689-1.55,0-2.673-3.261-2.887-8.393-.16-2.566-.428-6.148-.641-7.912-.855-6.308-.267-12.3,2.031-20.581.748-2.673,2.3-3.368,2.3-1.016,0,1.123.214,1.39,1.39,1.39,1.123,0,1.55-.374,2.085-1.924,1.123-3.154,4.009-6.2,8.66-9.088a29.306,29.306,0,0,1,5.132-2.726,4.5,4.5,0,0,0,1.871-.748,7.318,7.318,0,0,1,2.513-1.016,21.156,21.156,0,0,0,2.833-.855,23.271,23.271,0,0,1,5.827-.588c3.475,0,4.544-.214,5.827-1.123.855-.588,1.55-1.443,1.55-1.924,0-.642.374-.749,1.764-.481a26.589,26.589,0,0,0,2.673.481c.481.053.909.321.909.588,0,.321.588,1.016,1.336,1.657.962.8,1.176,1.283.8,1.871-.428.641-.748.695-2.192.16-2.138-.8-2.459-.588-1.443,1.016a11.953,11.953,0,0,1,1.176,2.673,5.589,5.589,0,0,0,2.245,2.78,11.338,11.338,0,0,1,2.833,2.619c.481.748,1.764,2.619,2.833,4.277a44,44,0,0,1,6.148,14.273c.107.428.267,4.17.321,8.286.053,7.11-.748,13.739-1.818,14.968a2.6,2.6,0,0,0-.481,1.6c0,2.566-5.613,8.714-9.89,10.8a31.38,31.38,0,0,1-8.553,2.513,6.6,6.6,0,0,0-1.6.321c0,.374-3.207.16-5.613-.428Z" transform="translate(-182.463 -191.054)" fill="#373734"/>
      <path id="Path_2932" data-name="Path 2932" d="M606.242,710.593a43.7,43.7,0,0,1-1.657-5.4,23.01,23.01,0,0,0-2.192-5.346,20.785,20.785,0,0,1-2.031-4.918c-.535-3.154-5.132-15.4-7.7-20.528-2.085-4.063-3.742-5.4-6.629-5.4-1.39,0-4.544,1.871-6.2,3.635-1.229,1.336-2.833,1.283-2.833-.053,0-.428,1.069-1.711,2.352-2.94,1.6-1.5,2.3-2.513,2.085-3.207a14.393,14.393,0,0,1,1.122-4.6,25.515,25.515,0,0,0,1.39-4.651c0-.588.214-1.016.481-1.016.428,0,3.261-3.9,3.261-4.49,0-.16-.535-.321-1.176-.428-1.871-.267-1.818-1.764.053-2.566,2.031-.8,3.849-2.673,2.619-2.673-1.55,0-2.138-1.336-1.123-2.619.748-.909,1.764-1.229,4.17-1.5a10.468,10.468,0,0,0,4.17-1.123c1.337-1.176,2.138-.16,1.871,2.459-.214,2.406-.534,2.245,5.72,3.1a8.7,8.7,0,0,1,3.368.909,7.415,7.415,0,0,0,2.94.748c3.849.374,8.927,4.544,13.685,11.28a50.129,50.129,0,0,1,3.8,6.148c1.016,2.352,2.726,9.462,2.619,11.333v7.484c0,7.751-.855,12.883-2.673,15.182-3.047,4.009-4.384,5.346-5.4,5.72a6.2,6.2,0,0,0-2.192,1.283c-1.924,1.818-8.714,2.673-10.745,1.337-1.978-1.283-2.245-.695-.909,1.871,1.443,2.726,1.443,4.277.107,4.277C607.845,713.908,607.257,713,606.242,710.593Zm-9.409-36.4c-.428-.428-.588-.374-.588.214a1.979,1.979,0,0,0,.374,1.229c.214.214.481.107.588-.214A1.243,1.243,0,0,0,596.833,674.189Zm27.8-9.034a5.621,5.621,0,0,0-1.443-2.031c-.748-.642-.695-.321.321,1.443C624.845,667.025,625.486,667.346,624.631,665.154Zm-22.506-7.644c0-.428-.214-.8-.481-.8-.695,0-1.176.855-.748,1.283.588.588,1.229.321,1.229-.481Zm.481-4.491c.535-.321.535-.535.053-.855-.748-.481-3.207.107-3.207.8C599.452,653.607,601.591,653.661,602.606,653.019Zm5.72-3.368c-.535-.321-1.069-.374-1.283-.16-.481.428,1.069,1.336,1.657.962.267-.16.107-.535-.374-.8Z" transform="translate(-249.57 -188.3)" fill="#373734"/>
      <path id="Path_2933" data-name="Path 2933" d="M374.616,657.536a2.879,2.879,0,0,1-.641-1.818c0-2.887-1.283-3.8-2.138-1.55-.535,1.39-1.818,1.764-2.459.748-.374-.588,3.314-6.308,7.163-11.012,2.352-2.94,2.566-3.368,1.764-3.368a11.293,11.293,0,0,1-1.978-.535c-2.3-.909-.855-1.818,1.711-1.123l2.031.588,4.6-4.437c2.513-2.459,5.56-5.239,6.789-6.2,2.031-1.55,2.192-1.818,1.5-2.566-1.123-1.069-.695-1.5,2.138-2.352,1.711-.481,2.406-1.016,2.406-1.657,0-.535.267-.962.535-.962.321,0,.535.481.535,1.069,0,2.192,3.635.8,8.607-3.314a13.153,13.153,0,0,1,2.994-2.031,8.8,8.8,0,0,0,2.352-1.336c1.657-1.069,2.085-1.176,2.887-.588a1.362,1.362,0,0,1,.642,1.55c-.16.481-2.994,2.833-6.2,5.185a49.815,49.815,0,0,0-5.934,4.758c0,.909-3.047,3.849-4.223,4.063a7.641,7.641,0,0,0-2.94,1.764,33.613,33.613,0,0,1-4.063,3.154c-2.887,1.978-8.553,7.965-8.553,9.034a21.072,21.072,0,0,0,.588,3.207c.481,1.818.481,2.513-.053,3.154-1.016,1.176-1.5,1.016-2.566-1.123-.855-1.657-1.069-1.764-1.657-1.069a9.339,9.339,0,0,0-.909,3.9c-.374,4.33-2.94,6.843-4.918,4.865Z" transform="translate(-152.268 -175.833)" fill="#373734"/>
      <path id="Path_2934" data-name="Path 2934" d="M546.935,627.779c-.642-1.6-1.123-2.085-2.031-2.031-2.138.107-2.566-.107-2.566-.962,0-.909-1.55-.641-3.582.641-2.352,1.443-3.154,1.016-4.116-2.352a25.329,25.329,0,0,1-.855-3.849,24.739,24.739,0,0,0-2.406-4.7c-2.192-3.635-3.047-6.522-1.978-6.522.588,0,4.063,4.651,5.346,7.217a31.721,31.721,0,0,1,1.711,4.437c.535,1.711.962,2.245,1.818,2.192,2.138-.053,5.4-1.336,5.453-2.085.053-.428.107-1.069.16-1.443,0-.321.8-.748,1.657-.962,1.924-.428,6.415,1.123,6.415,2.192,0,.962,1.871.962,6.362-.053a83.771,83.771,0,0,1,16.732-2.3c3.635,0,4.17.16,4.491,1.069a2.369,2.369,0,0,1-.374,1.871c-.695.8-1.55.8-6.789-.267a11.548,11.548,0,0,0-5.346.214,24.475,24.475,0,0,1-4.7.748,4.069,4.069,0,0,0-2.031.374c-.428.428-.321.374-5.88,1.443a17.4,17.4,0,0,0-4.7,1.283c-.321.321-.214,1.176.321,2.459.962,2.352.641,3.528-1.016,3.528C548.111,629.918,547.576,629.383,546.935,627.779Z" transform="translate(-227.043 -172.446)" fill="#373734"/>
      <path id="Path_2935" data-name="Path 2935" d="M639.508,581.076a5.043,5.043,0,0,1-1.871-1.871,3.678,3.678,0,0,0-3.154-1.978c-2.138-.267-3.368-1.5-1.55-1.55.535-.053,1.818-.16,2.887-.374,1.657-.267,2.085-.107,2.994,1.069a3.852,3.852,0,0,0,1.924,1.39,1.819,1.819,0,0,1,1.657,2.3,2.425,2.425,0,0,1-2.887,1.016Z" transform="translate(-275.166 -156.769)" fill="#373734"/>
      <path id="Path_2936" data-name="Path 2936" d="M469.923,570.284c-1.123-.481-.962-.588,1.6-.748a7.874,7.874,0,0,0,2.406-.481c2.619-1.123,6.522-2.031,7.8-1.871,2.673.267,1.443,1.229-1.657,1.283-1.924.053-3.314.374-3.956.962C475,570.445,471.527,570.926,469.923,570.284Z" transform="translate(-198.963 -152.948)" fill="#373734"/>
      <path id="Path_2937" data-name="Path 2937" d="M102.378,690.566c-2.459-1.5-7.27-6.415-6.9-7,.641-1.069,1.39-.642,5.72,3.368,2.085,1.924,3.8,2.3,5.346,1.229,1.657-1.176,3.1-1.069,3.1.107C109.648,690.726,105.051,692.17,102.378,690.566Z" transform="translate(-23.81 -207.916)" fill="#373734"/>
      <path id="Path_2938" data-name="Path 2938" d="M106.666,681.641c-.695-1.871-.053-2.352,2.085-1.5,2.352,1.016,2.406,2.94.107,2.94A1.894,1.894,0,0,1,106.666,681.641Z" transform="translate(-28.9 -206.295)" fill="#373734"/>
      <path id="Path_2939" data-name="Path 2939" d="M433,530.817c0-.267.8-.962,1.764-1.55,1.283-.855,3.582-1.39,8.927-2.031,3.956-.481,8.767-1.176,10.692-1.5,1.978-.374,10-.641,18.817-.695,8.5-.053,15.5-.214,15.717-.374a1.741,1.741,0,0,1,1.336-.053c1.6.428,1.39,3.154-.267,3.475a2.279,2.279,0,0,1-1.871-.267c-.855-.855-12.776-1.5-21.7-1.176-11.547.481-31.807,3.1-31.807,4.116,0,.214-.374.428-.8.428S433,531.031,433,530.817Z" transform="translate(-182.123 -132.756)" fill="#373734"/>
      <path id="Path_2940" data-name="Path 2940" d="M453.244,517.974c-.855-1.443,1.229-2.031,8.82-2.673,11.6-.909,31.326-.909,31.326-.053,0,.534-2.619.748-12.3.909-11.6.214-18.122.695-24.43,1.871-3.314.641-2.94.641-3.421-.053Z" transform="translate(-191.461 -128.045)" fill="#373734"/>
      <path id="Path_2941" data-name="Path 2941" d="M484,504.351c0-.641,1.5-1.176,1.871-.641.16.267-.107.641-.588.8C484.16,504.939,484,504.939,484,504.351Z" transform="translate(-205.828 -122.76)" fill="#373734"/>
      <path id="Path_2942" data-name="Path 2942" d="M501.815,502.432a2.322,2.322,0,0,1,1.711-.267c1.069.16,1.016.267-.481.481C501.975,502.806,501.494,502.752,501.815,502.432Z" transform="translate(-214.123 -122.108)" fill="#373734"/>
      <path id="Path_2943" data-name="Path 2943" d="M208,497.669a7.582,7.582,0,0,1,.642-2.3,5.579,5.579,0,0,0,.481-1.978c-.053-.267.267-.321.748-.107a8.261,8.261,0,0,0,1.123.321c.535,0,.107,3.047-.535,3.9-.855,1.123-2.459,1.229-2.459.16Z" transform="translate(-76.63 -117.882)" fill="#373734"/>
      <path id="Path_2944" data-name="Path 2944" d="M218.8,495.853c-.642-.588,1.711-4.49,2.513-4.17.428.16.748.481.748.748C222.066,493.181,219.125,496.228,218.8,495.853Z" transform="translate(-81.637 -117.171)" fill="#373734"/>
      <path id="Path_2945" data-name="Path 2945" d="M494,491.156c0-.855.374-1.016,2.3-1.016a11.073,11.073,0,0,0,3.742-.535c1.871-.748,4.651-.748,4.651-.053,0,.909-1.764,1.5-3.742,1.229a8.619,8.619,0,0,0-3.956.588C494.374,492.492,494,492.439,494,491.156Z" transform="translate(-210.535 -115.92)" fill="#373734"/>
      <path id="Path_2946" data-name="Path 2946" d="M635.359,493.353c-.748-.748-.374-1.336.695-1.176.642.107,1.123.428,1.123.695,0,.641-1.283.962-1.818.481Z" transform="translate(-276.498 -117.387)" fill="#373734"/>
      <path id="Path_2947" data-name="Path 2947" d="M564.987,472.566c-.642-.481-.748-.855-.374-1.123.909-.535,3.314.214,3.314,1.069C567.927,473.475,566.27,473.475,564.987,472.566Z" transform="translate(-243.468 -107.492)" fill="#373734"/>
      <path id="Path_2948" data-name="Path 2948" d="M544.053,466.576c-.428-.16-1.711-.748-2.833-1.283a4.525,4.525,0,0,0-2.513-.748c-.214.107-.695-.107-1.069-.588-.535-.588-.535-.962-.107-1.39.481-.481,1.229-.321,2.94.535a11.789,11.789,0,0,0,3.689,1.176c1.5,0,2.833,1.23,2.3,2.138C546.085,467,545.39,467.057,544.053,466.576Z" transform="translate(-230.767 -103.255)" fill="#373734"/>
      <path id="Path_2949" data-name="Path 2949" d="M530.977,463.55c-1.069-.588-1.283-1.55-.374-1.55a2.446,2.446,0,0,1,1.336.748C533.276,464.138,532.688,464.566,530.977,463.55Z" transform="translate(-227.378 -103.102)" fill="#373734"/>
      <path id="Path_2950" data-name="Path 2950" d="M127,443.25a9.131,9.131,0,0,1,2.138-2.94,12.751,12.751,0,0,0,2.3-2.833c.16-.909,4.384-4.544,6.415-5.506a17.192,17.192,0,0,0,3.582-2.459c2.513-2.3,4.918-3.742,10.264-5.987,3.8-1.6,5.079-1.924,6.736-1.657,1.336.214,2.245.107,2.459-.267.481-.8,3.154-.748,3.956.053,1.016,1.016.748,1.871-.8,2.406-2.085.748-7.056,2.192-8.927,2.566-.8.16-1.39.481-1.23.641.321.321-1.23,1.123-9.141,4.758-5.56,2.513-10.531,5.987-12.242,8.446-.695,1.069-1.6,1.924-1.978,1.924a2.223,2.223,0,0,0-1.39.8C128.283,444.212,127,444.265,127,443.25Z" transform="translate(-38.489 -83.764)" fill="#373734"/>
      <path id="Path_2951" data-name="Path 2951" d="M495.64,451.766a8.6,8.6,0,0,0-3.154-1.443c-4.6-1.443-8.66-3.1-9.034-3.689-.748-1.069-.428-1.39.8-.855.641.267,3.261,1.123,5.88,1.924,5.025,1.55,7.377,3.047,6.415,4.009C496.175,452.087,495.854,452.087,495.64,451.766Z" transform="translate(-205.419 -95.313)" fill="#373734"/>
      <path id="Path_2952" data-name="Path 2952" d="M155.529,446.556c-.428-1.123.855-2.619,3.047-3.475a13.37,13.37,0,0,0,2.513-1.283,23.217,23.217,0,0,1,4.277-2.031c1.925-.748,4.651-1.871,6.094-2.513,2.3-1.069,2.673-1.069,3.368-.374,1.123,1.123.535,1.818-2.138,2.619a14.789,14.789,0,0,0-3.314,1.283,18.739,18.739,0,0,1-3.635,1.23,19.315,19.315,0,0,0-4.7,1.924,9.594,9.594,0,0,1-2.566,1.336c-.321,0-.8.481-1.123,1.069-.695,1.283-1.39,1.39-1.818.214Z" transform="translate(-46.35 -91.006)" fill="#373734"/>
      <path id="Path_2953" data-name="Path 2953" d="M394.585,418.628c-1.123-.428-5.079-1.5-8.821-2.406-7.27-1.764-10.959-3.475-6.468-2.994,4.651.535,6.468.962,12.563,2.78,3.368,1.016,6.468,1.871,6.9,1.871a2.022,2.022,0,0,1,1.336.748c.588.642.321.8-1.39.748a15.912,15.912,0,0,1-4.116-.748Z" transform="translate(-155.947 -79.966)" fill="#373734"/>
      <path id="Path_2954" data-name="Path 2954" d="M253.18,412.021a1.874,1.874,0,0,1,.695-1.6c.695-.695.855-.695.481-.107-.374.695-.267.695.481.054.962-.8,9.89-1.176,10.317-.481.16.267-.107.428-.535.428-.481,0-.695.321-.535.695.214.535-1.016.855-5.185,1.23C254.516,412.609,253.447,412.609,253.18,412.021Z" transform="translate(-97.781 -78.235)" fill="#373734"/>
      <path id="Path_2955" data-name="Path 2955" d="M296,407.429c0-.962,5.72-1.711,6.575-.855.909.909.053,1.283-3.368,1.443C296.8,408.124,296,408.017,296,407.429Z" transform="translate(-117.831 -76.658)" fill="#373734"/>
      <path id="Path_2956" data-name="Path 2956" d="M370.051,348.511a2.417,2.417,0,0,0-1.657-.535c-.855,0-1.283-.267-1.123-.642.107-.428.855-.641,1.764-.481,1.55.16,4.49,1.443,4.49,1.924C373.526,349.313,370.372,349.045,370.051,348.511Z" transform="translate(-151.179 -47.644)" fill="#373734"/>
      <path id="Path_2957" data-name="Path 2957" d="M539.765,300.3c-2.994-2.887-4.116-4.33-4.116-5.346,0-1.924-3.9-6.255-7.324-8.126-.962-.535-1.764-1.23-1.764-1.6s-.374-.535-.8-.374-1.336-.321-2.138-1.069c-.748-.748-1.336-1.123-1.336-.855,0,.214-.588.16-1.336-.16-.748-.374-1.336-.962-1.336-1.283,0-.374-.214-.695-.535-.695-.267,0-.535.321-.535.748,0,.481-.374.642-1.069.481-.588-.16-1.069-.535-1.069-.909,0-.321-.214-.321-.481.107-.374.642-.588.642-1.176,0a2.318,2.318,0,0,0-1.924-.535,16.985,16.985,0,0,1-3.582-.107c-1.711-.267-2.406-.642-2.619-1.443-.267-1.016-.107-1.016,2.726-.695a14.291,14.291,0,0,1,3.421.588,19.726,19.726,0,0,0,2.94.481,34.781,34.781,0,0,1,12.937,4.544,25.239,25.239,0,0,1,8.66,7.751,12.068,12.068,0,0,0,2.619,2.887,2.245,2.245,0,0,1,1.069,1.764c0,.695.962,2.192,2.192,3.475,2.031,2.138,2.513,3.8,1.283,4.223C544.148,304.255,542.01,302.545,539.765,300.3Z" transform="translate(-216.497 -15.737)" fill="#373734"/>
      <path id="Path_2958" data-name="Path 2958" d="M551.009,315.185c-.107-.374-.481-1.6-.8-2.726-.374-1.123-.748-1.925-.909-1.818-.321.374-2.3-1.6-2.3-2.245,0-1.5,1.443-.909,4.009,1.711,2.085,2.031,2.94,3.368,2.94,4.33,0,1.123-.267,1.39-1.336,1.39A1.964,1.964,0,0,1,551.009,315.185Z" transform="translate(-235.336 -29.394)" fill="#373734"/>
      <path id="Path_2959" data-name="Path 2959" d="M536.626,302.315c-.16-.428-1.176-.909-2.245-1.069-4.972-.8-5.185-1.069-3.261-2.994.641-.641,1.283-.909,1.5-.641a3.135,3.135,0,0,0,1.657.962c1.764.481,4.811,2.513,4.811,3.207,0,.267-.267.214-.641-.16-.962-.962-1.657-.748-1.336.428.321,1.23-.053,1.443-.481.267Z" transform="translate(-227.382 -24.702)" fill="#373734"/>
      <path id="Path_2960" data-name="Path 2960" d="M520.736,299.328a2.82,2.82,0,0,1-1.069-.642c-.535-.748-2.673-1.176-2.673-.535,0,.748-2.138.481-2.3-.267-.16-.8,3.368-.962,5.667-.267,1.871.535,2.513,1.23,1.6,1.764a1.969,1.969,0,0,1-1.229-.053Z" transform="translate(-220.212 -24.549)" fill="#373734"/>
      <path id="Path_2961" data-name="Path 2961" d="M494.107,278.13c-.8-.321-.588-.481,1.069-.748,3.475-.588,4.544-.481,4.223.428C499.025,278.665,495.978,278.879,494.107,278.13Z" transform="translate(-210.359 -15.165)" fill="#373734"/>
    </g>
  </g>
</svg>
