<svg xmlns="http://www.w3.org/2000/svg" width="145.997" height="43.931" viewBox="0 0 145.997 43.931">
  <path id="twilio-logo" d="M21.087,16.547a4.54,4.54,0,1,1-4.54-4.54,4.562,4.562,0,0,1,4.54,4.54Zm-4.54,6.3a4.54,4.54,0,1,0,4.54,4.54A4.562,4.562,0,0,0,16.547,22.844Zm27.384-.879A21.965,21.965,0,1,1,21.965,0,21.936,21.936,0,0,1,43.931,21.965Zm-5.857,0A16.108,16.108,0,1,0,21.965,38.073,16.062,16.062,0,0,0,38.073,21.965Zm-10.69.879a4.54,4.54,0,1,0,4.54,4.54A4.562,4.562,0,0,0,27.384,22.844Zm0-10.836a4.54,4.54,0,1,0,4.54,4.54A4.562,4.562,0,0,0,27.384,12.008ZM102.945,8.64c.146,0,.293.146.439.293v4.686a.468.468,0,0,1-.439.439H95.184a.468.468,0,0,1-.439-.439V9.079a.468.468,0,0,1,.439-.439h7.761Zm-.146,6.59H87.862a.468.468,0,0,0-.439.439l-1.9,7.322-.146.439-2.343-7.761a.66.66,0,0,0-.439-.439H76.733a.468.468,0,0,0-.439.439l-2.2,7.322-.146.439-.146-.439-.879-3.661-.879-3.661a.66.66,0,0,0-.439-.439H59.893v-6.3a.432.432,0,0,0-.586-.293l-7.322,2.343a.388.388,0,0,0-.439.439v3.954h-1.9a.468.468,0,0,0-.439.439V21.38a.468.468,0,0,0,.439.439h1.9V28.7c0,4.832,2.636,7.029,7.468,7.029a11.227,11.227,0,0,0,5.272-1.171V28.7c0-.293-.293-.439-.439-.293a5.749,5.749,0,0,1-2.05.439,1.792,1.792,0,0,1-2.05-2.05V21.819h4.247a.468.468,0,0,0,.439-.439V16.694L70,35.145a.66.66,0,0,0,.439.439h6.15a.468.468,0,0,0,.439-.439l2.636-8.2,1.318,4.247,1.171,3.954a.66.66,0,0,0,.439.439h6.15a.468.468,0,0,0,.439-.439l5.565-18.451V35.145a.468.468,0,0,0,.439.439h7.468a.468.468,0,0,0,.439-.439V15.669c0-.146-.146-.439-.293-.439Zm9.811-6.59h-7.468a.468.468,0,0,0-.439.439V35a.468.468,0,0,0,.439.439h7.468a.468.468,0,0,0,.439-.439V8.933c0-.146-.146-.293-.439-.293Zm9.958,0h-7.761a.468.468,0,0,0-.439.439v4.54a.468.468,0,0,0,.439.439h7.761a.468.468,0,0,0,.439-.439V8.933c0-.146-.146-.293-.439-.293Zm-.146,6.59h-7.468a.468.468,0,0,0-.439.439V34.852a.468.468,0,0,0,.439.439h7.468a.468.468,0,0,0,.439-.439V15.669a.468.468,0,0,0-.439-.439ZM146,25.187c0,5.565-4.686,10.4-11.276,10.4-6.443,0-11.129-4.832-11.129-10.4s4.686-10.4,11.276-10.4C141.311,14.79,146,19.622,146,25.187Zm-7.908.146c0-2.05-1.464-3.661-3.222-3.514a3.321,3.321,0,0,0-3.222,3.514,3.416,3.416,0,0,0,3.222,3.514A3.321,3.321,0,0,0,138.09,25.334Z" fill="#f22f46"/>
</svg>
