<svg xmlns="http://www.w3.org/2000/svg" width="75.287" height="81.561" viewBox="0 0 75.287 81.561">
  <g id="Skull_icon_2" data-name="Skull icon 2" transform="translate(-816.357 -1701.439)">
    <path id="Path_2962" data-name="Path 2962" d="M39.643,1A41.679,41.679,0,0,0,14.6,9.1C7.263,14.708,2,23.631,2,35.506,2,45.772,7.679,56.946,8.274,58.1v2.5a9.457,9.457,0,0,0,9.411,9.411,2.827,2.827,0,0,1,3.137,3.137,9.457,9.457,0,0,0,9.411,9.411H49.054a9.457,9.457,0,0,0,9.411-9.411A2.827,2.827,0,0,1,61.6,70.013,9.061,9.061,0,0,0,71.013,60.6V58.09c.6-1.167,6.274-12.43,6.274-23.209A31.487,31.487,0,0,0,64.42,8.989,42.227,42.227,0,0,0,39.643,1Zm0,6.274a36.519,36.519,0,0,1,21.027,6.752c6.093,4.535,10.342,11.144,10.342,20.856,0,8.731-5.943,21.187-5.943,21.187l-.331.662V60.6A2.827,2.827,0,0,1,61.6,63.739a9.061,9.061,0,0,0-9.411,9.411,3.116,3.116,0,0,1-3.137,3.137H30.233A3.116,3.116,0,0,1,27.1,73.15a9.51,9.51,0,0,0-2.647-6.764,9.51,9.51,0,0,0-6.764-2.647A3.116,3.116,0,0,1,14.548,60.6V56.73l-.331-.662S8.274,43.523,8.274,35.506c0-10.083,4.147-16.845,10.146-21.432S32.428,7.274,39.643,7.274ZM25.959,38.643a9.411,9.411,0,1,0,9.411,9.411,9.411,9.411,0,0,0-9.411-9.411Zm27.37,0a9.411,9.411,0,1,0,9.411,9.411A9.411,9.411,0,0,0,53.328,38.643ZM39.643,57.465c-2.51.627-6.274,6.271-6.274,10.036a2.7,2.7,0,0,0,2.512,2.512c2.51,0,3.135-1.882,3.762-3.137.627,1.255,1.252,3.137,3.762,3.137A2.7,2.7,0,0,0,45.917,67.5C45.917,63.737,42.153,58.093,39.643,57.465Z" transform="translate(814.357 1700.439)" fill="#21c2fc"/>
    <g id="puzzle" transform="translate(868.727 1715.35) rotate(90)">
      <g id="Group_1127" data-name="Group 1127" transform="translate(0 0)">
        <path id="Subtraction_2" data-name="Subtraction 2" d="M7.438,24.453H0V5.425H5.409V3.892A3.825,3.825,0,0,1,9.156,0,3.825,3.825,0,0,1,12.9,3.892V5.425h5.4v5.6h.011v.02h1.475a3.895,3.895,0,0,1,0,7.784H18.3v5.62H10.873v-3.64a1.719,1.719,0,1,0-3.436,0v3.64ZM9.156,16.92A3.825,3.825,0,0,1,12.9,20.812v1.533h3.382V16.723h3.5a1.786,1.786,0,0,0,0-3.57h-3.5V7.531h-5.41V3.892a1.719,1.719,0,1,0-3.436,0v3.64H2.027V22.345H5.409V20.812A3.825,3.825,0,0,1,9.156,16.92Z" transform="translate(0)" fill="#21c2fc" stroke="#21c2fc" stroke-width="0.9"/>
      </g>
    </g>
  </g>
</svg>
