<svg xmlns="http://www.w3.org/2000/svg" width="75.287" height="81.561" viewBox="0 0 75.287 81.561">
  <g id="Skull_icon_2" data-name="Skull icon 2" transform="translate(-922.357 -1701.439)">
    <path id="Path_2962" data-name="Path 2962" d="M39.643,1A41.679,41.679,0,0,0,14.6,9.1C7.263,14.708,2,23.631,2,35.506,2,45.772,7.679,56.946,8.274,58.1v2.5a9.457,9.457,0,0,0,9.411,9.411,2.827,2.827,0,0,1,3.137,3.137,9.457,9.457,0,0,0,9.411,9.411H49.054a9.457,9.457,0,0,0,9.411-9.411A2.827,2.827,0,0,1,61.6,70.013,9.061,9.061,0,0,0,71.013,60.6V58.09c.6-1.167,6.274-12.43,6.274-23.209A31.487,31.487,0,0,0,64.42,8.989,42.227,42.227,0,0,0,39.643,1Zm0,6.274a36.519,36.519,0,0,1,21.027,6.752c6.093,4.535,10.342,11.144,10.342,20.856,0,8.731-5.943,21.187-5.943,21.187l-.331.662V60.6A2.827,2.827,0,0,1,61.6,63.739a9.061,9.061,0,0,0-9.411,9.411,3.116,3.116,0,0,1-3.137,3.137H30.233A3.116,3.116,0,0,1,27.1,73.15a9.51,9.51,0,0,0-2.647-6.764,9.51,9.51,0,0,0-6.764-2.647A3.116,3.116,0,0,1,14.548,60.6V56.73l-.331-.662S8.274,43.523,8.274,35.506c0-10.083,4.147-16.845,10.146-21.432S32.428,7.274,39.643,7.274ZM25.959,38.643a9.411,9.411,0,1,0,9.411,9.411,9.411,9.411,0,0,0-9.411-9.411Zm27.37,0a9.411,9.411,0,1,0,9.411,9.411A9.411,9.411,0,0,0,53.328,38.643ZM39.643,57.465c-2.51.627-6.274,6.271-6.274,10.036a2.7,2.7,0,0,0,2.512,2.512c2.51,0,3.135-1.882,3.762-3.137.627,1.255,1.252,3.137,3.762,3.137A2.7,2.7,0,0,0,45.917,67.5C45.917,63.737,42.153,58.093,39.643,57.465Z" transform="translate(920.357 1700.439)" fill="#21c2fc"/>
    <g id="flower" transform="translate(-197.917 1278.429)">
      <path id="Path_2978" data-name="Path 2978" d="M149.822,13.633V6.818a1.363,1.363,0,0,0-1.363-1.363H147.1V1.365A1.363,1.363,0,0,0,145.733,0a14.5,14.5,0,0,0-8.354,1.93,16.219,16.219,0,0,0-5.276-.567,1.363,1.363,0,0,0-1.363,1.363V5.455h-1.363a1.363,1.363,0,0,0-1.363,1.363v6.815a10.9,10.9,0,0,0,21.809,0Zm-2.726,0a8.168,8.168,0,0,1-2.768,6.119,5.485,5.485,0,0,0,.042-.667,13.574,13.574,0,0,0-3.413-9.012,10.882,10.882,0,0,1,6.14-1.893Zm-2.726-10.9v3q-.378.077-.75.175a13.637,13.637,0,0,0-2.994-2.515A10.889,10.889,0,0,1,144.37,2.729Zm-10.9,1.363a10.835,10.835,0,0,1,7.383,2.878,13.6,13.6,0,0,0-1.935,1.215,13.574,13.574,0,0,0-5.448-2.456Zm-2.726,9.542V8.181a10.917,10.917,0,0,1,10.9,10.9,2.729,2.729,0,0,1-2.8,2.725A8.181,8.181,0,0,1,130.739,13.633Z" transform="translate(1019 435)" fill="#21c2fc"/>
    </g>
  </g>
</svg>
