<svg xmlns="http://www.w3.org/2000/svg" width="75.287" height="81.561" viewBox="0 0 75.287 81.561">
  <g id="Skull_icon_2" data-name="Skull icon 2" transform="translate(-816.357 -1701.439)">
    <path id="Path_2962" data-name="Path 2962" d="M39.643,1A41.679,41.679,0,0,0,14.6,9.1C7.263,14.708,2,23.631,2,35.506,2,45.772,7.679,56.946,8.274,58.1v2.5a9.457,9.457,0,0,0,9.411,9.411,2.827,2.827,0,0,1,3.137,3.137,9.457,9.457,0,0,0,9.411,9.411H49.054a9.457,9.457,0,0,0,9.411-9.411A2.827,2.827,0,0,1,61.6,70.013,9.061,9.061,0,0,0,71.013,60.6V58.09c.6-1.167,6.274-12.43,6.274-23.209A31.487,31.487,0,0,0,64.42,8.989,42.227,42.227,0,0,0,39.643,1Zm0,6.274a36.519,36.519,0,0,1,21.027,6.752c6.093,4.535,10.342,11.144,10.342,20.856,0,8.731-5.943,21.187-5.943,21.187l-.331.662V60.6A2.827,2.827,0,0,1,61.6,63.739a9.061,9.061,0,0,0-9.411,9.411,3.116,3.116,0,0,1-3.137,3.137H30.233A3.116,3.116,0,0,1,27.1,73.15a9.51,9.51,0,0,0-2.647-6.764,9.51,9.51,0,0,0-6.764-2.647A3.116,3.116,0,0,1,14.548,60.6V56.73l-.331-.662S8.274,43.523,8.274,35.506c0-10.083,4.147-16.845,10.146-21.432S32.428,7.274,39.643,7.274ZM25.959,38.643a9.411,9.411,0,1,0,9.411,9.411,9.411,9.411,0,0,0-9.411-9.411Zm27.37,0a9.411,9.411,0,1,0,9.411,9.411A9.411,9.411,0,0,0,53.328,38.643ZM39.643,57.465c-2.51.627-6.274,6.271-6.274,10.036a2.7,2.7,0,0,0,2.512,2.512c2.51,0,3.135-1.882,3.762-3.137.627,1.255,1.252,3.137,3.762,3.137A2.7,2.7,0,0,0,45.917,67.5C45.917,63.737,42.153,58.093,39.643,57.465Z" transform="translate(814.357 1700.439)" fill="#21c2fc"/>
    <path id="Path_2977" data-name="Path 2977" d="M-6.62,8.9l8.8,7.089V11.064L-3.894,6.377,2.184,1.612V-3.311l-8.8,7.089ZM5.2,17.876H8.54L8.6-4.925H5.2Zm6.3-1.888L20.3,8.9V3.778L11.5-3.311V1.612l5.945,4.766L11.5,11.064Z" transform="translate(846.345 1719.222)" fill="#21c2fc"/>
  </g>
</svg>
