<svg xmlns="http://www.w3.org/2000/svg" width="93.24" height="25.704" viewBox="0 0 93.24 25.704">
  <path id="Path_3081" data-name="Path 3081" d="M2.376,0V-25.7H13.14q9.252,0,9.252,6.66a6.25,6.25,0,0,1-.774,3.222,5.9,5.9,0,0,1-2.394,2.178A6.962,6.962,0,0,1,22.14-11.2a6.588,6.588,0,0,1,.936,3.6,6.7,6.7,0,0,1-2.538,5.634Q18,0,13.248,0Zm10.3-5.184a4.7,4.7,0,0,0,2.88-.7,2.59,2.59,0,0,0,.9-2.178,2.464,2.464,0,0,0-.846-2.088,4.506,4.506,0,0,0-2.718-.648h-4v5.616ZM12.636-15.84a4.034,4.034,0,0,0,2.376-.54,2.106,2.106,0,0,0,.72-1.8,2.02,2.02,0,0,0-.792-1.8,4.913,4.913,0,0,0-2.664-.54H8.892v4.68ZM45.432,0V-10.152H37.08V0H30.168V-25.7H37.08v9.324h8.352V-25.7h6.912V0ZM60.7,0V-25.7H70.812q6.372,0,9.684,3.2t3.312,9.36q0,6.336-3.474,9.738T70.416,0Zm9.828-5.832q6.12,0,6.12-7.092a8.077,8.077,0,0,0-1.422-5.238,5.32,5.32,0,0,0-4.338-1.71H67.608v14.04ZM89.352,0V-6.876h6.264V0Z" transform="translate(-2.376 25.704)"/>
</svg>
