<svg xmlns="http://www.w3.org/2000/svg" width="380" height="380" viewBox="0 0 380 380">
  <g id="IMG_9427" transform="translate(-44.303 -244.433)">
    <path id="Path_2914" data-name="Path 2914" d="M317.308,624.325a2.312,2.312,0,0,1-1.344-1.379,1.8,1.8,0,0,0-1.444-1.182c-1.444,0-4.032-1.625-4.032-2.511s-1.394-1.428-3.734-1.428a15.041,15.041,0,0,1-4.082-.985,6.755,6.755,0,0,0-2.638-.689c0,.2-.3.049-.7-.246-.7-.591-3.534-1.527-9.259-3.053a21.757,21.757,0,0,1-4.281-1.477,3.772,3.772,0,0,0-1.493-.591,13.789,13.789,0,0,1-1.693-.492,11.938,11.938,0,0,0-2.24-.492,34.66,34.66,0,0,1-4.231-1.231c-1.493-.542-4.48-1.477-6.621-2.117-3.186-.886-4.082-.985-4.978-.492-.946.492-1.742.394-4.829-.64-5.725-1.871-7.567-2.708-7.816-3.792-.149-.492-.448-.936-.647-.936a35.191,35.191,0,0,1-4.779-4.186c-2.439-2.315-4.779-4.186-5.277-4.186a1.553,1.553,0,0,1-1.145-.492,6.086,6.086,0,0,0-1.892-1.231,19.357,19.357,0,0,1-2.389-1.28c-.747-.591-3.186.246-7.915,2.659-1.543.837-3.684.345-5.327-1.231-1.1-1.034-1.245-1.034-1.693-.3-.548.985-2.638.739-4.431-.542-1.543-1.083-4.237-2.849-5.98-2.849a3.138,3.138,0,0,1-1.842-.542c-.7-.69-5.209-2.557-9.59-2.41-2.19.049-3.186-.148-3.684-.69a1.953,1.953,0,0,0-1.294-.788c-1.1,0-4.231-4.087-5.177-6.746-1.593-4.481-1.693-6.254-.5-9.8.647-2.019-2.458-2.465-2.706-2.81a7.446,7.446,0,0,1-.8-2.511c-.4-1.921-3.534-5.909-4.331-5.417-.548.3-2.34-1.674-3.534-3.94a17.959,17.959,0,0,0-3.186-3.89c-2.688-2.413-5.625-8.174-6.472-12.656-.249-1.33-1.742-6.549-2.688-9.356a45.123,45.123,0,0,1-1.444-6.155c-.249-1.871-.6-3.989-.747-4.678s-.448-2.019-.6-2.955-.6-2.807-.946-4.186c-.348-1.33-1.045-4.186-1.543-6.3l-.846-3.89-3.286-1.527c-1.792-.788-3.983-1.822-4.829-2.216-1.145-.542-2.29-.64-4.48-.394a86.562,86.562,0,0,1-8.911.3c-3.286-.1-7.467-.148-9.359-.2-1.842,0-3.335-.2-3.335-.394,0-.246-.9-.394-1.941-.394a48.471,48.471,0,0,1-5.625-.492c-1.991-.246-4.879-.591-6.372-.689-3.286-.3-4.032-.443-4.829-.936a36.43,36.43,0,0,0-4.978-1.33c-9.956-2.167-11.649-2.708-18.469-6.008-6.521-3.152-7.467-3.743-11.251-7.534-2.29-2.265-4.63-4.235-5.177-4.383a2.176,2.176,0,0,1-1.245-.985,72.157,72.157,0,0,0-4.231-6.008c-2.439-3.349-4.231-6.352-4.729-8.027a9.31,9.31,0,0,0-1.593-3.2c-1-.739-6.72-11.966-6.72-13.2a48.517,48.517,0,0,0-.7-4.974c-.7-3.693-1.693-11.966-2.091-16.841-.3-3.644.846-16.25,1.792-20.042a32.307,32.307,0,0,0,1-6.5c0-2.265.4-3.447,2.141-6.8A96.737,96.737,0,0,1,55.9,373.238c1.693-2.561,3.485-5.466,3.983-6.4,1.195-2.117,1.941-3.3,6.621-10.243,2.091-3.1,3.933-5.86,4.132-6.155A57.424,57.424,0,0,1,79.1,338.62c2.041-2.068,4.032-3.792,4.48-3.792A4.209,4.209,0,0,0,85.57,333.7c2.638-2.462,5.675-4.678,6.77-5.023A9.545,9.545,0,0,0,95.078,327a45.972,45.972,0,0,1,7.816-4.974,32.978,32.978,0,0,0,3.485-1.97c3.833-2.462,9.309-4.924,11.051-4.924a20.888,20.888,0,0,0,3.883-.542c1.245-.3,3.485-.739,4.978-.985,5.974-.886,5.974-.936,6.969-3.1.5-1.083,1.344-3.25,1.892-4.727,4.182-11.228,9.309-23.046,11.051-25.607a42.333,42.333,0,0,0,2.24-3.693,37.767,37.767,0,0,1,6.77-8.568c1.245-1.231,3.435-3.595,4.779-5.22a17.792,17.792,0,0,1,4.231-3.743c3.136-1.527,6.969-2.905,7.417-2.61a6.349,6.349,0,0,0,2.29-.246,80.065,80.065,0,0,1,12.1-1.773,56.051,56.051,0,0,0,10.5-1.625,61.714,61.714,0,0,1,6.92-1.28,95.07,95.07,0,0,0,9.906-1.97c4.082-1.083,7.417-1.674,5.725-.985-.3.148-.448.739-.348,1.33.2,1.083-.05,1.231-3.933,2.019a25.084,25.084,0,0,0-4.779,1.379c-.348.3-.747.443-.9.3a8.06,8.06,0,0,0-3.086.394c-3.883.837-9.707,2.216-10.3,2.364-.249.1-1.394.3-2.489.492a81.06,81.06,0,0,0-9.458,2.659,14.716,14.716,0,0,1-5.376,1.576c-1.294,0-4.281,1.182-4.829,1.97-.149.148-2.041,1.674-4.231,3.3-2.19,1.674-6.024,4.875-8.463,7.19-2.489,2.265-4.729,4.038-5.028,3.939-.747-.246-1.444.689-2.19,3a24.649,24.649,0,0,1-2.041,4.186,10.98,10.98,0,0,0-1.444,2.708,21.1,21.1,0,0,1-2.738,5.515,9.006,9.006,0,0,0-1.195,2.708,34.613,34.613,0,0,1-2.091,4.974c-2.738,5.171-4.281,10.587-3.286,11.523a5.566,5.566,0,0,0,2.439-.049c1.941-.3,2.29-.542,3.236-2.364,1.842-3.595,5.725-12.36,5.974-13.493a4.629,4.629,0,0,1,1.195-1.921,2.9,2.9,0,0,0,.946-1.28,15.646,15.646,0,0,1,2.937-3.25,21.243,21.243,0,0,0,3.136-3.5c.149-.443.448-.591.9-.3.548.345.548.492-.05.936-.946.739-3.136,5.22-3.186,6.451a8.054,8.054,0,0,1-1.294,2.955,65.192,65.192,0,0,0-4.431,8.864c0,.148-.6,1.477-1.294,3a10.222,10.222,0,0,0-1.045,2.955,8.386,8.386,0,0,0,2.638.345c2.091.049,2.439-.049,2.688-.985.2-.936,2.738-4.186,5.127-6.648.5-.492.747-1.133.6-1.33-.1-.246.05-.542.448-.689s1.543-1.773,2.589-3.644a52.792,52.792,0,0,1,2.937-4.826c1.195-1.576,4.63-8.125,7.019-13.394a10.75,10.75,0,0,1,1.792-3.1c.2,0,.4-.345.4-.739a1.187,1.187,0,0,1,.747-1.034,2.073,2.073,0,0,0,1-1.28c.249-.689.7-.886,1.593-.788,1.045.1,1.493-.2,2.24-1.674,1.045-2.019,1.892-2.314,2.887-1.133.846.985.05,2.807-2.34,5.417a56.454,56.454,0,0,0-4.928,8.371c-1.742,3.546-3.734,7.387-4.381,8.568-.7,1.182-1.593,2.955-2.041,3.94a38.59,38.59,0,0,1-2.19,4.235c-4.729,8.322-5.526,9.75-5.526,10.095s1.742.542,10.7,1.231c14.138,1.133,28.027,3.152,31.81,4.678a68.558,68.558,0,0,0,6.77,1.477c7.169,1.28,9.956,1.97,11.2,2.758,2.041,1.28,15.88,5.121,18.369,5.121a33.022,33.022,0,0,1,7.268,3,45.534,45.534,0,0,0,7.467,3.644,37.841,37.841,0,0,1,4.231,1.773,106.124,106.124,0,0,0,15.681,5.417,26.57,26.57,0,0,1,4.729,1.625,58.77,58.77,0,0,0,7.268,2.758c3.385,1.133,6.422,2.216,6.671,2.413a25.978,25.978,0,0,0,3.983,1.28,26.937,26.937,0,0,1,5.227,1.822,8.053,8.053,0,0,0,2.489.886,8.613,8.613,0,0,1,2.738,1.133c1.941,1.083,3.086,1.477,11.948,4.038,2.489.689,5.824,1.723,7.467,2.314a138.277,138.277,0,0,0,17.573,4.58c1.892.3,2.091.246,2.091-.739a7.649,7.649,0,0,0-.747-2.511,14.787,14.787,0,0,1-1.245-3.546c-.647-2.905-2.638-9.406-3.037-9.7a4.715,4.715,0,0,1-.7-1.428,30.846,30.846,0,0,0-1.145-2.955,12.572,12.572,0,0,1-.8-2.068c-.05-.148-.448-1.034-.9-1.97-1.344-2.659-4.331-9.7-5.974-13.985a40.54,40.54,0,0,0-2.091-4.924,15.473,15.473,0,0,1-1.245-3.2,56.51,56.51,0,0,0-2.638-6.4c-1.1-2.314-2.589-5.515-3.385-7.14-2.539-5.368-5.028-10.341-5.924-11.818-.5-.788-2.141-3.447-3.634-5.909a58.976,58.976,0,0,1-3.584-6.648,61.271,61.271,0,0,0-4.879-8.618c-1.444-2.019-4.829-5.515-5.078-5.269-.2.148-.946-.148-1.693-.689-1.344-.985-2.389-1.33-8.313-2.807A167.555,167.555,0,0,1,274.59,255a61.35,61.35,0,0,0-7.965-2.413,40.64,40.64,0,0,1-7.865-1.921,11.149,11.149,0,0,0-3.634-.739c-.2.148-.249-.049-.1-.443a.763.763,0,0,0-.448-.985c-.5-.2-.846.1-1,.739-.149.542-.448.886-.7.739a8.135,8.135,0,0,0-2.887.2c-7.666,1.28-7.915,1.33-19.415.689-4.032-.2-6.621-.542-6.82-.886-.249-.394-.4-.3-.4.246,0,.591-.4.788-1.344.739-1.792-.148-3.086-1.231-2.141-1.822a.632.632,0,0,0,.3-.886c-.249-.394,1.842-1.133,3.933-1.33.3-.049,1.294-.2,2.24-.394.946-.148,3.435-.443,5.476-.64a26.837,26.837,0,0,0,4.032-.492c.2-.1,3.883-.2,8.214-.246,4.381,0,9.906-.246,12.3-.492,6.77-.788,13.192.492,15.88,3.152.8.788,3.186,1.822,6.92,2.955,6.422,2.019,13.541,3.841,15.382,3.989a8.975,8.975,0,0,1,3.485,1.724,42.287,42.287,0,0,0,3.982,2.511,17.366,17.366,0,0,1,3.684,3,108.735,108.735,0,0,1,9.06,11.818,37.4,37.4,0,0,0,2.439,3.841c1.991,2.807,6.521,11.72,8.911,17.58a49.333,49.333,0,0,0,3.037,6.2,11.746,11.746,0,0,1,1.245,2.117c0,.148,1.1,2.561,2.389,5.318,4.729,9.8,7.865,16.694,9.359,20.535a18.288,18.288,0,0,0,2.041,3.792,6.455,6.455,0,0,1,1.145,2.167,18.958,18.958,0,0,0,1.742,3.693,15.107,15.107,0,0,1,1.742,3.989c0,1.33,1,2.167,1.991,1.625a24.581,24.581,0,0,1,3.783-1.133c1.593-.394,4.281-1.231,5.924-1.822,3.136-1.182,10.6-2.462,15.183-2.708,1.493-.049,5.327-.345,8.463-.64,3.136-.345,9.21-.492,13.441-.443,7.368.148,7.865.2,10.952,1.625,1.792.837,4.53,1.921,6.173,2.462a16.258,16.258,0,0,1,4.779,2.561c4.331,3.644,5.924,10.883,3.983,17.826-.548,2.019-1.344,4.924-1.742,6.451a41.216,41.216,0,0,1-3.236,7.337c-1.344,2.511-2.389,4.678-2.24,4.826.3.345-1.145,2.955-1.892,3.4a18.543,18.543,0,0,0-2.738,3.1c-2.788,3.693-6.969,8.076-9.11,9.5a43.487,43.487,0,0,0-5.625,4.53,47.17,47.17,0,0,1-4.281,3.152c-1.792,1.182-4.679,3.349-6.472,4.826a15.281,15.281,0,0,1-3.883,2.61,41.217,41.217,0,0,0-5.725,2.413,54.636,54.636,0,0,1-6.571,2.758,37.833,37.833,0,0,0-5.575,2.265,29.257,29.257,0,0,1-4.829,1.92c-1.245,0-1.344.739-.5,4.432.647,2.659,1.1,3.644,1.742,3.792.548.148,1,.394,1,.591.05.148.149.936.249,1.674.149,1.625,1.045,2.807,1.991,2.807a3.888,3.888,0,0,1,1.693.591c.747.492,1.195.443,2.24-.1.946-.492,1.394-.542,1.842-.1s.348.837-.448,1.674a7.063,7.063,0,0,0-1.394,2.413c-.249,1.034-.1,1.33.7,1.576.6.148,1.045.591,1.045.985,0,.985-2.34,2.807-3.534,2.807-.647,0-.946.345-.946,1.034,0,.936.2.985,1.792.739,2.887-.542,4.431,1.477,1.941,2.561-1.045.492-1.195.788-.946,1.921a7.54,7.54,0,0,0,1.493,2.659c1.195,1.231,1.543,2.413.846,2.413-.249,0-.8.591-1.294,1.231-.9,1.231-.9,1.28.7,4.481,1,1.97,1.842,3.1,2.24,2.955a.716.716,0,0,1,.9.492c.448,1.133.4,1.28-.548.985-.8-.246-.9.1-1,2.659-.1,2.314.05,2.955.6,2.955.9,0,.946,1.133.249,2.511a1.193,1.193,0,0,0,.249,1.724c1.1,1.083.946,2.314-.5,3.546-1.245,1.083-1.245,2.561,0,2.561.946,0,1.145.936.8,3.693-.3,2.314-.4,2.462-1.941,2.708-2.041.3-2.141,1.083-.149,1.625.846.2,1.593.64,1.593.985.05.345.1.936.149,1.33a5.752,5.752,0,0,1-.3,1.871c-.2.591-.2,1.083.05,1.083.2,0,.647.542.946,1.182a2.467,2.467,0,0,0,1.693,1.379c.846.1,1.145.492,1.145,1.379,0,1.034-.3,1.28-1.693,1.477-1.742.246-2.788,1.477-1.294,1.477.7,0,.8.3.6,1.477-.348,1.724,1.294,4.924,2.539,4.924a11.042,11.042,0,0,1,2.688.837c2.29.985,2.34,2.265.149,2.511-2.091.246-2.29.591-1.693,2.708.448,1.674.647,1.822,2.19,1.822,1.195,0,1.742.246,1.742.739,0,.689-.249.837-1.991.936-.946.049-1.294,2.807-.548,4.186.349.64.4,1.083.05,1.28-1.195.739-.448,2.068,1.493,2.659,1.693.492,1.991.788,1.991,1.97,0,1.428-1.294,3-2.489,3a3.92,3.92,0,0,1-1.842-1.083c-.647-.591-1.245-.985-1.344-.837a10.136,10.136,0,0,0,.2,2.659,6.789,6.789,0,0,1,0,2.955,5.5,5.5,0,0,0-.249,4.974c.747,1.182.548,5.368-.3,5.909a1.89,1.89,0,0,0-.448,1.379,2.084,2.084,0,0,1-2.838,2.068c-2.887-.689-2.838-.739-2.688,2.068.1,2.068-.05,2.561-.7,2.561-1.394,0-1.693,1.97-.6,4.432a18.815,18.815,0,0,1,1.344,4.334c.3,1.871-2.782,2.061-3.877,2.9a4.531,4.531,0,0,1-2.141.985c-1.195,0-1.195.2.3,3.2.9,1.822,1.045,2.511.6,2.807-.348.246,0,.394.9.443,2.788.1,3.485.246,4.63,1.182,1.195,1.034,1.394,2.807.548,5.023a34.471,34.471,0,0,0-.5,7.14c.05,3.4-.149,5.86-.448,6.057-.8.492-.6,1.822.7,4.974a13.887,13.887,0,0,1,1.1,6.6,29.063,29.063,0,0,1-.7,5.417,47.015,47.015,0,0,0-1.1,4.629c-.5,2.511-.9,3.152-3.286,5.417-1.792,1.674-3.136,2.511-4.082,2.561-.747.049-2.439.2-3.783.345a6.756,6.756,0,0,1-3.485-.246,15.835,15.835,0,0,0-5.028-.689c-2.19-.049-5.576-.148-7.517-.2a13.629,13.629,0,0,0-4.082.2,9.753,9.753,0,0,1-3.136.049c-1.543-.148-2.838-.049-3.236.3-.5.394-1.294.394-2.987,0-2.39-.591-3.037-.394-4.53,1.379a3.4,3.4,0,0,1-1.742.837,3.435,3.435,0,0,0-1.145.2,19.159,19.159,0,0,1-4.879.1Zm44.206-4.087c0-.394-.4-.64-1-.542-1.245.246-1.444.394-1.045.985C359.921,621.42,361.514,621.026,361.514,620.238Zm.5-3.94c.249-.246,1.294-1.083,2.24-1.92a7.438,7.438,0,0,1,2.24-1.477c1.045-.049,2.439-2.709,2.539-4.924.1-3-.3-5.958-.8-5.663-.4.246-.946-.985-1.245-2.659a12.568,12.568,0,0,1,.548-3.053,8.284,8.284,0,0,0,.4-3.447,8.517,8.517,0,0,1-.249-2.167c.1-2.561,0-3.447-.448-3.595-.3-.1-.5-1.034-.5-2.068,0-2.167-1.344-3.989-2.041-2.856-.448.64-.448.443-.647-3.5a3.422,3.422,0,0,0-.448-1.822c-.747-.739-2.091.64-2.24,2.314-.2,2.659-.5,3.1-1.344,2.413-1.045-.837-.946-2.61.249-4.087a4.382,4.382,0,0,0,1-1.92c0-.394-.149-.443-.4-.148a2.4,2.4,0,0,1-1.593.591c-3.584.246-4.331.345-5.127.788a1.089,1.089,0,0,0-.7,1.329c.149.64-.1.985-.846,1.182-1.693.443-2.24.345-3.236-.64s-1-.985-3.584.443c-1.444.739-2.887,1.28-3.286,1.133-.348-.148-.647.1-.647.542s.4.788,1,.788c.747,0,1,.345,1,1.428a2.762,2.762,0,0,1-.7,1.97c-1,.837-3.186-1.083-3.584-3.2l-.348-1.773-3.286.345c-1.792.2-3.335.542-3.435.788s-.6.443-1.145.443c-.9,0-.846.148.3,2.758,1.444,3.25,1.493,3.447.5,3.841-1.245.443-2.688-2.413-2.539-4.924s-.8-3.644-2.688-3.349c-3.485.542-6.77,1.28-7.168,1.674-.6.591-3.435,0-3.933-.837-.8-1.28-1.1-.591-1.1,2.315,0,1.625-.2,2.955-.5,2.955a1.772,1.772,0,0,1-1.643-1.724c-.3-2.364-.647-3.1-1.444-3.4a1.152,1.152,0,0,0-1.394,1.576c.448,1.182-1.245.591-2.091-.739-1.195-1.921-1.543-2.068-3.335-1.576a21.288,21.288,0,0,1-4.58.443c-2.638,0-3.236-.2-4.48-1.33-1.444-1.379-1.643-1.477-3.435-1.576-1.693-.1-5.924-4.531-8.065-8.421-2.24-4.038-3.391-9.448-4.337-9.6a7.494,7.494,0,0,1-2.489-1.674c-2.19-2.117-3.734-2.758-6.073-2.61-2.489.1-4.082-.788-2.987-1.674.8-.689,5.177-.345,5.974.443.647.64,1.792.64,1.792.049a7.018,7.018,0,0,0-2.091-1.97c-1.195-.837-2.688-1.92-3.286-2.364a6.2,6.2,0,0,0-1.941-.936,2.909,2.909,0,0,1-1.294-.64,5.831,5.831,0,0,0-2.887-.542,12.913,12.913,0,0,1-4.231-.788c-2.141-.886-5.974-1.428-10.205-1.428-3.385,0-6.671,1.625-10.056,4.974-2.489,2.462-3.634,2.61-3.485.443a3.358,3.358,0,0,0-.5-2.117c-.448-.542-.3-.886.647-1.625,1.543-1.083,3.783-2.905,4.879-3.89.7-.69.7-.739-.348-.886a2.489,2.489,0,0,0-1.742.345c-.348.3-2.738.542-5.327.591-4.829.1-6.77-.1-7.816-.739a5.021,5.021,0,0,0-2.688.739,13.487,13.487,0,0,1-4.53,1.231,14.23,14.23,0,0,0-3.783.64,13.931,13.931,0,0,1-4.281.689c-2.489.1-2.987-.049-3.136-.739s.2-.886,1.493-.886a26.7,26.7,0,0,0,5.127-1.034c1.941-.542,4.381-1.182,5.476-1.477a18.029,18.029,0,0,0,2.738-.788,10.837,10.837,0,0,1,1.145-.394,5.235,5.235,0,0,1,.6-.246,7.493,7.493,0,0,1,1.991-.443c.448,0,1-.591,1.245-1.231a3.28,3.28,0,0,1,2.19-1.773c1-.3,1.792-.739,1.792-.985,0-.2.448-.492,1-.64,1.693-.443,1.1-1.33-.846-1.33-2.091,0-2.887.394-2.887,1.428,0,1.379-1.195,1.083-1.991-.443-.448-.886-.747-1.674-.6-1.773a8.389,8.389,0,0,1,2.19-.394c2.19-.148,3.136-.591,3.136-1.33,0-.3-.7-.345-1.742-.148-1.195.2-1.742.148-1.742-.3s-.548-.492-1.742-.3a77.015,77.015,0,0,0-10.3,3.25,39.283,39.283,0,0,1-7.318,1.97c-.3,0-.548-.443-.548-.985,0-.689.548-1.083,2.141-1.477,4.779-1.231,14.088-4.137,14.636-4.53a9.973,9.973,0,0,1,3.485-.69c4.281-.394,4.231-.345,3.286-2.758-1.394-3.742-.7-6.008,1.543-4.875a2.064,2.064,0,0,0,2.24.1,1.852,1.852,0,0,1,1.941-.1c.6.345,1.1.246,1.742-.345.747-.64,1.145-.689,2.389-.246a3.893,3.893,0,0,0,2.19.345c.7-.3,1.344.492,3.734,4.284a5.721,5.721,0,0,0,3.833,3.1,14.868,14.868,0,0,1,4.381,2.511,10.035,10.035,0,0,0,7.517,2.856,18.855,18.855,0,0,1,4.978.591c4.132.936,8.961,1.133,9.757.345.6-.591.5-.64-1.593-.886a20.239,20.239,0,0,1-4.928-.936c-.1-.148-.5,0-.846.3-.647.542-3.186-.492-4.53-1.773a4.865,4.865,0,0,0-1.245-.886c-.747-.246-.349-.837.7-1.034.348-.1,1-.3,1.394-.443a21.9,21.9,0,0,1,8.264-.345c1.593.345,2.738,1.133,4.48,2.955,2.389,2.511,3.982,3.053,5.277,1.822.846-.837,1.344-.788,3.783.394,2.24,1.083,2.887,1.97,2.091,2.955-.4.443-.3.837.249,1.379.9.936,4.082,7.682,5.028,10.686a11.029,11.029,0,0,0,2.24,3.841c1.643,1.625,7.119,4.678,7.617,4.186a7.313,7.313,0,0,1,2.39-.492c2.589-.3,2.887-.542,3.186-2.659a5.169,5.169,0,0,1,.7-2.117c.5-.492,1.643.1,1.245.689-.149.2.1.64.5.985a2.172,2.172,0,0,1,.747,1.28c0,.492.647.689,2.24.689,2.141,0,2.19-.049,2.539-1.822.8-4.333,2.539-5.023,3.136-1.33.3,1.92.548,2.019,3.534,1.723.7-.049.6-1.871-.2-3.4a36.722,36.722,0,0,1-2.141-7.19c-.2-.837-.05-1.527.348-1.773,1.1-.689,1.991.049,1.991,1.576a4.074,4.074,0,0,0,1.294,2.708c1.892,1.871,2.34,3.4,1.394,4.826-1.294,1.97-.647,2.758,2.141,2.413a8.679,8.679,0,0,0,2.838-.739c.3-.246-.149-1.822-1.1-3.89-2.091-4.727-1.344-6.5,1.543-3.5.9.985,1.145,1.527.747,1.674-1.1.394,1.593,4.974,3.037,5.171,1.842.3,3.634-.886,3.335-2.117a2.847,2.847,0,0,1,.747-2.216c.946-1.182,1-1.231,1.693-.3.946,1.231.946,2.462.05,3.25a1.171,1.171,0,0,0-.448,1.231c.2.591.448.591,1.643,0a9.3,9.3,0,0,1,3.485-.739h2.041l-.149-1.773c-.2-2.413.747-2.659,1.792-.443.448.936,1.145,1.724,1.543,1.724a.949.949,0,0,1,.846.542c.249.788,9.11.886,9.906.1.747-.739-.5-3.792-2.389-5.958-1.792-2.068-1.444-3.447.448-1.724,1.294,1.133,1.145.1-.5-3.2-2.091-4.186-2.887-6.894-2.24-7.879.7-1.133,2.141-1.379,2.141-.394s2.838,8.076,3.833,9.6l.8,1.182.7-1.33a2.935,2.935,0,0,0,.5-1.625,4.371,4.371,0,0,1,.448-2.216c.5-1.379.548-2.216.2-2.61a4.376,4.376,0,0,1-.5-2.265c0-.936-.05-2.216-.05-2.905a21.87,21.87,0,0,1,.2-3.349,8.865,8.865,0,0,0-.1-3.152c-.348-.886-.448-.936-1.145-.246-1.145,1.182-1.991.3-.9-.985.448-.591,1-.936,1.195-.788.747.739.9-1.871.348-6.451-.7-5.466-1.394-8.174-2.091-8.174-.249,0-.448-.3-.448-.689A10.024,10.024,0,0,0,363,502.6c-1.991-2.61-2.24-4.481-.8-7.19a38.954,38.954,0,0,0,2.838-6.943,64.053,64.053,0,0,0,1.344-16c-.249-5.466-.4-6.008-2.19-9.553-1.045-2.068-3.186-5.909-4.779-8.568a27.3,27.3,0,0,0-6.969-8.125c-2.24-1.822-4.63-3.693-5.277-4.137-.7-.492-1.195-1.28-1.1-1.724.2-1.33,3.435-.886,6.87.985,2.539,1.379,2.987,1.477,3.485.837a9.841,9.841,0,0,1,2.091-1.576c1.593-.886,2.19-1.871,1.145-1.871a24.243,24.243,0,0,1-4.132-1.723,31.607,31.607,0,0,0-3.883-1.724,51.96,51.96,0,0,1-5.376-2.315c-3.534-1.674-4.928-2.561-4.928-3.2,0-.542.5-.985,1.394-1.133.747-.2,1.892-.394,2.539-.542,1.1-.246,1.1-.3-.7-1.576-4.431-3.152-6.173-5.811-4.729-7.14.348-.345.5-.345.348-.049-.348.591,2.34,2.905,6.87,5.958,1.643,1.133,4.281,3,5.874,4.235,3.883,2.905,4.53,2.807,3.037-.345a13.436,13.436,0,0,1-1.195-3.3,21.006,21.006,0,0,0-.946-3.546,27.172,27.172,0,0,1-1.195-4.186,65.039,65.039,0,0,0-3.983-9.9,2.641,2.641,0,0,0-1.444-1.33c-1.1-.148-3.634-1.724-5.625-3.447-4.58-3.94-7.517-5.171-12.744-5.072-1.742,0-4.53-.1-6.173-.3-3.534-.394-47.342-.492-48.786-.1a32.974,32.974,0,0,1-5.078.3c-3.833.049-4.082.1-4.231,1.182-.149,1.034-.3,1.083-4.58.936a92.422,92.422,0,0,0-18.967,2.167c-1.892.394-17.843.067-18.391.165-1.543.2-5.576,2.413-4.829,2.61a.983.983,0,0,1,.6.739c0,.3-.3.394-.7.246a1.768,1.768,0,0,0-1.593.689,3.01,3.01,0,0,1-1.344.936c-1.543,0-22.808.28-30.424,8.454-1,1.083-2.987,3.1-4.381,4.432a20.254,20.254,0,0,0-3.286,3.841c-.4.739-1,1.33-1.344,1.33-.747,0-5.127,8.47-6.073,11.769a25.04,25.04,0,0,0-.8,5.663,34.927,34.927,0,0,1-1.294,7.387c-.7,2.216-1.543,5.121-1.892,6.451-3.883,14.084-2.95,11.778-1.841,22.653s5.433,13.508,6.279,20.845c.946,8.175,1.195,17.531.5,18.565-1.145,1.576.448,9.849,2.141,11.227.946.788,4.92,2.668,3.974,4.047a1.586,1.586,0,0,0-.2,2.117,8.789,8.789,0,0,1,.7,2.117c.1.542.5,2.167.9,3.5.448,1.379,5.119,4.786,5.617,7.346,1.045,5.811,1.538,5.128,5.471,7.1,1.543.837,3.292,5.478,4.288,6.364,1.693,1.477,1.842,1.527,2.439.739.448-.64,1-.788,1.991-.542,1.792.443,2.141,1.625.8,2.708-.6.492-1,1.133-.8,1.428.548.837,2.688.542,3.236-.443.7-1.33,2.19-.985,2.389.591.2,1.477-.846,1.921-4.58,2.068-1.394.049-2.539.3-2.589.542-.1.246,1.145,1.477,2.688,2.758,2.041,1.724,10.441,2.113,11.536,2.113.9,0,.653.633,3.092,1.569a33.8,33.8,0,0,0,6.024,1.822c.846.049,1.543.3,1.543.492s.448.394,1,.394,1,.2,1,.394c0,.837,2.439,1.576,3.684,1.083a19.315,19.315,0,0,1,3.534-.689,5.953,5.953,0,0,0,3.883-1.773,8.985,8.985,0,0,1,2.389-1.724c.8-.246,1.1-.985,1.842-4.678.4-1.97,2.24-3.2,3.534-2.364.6.345,1.344,0,3.186-1.724,1.892-1.674,2.688-2.117,3.684-1.921,1.045.2,1.195.443,1,1.527a30.156,30.156,0,0,1-2.389,4.924l-2.141,3.644,1.444,1.133a25.249,25.249,0,0,0,2.688,1.773c2.091,1.083,4.43,3.693,4.779,5.417.3,1.379,2.738,4.333,3.534,4.333a8.861,8.861,0,0,1,1.842,1.182c.9.64,3.634,2.216,6.073,3.5,2.489,1.28,5.476,3.053,6.72,3.89a37.044,37.044,0,0,0,5.227,2.955,20.424,20.424,0,0,1,3.236,1.773,4.021,4.021,0,0,0,2.041.689c2.389.345,3.485.788,3.186,1.28-.149.246.4.886,1.245,1.477,1.444.985,1.991,1.182,5.227,1.724a41.818,41.818,0,0,1,4.48,1.231,33.794,33.794,0,0,0,4.231,1.133,13.176,13.176,0,0,1,2.987.985c1.693.739,1.742.739,2.788-.542l1.045-1.28,2.19,1.034a11.965,11.965,0,0,1,4.829,3.939c1,1.182,8.662,3.053,10.255,2.462.8-.3.8-.443-.2-1.822-.6-.788-1.394-1.477-1.792-1.477s-.7-.492-.7-1.231c0-.689-.2-1.231-.5-1.231-.249,0-.7-.394-.946-.936-.448-.837-.348-.886,1.842-.689,2.838.2,3.734.936,2.389,1.871-.946.739-.7,1.724.5,1.724a.719.719,0,0,1,.7.739c0,.985.5.936,1.991-.246a4.625,4.625,0,0,1,1.892-.985,6.458,6.458,0,0,0,2.141-.788,11.563,11.563,0,0,1,3.734-.837c1.941-.049,2.439.148,4.331,2.019,1.195,1.182,2.589,2.068,3.236,2.068,1.344,0,1.444-.985.1-1.33a1.352,1.352,0,0,1-.1-2.561c.6-.345,1.593-.148,3.485.739,2.539,1.133,3.086,1.822,2.091,2.413-1.195.739-.4,1.625,1.742,1.97a16.509,16.509,0,0,1,3.883.985c1.643.689,6.023.492,7.069-.3Zm-29.421-.3a.807.807,0,0,1,1.045-.443c.9.345,1-.246.149-1.083-.448-.443-.3-.591.7-.591a2.374,2.374,0,0,1,1.643.492c.548.886,1.145.542,1.394-.837a1.9,1.9,0,0,0-.3-1.724c-1.842-1.133-9.309,2.61-9.309,4.629a6.638,6.638,0,0,0,2.19.2C331.645,616.692,332.442,616.5,332.591,616Zm6.621-2.314c-1.1-1.133-1.344-.985-.7.394.348.739.8,1.034,1.045.788s.1-.739-.348-1.182ZM369.728,599.9a1.235,1.235,0,0,0-.5-1.034c-.249-.148-.5.148-.5.69,0,.591.249,1.034.5,1.034C369.529,600.59,369.728,600.294,369.728,599.9Zm-99.065-.936c0-.394-.846-1.083-1.842-1.625a9.865,9.865,0,0,1-2.141-1.231c-.548-.591-4.48-2.364-4.48-2.019,0,.2-.2.1-.4-.2a12.172,12.172,0,0,0-2.589-1.921c-2.141-1.33-2.19-1.379-1.344-.2a17.746,17.746,0,0,1,1.593,2.708,3.074,3.074,0,0,0,3.037,2.167.719.719,0,0,0,.7-.739c0-1.133.9-.886,1.1.3.1.788.946,1.33,3.136,2.167,1.643.64,3.037,1.182,3.136,1.182C270.613,599.6,270.663,599.309,270.663,598.965Zm-15.731-6.993a1.331,1.331,0,0,0-1.045-.739c-.647,0-.647.148-.149.739a2.052,2.052,0,0,0,1.045.739C255.032,592.711,255.082,592.366,254.932,591.972ZM253.19,586.9a7.734,7.734,0,0,1-.946-2.413c0-.985-2.041-2.905-4.63-4.333a10.206,10.206,0,0,0-2.589-1.133,6.623,6.623,0,0,0,.249,2.265c.348,2.118,1.643,4.038,2.688,4.038.3,0,1,.689,1.543,1.527,1.1,1.625,2.439,2.413,3.783,2.068C254.036,588.722,253.986,588.525,253.19,586.9ZM367.737,576.51a1.97,1.97,0,0,0-.946-1.379c-.8-.492-1-.443-1.245.148-.4,1.083.548,2.659,1.444,2.364A1.4,1.4,0,0,0,367.737,576.51Zm-49.781-.739c0-3.595-.448-4.53-2.539-5.072-2.589-.689-3.634.345-3.286,3.349.249,2.216.946,2.905,2.489,2.61a3.151,3.151,0,0,1,1.792.3C317.706,577.691,317.955,577.544,317.955,575.771Zm25.787.985c.9-.3.946-.64.747-3.644a30.043,30.043,0,0,0-.4-3.89c-.3-.936-4.779-.788-6.123.148-1.444.985-1.493,3.644-.05,4.924a5.3,5.3,0,0,1,1.444,1.97C339.76,577.3,341.4,577.494,343.742,576.756Zm-15.482-.3c.4,0,.6-.788.5-2.314-.1-2.068-.249-2.413-1.543-2.856-1.195-.394-1.543-.3-2.34.69-1.145,1.379-1.195,2.413-.149,3.94.6.788,1.145,1.034,1.892.837A8.37,8.37,0,0,1,328.26,576.46Zm24.393-1.379c.8-.492.747-8.47-.05-8.47a1.9,1.9,0,0,0-1.145.542c-.647.64-1.643.2-1.643-.837,0-.985-.7-.886-1.742.3a4.741,4.741,0,0,0-.946,3.349c0,2.955.846,4.53,2.439,4.53a2.118,2.118,0,0,1,1.493.492c.348.591.8.591,1.593.1Zm11.6-1.33c0-.394-.2-.739-.5-.739-.249,0-.5.345-.5.739s.249.739.5.739C364.053,574.491,364.252,574.146,364.252,573.752Zm-3.385-1.034a2.082,2.082,0,0,0,1.643-1.527c.348-1.428.1-1.871-.8-1.329a6.259,6.259,0,0,1-2.34.394c-1.892.049-2.937,1.133-2.389,2.511.2.591.647.739,1.444.542.6-.2,1.693-.443,2.439-.591Zm-2.24-4.137c1.344,0,1.493-.739.249-1.428a1.739,1.739,0,0,0-2.589,1.527c0,.837.149.936.6.492A2.738,2.738,0,0,1,358.627,568.581Zm-36.689-2.955c0-.246-.448-.492-1.045-.492-.548,0-.846.246-.7.492a1.258,1.258,0,0,0,1.045.492C321.639,566.119,321.938,565.922,321.938,565.627Zm-11.2-1.822c.747-.689,3.827-2.5,3.28-5.312-.1-.345-4.331.1-4.879.542-.5.345-.448.788.05,2.068.4.886-2.433,1.618-2.583,1.815-.448.443,1.394,1.724,2.439,1.724A2.64,2.64,0,0,0,310.737,563.8Zm10.349-1.52c-.2-1.379-.149-1.477.8-.936.6.3,1.045.739,1.045,1.034s.9.443,2.141.345c1.394-.1,2.041-.345,1.941-.788a30.356,30.356,0,0,1-.149-3.1c-.1-2.708-.6-2.955-3.684-1.724-.9.394-1.792.591-1.892.443-.5-.492-1.195,1.625-1.294,3.94-.05,1.724-2.881,2.16-2.334,2.16C318.154,563.657,321.285,563.417,321.086,562.285Zm45.948.886c.348-.936-.7-5.22-1.444-5.959a1.371,1.371,0,0,0-1.195-.443c-.3.1-.946-.345-1.444-1.034-.946-1.527-2.589-1.674-4.182-.394-.946.739-1.1,1.231-.8,2.659.348,1.97.8,2.413,3.286,3.349a15.352,15.352,0,0,1,2.987,1.526c1.493,1.083,2.439,1.182,2.788.3Zm-25.289-.443a1.716,1.716,0,0,0-1.195-.837c-.8-.148-.846-.049-.249.64C341.1,563.467,341.994,563.565,341.745,562.728ZM330.893,561.5c0-.985-.846-2.462-1.195-2.117a3.552,3.552,0,0,0,.05,1.625c.3,1.477,1.145,1.822,1.145.492Zm22.8-1.28c.249-2.118-.5-2.905-3.086-3.1-2.29-.148-2.29-.148-2.29,1.477,0,1.822.846,3.1,2.24,3.349C352.249,562.285,353.543,561.6,353.692,560.217Zm-35.743.689a1.546,1.546,0,0,0-.5-1.28c-.3-.2-.5.246-.5.936s.249,1.28.5,1.28C317.75,561.842,317.949,561.4,317.949,560.906Zm18.967-3a12.93,12.93,0,0,0-.249-2.905,3.681,3.681,0,0,0-2.141-.1c-2.19.345-2.539,1.133-1.643,4.284.448,1.526.9,2.167,1.693,2.314,1.693.246,2.439-.788,2.34-3.595ZM274.64,530.867c0-.492-1.693-1.034-3.335-1.034-1.245,0-1.543.739-.5,1.133C271.852,531.409,274.64,531.311,274.64,530.867Zm-30.864-3.742c0-.837-1.792-3.693-2.34-3.693-.5,0-.4.492.348,1.97.548,1.083,1.245,1.97,1.493,1.97C243.576,527.371,243.775,527.273,243.775,527.125Zm-89.457-41.759-.7-2.167-2.24.345a5.948,5.948,0,0,1-2.439.1c-.747-.739,0-1.527,1.941-2.117,1.245-.345,2.091-.837,1.941-1.083a4.568,4.568,0,0,1-.249-1.871c0-.788-.249-1.428-.548-1.428-1.543-.049-5.327-4.924-5.327-6.845a7.292,7.292,0,0,0-.6-1.871,5.135,5.135,0,0,1-.448-1.773c.2-1.034-.9.3-1.444,1.723-1.294,3.3-5.127,10.735-5.824,11.326a1.7,1.7,0,0,1-2.539-1.182c-.149-.788,5.874-13.837,6.969-15.167a20.885,20.885,0,0,0,1.842-3.3c.946-2.068,1.1-2.905.747-4.136a3.245,3.245,0,0,0-.946-1.724c-.3-.049-2.24,1.822-4.381,4.136-5.426,6.008-5.725,6.4-6.123,8.125-.4,1.773-1.394,3.447-1.842,3-.149-.148-.747.64-1.344,1.773-.647,1.231-1.294,1.97-1.693,1.822a1.286,1.286,0,0,0-1.245.3c-1,.985-.6-1.231.9-4.826,1.742-4.136,6.422-13.493,7.268-14.527a35.225,35.225,0,0,0,2.489-4.137c1.045-1.871,2.141-3.89,2.439-4.432.5-.886,1.593-2.61,4.63-7.436.348-.542,1.344-2.265,2.141-3.841a158.641,158.641,0,0,1,11.8-16,2.246,2.246,0,0,0,.647-1.034,9.524,9.524,0,0,1,1.742-2.167c1.892-1.97,2.24-3,.9-2.61-.5.1-1.892.394-3.136.542a10.621,10.621,0,0,0-3.335,1.034,4.559,4.559,0,0,1-2.091.689,1.752,1.752,0,0,0-1.294.492,1.58,1.58,0,0,1-1.294.492,5.04,5.04,0,0,0-1.842.443,37.441,37.441,0,0,1-5.327,2.068,111.556,111.556,0,0,0-15.034,7.288,7.891,7.891,0,0,1-3.136,1.28,4.362,4.362,0,0,0-2.34.936c-.548.788-3.634,2.905-3.634,2.462,0-.246-.249-.148-.548.148a1.848,1.848,0,0,1-1.493.3c-.946-.246-.946-.3-.1-1.231,1.195-1.33,6.521-5.318,7.069-5.318a2,2,0,0,0,1.1-.788,11.809,11.809,0,0,1,3.286-2.019,8.679,8.679,0,0,0,2.638-1.576c0-.2.4-.345.9-.394a27.306,27.306,0,0,0,4.53-2.068,26.99,26.99,0,0,1,4.132-2.019,9.993,9.993,0,0,0,2.29-1.182c1.792-1.083,2.838-1.527,9.309-3.743,1.394-.492,4.182-1.527,6.223-2.364a102.164,102.164,0,0,1,15.93-5.023c1.792-.3,4.231-.886,5.476-1.231a30.339,30.339,0,0,1,5.476-.985,21.416,21.416,0,0,0,4.231-.788,61.573,61.573,0,0,1,6.073-1.625,53.183,53.183,0,0,0,5.625-1.527,1.67,1.67,0,0,1,1.394.2,4.667,4.667,0,0,0,2.887,0c3.634-.837,8.911-2.019,10.4-2.265a51.169,51.169,0,0,0,5.127-1.379c3.335-1.034,3.634-1.083,4.082-.3.548,1.083,1.593.936,18.021-1.921a82.961,82.961,0,0,1,8.463-.788c5.576-.2,32.457-.492,36.739-.394,1.245.049,5.277.1,9.01.049,3.734,0,8.762.246,11.2.542,2.439.345,9.11.837,14.835,1.083,5.775.3,10.554.64,10.7.837.149.246,1.643.394,3.286.443a117.767,117.767,0,0,1,15.034,1.97c.6.2,1.145.492,1.145.689s.8.542,1.792.739c1.294.2,2.041.1,2.688-.492a2.219,2.219,0,0,1,2.24-.443,3.605,3.605,0,0,0,2.389-.246c2.589-1.28,9.608-3.989,10.4-3.989,1.344,0,1.543-.936.3-1.182-.647-.148-2.24-.492-3.634-.739-1.344-.3-4.63-.886-7.218-1.28-6.77-1.083-9.956-1.822-9.956-2.265,0-.739,1.742-1.379,2.539-.886a5.78,5.78,0,0,0,2.439.443c4.58,0,20.211,3.644,21.8,5.072,2.24,2.019,1.145,3.053-5.725,5.318-2.539.837-4.63,1.674-4.63,1.921s-1,.788-2.24,1.28c-1.892.689-2.19.985-1.941,1.822.3.936.149.936-5.078.591a43.788,43.788,0,0,1-5.924-.64c-.747-.492-4.231-.542-4.231-.049a17.137,17.137,0,0,0,1.444,2.856,8.058,8.058,0,0,1,1.245,2.659c-.149.1,0,.739.249,1.379s.946,2.462,1.543,4.038c.8,1.97,1.294,2.708,1.693,2.364a21.482,21.482,0,0,1,3.286-1.527c1.493-.591,3.435-1.379,4.231-1.724.846-.394,3.634-1.477,6.223-2.462,7.318-2.708,18.27-8.667,21.655-11.72a16.29,16.29,0,0,1,2.987-2.167,6.424,6.424,0,0,0,1.842-1.33,1.177,1.177,0,0,1,.8-.542c.647,0,3.186-2.659,4.331-4.432,1-1.625,1.245-1.97,4.182-5.171a15.652,15.652,0,0,0,2.091-2.462c0-.148.1-.788.149-1.428a4.281,4.281,0,0,1,1.444-2.265c1.693-1.477,2.34-2.856,4.829-10.341a54.021,54.021,0,0,1,2.539-6.845,3.061,3.061,0,0,0,.448-1.674,5.139,5.139,0,0,1,.548-2.117c1.1-2.068-4.779-10.784-7.318-10.784a12.659,12.659,0,0,1-3.385-1.231,18.725,18.725,0,0,0-5.526-1.527c-3.435-.345-19.763,1.034-21.157,1.773a8.91,8.91,0,0,1-3.335.492,50,50,0,0,0-8.363,1.527c-7.766,1.921-8.463,2.117-11.649,3.349a10.082,10.082,0,0,1-3.982.739c-1.344-.3-1.394-.246-1.294,1.871.149,4.087,1.742,8.618,3.783,10.784l1.892,2.019,8.363-.148c4.58-.049,10.3-.049,12.694,0a32.948,32.948,0,0,0,8.513-.936c5.127-1.182,6.77-1.231,7.169-.2.348.886-1.742,2.807-2.489,2.314-.349-.2-4.431.394-12.744,1.822-1.941.345-2.887.345-3.385-.1-.548-.443-1.643-.394-4.63.049a29.067,29.067,0,0,1-9.309.049c-12.3-1.33-23.5-3.447-30.018-5.663-5.526-1.871-13.341-4.186-16.079-4.727a26.281,26.281,0,0,1-5.227-1.921,90.347,90.347,0,0,0-12.893-4.875c-.9-.246-3.684-1.231-6.223-2.167-2.539-.985-5.576-2.019-6.72-2.314a36.237,36.237,0,0,1-5.227-1.97,38.638,38.638,0,0,0-6.87-2.265,21.646,21.646,0,0,1-3.983-1.133,10.645,10.645,0,0,0-2.987-.985c-2.887-.739-7.816-2.807-8.264-3.546a1.575,1.575,0,0,0-1.195-.443c-1.1,0-9.259-3.693-9.707-4.432-.348-.542-10.454-3.743-13.889-4.383a9.434,9.434,0,0,0-3.136-.2,1.814,1.814,0,0,1-1.543-.443,11.679,11.679,0,0,0-6.123-2.117,28.182,28.182,0,0,1-5.177-1.182,64.362,64.362,0,0,0-11.3-2.364c-1.045-.148-1.892-.394-1.892-.591a6.979,6.979,0,0,0-2.838-.345c-1.593-.049-5.924-.345-9.608-.689-9.558-.936-21.456-.788-26.683.3a5.459,5.459,0,0,1-3.335-.542,4.368,4.368,0,0,0-2.19-.591c-.448.3-13.64,1.034-15.582.886a14.358,14.358,0,0,0-3.236.394c-1.1.246-3.534.837-5.476,1.33a28.677,28.677,0,0,1-6.073.739c-10.255-.345-27.081,6.549-35.942,14.724a15.389,15.389,0,0,1-3.136,2.462,12.783,12.783,0,0,0-3.086,2.856c-1.394,1.527-4.679,4.924-7.268,7.485-4.679,4.58-6.969,7.14-6.969,7.682a17.1,17.1,0,0,1-1.991,2.61,12.069,12.069,0,0,0-1.991,2.807c0,.591-7.268,14.724-8.463,16.447a94.383,94.383,0,0,0-6.123,13.05c-.448,1.379-1.394,6.008-2.141,10.341-.7,4.333-1.543,8.864-1.892,10.095-.647,2.265-.747,13.591-.1,16.5.149.837.448,2.265.6,3.2.548,3.447,1.792,6.894,2.439,6.894.448,0,.647.64.6,2.117-.05,1.625.4,3.1,2.091,6.4a29.964,29.964,0,0,0,2.838,4.826,1.762,1.762,0,0,1,.7,1.182c0,1.625,11.45,15.463,15.83,19.107,2.539,2.117,8.961,5.761,10.106,5.761a20.1,20.1,0,0,1,3.136,1.231,16.644,16.644,0,0,0,3.286,1.231,5.277,5.277,0,0,1,1.892.689,38.07,38.07,0,0,0,7.069,2.758,7.327,7.327,0,0,1,2.141.689c3.435,1.477,9.956,2.216,19.763,2.314,13.69.049,18.917.049,20.908-.049,2.091-.049,8.612.492,8.911.788a4.118,4.118,0,0,0,1.543.2h1.344l-.7-2.117Zm217.146-8.224a.48.48,0,0,0-.846-.1.9.9,0,0,0-.149,1.083.48.48,0,0,0,.846.1A.9.9,0,0,0,371.464,477.142Zm-204.85-18.023c0-.689-.2-1.133-.5-.936a1.714,1.714,0,0,0-.5,1.28c0,.492.249.936.5.936C166.415,460.4,166.614,459.809,166.614,459.119Zm190.662-24.031c0-.591-7.517-4.678-9.06-4.974-3.236-.591-2.091.492,2.987,2.856C355.634,435.039,357.277,435.581,357.277,435.088Zm-175.23-24.523c0-.64-1.145-.246-1.394.492-.1.345.1.492.6.3.448-.148.8-.542.8-.788Zm-11.7-4.333c.149-.246-.149-.492-.7-.492-.6,0-1.045.246-1.045.492,0,.3.3.492.7.492A1.258,1.258,0,0,0,170.348,406.232Zm81.144-12.853c.548-.788-.05-1.083-1.493-.739-.7.2-1.145.542-1,.788A1.8,1.8,0,0,0,251.491,393.379Zm3.933.1c.149-.246.8-.345,1.444-.2,1,.246,1.045.2.3-.542-.6-.689-1.045-.739-2.141-.3-.747.246-1.195.689-1.045.985A.81.81,0,0,0,255.424,393.477Zm12.744-.64c1.195-.049,1.195-.049-.249-.64a2.7,2.7,0,0,0-2.34-.2,2.694,2.694,0,0,1-1.245.394c-1.045-.2-1.693.1-1.344.591.2.345,1,.394,2.141.246A28.768,28.768,0,0,1,268.168,392.837Zm8.164.3c1.394-.2,2.29-.591,2.29-.985,0-.936-1.045-1.379-1.543-.64-.249.394-1.1.591-2.389.492-2.141-.148-3.236.246-2.788.985C272.25,393.527,273.2,393.527,276.332,393.133Zm20.361-.886c.3-.689-1.941-1.625-2.539-1.034-.149.148,0,.246.3.246a.675.675,0,0,1,.6.739C295.05,393.133,296.344,393.182,296.693,392.246Zm-240.344-12.7c.647-1.379.7-1.477.05-.64-.448.542-1,1.28-1.294,1.625-.348.394-.348.591-.05.591S55.95,380.379,56.349,379.541Zm306.006-37.721c-.946-.3-2.19.3-1.842.886.2.345.7.3,1.394-.1C362.6,342.264,362.753,341.968,362.354,341.821Zm8.114-1.083c.2-.3-.249-.492-1-.492s-1.195.2-1,.492a1.253,1.253,0,0,0,1.991,0ZM263.688,249.39c0-.443-.3-.591-.747-.443-.4.2-.6.492-.448.739C262.891,250.375,263.688,250.178,263.688,249.39Z" transform="translate(0 0)" fill="#f79ecb"/>
    <path id="Path_2915" data-name="Path 2915" d="M655.67,969.808c-.3-.8,1.751-2.8,2.952-2.8.9,0,4.053-1.951,4.353-2.652a4.624,4.624,0,0,0-.65-2.5c-.5-1-.8-1.851-.6-1.851.15,0,.05-.25-.3-.6-.851-.851-.75-2.4.15-2.4.851,0,2.452,2.4,3.3,5a8.423,8.423,0,0,0,1.3,2.452c.8.8.4,4.553-.55,5.2a9.6,9.6,0,0,1-3.3.3,24.47,24.47,0,0,0-4.553.3C656.371,970.559,655.921,970.459,655.67,969.808Z" transform="translate(-313.146 -362.139)" fill="#f79ecb"/>
    <path id="Path_2916" data-name="Path 2916" d="M675.453,941.161a19.615,19.615,0,0,1-.9-5.8,4.093,4.093,0,0,0-1.251-2,5.8,5.8,0,0,1-1.5-2.7c-.2-.951-.7-1.651-1.1-1.651a.727.727,0,0,1-.7-.75C670,927,671.4,924,672,924c.951,0,2.9,2.5,3.3,4.153a23.052,23.052,0,0,0,2.051,4.753c1.451,2.7,1.651,3.4,1.2,4.3a7.41,7.41,0,0,0-.45,3.052c.15,1.751,0,2-.951,2.151-.851.15-1.3-.2-1.7-1.251Z" transform="translate(-314.562 -345.649)" fill="#f79ecb"/>
    <path id="Path_2917" data-name="Path 2917" d="M694.151,938.75c.05-.5.4-.851.65-.851.75.05.6,1.2-.15,1.451C694.2,939.5,694,939.251,694.151,938.75Z" transform="translate(-326.605 -352.595)" fill="#f79ecb"/>
    <path id="Path_2918" data-name="Path 2918" d="M629.25,933.36c-.2-.45-.2-1,0-1.151.15-.2.6-.05.9.25.45.45.45.75,0,1.2S629.5,934.01,629.25,933.36Z" transform="translate(-293.683 -349.705)" fill="#f79ecb"/>
    <path id="Path_2919" data-name="Path 2919" d="M434.674,889.221c-1.1-.4-.7-1.4.8-2.3,1.8-1.051,2.051-1.051,2.051.05C437.476,887.97,435.525,889.521,434.674,889.221Z" transform="translate(-195.733 -326.73)" fill="#f79ecb"/>
    <path id="Path_2920" data-name="Path 2920" d="M474.2,878.26a3.422,3.422,0,0,0-3.052-1.251c-2.051,0-3.352-1-2.852-2.251.3-.9,2.652-1,4.653-.2a8.971,8.971,0,0,0,2.752.55c1.9-.05,3.6,2.1,2.752,3.452S475.5,879.761,474.2,878.26Z" transform="translate(-212.898 -325.604)" fill="#f79ecb"/>
    <path id="Path_2921" data-name="Path 2921" d="M339.4,795.4a9.422,9.422,0,0,1,.6-3.6c.851-2.352.851-2.652.05-6.954a48.241,48.241,0,0,1-.9-5.8,8.088,8.088,0,0,0-1.551-3.352c-1.951-2.752-1.9-3.5.4-4.4a6,6,0,0,0,2.752-2.3c.5-.851,1-1.4,1.2-1.251.15.2.6-.05.951-.55.6-.75.75-.75,1.151-.1.45.6.65.55,1.7-.4a4.331,4.331,0,0,1,2.452-1.1c1,0,1.451-.35,1.8-1.451a2.366,2.366,0,0,1,2.051-1.7,2.844,2.844,0,0,0,2.2-1.751,22.114,22.114,0,0,1,2.852-4.1c3.152-3.752,5.554-6.7,6.854-8.355,3.9-4.953,6.7-14.009,6.8-22.014l.05-5.1,2.051.15a17.3,17.3,0,0,1,2.1.25,4.171,4.171,0,0,1-.4,1.4,39.108,39.108,0,0,0-.9,6.9c-.3,4.053-.7,6.154-1.5,7.955a24.489,24.489,0,0,0-1.6,5.5,27.442,27.442,0,0,1-1.451,5.4,13.336,13.336,0,0,0-1,4.253,8.3,8.3,0,0,1-.8,3.4c-.45.851-1.151,2.1-1.551,2.852a4.2,4.2,0,0,1-3,2.2,23.462,23.462,0,0,0-4,2.552,35.371,35.371,0,0,1-4.353,2.8c-.55.2-.8.65-.6,1.1.35.9-.851,1.451-4.3,1.951-2.452.35-2.8.7-1.851,1.651.35.35.2,1-.45,2.2a5.392,5.392,0,0,0-.75,3.452c.1.951.25,2.452.35,3.3a6.743,6.743,0,0,0,.5,2.1,1.917,1.917,0,0,1-.2,1.6,4.168,4.168,0,0,0,.35,4.053c.8.951.7,1.451-.4,3.252-.5.85-.8,1.7-.6,1.9.6.55-2,2.852-3,2.6a5.738,5.738,0,0,0-2.352.2c-1.2.35-1.451.25-1.7-.7Zm21.214-38.425c0-.3-.35-.25-.75.1a2.146,2.146,0,0,0-.75,1.1c0,.3.35.25.75-.1A2.146,2.146,0,0,0,360.617,756.973Z" transform="translate(-146.671 -242.847)" fill="#f79ecb"/>
    <path id="Path_2922" data-name="Path 2922" d="M561.4,844.2a1.8,1.8,0,0,1,.7-2.752,14.63,14.63,0,0,1,4.6-.6c2,0,3.7-.25,3.9-.55s1.5-.55,2.852-.55a7.5,7.5,0,0,0,2.852-.35,1.412,1.412,0,0,1,2.352.65c.2.7-.1,1.4-.951,2.2-1,.951-2,1.2-5.353,1.451-2.251.15-5.554.4-7.355.6a9.86,9.86,0,0,1-3.6-.1Z" transform="translate(-259.543 -301.846)" fill="#f79ecb"/>
    <path id="Path_2923" data-name="Path 2923" d="M359.592,832.3c-.3-.75.05-1.3.75-1.3.2,0,.4.45.4,1C360.743,833.151,359.992,833.352,359.592,832.3Z" transform="translate(-158.283 -297.744)" fill="#f79ecb"/>
    <path id="Path_2924" data-name="Path 2924" d="M663.637,826.855c-1-1-.65-1.5.9-1.3.851.15,1.651.05,1.8-.2.55-.9,1.7-.35,1.7.851,0,1.1-.2,1.251-1.9,1.251A4.344,4.344,0,0,1,663.637,826.855Z" transform="translate(-316.958 -294.657)" fill="#f79ecb"/>
    <path id="Path_2925" data-name="Path 2925" d="M655.831,809.062c-.6-1.751-1.351-4.053-1.651-5.153a18.53,18.53,0,0,0-1.2-3.452c-.9-1.751-.3-2.652,1.251-1.851a4.588,4.588,0,0,1,1.5,2.452c.25,1,.851,3.5,1.351,5.5.5,1.951,1.051,3.6,1.3,3.6.75,0,.4,1.4-.4,1.7-.45.15-.851.3-.9.3A18.319,18.319,0,0,1,655.831,809.062Z" transform="translate(-305.483 -281.29)" fill="#f79ecb"/>
    <path id="Path_2926" data-name="Path 2926" d="M685.049,819.751c.3-.951.8-1.751,1.2-1.751.851,0,.8.2-.1,2C685.1,822.053,684.4,821.9,685.049,819.751Z" transform="translate(-321.956 -291.162)" fill="#f79ecb"/>
    <path id="Path_2927" data-name="Path 2927" d="M474.688,804.471c-1.251-.4-4.253-1.351-6.754-2.2a70.92,70.92,0,0,0-6.954-1.9c-2.7-.45-3.152-.9-2.1-2.3.55-.7.9-.8,1.651-.4,1.3.75,7.6,2.5,12.008,3.352a23.569,23.569,0,0,1,4.053.951,1.63,1.63,0,0,0,1.2-.3c.8-.4,1.2-.35,1.751.2.7.7.65.9-.5,2.051C477.54,805.421,477.69,805.371,474.688,804.471Z" transform="translate(-207.994 -280.77)" fill="#f79ecb"/>
    <path id="Path_2928" data-name="Path 2928" d="M537.1,784.245c-.6-.3-1.1-.8-1.1-1.151,0-.6,2.652-2.9,3.4-3,2.051-.15,3.7-1,4.3-2.1a41.985,41.985,0,0,0,1.551-6.6c.5-2.9.951-5.6,1-6s.4-2.4.75-4.4c.45-2.8.75-3.552,1.2-3.1.8.8.55,7.905-.4,12.508a35.578,35.578,0,0,0-.8,6,17.268,17.268,0,0,1-.3,3.3c-.3,1.1-3.052,2.7-4.7,2.7-.55,0-1,.15-1,.4,0,.2-.65.7-1.4,1.151A2.577,2.577,0,0,1,537.1,784.245Z" transform="translate(-246.966 -260.845)" fill="#f79ecb"/>
    <path id="Path_2929" data-name="Path 2929" d="M575.83,756.485c-.7-.1-2.452-.55-3.852-.951-2.3-.65-2.752-.951-3.452-2.6a10.358,10.358,0,0,1-.65-3.6,5.429,5.429,0,0,0-.65-3c-.75-1.151-.75-1.8-.1-7.5a89.068,89.068,0,0,1,1.5-8.856,40.956,40.956,0,0,0,1-6.254c.45-6.254,2.1-15.21,3.2-17.411a6.138,6.138,0,0,1,2.4-2.6,11.169,11.169,0,0,0,2.1-1.2c1.7-1.3,3.1-1.2,5.053.35,1.9,1.5,5.954,8.055,5.954,9.656a4.671,4.671,0,0,0,.5,1.7c.3.45,1.651,4.353,3.052,8.606a121.363,121.363,0,0,0,4.753,12.208,37.413,37.413,0,0,1,2.5,6.254,33.928,33.928,0,0,0,1.751,5.4c1.6,3.9,1.751,5.153.9,6.8-1.151,2.151-1.9,2.251-3.8.65-1.7-1.4-7.355-2.4-9.856-1.751-7,1.851-8.756,2.5-9.056,3.452-.3,1-.75,1.051-3.252.65Z" transform="translate(-262.45 -232.641)" fill="#f79ecb"/>
    <path id="Path_2930" data-name="Path 2930" d="M453.835,773.418a29.453,29.453,0,0,0-4-1.8,24.183,24.183,0,0,1-5.954-3.3,14.125,14.125,0,0,0-2.752-2,4.155,4.155,0,0,1-1.3-.8c-.8-.6-.851-.851-.35-1.151,1.1-.65,4.2.55,6.054,2.352,2.752,2.6,3.5,2.1,1.051-.75a6.222,6.222,0,0,1-1.5-2.4c0-1.3.851-1.251,2.1.15,1.451,1.551,3.3,3.1,3.7,3.1.65,0,5.754,5.654,5.554,6.154-.25.75-1.951,1.051-2.6.45Z" transform="translate(-198.335 -263.135)" fill="#f79ecb"/>
    <path id="Path_2931" data-name="Path 2931" d="M465.371,712.214c-1.5-.35-3-.7-3.352-.75a2.134,2.134,0,0,1-.951-.5,1.762,1.762,0,0,0-1.051-.35c-.851,0-4.9-1.951-8.405-4-1.351-.851-2.8-1.651-3.152-1.8-.8-.4-6.9-6.454-8.756-8.656-1.5-1.8-2.452-1.851-1.2,0,.951,1.3.2,3.452-1.151,3.452-1.451,0-2.5-3.052-2.7-7.855-.15-2.4-.4-5.754-.6-7.4-.8-5.9-.25-11.507,1.9-19.262.7-2.5,2.151-3.152,2.151-.951,0,1.051.2,1.3,1.3,1.3,1.051,0,1.451-.35,1.951-1.8,1.051-2.952,3.752-5.8,8.105-8.505a27.423,27.423,0,0,1,4.8-2.552,4.211,4.211,0,0,0,1.751-.7,6.85,6.85,0,0,1,2.352-.951,19.794,19.794,0,0,0,2.652-.8,21.781,21.781,0,0,1,5.453-.55c3.252,0,4.253-.2,5.453-1.051.8-.55,1.451-1.351,1.451-1.8,0-.6.35-.7,1.651-.45a24.855,24.855,0,0,0,2.5.45c.45.05.851.3.851.55,0,.3.55.951,1.251,1.551.9.75,1.1,1.2.75,1.751-.4.6-.7.65-2.051.15-2-.75-2.3-.55-1.351.951a11.187,11.187,0,0,1,1.1,2.5,5.231,5.231,0,0,0,2.1,2.6,10.61,10.61,0,0,1,2.652,2.452c.45.7,1.651,2.452,2.652,4a41.181,41.181,0,0,1,5.754,13.359c.1.4.25,3.9.3,7.755.05,6.654-.7,12.858-1.7,14.009a2.433,2.433,0,0,0-.45,1.5c0,2.4-5.253,8.155-9.256,10.106a29.367,29.367,0,0,1-8.005,2.352,6.164,6.164,0,0,0-1.5.3c0,.35-3,.15-5.253-.4Z" transform="translate(-195.725 -204.555)" fill="#f79ecb"/>
    <path id="Path_2932" data-name="Path 2932" d="M604.368,706.088a40.9,40.9,0,0,1-1.551-5.053,21.532,21.532,0,0,0-2.051-5,19.456,19.456,0,0,1-1.9-4.6c-.5-2.952-4.8-14.409-7.2-19.212-1.951-3.8-3.5-5.053-6.2-5.053-1.3,0-4.253,1.751-5.8,3.4-1.151,1.251-2.652,1.2-2.652-.05,0-.4,1-1.6,2.2-2.752,1.5-1.4,2.151-2.352,1.951-3a13.474,13.474,0,0,1,1.051-4.3,23.885,23.885,0,0,0,1.3-4.353c0-.55.2-.951.45-.951.4,0,3.052-3.652,3.052-4.2,0-.15-.5-.3-1.1-.4-1.751-.25-1.7-1.651.05-2.4,1.9-.75,3.6-2.5,2.452-2.5-1.451,0-2-1.251-1.051-2.452.7-.851,1.651-1.151,3.9-1.4a9.8,9.8,0,0,0,3.9-1.051c1.251-1.1,2-.15,1.751,2.3-.2,2.251-.5,2.1,5.353,2.9a8.145,8.145,0,0,1,3.152.851,6.939,6.939,0,0,0,2.752.7c3.6.35,8.355,4.253,12.808,10.557a46.919,46.919,0,0,1,3.552,5.754c.951,2.2,2.552,8.856,2.452,10.607v7c0,7.255-.8,12.058-2.5,14.209-2.852,3.752-4.1,5-5.053,5.353a5.8,5.8,0,0,0-2.051,1.2c-1.8,1.7-8.155,2.5-10.056,1.251-1.851-1.2-2.1-.65-.851,1.751,1.351,2.552,1.351,4,.1,4C605.869,709.19,605.318,708.34,604.368,706.088Zm-8.806-34.072c-.4-.4-.55-.35-.55.2a1.852,1.852,0,0,0,.35,1.151c.2.2.45.1.55-.2A1.164,1.164,0,0,0,595.562,672.016Zm26.017-8.455a5.261,5.261,0,0,0-1.351-1.9c-.7-.6-.65-.3.3,1.351C621.779,665.312,622.379,665.612,621.578,663.561Zm-21.063-7.155c0-.4-.2-.75-.45-.75-.65,0-1.1.8-.7,1.2.55.55,1.151.3,1.151-.45Zm.45-4.2c.5-.3.5-.5.05-.8-.7-.45-3,.1-3,.75C598.013,652.754,600.015,652.8,600.965,652.2Zm5.354-3.152c-.5-.3-1-.35-1.2-.15-.45.4,1,1.251,1.551.9.25-.15.1-.5-.35-.75Z" transform="translate(-267.715 -201.601)" fill="#f79ecb"/>
    <path id="Path_2933" data-name="Path 2933" d="M374.279,654.794a2.694,2.694,0,0,1-.6-1.7c0-2.7-1.2-3.552-2-1.451-.5,1.3-1.7,1.651-2.3.7-.35-.55,3.1-5.9,6.7-10.307,2.2-2.752,2.4-3.152,1.651-3.152a10.565,10.565,0,0,1-1.851-.5c-2.151-.851-.8-1.7,1.6-1.051l1.9.55,4.3-4.153c2.352-2.3,5.2-4.9,6.354-5.8,1.9-1.451,2.051-1.7,1.4-2.4-1.051-1-.65-1.4,2-2.2,1.6-.45,2.251-.951,2.251-1.551,0-.5.25-.9.5-.9.3,0,.5.45.5,1,0,2.051,3.4.75,8.055-3.1a12.31,12.31,0,0,1,2.8-1.9,8.237,8.237,0,0,0,2.2-1.251c1.551-1,1.951-1.1,2.7-.55a1.275,1.275,0,0,1,.6,1.451c-.15.45-2.8,2.652-5.8,4.853a46.628,46.628,0,0,0-5.554,4.453c0,.851-2.852,3.6-3.953,3.8a7.152,7.152,0,0,0-2.752,1.651,31.447,31.447,0,0,1-3.8,2.952c-2.7,1.851-8.005,7.455-8.005,8.455a19.725,19.725,0,0,0,.55,3c.45,1.7.45,2.352-.05,2.952-.951,1.1-1.4.951-2.4-1.051-.8-1.551-1-1.651-1.551-1a8.741,8.741,0,0,0-.851,3.652c-.35,4.053-2.752,6.4-4.6,4.553Z" transform="translate(-163.34 -188.296)" fill="#f79ecb"/>
    <path id="Path_2934" data-name="Path 2934" d="M545.781,626.512c-.6-1.5-1.051-1.951-1.9-1.9-2,.1-2.4-.1-2.4-.9,0-.851-1.451-.6-3.352.6-2.2,1.351-2.952.951-3.852-2.2a23.7,23.7,0,0,1-.8-3.6,23.151,23.151,0,0,0-2.251-4.4c-2.051-3.4-2.852-6.1-1.851-6.1.55,0,3.8,4.353,5,6.754a29.679,29.679,0,0,1,1.6,4.153c.5,1.6.9,2.1,1.7,2.051,2-.05,5.053-1.251,5.1-1.951.05-.4.1-1,.15-1.351,0-.3.75-.7,1.551-.9,1.8-.4,6,1.051,6,2.051,0,.9,1.751.9,5.954-.05a78.4,78.4,0,0,1,15.66-2.151c3.4,0,3.9.15,4.2,1a2.217,2.217,0,0,1-.35,1.751c-.65.75-1.451.75-6.354-.25a10.81,10.81,0,0,0-5,.2,22.906,22.906,0,0,1-4.4.7,3.808,3.808,0,0,0-1.9.35c-.4.4-.3.35-5.5,1.351a16.286,16.286,0,0,0-4.4,1.2c-.3.3-.2,1.1.3,2.3.9,2.2.6,3.3-.951,3.3C546.882,628.513,546.382,628.013,545.781,626.512Z" transform="translate(-243.551 -184.694)" fill="#f79ecb"/>
    <path id="Path_2935" data-name="Path 2935" d="M639.03,580.7a4.721,4.721,0,0,1-1.751-1.751,3.443,3.443,0,0,0-2.952-1.851c-2-.25-3.152-1.4-1.451-1.451.5-.05,1.7-.15,2.7-.35,1.551-.25,1.951-.1,2.8,1a3.606,3.606,0,0,0,1.8,1.3,1.7,1.7,0,0,1,1.551,2.151,2.27,2.27,0,0,1-2.7.951Z" transform="translate(-295.198 -167.919)" fill="#f79ecb"/>
    <path id="Path_2936" data-name="Path 2936" d="M469.881,570.085c-1.051-.45-.9-.55,1.5-.7a7.371,7.371,0,0,0,2.251-.45c2.452-1.051,6.1-1.9,7.3-1.751,2.5.25,1.351,1.151-1.551,1.2-1.8.05-3.1.35-3.7.9C474.634,570.235,471.382,570.685,469.881,570.085Z" transform="translate(-213.446 -163.828)" fill="#f79ecb"/>
    <path id="Path_2937" data-name="Path 2937" d="M101.935,690.085c-2.3-1.4-6.8-6-6.454-6.554.6-1,1.3-.6,5.353,3.152,1.951,1.8,3.552,2.151,5,1.151,1.551-1.1,2.9-1,2.9.1C108.739,690.235,104.436,691.586,101.935,690.085Z" transform="translate(-25.563 -222.701)" fill="#f79ecb"/>
    <path id="Path_2938" data-name="Path 2938" d="M106.649,681.519c-.65-1.751-.05-2.2,1.951-1.4,2.2.951,2.251,2.752.1,2.752A1.772,1.772,0,0,1,106.649,681.519Z" transform="translate(-31.028 -220.971)" fill="#f79ecb"/>
    <path id="Path_2939" data-name="Path 2939" d="M433,530.413c0-.25.75-.9,1.651-1.451,1.2-.8,3.352-1.3,8.355-1.9,3.7-.45,8.205-1.1,10.006-1.4,1.851-.35,9.356-.6,17.611-.65,7.955-.05,14.509-.2,14.709-.35a1.629,1.629,0,0,1,1.251-.05c1.5.4,1.3,2.952-.25,3.252a2.133,2.133,0,0,1-1.751-.25c-.8-.8-11.958-1.4-20.313-1.1-10.807.45-29.769,2.9-29.769,3.852,0,.2-.35.4-.75.4S433,530.613,433,530.413Z" transform="translate(-195.361 -142.198)" fill="#f79ecb"/>
    <path id="Path_2940" data-name="Path 2940" d="M453.232,517.758c-.8-1.351,1.151-1.9,8.255-2.5,10.857-.851,29.319-.851,29.319-.05,0,.5-2.452.7-11.507.851-10.857.2-16.961.65-22.865,1.751-3.1.6-2.752.6-3.2-.05Z" transform="translate(-205.387 -137.153)" fill="#f79ecb"/>
    <path id="Path_2941" data-name="Path 2941" d="M484,504.3c0-.6,1.4-1.1,1.751-.6.15.25-.1.6-.55.75C484.15,504.846,484,504.846,484,504.3Z" transform="translate(-220.815 -131.495)" fill="#f79ecb"/>
    <path id="Path_2942" data-name="Path 2942" d="M501.808,502.412a2.173,2.173,0,0,1,1.6-.25c1,.15.951.25-.45.45-1,.15-1.451.1-1.151-.2Z" transform="translate(-229.714 -130.797)" fill="#f79ecb"/>
    <path id="Path_2943" data-name="Path 2943" d="M208,497.379a7.1,7.1,0,0,1,.6-2.151,5.221,5.221,0,0,0,.45-1.851c-.05-.25.25-.3.7-.1a7.729,7.729,0,0,0,1.051.3c.5,0,.1,2.852-.5,3.652-.8,1.051-2.3,1.151-2.3.15Z" transform="translate(-82.21 -126.267)" fill="#f79ecb"/>
    <path id="Path_2944" data-name="Path 2944" d="M218.8,495.585c-.6-.55,1.6-4.2,2.352-3.9.4.15.7.45.7.7,0,.7-2.752,3.552-3.052,3.2Z" transform="translate(-87.581 -125.506)" fill="#f79ecb"/>
    <path id="Path_2945" data-name="Path 2945" d="M494,491.02c0-.8.35-.951,2.151-.951a10.365,10.365,0,0,0,3.5-.5c1.751-.7,4.353-.7,4.353-.05,0,.851-1.651,1.4-3.5,1.151a8.067,8.067,0,0,0-3.7.55C494.35,492.271,494,492.221,494,491.02Z" transform="translate(-225.862 -124.167)" fill="#f79ecb"/>
    <path id="Path_2946" data-name="Path 2946" d="M635.334,493.276c-.7-.7-.35-1.251.65-1.1.6.1,1.051.4,1.051.65,0,.6-1.2.9-1.7.45Z" transform="translate(-296.632 -125.739)" fill="#f79ecb"/>
    <path id="Path_2947" data-name="Path 2947" d="M564.949,472.483c-.6-.45-.7-.8-.35-1.051.851-.5,3.1.2,3.1,1C567.7,473.333,566.15,473.333,564.949,472.483Z" transform="translate(-261.196 -115.14)" fill="#f79ecb"/>
    <path id="Path_2948" data-name="Path 2948" d="M543.615,466.3c-.4-.15-1.6-.7-2.652-1.2a4.235,4.235,0,0,0-2.352-.7c-.2.1-.65-.1-1-.55-.5-.55-.5-.9-.1-1.3.45-.45,1.151-.3,2.752.5a11.035,11.035,0,0,0,3.452,1.1c1.4,0,2.652,1.151,2.151,2C545.517,466.7,544.866,466.752,543.615,466.3Z" transform="translate(-247.567 -110.6)" fill="#f79ecb"/>
    <path id="Path_2949" data-name="Path 2949" d="M530.917,463.451c-1-.55-1.2-1.451-.35-1.451a2.29,2.29,0,0,1,1.251.7C533.068,464,532.518,464.4,530.917,463.451Z" transform="translate(-243.935 -110.438)" fill="#f79ecb"/>
    <path id="Path_2950" data-name="Path 2950" d="M127,441.825a8.546,8.546,0,0,1,2-2.752,11.934,11.934,0,0,0,2.151-2.652c.15-.851,4.1-4.253,6-5.153a16.089,16.089,0,0,0,3.352-2.3c2.352-2.151,4.6-3.5,9.606-5.6,3.552-1.5,4.753-1.8,6.3-1.551,1.251.2,2.1.1,2.3-.25.45-.75,2.952-.7,3.7.05.951.951.7,1.751-.75,2.251-1.951.7-6.6,2.051-8.355,2.4-.75.15-1.3.45-1.151.6.3.3-1.151,1.051-8.555,4.453-5.2,2.352-9.856,5.6-11.457,7.905-.65,1-1.5,1.8-1.851,1.8a2.081,2.081,0,0,0-1.3.75C128.2,442.726,127,442.776,127,441.825Z" transform="translate(-41.322 -89.713)" fill="#f79ecb"/>
    <path id="Path_2951" data-name="Path 2951" d="M494.833,451.366a8.049,8.049,0,0,0-2.952-1.351c-4.3-1.351-8.105-2.9-8.455-3.452-.7-1-.4-1.3.75-.8.6.25,3.052,1.051,5.5,1.8,4.7,1.451,6.9,2.852,6,3.752C495.334,451.666,495.034,451.666,494.833,451.366Z" transform="translate(-220.372 -102.092)" fill="#f79ecb"/>
    <path id="Path_2952" data-name="Path 2952" d="M155.524,445.905c-.4-1.051.8-2.452,2.852-3.252a12.511,12.511,0,0,0,2.352-1.2,21.729,21.729,0,0,1,4-1.9c1.8-.7,4.353-1.751,5.7-2.352,2.151-1,2.5-1,3.152-.35,1.051,1.051.5,1.7-2,2.452a13.843,13.843,0,0,0-3.1,1.2,17.53,17.53,0,0,1-3.4,1.151,18.08,18.08,0,0,0-4.4,1.8,8.979,8.979,0,0,1-2.4,1.251c-.3,0-.75.45-1.051,1-.65,1.2-1.3,1.3-1.7.2Z" transform="translate(-50.502 -97.476)" fill="#f79ecb"/>
    <path id="Path_2953" data-name="Path 2953" d="M393.48,418.276c-1.051-.4-4.753-1.4-8.255-2.251-6.8-1.651-10.257-3.252-6.054-2.8a54.53,54.53,0,0,1,11.758,2.6c3.152.951,6.054,1.751,6.454,1.751a1.893,1.893,0,0,1,1.251.7c.55.6.3.75-1.3.7a14.9,14.9,0,0,1-3.852-.7Z" transform="translate(-167.296 -85.653)" fill="#f79ecb"/>
    <path id="Path_2954" data-name="Path 2954" d="M253.178,411.86a1.754,1.754,0,0,1,.65-1.5c.65-.65.8-.65.45-.1-.35.65-.25.65.45.05.9-.75,9.256-1.1,9.656-.45.15.25-.1.4-.5.4-.45,0-.65.3-.5.65.2.5-.951.8-4.853,1.151-4.1.35-5.1.35-5.353-.2Z" transform="translate(-104.899 -83.8)" fill="#f79ecb"/>
    <path id="Path_2955" data-name="Path 2955" d="M296,407.35c0-.9,5.353-1.6,6.154-.8.851.851.05,1.2-3.152,1.351C296.75,408,296,407.9,296,407.35Z" transform="translate(-126.41 -82.113)" fill="#f79ecb"/>
    <path id="Path_2956" data-name="Path 2956" d="M369.871,348.4a2.262,2.262,0,0,0-1.551-.5c-.8,0-1.2-.25-1.051-.6.1-.4.8-.6,1.651-.45,1.451.15,4.2,1.351,4.2,1.8C373.123,349.152,370.171,348.9,369.871,348.4Z" transform="translate(-162.186 -51.151)" fill="#f79ecb"/>
    <path id="Path_2957" data-name="Path 2957" d="M537.635,298.886c-2.8-2.7-3.852-4.053-3.852-5,0-1.8-3.652-5.854-6.854-7.6-.9-.5-1.651-1.151-1.651-1.5s-.35-.5-.75-.35-1.251-.3-2-1c-.7-.7-1.251-1.051-1.251-.8,0,.2-.55.15-1.251-.15-.7-.35-1.251-.9-1.251-1.2,0-.35-.2-.65-.5-.65-.25,0-.5.3-.5.7,0,.45-.35.6-1,.45-.55-.15-1-.5-1-.851,0-.3-.2-.3-.45.1-.35.6-.55.6-1.1,0a2.169,2.169,0,0,0-1.8-.5,15.9,15.9,0,0,1-3.352-.1c-1.6-.25-2.251-.6-2.452-1.351-.25-.951-.1-.951,2.552-.65a13.376,13.376,0,0,1,3.2.55,18.464,18.464,0,0,0,2.752.45,32.553,32.553,0,0,1,12.108,4.253,23.622,23.622,0,0,1,8.105,7.255,11.293,11.293,0,0,0,2.452,2.7,2.1,2.1,0,0,1,1,1.651c0,.65.9,2.051,2.051,3.252,1.9,2,2.352,3.552,1.2,3.953-.3.1-2.3-1.5-4.4-3.6Z" transform="translate(-232.245 -16.896)" fill="#f79ecb"/>
    <path id="Path_2958" data-name="Path 2958" d="M550.752,314.7c-.1-.35-.45-1.5-.75-2.552-.35-1.051-.7-1.8-.851-1.7-.3.35-2.151-1.5-2.151-2.1,0-1.4,1.351-.851,3.752,1.6,1.951,1.9,2.752,3.152,2.752,4.053,0,1.051-.25,1.3-1.251,1.3A1.838,1.838,0,0,1,550.752,314.7Z" transform="translate(-252.47 -31.557)" fill="#f79ecb"/>
    <path id="Path_2959" data-name="Path 2959" d="M536.2,302.007c-.15-.4-1.1-.851-2.1-1-4.653-.75-4.853-1-3.052-2.8.6-.6,1.2-.851,1.4-.6a2.934,2.934,0,0,0,1.551.9c1.651.45,4.5,2.352,4.5,3,0,.25-.25.2-.6-.15-.9-.9-1.551-.7-1.251.4.3,1.151-.05,1.351-.45.25Z" transform="translate(-243.936 -26.52)" fill="#f79ecb"/>
    <path id="Path_2960" data-name="Path 2960" d="M520.349,299.191a2.64,2.64,0,0,1-1-.6c-.5-.7-2.5-1.1-2.5-.5,0,.7-2,.45-2.151-.25-.15-.75,3.152-.9,5.3-.25,1.751.5,2.352,1.151,1.5,1.651a1.843,1.843,0,0,1-1.151-.05Z" transform="translate(-236.245 -26.356)" fill="#f79ecb"/>
    <path id="Path_2961" data-name="Path 2961" d="M494.078,278.059c-.75-.3-.55-.45,1-.7,3.252-.55,4.253-.45,3.953.4C498.681,278.559,495.829,278.759,494.078,278.059Z" transform="translate(-225.675 -16.281)" fill="#f79ecb"/>
  </g>
</svg>
