<svg xmlns="http://www.w3.org/2000/svg" width="195.876" height="243.705" viewBox="0 0 195.876 243.705">
  <g id="Group_1197" data-name="Group 1197" transform="translate(-0.124 -1.295)">
    <path id="Path_3080" data-name="Path 3080" d="M114,224.1V203.3l8.3-2.7c10.3-3.4,18.3-8.8,22.2-15.1l3-4.8.3-49.4c.2-29.7-.1-49.3-.7-49.3-.5,0-8.2,3.3-17.2,7.3l-16.3,7.4L97.2,89.3c-9-4.1-16.7-7.1-17.1-6.8-.3.4-.6,20.5-.7,44.8v44.2l-23.2.3L33,172l-.2-56.1-.3-56.1L16.5,53,.5,46.2.2,23.5C0,2.1.1.8,1.7,1.4c1,.4,26.6,11.7,56.9,25.2l55,24.5L154.4,33c22.5-9.9,41-18,41.2-18s.4,36.2.4,80.5c0,69.6-.2,81.6-1.6,88.3-4.5,22.1-18.6,42.2-35.3,50.6-11.9,6-30.2,10.6-42.3,10.6H114V224.1Z" fill="#fff"/>
  </g>
</svg>
