<svg id="angular-logo" xmlns="http://www.w3.org/2000/svg" width="145.782" height="45.08" viewBox="0 0 145.782 45.08">
  <g id="Angular_full_color_logo" transform="translate(0)">
    <path id="Path_3072" data-name="Path 3072" d="M53.515,30h0L31.9,37.483,35.2,65.23l18.318,9.85h0l18.318-9.85,3.3-27.747Z" transform="translate(-31.9 -30)" fill="#dd0031"/>
    <path id="Path_3073" data-name="Path 3073" d="M125,30V57.814h0V75.08h0l18.318-9.85,3.3-27.747Z" transform="translate(-103.385 -30)" fill="#c3002f"/>
    <path id="Path_3074" data-name="Path 3074" d="M80.312,52.1,66.8,81.515h5.038l2.716-6.582H86.024l2.716,6.582h5.038L80.312,52.1Zm3.947,18.776H76.366l3.947-9.219Z" transform="translate(-58.697 -47.119)" fill="#fff"/>
  </g>
  <g id="Group_1192" data-name="Group 1192" transform="translate(47.273 13.272)">
    <path id="Path_2987" data-name="Path 2987" d="M-85.211-14.458V-32.149h2.5l9.058,13.663V-32.149h2.188v17.692h-2.492l-9.07-13.663v13.663Zm32.163-.478a21.468,21.468,0,0,1-5.7.92,8.67,8.67,0,0,1-6.583-2.4q-2.292-2.4-2.292-6.885A9.541,9.541,0,0,1-65.3-30.147a8.558,8.558,0,0,1,6.517-2.445,21.9,21.9,0,0,1,5.714.8v2.319a19.71,19.71,0,0,0-5.7-1.243A5.549,5.549,0,0,0-63.3-28.767a8.383,8.383,0,0,0-1.611,5.487,7.919,7.919,0,0,0,1.726,5.445,6.136,6.136,0,0,0,4.839,1.943,9.7,9.7,0,0,0,2.76-.442V-22.1h2.541Zm4.577-17.214h2.553v11.165a6.063,6.063,0,0,0,1,3.879,3.909,3.909,0,0,0,3.191,1.213,3.629,3.629,0,0,0,3.033-1.142A6.4,6.4,0,0,0-37.8-20.9V-32.149h2.237v11.213q0,3.622-1.514,5.272t-4.821,1.65a6.523,6.523,0,0,1-4.973-1.709q-1.6-1.709-1.6-5.284Zm17.647,17.692V-32.149h2.553v15.815h8.1v1.877ZM-8.18-21.224l-3.064-7.627-3.076,7.627Zm2.7,6.766-1.957-4.9h-7.623l-1.982,4.9h-2.371l7.137-17.692h2.529l7.027,17.692Zm5.611,0V-32.149H5.576a6.147,6.147,0,0,1,3.97,1.124,3.964,3.964,0,0,1,1.38,3.263q0,3.538-3.635,5.021L13.3-14.458H10.16L5.041-21.941H2.659v7.483Zm2.529-9.36h.827q4.815,0,4.815-3.718,0-2.737-4.036-2.737h-1.6Z" transform="translate(85.211 32.592)"/>
  </g>
</svg>
