<svg id="asterisk-logo" xmlns="http://www.w3.org/2000/svg" width="117.988" height="65.489" viewBox="0 0 117.988 65.489">
  <path id="path2325" d="M147.635,281.8a7.438,7.438,0,0,1-3.159-1.733,6.767,6.767,0,0,1-1.141-1.467,6.054,6.054,0,0,1-.5-1.72l-.115-.97h3.888l.492,1.031a2.589,2.589,0,0,0,1.369,1.474,4.316,4.316,0,0,0,2.125.442c1.8,0,2.906-.329,3.508-1.045a1.318,1.318,0,0,0,.4-1.271,2.5,2.5,0,0,0-.364-.977,3.745,3.745,0,0,0-1.07-.671,27.764,27.764,0,0,0-3.38-.944,32.18,32.18,0,0,1-3.314-.894,5.08,5.08,0,0,1-2.688-2.245,3.925,3.925,0,0,1-.518-2.261,4.378,4.378,0,0,1,.375-2.038,5.424,5.424,0,0,1,.934-1.248,7.328,7.328,0,0,1,1.415-.948,12.254,12.254,0,0,1,4.572-.987,13.706,13.706,0,0,1,2.148.195,10.442,10.442,0,0,1,2.042.663,7.06,7.06,0,0,1,1.666,1.129,6.374,6.374,0,0,1,1.59,3.072l0,.442h-4.03l-.393-.737a2.8,2.8,0,0,0-1.18-1.128,4.252,4.252,0,0,0-2.064-.376,6.55,6.55,0,0,0-2.015.332,2.084,2.084,0,0,0-.959.8,1.742,1.742,0,0,0-.1.98,2.014,2.014,0,0,0,.717.916,11.315,11.315,0,0,0,2.7.918c3.629.852,5.285,1.41,6.177,2.083a5.245,5.245,0,0,1,1.29,1.513,5.5,5.5,0,0,1-.1,4.539,5.282,5.282,0,0,1-1.37,1.69,10.04,10.04,0,0,1-1.966,1.07,9.259,9.259,0,0,1-3.693.5A20.38,20.38,0,0,1,147.635,281.8Z" transform="translate(-119.574 -216.476)" fill="#8a8a8e"/>
  <path id="path2323" d="M280.868,263.5a8.539,8.539,0,0,0-3.526.743,10.652,10.652,0,0,0-2.316,1.6,8.652,8.652,0,0,0-1.671,2.218,13.791,13.791,0,0,0-.9,2.672,10,10,0,0,0-.2,2.992,15.469,15.469,0,0,0,.51,2.758,10.043,10.043,0,0,0,1.13,2.316,9.734,9.734,0,0,0,1.72,1.812,8.844,8.844,0,0,0,2.163,1.13,8.959,8.959,0,0,0,3.447.344l2.261-.049,1.321-.645a9.9,9.9,0,0,0,2.193-1.53,7.261,7.261,0,0,0,1.886-3.416v-.406l-1.819.006-1.819.006-.59,1.014a3.445,3.445,0,0,1-1.37,1.413,6.512,6.512,0,0,1-3.938.313,4.928,4.928,0,0,1-1.407-.836,5.55,5.55,0,0,1-1.075-1.37,6.189,6.189,0,0,1-.5-1.739l-.117-.971h13.031v-1.333a11.83,11.83,0,0,0-.295-2.464,12.873,12.873,0,0,0-.8-2.132,10.151,10.151,0,0,0-1.376-1.935,9.133,9.133,0,0,0-2-1.524,10.416,10.416,0,0,0-2.3-.842A8.114,8.114,0,0,0,280.868,263.5Zm.012,3.17a3.118,3.118,0,0,1,.854.117,5.9,5.9,0,0,1,1.468.664,5.109,5.109,0,0,1,1.2,1.327,5.647,5.647,0,0,1,.67,1.714l.129.836h-8.9v-.553a4.877,4.877,0,0,1,.516-1.591,4.773,4.773,0,0,1,1.3-1.6,5.786,5.786,0,0,1,1.788-.793A4.508,4.508,0,0,1,280.881,266.67Z" transform="translate(-223.622 -216.611)" fill="#8a8a8e"/>
  <path id="path2319" d="M458.313,281.708a9.648,9.648,0,0,1-1.9-.877,5.725,5.725,0,0,1-2.038-2.493,8.384,8.384,0,0,1-.417-1.513l-.138-.836h4.119l.122.652a2.761,2.761,0,0,0,.759,1.251,4.324,4.324,0,0,0,1.305.823,8.847,8.847,0,0,0,3.829.009,3.3,3.3,0,0,0,1.229-.678,1.57,1.57,0,0,0,.466-1.225,1.515,1.515,0,0,0-.541-1.274,3.958,3.958,0,0,0-1.08-.72c-.3-.112-1.757-.481-3.244-.82a25.728,25.728,0,0,1-3.731-1.1,6.087,6.087,0,0,1-1.712-1.283,4.906,4.906,0,0,1-1.011-3.767,5.412,5.412,0,0,1,.763-1.841A4.3,4.3,0,0,1,457,264.436a8.706,8.706,0,0,1,3.013-.875,10.786,10.786,0,0,1,5.941.762,6.422,6.422,0,0,1,1.674,1.193,6.768,6.768,0,0,1,1.454,2.758l.138.639h-4.314l-.116-.461a2.669,2.669,0,0,0-.627-.972,3.263,3.263,0,0,0-1.609-.74,4.86,4.86,0,0,0-2.184-.01,3.86,3.86,0,0,0-1.54.645,1.42,1.42,0,0,0-.012,2.069,4.985,4.985,0,0,0,.874.626,27.86,27.86,0,0,0,3.146.828A27.933,27.933,0,0,1,466.682,272a6.584,6.584,0,0,1,1.9,1.342,4.766,4.766,0,0,1,1.005,1.694,6.169,6.169,0,0,1,.127,1.86,6.1,6.1,0,0,1-.5,1.795,6.6,6.6,0,0,1-1.289,1.568A8.352,8.352,0,0,1,465.9,281.5a9.529,9.529,0,0,1-3.79.521A9.768,9.768,0,0,1,458.313,281.708Z" transform="translate(-369.516 -216.556)" fill="#8a8a8e"/>
  <path id="path2317" d="M225.823,262.3a5.883,5.883,0,0,1-1.346-.521,3.362,3.362,0,0,1-1.011-1.129l-.424-.786-.062-6.144-.062-6.144H220v-2.949h2.949v-5.308h3.921l.055,2.6.055,2.6,1.72.057,1.72.057v2.934h-3.572l.066,5.4.066,5.4.448.448c.375.374.656.447,1.72.444l1.272,0v3l-.912.125A11.557,11.557,0,0,1,225.823,262.3Z" transform="translate(-181.66 -197.181)" fill="#8a8a8e"/>
  <path id="path2315" d="M38.657,231.652c-.32,0-.9.024-1.96.025l-2.31.006-4.3,11.206c-2.366,6.163-4.478,11.673-4.694,12.244L25,256.171l2.3-.055,2.3-.055,1.118-3.146,1.118-3.146,4.817-.049,4.817-.055.817,2.316c.451,1.272.967,2.73,1.149,3.244l.332.934H46.1c2.511-.017,2.461.185,2.242-.344s-9.009-23.473-9.2-23.862C39.006,231.68,39.191,231.644,38.657,231.652Zm-1.978,4.509a10.639,10.639,0,0,1,.7,1.757c.351,1,1.156,3.306,1.788,5.118l1.149,3.293H33.085l.559-1.622C34.843,241.221,36.618,236.223,36.679,236.162Z" transform="translate(-25 -191.024)" fill="#8a8a8e"/>
  <path id="path2311" d="M368,272.876v-8.847h3.735v2.993l.639-.956a6.909,6.909,0,0,1,1.591-1.592,7.316,7.316,0,0,1,1.731-.846,6.325,6.325,0,0,1,1.7-.15l.924.06.056,1.907.056,1.907-1.347-.025a4.32,4.32,0,0,0-2.273.423,4.676,4.676,0,0,0-1.427,1.1,8.664,8.664,0,0,0-.914,1.7c-.373.941-.422,1.543-.5,6.106l-.085,5.062H368Z" transform="translate(-300.564 -216.587)" fill="#8a8a8e"/>
  <path id="path2309" d="M426,275.161v-8.847h4.129v17.694H426Z" transform="translate(-347.161 -218.873)" fill="#8a8a8e"/>
  <path id="path2307" d="M541.031,244.053l.051-12.238h3.932l.052,6.862.052,6.862,3.357-3.471,3.357-3.471,2.489.01,2.489.01-3.328,3.228-3.328,3.228,3.672,5.51c2.02,3.03,3.673,5.554,3.673,5.609s.49.1-2.41.1h-2.41l-2.554-4.058c-1.4-2.232-2.617-4.156-2.695-4.276-.088-.137-.544.181-1.229.857l-1.088,1.075v6.4h-4.131Z" transform="translate(-439.541 -191.155)" fill="#8a8a8e"/>
  <path id="path2303" d="M142.72,25a23.5,23.5,0,0,0-7.944,1.143c-.854.279-2.22.815-3.035,1.192a30.848,30.848,0,0,0-3.361,1.935,42.181,42.181,0,0,0-3.5,2.66,36.348,36.348,0,0,0-3.017,3.017,37.336,37.336,0,0,0-2.408,3.133,8.137,8.137,0,0,1-1.075,1.444c-.163-.163,1.349-3.078,2.4-4.632l1.13-1.671L120.7,34.4a33.2,33.2,0,0,0-2.648,3.078,34.789,34.789,0,0,0-2.335,3.539,28.093,28.093,0,0,0-1.542,3.508l-.645,1.868v6.684l.534,1.573a18.634,18.634,0,0,0,1.272,2.845,18.6,18.6,0,0,0,2.1,2.7,18.859,18.859,0,0,0,2.654,2.3,17.665,17.665,0,0,0,7,2.746,29.836,29.836,0,0,0,4.006.295,35.45,35.45,0,0,0,4.5-.289,40.973,40.973,0,0,0,4.368-.971,41.525,41.525,0,0,0,4.331-1.554l2.034-.891,1.29.387c1.467.444,8.146,1.959,8.239,1.868.033-.033-.726-1.639-1.689-3.569l-1.751-3.514,1.554-1.868c.858-1.027,2.054-2.612,2.654-3.52a36.291,36.291,0,0,0,2.034-3.637,26.4,26.4,0,0,0,1.352-3.459,25.4,25.4,0,0,0,.608-3.207,14.023,14.023,0,0,0-.012-3.44,18.071,18.071,0,0,0-.676-3.047,21.543,21.543,0,0,0-1.321-2.851,15.157,15.157,0,0,0-5.007-5.1,10.3,10.3,0,0,0-1.339-.639c-.076,0,.309.357.86.793a13.921,13.921,0,0,1,3.146,3.791l.442.823-.442-.59c-.242-.324-1.109-1.263-1.929-2.083a10.545,10.545,0,0,0-3.164-2.316,15.586,15.586,0,0,0-3.637-1.235A21.925,21.925,0,0,0,142.72,25Zm-.1,2.175a14.828,14.828,0,0,1,4.282.418,20.108,20.108,0,0,1,2.851,1.032,9.924,9.924,0,0,1,2.814,2.12,10.36,10.36,0,0,1,2.31,3.164,15.961,15.961,0,0,1,1.112,3.047,17.189,17.189,0,0,1,.289,2.881,19.555,19.555,0,0,1-2.064,8.325,27.93,27.93,0,0,1-1.505,2.654,25.515,25.515,0,0,1-2.371,2.869,17.086,17.086,0,0,0-1.524,1.714c0,.064.708,1.2,1.573,2.519a27.871,27.871,0,0,1,1.573,2.568c0,.089-.046.16-.1.16s-1.373-.487-2.918-1.081a21.526,21.526,0,0,0-3.311-1.081,5.436,5.436,0,0,0-1.554.467,37.339,37.339,0,0,1-7.422,2.193,25.835,25.835,0,0,1-3.465.264,18.021,18.021,0,0,1-8.159-1.88,10.347,10.347,0,0,1-3.557-2.593,10.737,10.737,0,0,1-2.408-3.17,17.256,17.256,0,0,1-1.014-2.648,15.045,15.045,0,0,1,.092-6.316,22.346,22.346,0,0,1,1.382-3.563,26.924,26.924,0,0,1,2.156-3.557,32.542,32.542,0,0,1,2.937-3.232,27.286,27.286,0,0,1,6.408-4.528,30.1,30.1,0,0,1,6.844-2.328A20.627,20.627,0,0,1,142.621,27.174Z" transform="translate(-96.126 -24.999)" fill="#f68f24"/>
  <path id="path2299" d="M183.007,80.557l.08-3.742L179.9,78.8c-1.755,1.091-3.217,1.957-3.248,1.924-.164-.173-2.652-4.4-2.652-4.511a34.3,34.3,0,0,1,3.242-1.966c1.784-1.013,3.243-1.885,3.243-1.939s-1.459-.927-3.243-1.939A34.3,34.3,0,0,1,174,68.4c0-.105,2.487-4.336,2.65-4.508.03-.032,1.363.795,2.962,1.837s3.036,1.945,3.193,2.006c.246.095.275-.416.205-3.656l-.081-3.766h5.48l-.14,3.84-.14,3.84,1.339-.861,3.01-1.936c.919-.591,1.776-1.137,1.9-1.213.152-.09.713.662,1.615,2.166.76,1.267,1.363,2.319,1.34,2.337s-1.325.762-2.893,1.653-3.061,1.753-3.317,1.914l-.467.294,3.121,1.764,3.362,1.9c.17.1-.168.82-1.142,2.443-1.17,1.951-1.435,2.278-1.723,2.124-.187-.1-1.531-.923-2.987-1.829s-2.764-1.718-2.907-1.805c-.214-.13-.235.508-.119,3.6l.141,3.756h-5.479Z" transform="translate(-144.705 -53.372)" fill="#f68f24"/>
  <path id="path2279" d="M137.192,100.413a.1.1,0,1,0-.1.1A.1.1,0,0,0,137.192,100.413Z" transform="translate(-114.978 -85.508)" fill="#f68f24"/>
  <path id="flowRoot2289" d="M436.234,348.337h1.551v.5h-.52v1.519h-.51v-1.519h-.52Zm1.777,0h.671l.259,1.227.258-1.227h.669v2.017h-.417v-1.538l-.323,1.538h-.377l-.322-1.538v1.538h-.418Z" transform="translate(-322.655 -303.294)"/>
  <path id="path2329" d="M112.407,134.685a12.428,12.428,0,0,1-.949-4.841c0-1.756.305-2.473,1.119-4.83Z" transform="translate(-94.461 -105.352)" fill="#f68f24" fill-rule="evenodd"/>
  <path id="path2339" d="M112.256,142.657a11.981,11.981,0,0,1-.119-4.083c.022-.123.069-.336.1-.472l.062-.249,0,1.256c0,.691,0,1.819,0,2.509l0,1.253Z" transform="translate(-94.907 -115.666)" fill="#f68f24" fill-rule="evenodd"/>
</svg>
