<svg id="AWS-logo" xmlns="http://www.w3.org/2000/svg" width="97.942" height="58.569" viewBox="0 0 97.942 58.569">
  <path id="Path_3043" data-name="Path 3043" d="M37.651,22.371a9.856,9.856,0,0,0,.358,2.9,17.436,17.436,0,0,0,1.042,2.345,1.417,1.417,0,0,1,.228.749,1.29,1.29,0,0,1-.619.977L36.609,30.71a1.562,1.562,0,0,1-.847.293,1.5,1.5,0,0,1-.977-.456,10.078,10.078,0,0,1-1.173-1.531c-.326-.554-.651-1.173-1.01-1.922a12.033,12.033,0,0,1-9.577,4.5,8.925,8.925,0,0,1-6.515-2.345A8.368,8.368,0,0,1,14.1,22.99a8.386,8.386,0,0,1,2.964-6.71,11.85,11.85,0,0,1,7.981-2.541A25.791,25.791,0,0,1,28.5,14c1.205.163,2.443.423,3.746.717V12.338c0-2.476-.521-4.2-1.531-5.212-1.042-1.01-2.8-1.5-5.31-1.5a14.821,14.821,0,0,0-3.518.423,25.956,25.956,0,0,0-3.518,1.108,9.347,9.347,0,0,1-1.14.423,2,2,0,0,1-.521.1c-.456,0-.684-.326-.684-1.01v-1.6a2.061,2.061,0,0,1,.228-1.14,2.439,2.439,0,0,1,.912-.684,18.754,18.754,0,0,1,4.1-1.466,19.749,19.749,0,0,1,5.082-.619c3.876,0,6.71.88,8.535,2.639,1.792,1.759,2.7,4.43,2.7,8.013V22.371ZM24.426,27.322a10.557,10.557,0,0,0,3.355-.586,7.259,7.259,0,0,0,3.095-2.085,5.17,5.17,0,0,0,1.108-2.085,11.694,11.694,0,0,0,.326-2.834V18.364a27.2,27.2,0,0,0-3-.554,24.545,24.545,0,0,0-3.062-.2,7.51,7.51,0,0,0-4.854,1.3,4.54,4.54,0,0,0-1.6,3.746,4.547,4.547,0,0,0,1.205,3.453A4.517,4.517,0,0,0,24.426,27.322ZM50.583,30.84a1.819,1.819,0,0,1-1.238-.326,2.655,2.655,0,0,1-.684-1.27L41.006,4.064a5.706,5.706,0,0,1-.293-1.3.715.715,0,0,1,.782-.814h3.192a1.806,1.806,0,0,1,1.27.326,2.665,2.665,0,0,1,.651,1.27l5.472,21.564L57.163,3.543a2.285,2.285,0,0,1,.619-1.27,2.241,2.241,0,0,1,1.3-.326h2.606a1.96,1.96,0,0,1,1.3.326,2.195,2.195,0,0,1,.619,1.27L68.76,25.368,74.4,3.543a2.793,2.793,0,0,1,.651-1.27,2.125,2.125,0,0,1,1.27-.326h3.029a.724.724,0,0,1,.814.814,3.249,3.249,0,0,1-.065.521,4.636,4.636,0,0,1-.228.814l-7.85,25.18a2.5,2.5,0,0,1-.684,1.27,2.084,2.084,0,0,1-1.238.326h-2.8a1.96,1.96,0,0,1-1.3-.326,2.309,2.309,0,0,1-.619-1.3L60.323,8.234,55.307,29.212a2.543,2.543,0,0,1-.619,1.3,2.019,2.019,0,0,1-1.3.326Zm41.858.88a21.556,21.556,0,0,1-5.016-.586,14.819,14.819,0,0,1-3.746-1.3,2.347,2.347,0,0,1-1.01-.912,2.3,2.3,0,0,1-.2-.912V26.345c0-.684.261-1.01.749-1.01a1.845,1.845,0,0,1,.586.1c.2.065.489.2.814.326a17.718,17.718,0,0,0,3.583,1.14,19.562,19.562,0,0,0,3.876.391,8.789,8.789,0,0,0,4.756-1.075,3.508,3.508,0,0,0,1.694-3.095,3.172,3.172,0,0,0-.88-2.28,8.173,8.173,0,0,0-3.29-1.694L89.64,17.68a9.936,9.936,0,0,1-5.212-3.323A7.761,7.761,0,0,1,82.8,9.634a7.25,7.25,0,0,1,.88-3.616,8.376,8.376,0,0,1,2.345-2.671,10.339,10.339,0,0,1,3.388-1.694,14.2,14.2,0,0,1,4.1-.554,16.353,16.353,0,0,1,2.182.13c.749.1,1.433.228,2.117.358.651.163,1.27.326,1.857.521a7.11,7.11,0,0,1,1.368.586,2.817,2.817,0,0,1,.977.814,1.755,1.755,0,0,1,.293,1.075V6.116c0,.684-.261,1.042-.749,1.042a3.388,3.388,0,0,1-1.238-.391A14.9,14.9,0,0,0,94.07,5.5a8.408,8.408,0,0,0-4.332.912,3.145,3.145,0,0,0-1.531,2.9,3.076,3.076,0,0,0,.977,2.313,9.73,9.73,0,0,0,3.583,1.792l4.626,1.466a9.907,9.907,0,0,1,5.049,3.127,7.371,7.371,0,0,1,1.5,4.56,8.374,8.374,0,0,1-.847,3.779,8.761,8.761,0,0,1-2.378,2.867A10.5,10.5,0,0,1,97.1,31.036,15.49,15.49,0,0,1,92.442,31.72Z" transform="translate(-10.05 -1.1)" fill="#252f3e"/>
  <g id="Group_1174" data-name="Group 1174" transform="translate(0 36.513)">
    <path id="Path_3044" data-name="Path 3044" d="M90.216,127.142C79.5,135.058,63.928,139.26,50.54,139.26A71.778,71.778,0,0,1,2.1,120.79c-1.01-.912-.1-2.15,1.108-1.433A97.686,97.686,0,0,0,51.68,132.224a96.725,96.725,0,0,0,36.972-7.557C90.444,123.852,91.975,125.839,90.216,127.142Z" transform="translate(-1.668 -117.205)" fill="#f90" fill-rule="evenodd"/>
    <path id="Path_3045" data-name="Path 3045" d="M259.412,118.048c-1.368-1.759-9.056-.847-12.541-.423-1.042.13-1.205-.782-.261-1.466,6.124-4.3,16.189-3.062,17.362-1.629,1.173,1.466-.326,11.531-6.059,16.352-.879.749-1.726.358-1.336-.619C257.881,127.039,260.78,119.775,259.412,118.048Z" transform="translate(-166.401 -113.192)" fill="#f90" fill-rule="evenodd"/>
  </g>
</svg>
