<svg xmlns="http://www.w3.org/2000/svg" width="163.446" height="40.197" viewBox="0 0 163.446 40.197">
  <g id="bootstrap-logo" transform="translate(0 0)">
    <path id="Path_3038" data-name="Path 3038" d="M27.491,246.827a7.073,7.073,0,0,0-2.342.708,6.557,6.557,0,0,0-2.914,2.914,6.1,6.1,0,0,0-.626,1.743c-.109.463-.109,1.171-.109,14.706s0,14.243.109,14.706a6.1,6.1,0,0,0,.626,1.743,6.557,6.557,0,0,0,2.914,2.914,6.1,6.1,0,0,0,1.743.626c.463.109,1.171.109,14.706.109s14.243,0,14.706-.109a6.1,6.1,0,0,0,1.743-.626,6.557,6.557,0,0,0,2.914-2.914,6.1,6.1,0,0,0,.626-1.743c.109-.463.109-1.171.109-14.706s0-14.243-.109-14.706a6.1,6.1,0,0,0-.626-1.743,6.9,6.9,0,0,0-4.575-3.54c-.409-.109-1.144-.109-14.57-.109C34.027,246.8,27.6,246.827,27.491,246.827Zm18.11,8.824c2.723.517,4.33,1.743,4.929,3.785a7.091,7.091,0,0,1,.054,3.459,6,6,0,0,1-.708,1.525,5.882,5.882,0,0,1-2.07,1.716,1.648,1.648,0,0,0-.354.218c0,.027.136.082.3.109a3.847,3.847,0,0,1,.735.245c2.124.844,3.35,2.887,3.35,5.692a5.932,5.932,0,0,1-1.471,4.112,8.191,8.191,0,0,1-4.793,2.288,64.891,64.891,0,0,1-6.836.109l-6.318.027V255.487l6.373.027c5.474.054,6.4.054,6.808.136Zm-9.069,6.454v3.241l3.758-.027a27.947,27.947,0,0,0,4.058-.109,3.172,3.172,0,0,0,1.988-1.552,3.24,3.24,0,0,0,.327-1.634c0-1.443-.436-2.288-1.389-2.751-.817-.381-.817-.381-4.957-.408l-3.785-.027v3.268Zm0,9.859v3.677l4.085-.027c4-.027,4.112-.027,4.548-.136a3.173,3.173,0,0,0,1.552-.9,3.269,3.269,0,0,0,.953-2.642,3.249,3.249,0,0,0-2.587-3.486c-.463-.109-.6-.136-4.521-.136l-4.031-.027Z" transform="translate(-21.5 -246.8)" fill="#563d7c"/>
    <path id="Shape" d="M218.8,278.954a.8.8,0,0,1,.245-.054c3.05,0,6.073,0,9.123.054A4.912,4.912,0,0,1,231,279.962c1.934,1.416,2.124,5.419-.545,6.863-.136.082-.272.136-.463.245a11.466,11.466,0,0,1,1.416.681,4.957,4.957,0,0,1,1.525,5.637,4.773,4.773,0,0,1-3.84,3.05,9.534,9.534,0,0,1-1.743.218c-2.832.027-5.692,0-8.551,0Q218.8,287.833,218.8,278.954Zm3.023,15.115c2.124,0,4.167.054,6.209-.027a2.59,2.59,0,0,0,2.151-2.805,2.466,2.466,0,0,0-2.151-2.56c-2.043-.109-4.058-.082-6.1-.082-.027,0-.054.054-.109.082Zm.027-7.789c1.879,0,3.7.082,5.528-.027,1.334-.082,2.1-1.144,2.043-2.642a2.066,2.066,0,0,0-2.179-2.151c-1.716-.055-3.431-.027-5.174-.027a.641.641,0,0,0-.218.054v4.793Zm94.119-2.424H318.5v1.389c.272-.218.626-.463.953-.735,1.934-1.689,6.536-1.5,8.116,1.934a8.348,8.348,0,0,1-.545,8.633,4.559,4.559,0,0,1-4.357,1.961A4.833,4.833,0,0,1,318.693,295v6.454h-2.723Zm2.56,6.482a15.121,15.121,0,0,0,.354,1.934,3.418,3.418,0,0,0,2.832,2.533,3.137,3.137,0,0,0,3.459-2.015,5.947,5.947,0,0,0-.381-5.61,3.225,3.225,0,0,0-5.583.272,6.175,6.175,0,0,0-.681,2.887Zm-4.357,4.494c0,.517.027,1.062,0,1.607,0,.136-.163.354-.272.354a13.811,13.811,0,0,1-2.369.109c-.681-.082-1.062-.681-1.28-1.362a6.833,6.833,0,0,1-5.5,1.389,3.64,3.64,0,0,1-3.159-3.159c-.163-2.124.626-3.513,2.505-4.031,1.307-.354,2.7-.49,4.031-.735.327-.055.654-.109.98-.191a1.259,1.259,0,0,0,1.089-1.225,1.462,1.462,0,0,0-.9-1.58,4.212,4.212,0,0,0-3.486.082c-.517.245-.817.735-1.089,1.607h-2.669a3.749,3.749,0,0,1,1.035-2.642,4.857,4.857,0,0,1,3.323-1.471,8.992,8.992,0,0,1,3.894.3,3.433,3.433,0,0,1,2.533,3.595v5.882c-.027,1.362-.027,1.362,1.334,1.471Zm-4.139-4.412c-.844.136-1.607.272-2.369.436a17.748,17.748,0,0,0-2.369.6,1.642,1.642,0,0,0-.98,1.743,1.48,1.48,0,0,0,1.144,1.362,4.044,4.044,0,0,0,3.186-.163,2.142,2.142,0,0,0,1.362-1.8,19.473,19.473,0,0,0,.027-2.179Zm-68.656-6.945c4.194-.054,6.645,3.077,6.373,7.326a6.8,6.8,0,0,1-1.443,4.031,5.647,5.647,0,0,1-3.949,2.1,6.872,6.872,0,0,1-3.84-.517,5.815,5.815,0,0,1-3.322-4.3,8.4,8.4,0,0,1,.054-4.031A5.945,5.945,0,0,1,241.377,283.475Zm-3.649,6.808c.109.626.163,1.253.327,1.879a3.415,3.415,0,0,0,3,2.642,3.318,3.318,0,0,0,3.513-2.233,5.905,5.905,0,0,0-.054-4.711,3.305,3.305,0,0,0-5.447-1.171A4.953,4.953,0,0,0,237.727,290.284Zm18.165-6.808c3.785,0,6.345,2.587,6.4,6.454a7.6,7.6,0,0,1-1.171,4.548,5.842,5.842,0,0,1-5.5,2.533,6.963,6.963,0,0,1-2.451-.545,5.491,5.491,0,0,1-3.35-4.031,8.776,8.776,0,0,1,.163-4.956A5.852,5.852,0,0,1,255.892,283.475Zm3.622,6.454a10.679,10.679,0,0,0-.3-1.634A3.433,3.433,0,0,0,256,285.681a3.325,3.325,0,0,0-3.3,2.315,5.9,5.9,0,0,0,.381,5.229,3.27,3.27,0,0,0,4.929.817c1.171-.98,1.443-2.342,1.5-4.112Zm23.339-2.505h-2.533a.393.393,0,0,1-.3-.191c-.463-1.334-1.58-1.5-2.723-1.5a3.67,3.67,0,0,0-1.416.3,1.088,1.088,0,0,0-.163,2.015,9.932,9.932,0,0,0,2.015.763c.98.272,1.988.463,2.968.735a3.486,3.486,0,0,1,2.07,5.392,4.389,4.389,0,0,1-2.805,1.825,8.494,8.494,0,0,1-5.011-.163,4.123,4.123,0,0,1-2.832-3.922h2.7a3.413,3.413,0,0,0,4.957,1.8,1.311,1.311,0,0,0,.817-1.144,1.257,1.257,0,0,0-.735-1.334c-.953-.354-1.934-.6-2.914-.9a22.279,22.279,0,0,1-2.4-.735,3.133,3.133,0,0,1-2.151-3.241,3.191,3.191,0,0,1,2.206-3.077,7.911,7.911,0,0,1,5.855-.027,3.939,3.939,0,0,1,2.424,2.941C282.881,287.07,282.853,287.206,282.853,287.424ZM268.229,283.8h2.505v2.07h-2.451a5.049,5.049,0,0,0-.027.6v6.291c0,.272.027.572.055.844a.931.931,0,0,0,.9.926c.49.027,1.008,0,1.552,0v2.07a7.2,7.2,0,0,1-3.4.027c-1.307-.3-1.825-1.226-1.852-2.941-.027-2.369,0-4.711,0-7.081v-.681h-2.07v-2.1h2.043v-3.84h2.805C268.229,281.242,268.229,282.495,268.229,283.8Zm23.312,12.909c-1.062,0-2.1.027-3.1,0a2.086,2.086,0,0,1-1.961-1.688,9.2,9.2,0,0,1-.191-1.716c-.027-2.206,0-4.439,0-6.645v-.708h-2.07v-2.07h2.043v-3.867h2.805v3.813h2.478v2.1h-2.369a3.726,3.726,0,0,0-.054.436v6.781c0,1.2.327,1.471,1.471,1.471h.98l-.027,2.1Zm4.657-12.854v2.179a4.388,4.388,0,0,1,4.766-2.505v2.7a3.723,3.723,0,0,0-2.941.463,4.147,4.147,0,0,0-1.607,3.486c-.054,2.124,0,4.276,0,6.454h-2.751v-12.8C294.482,283.857,295.3,283.857,296.2,283.857Z" transform="translate(-165.068 -267.465)" fill="#563d7c"/>
  </g>
</svg>
