<svg id="css_logo" data-name="css logo" xmlns="http://www.w3.org/2000/svg" width="71.713" height="100.552" viewBox="0 0 71.713 100.552">
  <g id="_000000ff" data-name="#000000ff" transform="translate(14.347 0)">
    <path id="Path_2988" data-name="Path 2988" d="M68.37.848C72.777.794,77.183.831,81.59.829c.01,1.379.031,2.757-.019,4.136-3.053-.021-6.1,0-9.155.019-.021,2-.061,4-.042,6.006,3.064.019,6.129.048,9.193.036.036,1.133.023,2.27-.01,3.406-4.394-.029-8.788-.017-13.182-.013C68.385,9.894,68.393,5.372,68.37.848Z" transform="translate(-68.37 -0.819)"/>
    <path id="Path_2989" data-name="Path 2989" d="M138.779.834C143.24.825,147.7.8,152.165.848c-.017,1.3,0,2.6,0,3.907q-4.869-.016-9.741.042.006.768,0,1.536c3.242.052,6.482.059,9.722.078.013,2.671.006,5.34.023,8.01q-6.695-.013-13.39.017c-.023-1.079-.025-2.155.006-3.234,3.093.008,6.188.013,9.281-.013.019-.695.027-1.391.025-2.086-3.108,0-6.218.01-9.325-.01C138.762,6.342,138.762,3.587,138.779.834Z" transform="translate(-123.987 -0.819)"/>
    <path id="Path_2990" data-name="Path 2990" d="M209.568,1h13.361c.019,1.309.038,2.619,0,3.926-3.261,0-6.522.017-9.783.023.008.535.021,1.07.048,1.605,3.242-.015,6.484.025,9.724.059.029,2.659.05,5.317.013,7.976q-6.695-.019-13.39.008c-.027-1.074-.036-2.153.01-3.227q4.63.035,9.264-.01c.008-.7.023-1.393.017-2.088-3.1.029-6.2.013-9.3,0C209.526,6.517,209.547,3.757,209.568,1Z" transform="translate(-179.896 -0.962)"/>
  </g>
  <g id="_0170baff" data-name="#0170baff" transform="translate(0 19.228)">
    <path id="Path_2991" data-name="Path 2991" d="M0,92.451q35.858,0,71.713,0c-1.316,14.867-2.61,29.734-3.981,44.6q-1.221,14.249-2.539,28.492c-5.1,1.351-10.152,2.892-15.251,4.249-4.684,1.374-9.405,2.619-14.091,3.983h-.138c-4.459-1.326-8.962-2.493-13.421-3.819-5.263-1.419-10.479-3-15.744-4.413-.686-7.116-1.305-14.236-1.916-21.355-1.152-13.155-2.4-26.3-3.513-39.458C.734,100.767.46,96.795,0,92.843v-.392m35.969,5.865c-.05,2.856.038,5.714-.05,8.568-8.2-.029-16.4-.006-24.6,0,.141,2.772.512,5.525.894,8.274,7.63.283,15.27-.01,22.9.218-6.675,2.994-13.432,5.815-20.136,8.746a9.046,9.046,0,0,0-1.7.823c.057,3.045.548,6.073.764,9.111,4.067-.015,8.131-.08,12.2-.086,3.259-.017,6.52.048,9.779-.023-.155,5.007.048,10.02-.1,15.027-2.193-.325-4.358-.814-6.543-1.2-1.723-.376-3.488-.571-5.185-1.064-.241-2.4-.409-4.814-.623-7.219a5.432,5.432,0,0,0-1.519-.145c-2.464.015-4.929-.008-7.395.029A137.431,137.431,0,0,0,16,153.193c2.43.634,4.864,1.255,7.29,1.916,3.716,1.011,7.479,1.853,11.2,2.848a4.7,4.7,0,0,0,1.349.22c.248,3.041.057,6.1.1,9.149a18.66,18.66,0,0,0,2.531-.606c7.046-1.914,14.084-3.863,21.127-5.8.35-2.77.514-5.559.791-8.335q1.1-12.66,2.239-25.317c.9-9.653,1.679-19.316,2.585-28.969C55.467,98.312,45.718,98.284,35.969,98.316Z" transform="translate(0 -92.448)" fill="#1070ba"/>
  </g>
  <g id="_29a9dfff" data-name="#29a9dfff" transform="translate(35.843 25.08)">
    <path id="Path_2992" data-name="Path 2992" d="M170.936,120.351c9.749-.031,19.5,0,29.25-.013-.906,9.653-1.685,19.316-2.585,28.969q-1.152,12.657-2.239,25.317c-.277,2.776-.441,5.565-.791,8.335-7.042,1.933-14.08,3.882-21.127,5.8a18.657,18.657,0,0,1-2.531.606c-.046-3.049.145-6.108-.1-9.149l.254-.05c6.553-1.645,13.063-3.456,19.6-5.16.827-9.275,1.744-18.546,2.325-27.84-5.561.029-11.124.013-16.684.036-.81,0-1.62,0-2.426-.059,2.992-1.54,6.14-2.762,9.212-4.136,2.948-1.337,5.932-2.589,8.891-3.9a8.235,8.235,0,0,0,1.681-.871,13.848,13.848,0,0,0,.264-2.222c.17-2.35.472-4.688.585-7.04-7.875-.063-15.751-.008-23.628-.05C170.974,126.065,170.886,123.207,170.936,120.351Z" transform="translate(-170.81 -120.336)" fill="#29a9df"/>
    <path id="Path_2993" data-name="Path 2993" d="M171.2,290.137c3.8-.065,7.607.038,11.411.013-.212,3.888-.535,7.77-.737,11.659-2.331.762-4.7,1.406-7.049,2.111a27.389,27.389,0,0,0-3.731,1.244C171.253,300.157,171.05,295.144,171.2,290.137Z" transform="translate(-171.039 -254.489)" fill="#29a9df"/>
  </g>
  <g id="_cfcfcfff" data-name="#cfcfcfff" transform="translate(11.315 33.649)">
    <path id="Path_2994" data-name="Path 2994" d="M53.92,161.188c8.2-.008,16.4-.031,24.6,0,.107,9.023-.027,18.046.09,27.065-3.259.071-6.52.006-9.779.023-4.067.006-8.131.071-12.2.086-.216-3.038-.707-6.066-.764-9.111a9.047,9.047,0,0,1,1.7-.823c6.7-2.931,13.461-5.752,20.136-8.746-7.63-.229-15.27.065-22.9-.218C54.432,166.713,54.061,163.96,53.92,161.188Z" transform="translate(-53.92 -161.171)" fill="#cfcfcf"/>
    <path id="Path_2995" data-name="Path 2995" d="M69.76,315.969c2.466-.038,4.931-.015,7.395-.029a5.433,5.433,0,0,1,1.519.145c.214,2.4.382,4.816.623,7.218,1.7.493,3.462.688,5.185,1.064,2.184.388,4.35.877,6.543,1.2.21,3.047-.157,6.115.193,9.151l-.254.05a4.7,4.7,0,0,1-1.349-.22c-3.723-.995-7.485-1.836-11.2-2.848-2.426-.661-4.86-1.282-7.29-1.916A137.429,137.429,0,0,1,69.76,315.969Z" transform="translate(-66.436 -283.463)" fill="#cfcfcf"/>
  </g>
  <g id="_ffffffff" data-name="#ffffffff" transform="translate(35.904 33.663)">
    <path id="Path_2996" data-name="Path 2996" d="M171.115,161.24c7.877.042,15.753-.013,23.628.05-.113,2.352-.415,4.69-.585,7.04a13.85,13.85,0,0,1-.264,2.222,8.237,8.237,0,0,1-1.681.871c-2.959,1.311-5.943,2.564-8.891,3.9-3.072,1.374-6.22,2.6-9.212,4.136.806.059,1.616.063,2.426.059,5.561-.023,11.124-.006,16.684-.036-.581,9.294-1.5,18.565-2.325,27.84-6.539,1.7-13.048,3.515-19.6,5.16-.35-3.036.017-6.1-.193-9.151a27.4,27.4,0,0,1,3.731-1.244c2.35-.705,4.717-1.349,7.049-2.111.2-3.888.525-7.77.737-11.659-3.8.025-7.609-.078-11.411-.013C171.087,179.286,171.222,170.263,171.115,161.24Z" transform="translate(-171.1 -161.24)" fill="#fff"/>
  </g>
</svg>
