<svg id="docker-logo" xmlns="http://www.w3.org/2000/svg" width="162.268" height="37.386" viewBox="0 0 162.268 37.386">
  <path id="SVGID_1_" d="M11.376,31.724a2.816,2.816,0,0,1-2.824-2.69,2.729,2.729,0,0,1,2.824-2.69,2.729,2.729,0,0,1,2.824,2.69,2.816,2.816,0,0,1-2.824,2.69Zm34.7-14.659a8.011,8.011,0,0,0-3.362-5.245l-.672-.538-.538.672a7.283,7.283,0,0,0-.134,8.338c-.538.269-1.21.538-1.748.807a11.327,11.327,0,0,1-3.631.538H1.155l-.134.807a15.13,15.13,0,0,0,1.21,7.666l.538.941v.134c3.228,5.379,9.01,7.8,15.331,7.8,12.1,0,22.055-5.245,26.762-16.541,3.093.134,6.186-.672,7.666-3.631l.4-.672-.672-.4A8.207,8.207,0,0,0,46.073,17.066ZM28.724,14.914H23.479v5.245h5.245Zm0-6.59H23.479v5.245h5.245Zm0-6.724H23.479V6.845h5.245V1.6Zm6.455,13.314H29.935v5.245h5.245Zm-19.5,0H10.435v5.245h5.245V14.914Zm6.59,0H17.024v5.245h5.245Zm-13.045,0H3.979v5.245H9.224Zm13.045-6.59H17.024v5.245h5.245Zm-6.59,0H10.435v5.245h5.245V8.324Z" transform="translate(-0.94 -1.6)" fill="#1791e2"/>
  <path id="docker_2_" d="M121.245,26.462c2.286-2.017,4.572-3.9,6.859-5.917.807-.672,1.614-1.345,2.421-2.152a6.681,6.681,0,0,0-2.555-1.748,6.07,6.07,0,0,0-5.245.538,5.724,5.724,0,0,0-2.959,5.648,4.849,4.849,0,0,0,.807,2.69,3.1,3.1,0,0,1,.672.941m2.69,1.883a6.625,6.625,0,0,0,3.631.134,6.868,6.868,0,0,1,2.69-.807h.269a1.212,1.212,0,0,1,.807.807,1.379,1.379,0,0,1-.538,2.017l-.269.134c-2.959,1.748-6.052,1.479-9.01-.134a9.272,9.272,0,0,1-3.228-3.228L118.152,27a8.741,8.741,0,0,1,.538-9.817,8.591,8.591,0,0,1,2.824-2.555l.4-.269a8.9,8.9,0,0,1,8.607-.134,8.768,8.768,0,0,1,3.631,3.362l.134.269c.672,1.076-.134,2.017-1.076,2.69l-2.824,2.421C127.969,24.848,125.952,26.6,123.935,28.345Zm21.921-14.793h.269a1.554,1.554,0,0,1,1.614,1.614c0,1.345-1.21,1.614-2.286,1.614a5.482,5.482,0,0,0-3.631,1.748,5.887,5.887,0,0,0-1.748,4.3v7.531a1.521,1.521,0,0,1-1.479,1.614h-.269a1.45,1.45,0,0,1-1.479-1.614V22.428a8.7,8.7,0,0,1,3.9-7.262,9.505,9.505,0,0,1,5.11-1.614ZM107.393,18.8l3.631-3.631c.4-.269,1.614-1.748,2.152-1.748h.538a1.327,1.327,0,0,1,1.21,1.345v.269c0,.538-.672,1.076-.941,1.479-.672.807-1.479,1.479-2.152,2.286l-3.766,3.766,4.841,4.841,1.345,1.345.538.538c.134.269.269.4.269.672v.4a1.43,1.43,0,0,1-1.345,1.21h-.269c-.538,0-1.076-.538-1.479-.941-.672-.672-1.479-1.345-2.152-2.152l-2.421-2.286v3.766a1.521,1.521,0,0,1-1.479,1.614h-.269a1.45,1.45,0,0,1-1.479-1.614V9.248a1.411,1.411,0,0,1,1.479-1.479h.269a1.411,1.411,0,0,1,1.479,1.479Zm-9.952-2.017a4.274,4.274,0,0,0-1.883-.269,5.655,5.655,0,0,0-5.514,3.631,5.458,5.458,0,0,0-.538,2.555,5.825,5.825,0,0,0,3.766,5.648,7.237,7.237,0,0,0,2.959.538,8.926,8.926,0,0,0,2.69-.807h.672a1.327,1.327,0,0,1,1.21,1.345v.269c0,1.883-3.5,2.286-4.707,2.421a8.914,8.914,0,0,1-9.414-6.59,6.662,6.662,0,0,1-.269-2.286v-.672A8.372,8.372,0,0,1,90.986,14.9a8.464,8.464,0,0,1,4.438-1.21H96.1a7.918,7.918,0,0,1,4.572,1.345l.134.134.134.134a1.912,1.912,0,0,1,.269.807v.269c0,.807-.538,1.21-1.345,1.345h-.134a14.858,14.858,0,0,1-2.286-.941ZM69.2,22.562a6.106,6.106,0,0,0,3.093,5.245,6.247,6.247,0,0,0,3.093.807,6.106,6.106,0,0,0,5.245-3.093,6.247,6.247,0,0,0,.807-3.093,6.1,6.1,0,0,0-2.824-5.11,5.642,5.642,0,0,0-3.228-.941,5.846,5.846,0,0,0-5.514,3.631,3.867,3.867,0,0,0-.672,2.555Zm5.648-9.145h.4a8.83,8.83,0,0,1,8.069,4.841A8.216,8.216,0,0,1,84.4,22.293v.672a8.372,8.372,0,0,1-4.572,7.666,8.464,8.464,0,0,1-4.438,1.21h-.672a8.372,8.372,0,0,1-7.666-4.572,8.464,8.464,0,0,1-1.21-4.438v-.672a8.372,8.372,0,0,1,4.572-7.666,10.273,10.273,0,0,1,4.438-1.076Zm-26.09,9.145a5.762,5.762,0,0,0,3.362,5.379,6.251,6.251,0,0,0,2.824.672,5.9,5.9,0,0,0,5.379-3.093,6.247,6.247,0,0,0,.807-3.093,5.743,5.743,0,0,0-2.69-4.976,6.315,6.315,0,0,0-3.5-1.076,5.846,5.846,0,0,0-5.514,3.631,6.576,6.576,0,0,0-.672,2.555ZM61.131,15.7V9.114A1.521,1.521,0,0,1,62.61,7.5h.269a1.45,1.45,0,0,1,1.479,1.614V22.966a8.372,8.372,0,0,1-4.572,7.666,8.464,8.464,0,0,1-4.438,1.21h-.672a8.372,8.372,0,0,1-7.666-4.572,8.464,8.464,0,0,1-1.21-4.438v-.672a8.372,8.372,0,0,1,4.572-7.666,8.464,8.464,0,0,1,4.438-1.21h.672A9.282,9.282,0,0,1,61.131,15.7Z" transform="translate(14.529 0.434)" fill="#1791e2"/>
</svg>
