<svg id="gatsby-logo" xmlns="http://www.w3.org/2000/svg" width="145.274" height="39.372" viewBox="0 0 145.274 39.372">
  <path id="Path_3011" data-name="Path 3011" d="M73.013,14.762h3.937V28.823H73.013V27a4.786,4.786,0,0,1-4.359,2.25c-4.359,0-7.171-3.375-7.171-7.453,0-4.218,2.812-7.453,6.89-7.453a4.867,4.867,0,0,1,4.5,2.25V14.762ZM65.7,21.793a3.764,3.764,0,0,0,3.937,3.937,3.845,3.845,0,0,0,3.937-3.937,3.764,3.764,0,0,0-3.937-3.937A3.845,3.845,0,0,0,65.7,21.793Zm18.983-3.656V28.823H80.747V18.137H79.2V14.762h1.547V9.981h3.937v4.781h2.672v3.375Zm11.952,0a3.539,3.539,0,0,0-2.25-.984c-.984,0-1.547.422-1.547,1.125,0,.422.141.844,1.266,1.266l.984.281c1.125.422,2.812.844,3.515,1.969a4.022,4.022,0,0,1,.7,2.39A4.511,4.511,0,0,1,97.762,27.7a6.224,6.224,0,0,1-4.218,1.547,7.178,7.178,0,0,1-5.484-2.39l2.109-2.39a4.888,4.888,0,0,0,3.094,1.687c1.125,0,1.969-.562,1.969-1.547A1.506,1.506,0,0,0,93.965,23.2l-.844-.281a8.921,8.921,0,0,1-2.953-1.687,3.6,3.6,0,0,1-1.125-2.672,4.63,4.63,0,0,1,1.406-3.234,6.008,6.008,0,0,1,3.656-.984,7.083,7.083,0,0,1,4.5,1.547l-1.969,2.25Zm8.578-1.547a5.336,5.336,0,0,1,4.5-2.25c4.078,0,6.89,3.234,6.89,7.453s-2.812,7.453-7.031,7.453a5.4,5.4,0,0,1-4.5-2.25v1.828h-3.8V5.2h3.937V16.59Zm-.422,5.2a3.764,3.764,0,0,0,3.937,3.937,3.845,3.845,0,0,0,3.937-3.937,3.937,3.937,0,0,0-7.874,0Zm18.28,4.922-6.75-11.952h4.64l4.359,8.015,3.937-8.015h4.5L122.51,36.276h-4.5ZM60.5,17.152H50.655V21.09h5.2c-.844,2.672-2.812,4.5-6.468,4.5a7.15,7.15,0,0,1-7.031-7.453c0-4.078,2.812-7.593,6.89-7.593A7.6,7.6,0,0,1,55.155,13.5l3.234-2.109a11.132,11.132,0,0,0-9.14-4.64A11.313,11.313,0,0,0,38,18.137a11.25,11.25,0,1,0,22.5,0A2.3,2.3,0,0,0,60.5,17.152Z" transform="translate(11.515 2.112)"/>
  <path id="Path_3013" data-name="Path 3013" d="M19.686,0A19.686,19.686,0,1,0,39.372,19.686,19.744,19.744,0,0,0,19.686,0ZM8.718,30.654a15.264,15.264,0,0,1-4.5-10.687L19.546,35.154A15.961,15.961,0,0,1,8.718,30.654Zm14.343,4.078L4.64,16.311A15.458,15.458,0,0,1,32.2,10.546l-2.109,1.828A12.982,12.982,0,0,0,19.686,7.031,12.789,12.789,0,0,0,7.734,15.468L23.9,31.638A12.748,12.748,0,0,0,32.06,22.5h-6.75V19.686h9.843A15.512,15.512,0,0,1,23.061,34.732Z" transform="translate(0 0)" fill="#5c2e8b"/>
</svg>
