<svg id="git-logo" xmlns="http://www.w3.org/2000/svg" width="91.281" height="38.126" viewBox="0 0 91.281 38.126">
  <path id="Path_3034" data-name="Path 3034" d="M145.2,31.642c-2,0-3.492.983-3.492,3.348,0,1.782.982,3.019,3.384,3.019,2.036,0,3.418-1.2,3.418-3.093a2.982,2.982,0,0,0-3.311-3.274Zm-4,16.7a3.225,3.225,0,0,0-.945,1.928c0,1.454,1.854,1.892,4.4,1.892,2.11,0,4.984-.148,4.984-2.11,0-1.166-1.383-1.238-3.13-1.348l-5.31-.362Zm10.768-16.59a5.77,5.77,0,0,1,1.346,3.675c0,4.038-3.165,6.4-7.748,6.4a11.574,11.574,0,0,1-2.875-.327l-1.2,1.928,3.565.218c6.294.4,10,.583,10,5.42,0,4.185-3.673,6.548-10,6.548-6.584,0-9.094-1.674-9.094-4.547,0-1.638.728-2.509,2-3.711a2.424,2.424,0,0,1-1.6-2.4,3.262,3.262,0,0,1,1.055-2.22c.655-.691,1.382-1.383,2.255-2.183a5.81,5.81,0,0,1-3.129-5.457c0-4.183,2.765-7.056,8.33-7.056a12.478,12.478,0,0,1,3.348.364h7.094V31.5l-3.347.255" transform="translate(-90.491 -18.665)" fill="#413004"/>
  <path id="Path_3035" data-name="Path 3035" d="M203.637,6.475A2.988,2.988,0,0,1,200.363,3.2,2.933,2.933,0,0,1,203.637,0c2.11,0,3.311,1.129,3.311,3.2A3,3,0,0,1,203.637,6.475Zm-4.694,21.862V25.465l1.856-.254c.51-.074.582-.182.582-.729v-10.7c0-.4-.109-.655-.474-.763l-1.964-.692.4-2.946h7.531v15.1c0,.583.035.655.582.729l1.856.254v2.872H198.943" transform="translate(-132.417 0.001)" fill="#413004"/>
  <path id="Path_3036" data-name="Path 3036" d="M243.642,33.82a14.554,14.554,0,0,1-5.931,1.454c-4.329,0-5.965-1.744-5.965-5.857v-9.53c0-.218,0-.364-.292-.364h-2.546V16.285c3.2-.365,4.475-1.966,4.875-5.931h3.456v5.167c0,.254,0,.364.291.364h5.129v3.637h-5.42v8.694c0,2.147.51,2.983,2.473,2.983a8.657,8.657,0,0,0,2.947-.582l.983,3.2" transform="translate(-152.361 -6.891)" fill="#413004"/>
  <path id="Path_3037" data-name="Path 3037" d="M37.379,17.441,20.745.808a2.453,2.453,0,0,0-3.469,0L13.821,4.262,18.2,8.644a2.914,2.914,0,0,1,3.69,3.714l4.223,4.223a2.915,2.915,0,1,1-1.749,1.646l-3.938-3.938V24.652a2.914,2.914,0,1,1-2.4-.085V14.107a2.881,2.881,0,0,1-.956-.637,2.919,2.919,0,0,1-.629-3.191l-4.319-4.32L.719,17.364a2.454,2.454,0,0,0,0,3.47L17.353,37.467a2.454,2.454,0,0,0,3.47,0L37.379,20.913a2.455,2.455,0,0,0,0-3.471" transform="translate(0 -0.059)" fill="#f05133"/>
</svg>
