<svg id="html-logo" xmlns="http://www.w3.org/2000/svg" width="71.014" height="100.218" viewBox="0 0 71.014 100.218">
  <path id="Path_2997" data-name="Path 2997" d="M108.4,0h4.5V4.463h4.15V0h4.5V13.506h-4.5V9h-4.111v4.5H108.4m19.1-9h-3.973V0H136V4.5h-3.993v9h-4.5M137.976,0h4.717l2.9,4.756L148.487,0H153.2V13.506h-4.5V6.812l-3.151,4.854L142.4,6.812v6.694h-4.424M155.436,0h4.5V9.043h6.381v4.463H155.436" transform="translate(-101.784)"/>
  <path id="Path_2998" data-name="Path 2998" d="M81.059,173.1,74.6,100.6h71.014l-6.459,72.463-29.106,8.064" transform="translate(-74.6 -80.909)" fill="#e44d26"/>
  <path id="Path_2999" data-name="Path 2999" d="M256,199.411V131h29.028l-5.539,61.853" transform="translate(-220.493 -105.358)" fill="#f16529"/>
  <path id="Path_3000" data-name="Path 3000" d="M142,176.3h22.314v8.887H151.748l.822,9.1h11.744v8.867H144.427m.391,4.463h8.926l.626,7.105,9.944,2.662v9.278l-18.243-5.089" transform="translate(-128.807 -141.791)" fill="#ebebeb"/>
  <path id="Path_3001" data-name="Path 3001" d="M278.075,176.3H255.8v8.887h21.453m-.8,9.1H255.8v8.887h10.961l-1.037,11.549-9.924,2.662v9.239l18.2-5.05" transform="translate(-220.332 -141.791)" fill="#fff"/>
</svg>
