<svg id="js-logo" xmlns="http://www.w3.org/2000/svg" width="71.405" height="100.552" viewBox="0 0 71.405 100.552">
  <path id="path118" d="M1.334,109.332l.011.9c.006.494,1.438,16.858,3.182,36.363L7.7,182.058l14.251,3.99c7.838,2.194,14.412,4,14.61,4.015s6.859-1.775,14.8-3.974c12.737-3.527,14.456-4.058,14.547-4.494.127-.608,6.364-70.97,6.358-71.723l0-.539H1.334Z" transform="translate(-1.094 -89.683)" fill="#fff"/>
  <path id="path88" d="M20.967,186.287,6.59,182.269,6.4,181.205C6.235,180.26,0,110.624,0,109.7c0-.333,3.64-.371,35.7-.371,33.845,0,35.7.022,35.7.419-.011,1.717-6.465,72.275-6.623,72.415-.2.177-28.028,7.93-28.958,8.068-.264.039-6.949-1.738-14.857-3.948Zm23.8-14.2c4.832-1.333,8.856-2.492,8.941-2.576s.651-5.814,1.257-12.733,1.163-13.038,1.238-13.6l.136-1.018H35.464v8.866H46.736l-.112.539c-.062.3-.3,2.845-.533,5.663a30.3,30.3,0,0,1-.7,5.4,41.124,41.124,0,0,1-5.1,1.563l-4.827,1.287v4.516c0,3.082.082,4.516.26,4.516C35.866,174.511,39.937,173.42,44.769,172.087ZM56.2,136.59c-.158-1.174-1.569-16.923-1.569-17.517,0-.361-.83-.4-9.465-.4H35.7v9.271l4.253.164c2.339.09,4.8.227,5.471.3l1.218.141.3,3.626c.163,1.994.356,4.03.43,4.525l.135.9h8.834Z" transform="translate(0 -89.684)" fill="#eaebec"/>
  <path id="path80" d="M21.948,186.049,7.7,182.059,4.527,146.595c-1.744-19.505-3.176-35.869-3.182-36.363l-.011-.9H72.262l0,.539c.006.753-6.231,71.115-6.358,71.723-.091.437-1.811.968-14.547,4.494-7.944,2.2-14.606,3.988-14.8,3.974s-6.772-1.821-14.61-4.015Zm23.926-13.792c4.926-1.37,9.027-2.6,9.112-2.742s.674-6.161,1.308-13.383,1.2-13.321,1.268-13.551c.109-.4-.729-.419-15.189-.419h-15.3l.652-6.889c.358-3.789.66-6.9.671-6.911s2.257-.084,4.991-.159c4.484-.124,13.731.234,14.041.543.116.116.876,7.575.876,8.593,0,.5.068.51,4.643.51h4.643l-.109-1.018c-.06-.56-.453-4.9-.874-9.645l-.765-8.626L37.931,118.5c-14.246-.049-17.907,0-17.909.24,0,.166-.105,1.218-.232,2.338-.306,2.711-2.641,28.9-2.641,29.626v.567H47.623l-.136.9c-.075.494-.312,3-.526,5.571a44.659,44.659,0,0,1-.544,4.82c-.223.214-9.187,2.609-9.746,2.6-.26,0-2.575-.58-5.144-1.284L26.853,162.6l-.171-2.011c-.094-1.106-.238-2.685-.319-3.509l-.147-1.5H17.148l.01.9c.019,1.68,1.108,13,1.267,13.158.183.183,17.6,5.078,18.133,5.1.2.007,4.39-1.108,9.316-2.477Z" transform="translate(-1.094 -89.684)" fill="#f0be2b"/>
  <path id="path78" d="M21.948,186.049,7.7,182.059,4.527,146.595c-1.744-19.505-3.176-35.869-3.182-36.363l-.011-.9H72.262l0,.539c.006.753-6.231,71.115-6.358,71.723-.091.437-1.811.968-14.547,4.494-7.944,2.2-14.606,3.988-14.8,3.974s-6.772-1.821-14.61-4.015Zm26.576-5.338c6.269-1.73,11.515-3.266,11.659-3.415.224-.231,5.638-59.568,5.616-61.553l-.007-.659H36.8v3.355H28.411c-6.549,0-8.387.066-8.389.3,0,.165-.105,1.216-.232,2.336-.306,2.711-2.641,28.9-2.641,29.626v.567H36.8v6.949c0,5.4-.067,6.948-.3,6.945-.165,0-2.4-.58-4.972-1.284L26.853,162.6l-.171-2.011c-.094-1.106-.238-2.685-.319-3.509l-.147-1.5H17.148l.01.9c.029,2.57,1.141,13.062,1.4,13.223.158.1,4.327,1.3,9.263,2.662l8.975,2.483v4.5a31.24,31.24,0,0,0,.164,4.5c.09,0,5.293-1.415,11.562-3.145ZM27.7,135.337c.344-3.754.673-6.867.731-6.919s1.964-.146,4.238-.209l4.133-.114v14.067H27.069Z" transform="translate(-1.094 -89.684)" fill="#e4a126"/>
  <path id="path76" d="M126.667,11.142V8.866h6.47V0h4.553V13.419H126.667Zm13.179.479v-1.8h3a16.789,16.789,0,0,0,3-.135c0-.074-1.348-1.6-3-3.382l-3-3.246V0h12.46V3.58l-2.925.067-2.925.067L149.5,6.993l3.045,3.279v3.147h-12.7Z" transform="translate(-103.903)" fill="#0e0e0f"/>
</svg>
