<svg id="mysql-logo" xmlns="http://www.w3.org/2000/svg" width="127.666" height="65.931" viewBox="0 0 127.666 65.931">
  <path id="Path_3046" data-name="Path 3046" d="M0,142.7H4.206V126.094l6.511,14.479c.768,1.752,1.82,2.373,3.882,2.373s3.074-.62,3.842-2.373l6.511-14.479V142.7h4.206V126.121a2.527,2.527,0,0,0-1.981-2.8c-3.195-1-5.339-.135-6.309,2.022l-6.39,14.29-6.187-14.29c-.93-2.157-3.114-3.02-6.309-2.022A2.527,2.527,0,0,0,0,126.121Zm32.656-13.519h4.2v9.15c-.039.5.159,1.664,2.464,1.7,1.175.019,9.072,0,9.146,0V129.14h4.214c.019,0,0,14.857,0,14.921.023,3.664-4.547,4.46-6.653,4.522H32.747v-2.83c.024,0,13.271,0,13.3,0,2.707-.286,2.387-1.631,2.387-2.084v-1.1H39.5c-4.159-.038-6.808-1.854-6.841-3.942,0-.194.09-9.347,0-9.439Z" transform="translate(0 -82.651)" fill="#00618a"/>
  <path id="Path_3047" data-name="Path 3047" d="M170.757,143.495h12.092a9.328,9.328,0,0,0,3.883-.809c1.82-.836,2.71-1.968,2.71-3.451v-3.073c0-1.213-1.011-2.346-2.993-3.1a10.338,10.338,0,0,0-3.6-.62h-5.1c-1.7,0-2.507-.512-2.709-1.644a1.2,1.2,0,0,1-.041-.378V128.5a1.117,1.117,0,0,1,.041-.351c.2-.863.647-1.106,2.143-1.24.121,0,.283-.027.4-.027H189.6v-2.8H177.794a11.347,11.347,0,0,0-3.4.35c-2.507.782-3.6,2.022-3.6,4.179v2.454c0,1.887,2.144,3.505,5.743,3.882.4.027.809.054,1.213.054h4.368a2.233,2.233,0,0,1,.445.027c1.335.108,1.9.35,2.305.836a1,1,0,0,1,.323.755v2.453a1.4,1.4,0,0,1-.606,1,2.983,2.983,0,0,1-1.78.593c-.162,0-.283.027-.445.027H170.757v2.8Zm44.922-4.88c0,2.885,2.143,4.5,6.471,4.826.4.027.809.054,1.213.054h10.96v-2.8H223.283c-2.467,0-3.4-.62-3.4-2.1V124.082H215.68Zm-23.554.147v-10c0-2.54,1.783-4.08,5.309-4.566a8.068,8.068,0,0,1,1.135-.081h7.984a8.646,8.646,0,0,1,1.175.081c3.526.486,5.309,2.027,5.309,4.566v10a3.65,3.65,0,0,1-2.5,3.882l4.143,3.74h-4.884l-3.352-3.026-3.374.214h-4.5a9.323,9.323,0,0,1-2.472-.351c-2.675-.729-3.972-2.134-3.972-4.458Zm4.539-.243a1.847,1.847,0,0,0,.081.432c.243,1.162,1.337,1.81,3,1.81h3.821l-3.51-3.169h4.883L208,140.356a1.992,1.992,0,0,0,1.065-1.351,1.386,1.386,0,0,0,.04-.405v-9.591a1.3,1.3,0,0,0-.04-.379c-.243-1.081-1.338-1.7-2.958-1.7h-6.363c-1.864,0-3.08.811-3.08,2.08v9.51Z" transform="translate(-114.831 -83.443)" fill="#e48e00"/>
  <path id="Path_3048" data-name="Path 3048" d="M286.52,35.988a14.8,14.8,0,0,0-6.248.882c-.48.2-1.245.208-1.323.809.264.276.3.689.514,1.029a8.109,8.109,0,0,0,1.691,1.985c.664.5,1.347,1.037,2.059,1.471,1.265.771,2.678,1.212,3.9,1.985.718.456,1.431,1.029,2.132,1.544.346.254.579.649,1.029.809v-.074c-.236-.3-.3-.715-.515-1.029l-.956-.956a15.683,15.683,0,0,0-3.382-3.235c-1.005-.722-3.256-1.7-3.676-2.867l-.074-.074a16.209,16.209,0,0,0,2.206-.514c1.105-.3,2.093-.22,3.235-.515l1.544-.441V36.5c-.577-.592-.988-1.376-1.618-1.911a47.132,47.132,0,0,0-5.293-3.97c-1.026-.648-2.294-1.069-3.382-1.618-.366-.184-1.009-.28-1.25-.588a15.583,15.583,0,0,1-1.323-2.5c-.923-1.777-1.829-3.718-2.646-5.587a30.14,30.14,0,0,0-1.617-3.676A32.467,32.467,0,0,0,259.026,4.6a14.973,14.973,0,0,0-4.117-1.323l-2.426-.147a12.919,12.919,0,0,1-1.471-1.1c-1.844-1.165-6.573-3.7-7.939-.367-.862,2.1,1.289,4.155,2.058,5.22A15.763,15.763,0,0,1,246.749,9.3c.254.553.3,1.106.515,1.691a38.829,38.829,0,0,0,1.691,4.337,15.339,15.339,0,0,0,1.176,1.985c.271.37.735.533.808,1.1a8.983,8.983,0,0,0-.735,2.426c-1.149,3.623-.716,8.126.956,10.807.513.823,1.721,2.588,3.382,1.911,1.453-.592,1.128-2.426,1.544-4.043.094-.367.036-.637.22-.882v.074l1.323,2.646a18.014,18.014,0,0,0,4.191,4.338c.764.577,1.365,1.574,2.353,1.911v-.074H264.1c-.191-.3-.491-.422-.735-.662a16.849,16.849,0,0,1-1.691-1.911,44.722,44.722,0,0,1-3.6-5.881c-.515-.989-.963-2.081-1.4-3.088-.167-.388-.165-.975-.514-1.176a14.7,14.7,0,0,0-1.544,2.206,18.878,18.878,0,0,0-.882,4.852c-.129.046-.072.014-.147.073-1.024-.247-1.384-1.3-1.764-2.205a13.9,13.9,0,0,1-.295-8.6c.219-.681,1.21-2.826.809-3.455-.191-.628-.823-.991-1.176-1.471a11.574,11.574,0,0,1-1.176-2.059c-.788-1.783-1.155-3.784-1.985-5.587a16.315,16.315,0,0,0-1.617-2.5,14.573,14.573,0,0,1-1.764-2.5c-.168-.365-.4-.948-.147-1.323a.584.584,0,0,1,.441-.441c.426-.329,1.614.109,2.058.294a17.929,17.929,0,0,1,3.162,1.617c.479.318.964.933,1.544,1.1h.662c1.035.238,2.194.074,3.161.367a19.106,19.106,0,0,1,4.631,2.206A28.67,28.67,0,0,1,270.2,18.417c.381.731.546,1.43.882,2.206.678,1.565,1.531,3.175,2.205,4.705a21.984,21.984,0,0,0,2.279,4.338c.5.668,2.431,1.026,3.308,1.4a19.473,19.473,0,0,1,2.206.882c1.113.671,2.191,1.471,3.235,2.206.522.367,2.125,1.173,2.205,1.838Z" transform="translate(-163.328 0)" fill="#00618a"/>
  <path id="Path_3049" data-name="Path 3049" d="M273.09,24.357a5.273,5.273,0,0,0-1.324.147v.074h.074a10.046,10.046,0,0,0,1.029,1.323l.736,1.544.073-.073a1.8,1.8,0,0,0,.662-1.617c-.182-.192-.21-.433-.367-.662C273.761,24.787,273.354,24.614,273.09,24.357Z" transform="translate(-182.758 -16.379)" fill="#00618a" fill-rule="evenodd"/>
  <path id="Path_3050" data-name="Path 3050" d="M370.87,168.185a3.1,3.1,0,1,0,3.1-3.1,3.058,3.058,0,0,0-3.1,3.1Zm5.505,0a2.406,2.406,0,1,1-2.405-2.455A2.4,2.4,0,0,1,376.375,168.185Zm-1.57,1.769h.694l-1.016-1.553c.545-.058.958-.323.958-.967,0-.719-.454-1.017-1.33-1.017h-1.38v3.537h.6v-1.529h.554l.926,1.529Zm-1.48-2.025v-1.017h.686c.356,0,.785.066.785.479,0,.5-.388.537-.835.537Z" transform="translate(-249.404 -111.017)" fill="#e48e00" fill-rule="evenodd"/>
</svg>
