<svg id="netlify-logo" xmlns="http://www.w3.org/2000/svg" xmlns:xlink="http://www.w3.org/1999/xlink" width="162.292" height="43.013" viewBox="0 0 162.292 43.013">
  <defs>
    <radialGradient id="radial-gradient" cx="0.5" cy="0" r="1.001" gradientTransform="translate(0.5 -0.5) rotate(90) scale(0.999 1.152)" gradientUnits="objectBoundingBox">
      <stop offset="0" stop-color="#20c6b7"/>
      <stop offset="1" stop-color="#4d9abf"/>
    </radialGradient>
  </defs>
  <path id="Path_3055" data-name="Path 3055" d="M53.8,13.872l.136,2.433a7.546,7.546,0,0,1,6.117-2.823q6.561,0,6.678,7.533V34.929H62.015V21.287a4.348,4.348,0,0,0-.864-2.968,3.63,3.63,0,0,0-2.825-.963,4.543,4.543,0,0,0-4.251,2.588V34.929H49.356V13.872H53.8ZM80.789,35.319a9.747,9.747,0,0,1-7.27-2.831,10.285,10.285,0,0,1-2.787-7.542v-.583a12.657,12.657,0,0,1,1.213-5.634,9.256,9.256,0,0,1,3.408-3.864,9,9,0,0,1,4.893-1.381,8.235,8.235,0,0,1,6.629,2.743q2.342,2.745,2.34,7.765V25.9H75.488a6.336,6.336,0,0,0,1.738,4.125,5.213,5.213,0,0,0,3.835,1.518,6.381,6.381,0,0,0,5.281-2.627l2.543,2.433a8.507,8.507,0,0,1-3.368,2.928,10.526,10.526,0,0,1-4.727,1.041ZM80.226,17.28a3.967,3.967,0,0,0-3.135,1.362,7.063,7.063,0,0,0-1.524,3.8h8.99v-.351a5.762,5.762,0,0,0-1.262-3.59A3.94,3.94,0,0,0,80.226,17.28Zm18.56-8.525v5.118H102.5v3.5H98.787V29.13a2.6,2.6,0,0,0,.476,1.741,2.2,2.2,0,0,0,1.7.535,7.252,7.252,0,0,0,1.65-.195V34.87a11.566,11.566,0,0,1-3.107.447q-5.435,0-5.436-6.013V17.375H90.611v-3.5h3.456V8.754h4.717Zm12.33,26.175H106.4V5.039h4.718Zm10.154,0h-4.718V13.873h4.718ZM116.261,8.4A2.514,2.514,0,0,1,116.95,6.6a2.6,2.6,0,0,1,1.971-.72,2.64,2.64,0,0,1,1.982.72,2.5,2.5,0,0,1,.7,1.81,2.439,2.439,0,0,1-.7,1.78,2.657,2.657,0,0,1-1.982.711,2.622,2.622,0,0,1-1.971-.711,2.453,2.453,0,0,1-.689-1.78Zm11.8,26.526V17.375h-3.2v-3.5h3.2V11.946a7.243,7.243,0,0,1,1.941-5.41,7.43,7.43,0,0,1,5.436-1.906,10.879,10.879,0,0,1,2.642.35l-.116,3.7a9.272,9.272,0,0,0-1.806-.155q-3.379,0-3.379,3.483v1.868h4.271v3.5h-4.271V34.929h-4.717Zm19.784-6.772,4.271-14.285h5.028L148.8,38.122q-1.923,5.312-6.524,5.313a8.43,8.43,0,0,1-2.272-.351V39.425l.893.059a4.582,4.582,0,0,0,2.689-.652,4.323,4.323,0,0,0,1.427-2.189l.679-1.81-7.378-20.96H143.4Z" transform="translate(5.143 -0.422)" fill="#0e1e25" fill-rule="evenodd"/>
  <path id="Path_3056" data-name="Path 3056" d="M31.562,15.56l-.016-.007a.066.066,0,0,1-.025-.014.122.122,0,0,1-.031-.1l.856-5.232,4.013,4.014-4.174,1.776a.092.092,0,0,1-.037.007h-.017a.115.115,0,0,1-.022-.019A1.9,1.9,0,0,0,31.562,15.56Zm5.821-.319,4.291,4.291c.891.892,1.337,1.337,1.5,1.853a2.088,2.088,0,0,1,.06.231L32.979,17.274l-.017-.007c-.041-.017-.089-.035-.089-.077s.049-.062.09-.079l.013-.006Zm5.676,7.753a8.078,8.078,0,0,1-1.384,1.58l-4.838,4.837-6.257-1.3-.033-.007c-.055-.009-.114-.019-.114-.069a1.889,1.889,0,0,0-.725-1.321.108.108,0,0,1-.011-.1.035.035,0,0,1,0-.015l1.177-7.225,0-.024c.007-.055.017-.12.066-.12a1.915,1.915,0,0,0,1.284-.736c.01-.011.017-.023.03-.03a.145.145,0,0,1,.114.015l10.683,4.519Zm-7.335,7.529-7.956,7.956,1.362-8.37,0-.011a.15.15,0,0,1,.007-.032c.011-.027.04-.038.068-.049l.013-.006a2.048,2.048,0,0,0,.769-.572.169.169,0,0,1,.1-.066.1.1,0,0,1,.032,0l5.6,1.151Zm-9.639,9.639-.9.9L15.274,26.732l-.011-.015a.1.1,0,0,1-.029-.066.074.074,0,0,1,.024-.046l.011-.014c.03-.044.055-.089.083-.136l.022-.039,0,0a.158.158,0,0,1,.056-.066.134.134,0,0,1,.081,0L26.5,28.608a.182.182,0,0,1,.084.037.081.081,0,0,1,.021.048,1.945,1.945,0,0,0,1.138,1.3c.031.016.018.05,0,.086a.264.264,0,0,0-.017.05C27.591,30.971,26.4,38.209,26.085,40.163Zm-1.873,1.872a4.163,4.163,0,0,1-1.491,1.14,2.214,2.214,0,0,1-1.335,0c-.516-.164-.962-.609-1.853-1.5L9.576,31.718l2.6-4.033a.166.166,0,0,1,.044-.052.115.115,0,0,1,.1,0,2.7,2.7,0,0,0,1.813-.092c.03-.011.06-.019.083,0a.211.211,0,0,1,.031.035l9.963,14.458ZM8.616,30.758,6.332,28.474l4.51-1.924a.093.093,0,0,1,.037-.008c.038,0,.06.038.08.072q.068.1.144.2l.014.018c.013.019,0,.038-.009.055L8.617,30.758ZM5.321,27.464l-2.89-2.89c-.492-.492-.848-.848-1.1-1.155l8.786,1.822.033.006c.054.009.114.019.114.07s-.065.081-.121.1l-.025.011Zm-4.49-5.53a2.214,2.214,0,0,1,.1-.548c.164-.516.609-.961,1.5-1.853l3.7-3.7q2.554,3.706,5.121,7.4c.03.04.063.084.029.117a3.073,3.073,0,0,0-.437.585.177.177,0,0,1-.055.069.061.061,0,0,1-.046,0h0L.831,21.932Zm6.288-7.089,4.97-4.972c.468.2,2.17.923,3.69,1.565,1.151.487,2.2.93,2.531,1.074a.122.122,0,0,1,.077.06.113.113,0,0,1,0,.066,2.218,2.218,0,0,0,.579,2.024c.033.033,0,.081-.029.122l-.016.023-5.048,7.819a.153.153,0,0,1-.048.055.128.128,0,0,1-.1,0,2.518,2.518,0,0,0-.6-.082,3.311,3.311,0,0,0-.578.07h0a.074.074,0,0,1-.06-.006.232.232,0,0,1-.05-.056L7.118,14.845ZM13.1,8.869l6.437-6.437c.891-.891,1.337-1.337,1.853-1.5a2.214,2.214,0,0,1,1.335,0c.516.163.962.609,1.853,1.5l1.395,1.395-4.578,7.09a.172.172,0,0,1-.045.053.116.116,0,0,1-.1,0,2.322,2.322,0,0,0-2.126.41c-.03.031-.074.013-.112,0-.6-.26-5.248-2.225-5.913-2.508ZM26.941,4.8l4.227,4.227-1.019,6.308v.017a.15.15,0,0,1-.009.042c-.011.022-.033.027-.055.033a2.026,2.026,0,0,0-.607.3.17.17,0,0,0-.022.019.07.07,0,0,1-.044.028.126.126,0,0,1-.048-.008L22.923,13.03l-.012-.006c-.041-.017-.09-.037-.09-.079a2.433,2.433,0,0,0-.343-1.013c-.031-.051-.065-.1-.039-.156Zm-4.353,9.528,6.038,2.557c.033.015.07.03.084.064a.117.117,0,0,1,0,.063,1.5,1.5,0,0,0-.033.291v.169c0,.042-.043.06-.083.076l-.012,0c-.957.409-13.429,5.727-13.448,5.727a.071.071,0,0,1-.058-.019c-.033-.033,0-.08.03-.122l.015-.022,4.962-7.683.009-.013c.029-.046.062-.1.115-.1l.05.008a2.314,2.314,0,0,0,.313.03,2.242,2.242,0,0,0,1.871-.993.177.177,0,0,1,.038-.044.112.112,0,0,1,.108,0ZM15.673,24.5l13.6-5.8a.06.06,0,0,1,.039.019,1.84,1.84,0,0,0,.2.17l.03.019c.028.016.055.033.058.062a.112.112,0,0,1,0,.028l-1.165,7.154,0,.029c-.008.055-.015.118-.068.118a1.914,1.914,0,0,0-1.52.938l-.006.009a.154.154,0,0,1-.055.063.124.124,0,0,1-.077,0L15.853,25.071c-.011,0-.168-.575-.18-.576Z" transform="translate(-0.831 -0.829)" fill="url(#radial-gradient)"/>
</svg>
