<svg id="node-logo" xmlns="http://www.w3.org/2000/svg" xmlns:xlink="http://www.w3.org/1999/xlink" width="81.66" height="50.013" viewBox="0 0 81.66 50.013">
  <defs>
    <clipPath id="clip-path">
      <path id="Path_3062" data-name="Path 3062" d="M202.6,226.051l-7.777,4.489a.939.939,0,0,0-.47.813v8.984a.938.938,0,0,0,.47.813l7.778,4.492a.942.942,0,0,0,.94,0l7.776-4.492a.941.941,0,0,0,.469-.813v-8.984a.939.939,0,0,0-.471-.813l-7.775-4.489a.945.945,0,0,0-.941,0" transform="translate(-194.354 -225.925)"/>
    </clipPath>
    <linearGradient id="linear-gradient" x1="-0.847" y1="-1.034" x2="-0.838" y2="-1.034" gradientUnits="objectBoundingBox">
      <stop offset="0.3" stop-color="#3e863d"/>
      <stop offset="0.5" stop-color="#55934f"/>
      <stop offset="0.8" stop-color="#5aad45"/>
    </linearGradient>
    <clipPath id="clip-path-2">
      <path id="Path_3064" data-name="Path 3064" d="M195.4,241.025a.941.941,0,0,0,.277.243l6.671,3.853,1.111.639a.943.943,0,0,0,.542.123.961.961,0,0,0,.185-.034l8.2-15.019a.93.93,0,0,0-.219-.173l-5.092-2.941-2.692-1.549a.982.982,0,0,0-.244-.1Zm0,0" transform="translate(-195.398 -226.069)"/>
    </clipPath>
    <linearGradient id="linear-gradient-2" x1="-0.742" y1="-0.932" x2="-0.737" y2="-0.932" gradientUnits="objectBoundingBox">
      <stop offset="0.57" stop-color="#3e863d"/>
      <stop offset="0.72" stop-color="#619857"/>
      <stop offset="1" stop-color="#76ac64"/>
    </linearGradient>
    <clipPath id="clip-path-3">
      <path id="Path_3066" data-name="Path 3066" d="M205.152,225.937a.949.949,0,0,0-.376.12l-7.755,4.476,8.362,15.231a.933.933,0,0,0,.334-.115l7.777-4.492a.942.942,0,0,0,.454-.642l-8.525-14.563a.977.977,0,0,0-.19-.019c-.026,0-.052,0-.078,0" transform="translate(-197.021 -225.934)"/>
    </clipPath>
    <linearGradient id="linear-gradient-3" x1="-2.148" y1="-2.103" x2="-2.138" y2="-2.103" gradientUnits="objectBoundingBox">
      <stop offset="0.16" stop-color="#6bbf47"/>
      <stop offset="0.38" stop-color="#79b461"/>
      <stop offset="0.47" stop-color="#75ac64"/>
      <stop offset="0.7" stop-color="#659e5a"/>
      <stop offset="0.9" stop-color="#3e863d"/>
    </linearGradient>
  </defs>
  <path id="Path_3057" data-name="Path 3057" d="M179.2,182.032a1.552,1.552,0,0,1-.773-.207l-2.462-1.458c-.368-.206-.188-.278-.067-.32a4.97,4.97,0,0,0,1.113-.508.187.187,0,0,1,.183.013l1.891,1.122a.249.249,0,0,0,.229,0l7.375-4.257a.233.233,0,0,0,.113-.2v-8.51a.237.237,0,0,0-.114-.2l-7.372-4.253a.227.227,0,0,0-.227,0l-7.37,4.253a.235.235,0,0,0-.117.2v8.51a.227.227,0,0,0,.114.2l2.02,1.167c1.1.548,1.767-.1,1.767-.748v-8.4a.21.21,0,0,1,.214-.212h.934a.211.211,0,0,1,.212.212v8.4a2.045,2.045,0,0,1-2.184,2.3,3.161,3.161,0,0,1-1.7-.462l-1.935-1.115a1.559,1.559,0,0,1-.773-1.346v-8.51a1.55,1.55,0,0,1,.773-1.344l7.382-4.259a1.617,1.617,0,0,1,1.551,0l7.373,4.26a1.556,1.556,0,0,1,.773,1.344v8.51a1.56,1.56,0,0,1-.773,1.344l-7.373,4.259a1.55,1.55,0,0,1-.777.207" transform="translate(-138.841 -132.019)" fill="#689f63"/>
  <path id="Path_3058" data-name="Path 3058" d="M213.745,193.5c-3.227,0-3.9-1.481-3.9-2.724a.212.212,0,0,1,.214-.212h.953a.213.213,0,0,1,.21.181c.144.971.572,1.46,2.523,1.46,1.554,0,2.215-.351,2.215-1.175,0-.474-.188-.827-2.6-1.063-2.02-.2-3.267-.644-3.267-2.259,0-1.488,1.255-2.374,3.358-2.374,2.361,0,3.531.82,3.679,2.581a.215.215,0,0,1-.057.164.22.22,0,0,1-.157.068h-.958a.212.212,0,0,1-.207-.166c-.231-1.021-.788-1.348-2.3-1.348-1.7,0-1.894.591-1.894,1.034,0,.537.233.694,2.522,1,2.267.3,3.343.725,3.343,2.319s-1.34,2.527-3.677,2.527m8.983-9.025h.247a.215.215,0,0,0,.242-.225c0-.218-.15-.218-.233-.218h-.255Zm-.3-.7h.548c.188,0,.557,0,.557.421a.366.366,0,0,1-.3.391c.22.015.234.159.264.362a1.556,1.556,0,0,0,.083.421h-.338c-.009-.074-.061-.48-.061-.5-.022-.09-.054-.135-.166-.135h-.279v.639h-.308Zm-.659.794a1.192,1.192,0,1,0,1.187-1.189,1.193,1.193,0,0,0-1.187,1.189m2.614.006a1.421,1.421,0,1,1-1.421-1.421,1.426,1.426,0,0,1,1.421,1.421" transform="translate(-171.106 -149.35)" fill="#689f63"/>
  <path id="Path_3059" data-name="Path 3059" d="M17.525,16.715a.944.944,0,0,0-.472-.821L9.234,11.4a.913.913,0,0,0-.43-.124H8.723a.929.929,0,0,0-.432.124l-7.818,4.5A.951.951,0,0,0,0,16.716L.017,28.833a.465.465,0,0,0,.234.408.447.447,0,0,0,.469,0l4.648-2.662a.953.953,0,0,0,.473-.82V20.1a.942.942,0,0,1,.472-.818l1.979-1.14a.939.939,0,0,1,.473-.127.922.922,0,0,1,.47.127l1.978,1.139a.942.942,0,0,1,.473.818v5.66a.956.956,0,0,0,.473.82l4.645,2.66a.462.462,0,0,0,.473,0,.474.474,0,0,0,.234-.408Zm36.9,6.309a.235.235,0,0,1-.118.2l-2.686,1.548a.237.237,0,0,1-.236,0l-2.686-1.548a.234.234,0,0,1-.118-.2v-3.1a.238.238,0,0,1,.116-.2l2.684-1.551a.239.239,0,0,1,.238,0L54.3,19.719a.235.235,0,0,1,.118.2ZM55.146.06a.472.472,0,0,0-.7.413v12a.33.33,0,0,1-.5.286L51.989,11.63a.943.943,0,0,0-.944,0l-7.821,4.514a.942.942,0,0,0-.473.816V25.99a.945.945,0,0,0,.473.818l7.821,4.517a.948.948,0,0,0,.945,0l7.821-4.519a.947.947,0,0,0,.473-.818V3.482a.947.947,0,0,0-.485-.825ZM81.191,19.842a.944.944,0,0,0,.469-.816V16.837a.945.945,0,0,0-.47-.817l-7.772-4.512a.944.944,0,0,0-.947,0l-7.82,4.513a.943.943,0,0,0-.473.818v9.027a.948.948,0,0,0,.476.821l7.77,4.428a.942.942,0,0,0,.927.006l4.7-2.612a.471.471,0,0,0,0-.821l-7.868-4.515a.469.469,0,0,1-.238-.408V19.934a.469.469,0,0,1,.236-.409l2.448-1.412a.467.467,0,0,1,.471,0l2.45,1.412a.471.471,0,0,1,.236.408v2.226a.471.471,0,0,0,.709.408Zm0,0" transform="translate(0 0)" fill="#333" fill-rule="evenodd"/>
  <path id="Path_3060" data-name="Path 3060" d="M387.505,105.092a.179.179,0,0,1,.181,0l1.5.866a.181.181,0,0,1,.091.157v1.733a.181.181,0,0,1-.091.157l-1.5.866a.179.179,0,0,1-.181,0l-1.5-.866a.181.181,0,0,1-.092-.157v-1.733a.179.179,0,0,1,.09-.157Zm0,0" transform="translate(-314.674 -85.672)" fill="#689f63" fill-rule="evenodd"/>
  <g id="Group_1175" data-name="Group 1175" transform="translate(21.422 11.428)" clip-path="url(#clip-path)">
    <path id="Path_3061" data-name="Path 3061" d="M184.929,199.345,163.014,188.6l-11.236,22.922,21.914,10.742Zm0,0" transform="translate(-159.637 -195.493)" fill="url(#linear-gradient)"/>
  </g>
  <g id="Group_1176" data-name="Group 1176" transform="translate(21.615 11.455)" clip-path="url(#clip-path-2)">
    <path id="Path_3063" data-name="Path 3063" d="M144.07,197.22l15.474,20.943,20.464-15.12L164.534,182.1Zm0,0" transform="translate(-153.545 -190.217)" fill="url(#linear-gradient-2)"/>
  </g>
  <g id="Group_1177" data-name="Group 1177" transform="translate(21.914 11.43)" clip-path="url(#clip-path-3)">
    <path id="Path_3065" data-name="Path 3065" d="M197.02,225.934v19.831h16.924V225.934Zm0,0" transform="translate(-197.02 -225.934)" fill="url(#linear-gradient-3)"/>
  </g>
</svg>
