<svg id="react-logo" xmlns="http://www.w3.org/2000/svg" width="125.531" height="42.606" viewBox="0 0 125.531 42.606">
  <g id="iconfinder_react_7423887" transform="translate(0 0)">
    <ellipse id="Ellipse_6" data-name="Ellipse 6" cx="4.359" cy="4.359" rx="4.359" ry="4.359" transform="translate(19.498 16.92)" fill="#4cc8ed"/>
    <path id="Path_2985" data-name="Path 2985" d="M36.957,39.409c3.422,3.328,6.8,5.3,9.515,5.3A4.71,4.71,0,0,0,48.91,44.1c2.437-1.406,3.328-4.921,2.484-9.937-.141-.891-.328-1.781-.562-2.719.937-.281,1.781-.562,2.625-.844,4.734-1.828,7.359-4.359,7.359-7.124,0-2.812-2.625-5.343-7.359-7.124a21.5,21.5,0,0,0-2.625-.844c.234-.937.422-1.828.562-2.719.8-5.109-.094-8.671-2.531-10.077A4.71,4.71,0,0,0,46.425,2.1c-2.672,0-6.093,1.969-9.515,5.3-3.375-3.328-6.749-5.3-9.468-5.3a4.71,4.71,0,0,0-2.437.609c-2.437,1.406-3.328,4.921-2.484,9.937.141.891.328,1.781.562,2.719-.937.281-1.781.562-2.625.844-4.734,1.828-7.359,4.359-7.359,7.124,0,2.812,2.625,5.343,7.359,7.124a21.5,21.5,0,0,0,2.625.844c-.234.937-.422,1.828-.562,2.719-.8,5.015.094,8.577,2.484,9.937a4.71,4.71,0,0,0,2.437.609c2.719.094,6.093-1.875,9.515-5.156Zm-2.625-6.328c.844.047,1.734.047,2.625.047s1.781,0,2.625-.047c-.844,1.125-1.734,2.156-2.625,3.14C36.067,35.238,35.176,34.207,34.333,33.082Zm-5.812-4.828c.469.8.891,1.547,1.406,2.3-1.453-.187-2.812-.422-4.125-.7.422-1.266.891-2.578,1.453-3.89.375.75.8,1.547,1.266,2.3ZM25.8,16.958c1.312-.281,2.672-.516,4.125-.7-.469.75-.937,1.5-1.406,2.3S27.63,20.1,27.255,20.9A31.334,31.334,0,0,1,25.8,16.958Zm2.578,6.421c.609-1.266,1.266-2.531,2.015-3.8.7-1.219,1.5-2.437,2.3-3.656,1.406-.094,2.812-.141,4.265-.141,1.5,0,2.906.047,4.265.141.844,1.219,1.594,2.437,2.3,3.656.75,1.266,1.406,2.531,2.015,3.8-.609,1.266-1.266,2.531-2.015,3.8-.7,1.219-1.5,2.437-2.3,3.656-1.406.094-2.812.141-4.265.141-1.5,0-2.906-.047-4.265-.141-.844-1.219-1.594-2.437-2.3-3.656-.75-1.266-1.406-2.531-2.015-3.8Zm18.327-2.531L45.441,18.5c-.469-.8-.891-1.547-1.406-2.3,1.453.187,2.812.422,4.125.7-.422,1.312-.891,2.625-1.453,3.937Zm0,5.062c.562,1.312,1.031,2.625,1.453,3.89-1.312.281-2.672.516-4.125.7.469-.75.937-1.5,1.406-2.3.422-.7.844-1.5,1.266-2.3Zm1.078,16.264a2.543,2.543,0,0,1-1.359.328c-2.3,0-5.156-1.875-7.968-4.687a49.073,49.073,0,0,0,3.984-4.921,42.927,42.927,0,0,0,6.281-.984,24.23,24.23,0,0,1,.516,2.531C49.894,38.425,49.378,41.284,47.785,42.175Zm2.437-24.7c5.25,1.5,8.39,3.8,8.39,5.906,0,1.828-2.156,3.656-5.953,5.109-.75.281-1.594.562-2.437.8a49.262,49.262,0,0,0-2.3-5.906,42.452,42.452,0,0,0,2.3-5.906ZM46.472,4.256a2.655,2.655,0,0,1,1.359.328c1.547.891,2.109,3.7,1.453,7.734-.141.8-.328,1.64-.516,2.531a60.828,60.828,0,0,0-6.281-.984A43.3,43.3,0,0,0,38.5,8.943C41.316,6.178,44.176,4.256,46.472,4.256Zm-6.89,9.421c-.844-.047-1.734-.047-2.625-.047s-1.781,0-2.625.047c.844-1.125,1.734-2.156,2.625-3.14.891.984,1.781,2.062,2.625,3.14ZM26.13,4.584a2.543,2.543,0,0,1,1.359-.328c2.3,0,5.156,1.875,7.968,4.687a49.073,49.073,0,0,0-3.984,4.921,42.927,42.927,0,0,0-6.281.984,24.228,24.228,0,0,1-.516-2.531C24.021,8.334,24.537,5.522,26.13,4.584Zm-2.437,24.7c-5.25-1.5-8.39-3.8-8.39-5.906,0-1.828,2.156-3.656,5.953-5.109.75-.281,1.594-.562,2.437-.8a49.263,49.263,0,0,0,2.3,5.906A44.849,44.849,0,0,0,23.693,29.285Zm.984,5.156c.141-.8.328-1.64.516-2.531a60.827,60.827,0,0,0,6.281.984,43.305,43.305,0,0,0,3.984,4.921c-2.812,2.765-5.671,4.687-7.968,4.687a2.655,2.655,0,0,1-1.359-.328C24.537,41.284,24.021,38.425,24.677,34.441Z" transform="translate(-13.1 -2.1)" fill="#4cc8ed"/>
  </g>
  <path id="Path_2986" data-name="Path 2986" d="M36.708,378.453a5.854,5.854,0,0,0,.79-6.246,5.056,5.056,0,0,0-4.882-3.231c-2.656-.072-5.384,0-8.041,0h-.5V387.57h2.154v-7.036H29.6a1.086,1.086,0,0,1,1.005.5l4.307,6.677c.072.144.287.359.431.359h2.8c-1.723-2.656-3.374-5.169-5.1-7.753A5.212,5.212,0,0,0,36.708,378.453Zm-10.482-.144V371.2h.79c1.651,0,3.374-.072,5.025.072a3.388,3.388,0,0,1,3.3,3.518,3.571,3.571,0,0,1-3.518,3.518C30.1,378.381,28.38,378.309,26.226,378.309Zm27.783.933a6.475,6.475,0,0,0-9.261-4.738c-2.728,1.22-3.949,3.59-4.02,6.533a6.96,6.96,0,0,0,2.3,5.743c1.938,1.723,4.307,1.938,6.748,1.508a6.584,6.584,0,0,0,3.518-1.938c-.359-.5-.718-1.005-1.077-1.436-2.01,1.723-4.236,2.3-6.677,1.149a5.333,5.333,0,0,1-2.513-4.164H54.153v-.933a4.428,4.428,0,0,0-.144-1.723Zm-10.84,1.149a4.438,4.438,0,0,1,4.307-4.451c2.728-.072,4.451,1.579,4.523,4.451Zm22.04-6.246a12.793,12.793,0,0,0-3.3-.215,6.827,6.827,0,0,0-4.451,2.226c.359.5.646,1.005,1.077,1.579a1.9,1.9,0,0,1,.431-.359,5.2,5.2,0,0,1,4.164-1.508c1.292.072,2.513.5,2.872,1.795a15.214,15.214,0,0,1,.287,3.159.422.422,0,0,1-.359-.144,6.2,6.2,0,0,0-5.743-1.22,4.274,4.274,0,0,0-3.3,3.948,4.383,4.383,0,0,0,2.8,4.666,6.49,6.49,0,0,0,3.877.215c1.005-.215,1.436-.79,2.872-1.579v.933h2.01c0-2.872.072-6.389,0-9.692a3.681,3.681,0,0,0-3.231-3.8Zm1.005,9.046a1.952,1.952,0,0,0,0,.646c0,1.508-.359,2.01-1.795,2.585a4.761,4.761,0,0,1-3.159.144,2.824,2.824,0,0,1-2.082-2.656,2.78,2.78,0,0,1,1.938-2.8,4.678,4.678,0,0,1,4.523.79A1.2,1.2,0,0,1,66.214,383.191Zm11.2-7.107a4.26,4.26,0,0,1,4.882,1.364l.215.144c.5-.431.933-.862,1.508-1.364a2.994,2.994,0,0,1-.431-.574,7.023,7.023,0,0,0-8.687-.718c-3.518,2.584-3.446,7.61-1.723,10.266A6.576,6.576,0,0,0,80,388.216a6.053,6.053,0,0,0,4.092-2.369c-.5-.431-1.005-.862-1.508-1.364a1.26,1.26,0,0,0-.287.359,4.4,4.4,0,0,1-6.892-.359,5.676,5.676,0,0,1-.933-4.523A4.207,4.207,0,0,1,77.413,376.084Zm14.933,9.764a.888.888,0,0,0-.215.144,1.818,1.818,0,0,1-1.795.287c-.646-.287-.718-.862-.79-1.436v-8.184c0-.144,0,.144.072-.574h2.728V373.93H89.474v-3.59H87.321v3.877H85.454c-.144,0-.359.144-.359.287a11.475,11.475,0,0,0,0,1.579h2.3v9.189A2.847,2.847,0,0,0,88.685,388a4.159,4.159,0,0,0,4.092-.287c.144-.072.215-.359.215-.431C92.777,386.852,92.561,386.35,92.346,385.847Z" transform="translate(32.539 -357.41)" fill="#4cc8ed"/>
</svg>
