<svg xmlns="http://www.w3.org/2000/svg" width="119.01" height="89.251" viewBox="0 0 119.01 89.251">
  <path id="sass-logo" d="M102.451,51.28a24.64,24.64,0,0,0-10.782,2.5c-1.109-2.2-2.217-4.152-2.413-5.587a15,15,0,0,1-.217-4.7,41.7,41.7,0,0,1,1.413-5.065c-.022-.217-.261-1.239-2.652-1.261s-4.456.456-4.7,1.087a26.23,26.23,0,0,0-1,3.543c-.413,2.174-4.782,9.934-7.282,14a15.1,15.1,0,0,1-1.652-4.087,15,15,0,0,1-.217-4.7,41.7,41.7,0,0,1,1.413-5.065c-.022-.217-.261-1.239-2.652-1.261s-4.456.456-4.7,1.087-.5,2.109-1,3.543-6.3,14.39-7.826,17.738c-.783,1.717-1.456,3.087-1.935,4.021h0a.991.991,0,0,1-.087.174c-.413.8-.652,1.239-.652,1.239v.022c-.326.587-.674,1.13-.848,1.13a7.273,7.273,0,0,1,.043-3.7c.87-4.5,2.935-11.5,2.913-11.738,0-.13.391-1.348-1.348-1.978a2.158,2.158,0,0,0-2.456.413c-.152,0-.261.37-.261.37s1.891-7.869-3.608-7.869c-3.435,0-8.173,3.761-10.521,7.152-1.478.8-4.63,2.522-8,4.369-1.283.717-2.609,1.435-3.848,2.109-.087-.087-.174-.2-.261-.283C20.674,51.389,8.37,46.368,8.892,36.825c.2-3.478,1.391-12.608,23.629-23.694,18.3-9.021,32.867-6.521,35.389-.978,3.608,7.913-7.8,22.607-26.716,24.738-7.217.8-11-1.978-11.956-3.022-1-1.087-1.152-1.152-1.522-.935-.609.326-.217,1.3,0,1.869.565,1.478,2.891,4.087,6.826,5.369,3.478,1.13,11.934,1.761,22.172-2.2C68.171,33.542,77.127,21.217,74.5,10.892,71.866.414,54.476-3.042,38.02,2.805,28.238,6.283,17.63,11.761,10,18.891.936,27.369-.5,34.738.088,37.825,2.2,48.781,17.3,55.91,23.347,61.193c-.3.174-.587.326-.826.456C19.5,63.149,7.979,69.17,5.11,75.54c-3.261,7.217.522,12.39,3.022,13.086,7.76,2.152,15.738-1.717,20.02-8.108s3.761-14.695,1.782-18.5a.455.455,0,0,0-.087-.13c.783-.456,1.587-.935,2.369-1.391,1.543-.913,3.065-1.761,4.369-2.456a28.65,28.65,0,0,0-1.543,7.913c-.326,4.087,1.348,9.391,3.543,11.478a3.915,3.915,0,0,0,2.869.935c2.565,0,3.717-2.13,5-4.652,1.565-3.087,2.978-6.673,2.978-6.673s-1.761,9.7,3.022,9.7c1.739,0,3.5-2.261,4.282-3.413v.022s.043-.065.13-.217c.174-.283.283-.456.283-.456v-.043c.7-1.217,2.261-3.978,4.587-8.565,3-5.913,5.891-13.3,5.891-13.3a37.779,37.779,0,0,0,1.152,4.8,45.236,45.236,0,0,0,2.478,5.565c-.7.978-1.13,1.522-1.13,1.522l.022.022c-.565.739-1.174,1.543-1.848,2.326-2.369,2.826-5.2,6.065-5.587,7a1.9,1.9,0,0,0,.522,2.565,4.743,4.743,0,0,0,2.913.478,13.376,13.376,0,0,0,4.369-1,14.664,14.664,0,0,0,3.761-1.978,8.415,8.415,0,0,0,3.608-7.413,14.966,14.966,0,0,0-1.369-5.239c.217-.3.413-.609.63-.913a99.578,99.578,0,0,0,6.521-11.26,37.778,37.778,0,0,0,1.152,4.8,32.178,32.178,0,0,0,2.109,4.782,20.661,20.661,0,0,0-6.347,8.2c-1.369,3.956-.3,5.739,1.717,6.152a6.058,6.058,0,0,0,3.174-.652A14.456,14.456,0,0,0,89.5,68.453c2.326-1.717,4.565-4.108,4.434-7.347a13.89,13.89,0,0,0-1-4.348,22.766,22.766,0,0,1,11.543-1.326c10.347,1.217,12.39,7.673,12,10.391a6.876,6.876,0,0,1-3.282,4.652c-.717.456-.956.609-.891.935.087.478.435.456,1.043.37a8.081,8.081,0,0,0,5.63-7.2C119.3,58.193,113.211,51.215,102.451,51.28ZM22.63,78.192c-3.435,3.739-8.217,5.152-10.282,3.956-2.217-1.283-1.348-6.8,2.869-10.76a54.761,54.761,0,0,1,8.065-6.021c.5-.3,1.239-.739,2.13-1.283.152-.087.239-.13.239-.13h0l.522-.326A14.847,14.847,0,0,1,22.63,78.192Zm25-17c-1.2,2.913-3.7,10.369-5.217,9.956-1.3-.348-2.109-6-.261-11.586a26.322,26.322,0,0,1,4.065-7.456c1.869-2.087,3.935-2.782,4.434-1.935C51.28,51.28,48.368,59.367,47.628,61.193Zm20.629,9.869c-.5.261-.978.435-1.2.3-.152-.087.217-.435.217-.435s2.587-2.782,3.608-4.043c.587-.739,1.283-1.609,2.022-2.587v.283C72.909,67.91,69.692,70.149,68.258,71.062Zm15.912-3.63c-.37-.261-.3-1.13.935-3.848a14.483,14.483,0,0,1,3.543-4.565,6.154,6.154,0,0,1,.348,2C88.974,65.214,85.974,66.779,84.17,67.431Z" transform="translate(0.026 0.026)" fill="#cd6799"/>
</svg>
